<?xml version="1.0" encoding="UTF-8" standalone="no"?>
<!DOCTYPE svg PUBLIC "-//W3C//DTD SVG 1.1//EN" "http://www.w3.org/Graphics/SVG/1.1/DTD/svg11.dtd">
<svg xmlns="http://www.w3.org/2000/svg" version="1.1" viewBox="0.00 0.00 1280.00 1280.00">
<g stroke-width="2.00" fill="none" stroke-linecap="butt">
<path stroke="#71402b" vector-effect="non-scaling-stroke" d="
  M 822.50 445.08
  L 827.51 445.81
  A 0.58 0.58 0.0 0 0 828.12 444.98
  Q 825.20 439.05 830.15 434.90
  Q 842.68 424.42 856.97 416.54"
/>
<path stroke="#7d5438" vector-effect="non-scaling-stroke" d="
  M 856.97 416.54
  Q 872.87 410.16 890.00 410.05
  Q 902.43 409.97 909.92 409.08
  Q 918.09 408.11 922.81 405.02
  Q 931.34 399.43 938.44 395.76
  A 0.72 0.72 0.0 0 0 938.73 394.76
  C 933.38 385.33 924.04 373.94 914.14 369.10
  Q 896.28 360.37 875.52 362.95"
/>
<path stroke="#71402b" vector-effect="non-scaling-stroke" d="
  M 875.52 362.95
  Q 862.25 364.14 852.04 369.53
  Q 839.47 376.17 828.81 388.30
  A 0.12 0.12 0.0 0 1 828.67 388.32
  Q 828.56 388.25 828.45 388.18"
/>
<path stroke="#71402b" vector-effect="non-scaling-stroke" d="
  M 823.06 397.77
  Q 825.10 395.28 826.07 392.08"
/>
<path stroke="#71402b" vector-effect="non-scaling-stroke" d="
  M 826.07 392.08
  Q 827.43 391.08 827.83 389.30"
/>
<path stroke="#71402b" vector-effect="non-scaling-stroke" d="
  M 827.83 389.30
  Q 828.92 389.20 828.45 388.18"
/>
<path stroke="#e0844c" vector-effect="non-scaling-stroke" d="
  M 856.97 416.54
  Q 855.74 416.82 855.40 415.87
  A 0.89 0.87 -46.8 0 1 855.39 415.28
  C 857.47 408.78 858.50 402.45 860.30 393.10
  Q 861.43 387.18 862.55 385.05
  C 865.01 380.34 869.56 376.43 874.40 374.41
  Q 883.44 370.63 894.02 369.25
  A 0.53 0.52 81.9 0 0 894.47 368.65
  C 894.04 365.68 891.06 364.90 888.21 364.65
  Q 881.83 364.08 875.52 362.95"
/>
<path stroke="#26577f" vector-effect="non-scaling-stroke" d="
  M 917.11 432.24
  Q 921.15 430.82 924.85 432.36
  A 3.20 3.16 -9.2 0 1 926.00 433.18
  C 930.31 437.97 934.30 443.65 938.38 444.38
  C 946.54 445.84 957.64 441.64 959.24 432.23
  C 960.83 422.82 959.50 414.28 956.76 403.51
  C 955.40 398.12 952.46 393.89 946.30 396.10
  C 939.70 398.46 932.53 402.51 926.12 406.62
  C 920.16 410.43 914.14 413.03 908.00 412.99
  Q 904.46 412.97 882.56 413.87
  Q 868.05 414.47 856.22 420.69
  Q 845.71 426.22 836.03 434.04
  C 833.91 435.75 830.87 438.82 831.21 441.74
  C 832.11 449.50 838.41 452.25 845.19 455.10
  Q 850.79 457.44 854.08 458.55
  Q 871.81 464.49 889.56 459.77
  Q 903.30 456.11 910.28 443.54
  Q 915.30 434.48 915.81 433.42
  A 2.28 2.26 2.5 0 1 917.11 432.24"
/>
<path stroke="#71402b" vector-effect="non-scaling-stroke" d="
  M 893.78 462.47
  Q 877.44 467.75 860.73 464.56
  C 853.82 463.24 847.33 460.51 840.83 457.91
  Q 839.36 457.32 837.92 458.16
  A 0.68 0.68 0.0 0 1 837.15 458.11
  Q 833.82 455.50 831.31 452.09
  C 829.52 449.67 827.28 448.13 824.53 448.07
  C 819.79 447.97 816.51 448.80 814.09 453.10
  C 809.69 460.89 812.49 470.55 818.15 476.85
  C 822.63 481.85 830.37 487.30 837.23 486.54
  C 840.45 486.18 840.67 484.75 841.34 482.09
  A 0.93 0.92 -62.2 0 1 842.85 481.62
  Q 844.89 483.44 846.25 485.83
  C 857.52 505.65 883.27 516.78 904.78 520.00"
/>
<path stroke="#7d5438" vector-effect="non-scaling-stroke" d="
  M 904.78 520.00
  C 916.09 522.15 929.13 522.59 936.35 511.90"
/>
<path stroke="#848589" vector-effect="non-scaling-stroke" d="
  M 936.35 511.90
  C 941.89 503.45 945.73 493.38 948.99 483.51
  C 953.20 470.73 954.88 459.80 952.47 446.89
  A 0.49 0.49 0.0 0 0 951.79 446.53
  L 949.61 447.50"
/>
<path stroke="#7d5438" vector-effect="non-scaling-stroke" d="
  M 949.61 447.50
  Q 943.13 449.68 936.89 448.05
  A 0.73 0.73 0.0 0 0 936.00 448.58
  C 934.87 453.28 930.81 460.16 925.26 459.95
  A 0.28 0.28 0.0 0 1 925.09 459.45
  Q 930.18 455.24 932.43 449.01
  Q 933.35 446.47 931.49 444.54
  Q 928.07 441.00 925.05 437.97
  C 923.03 435.96 919.68 433.59 917.85 437.11
  C 911.98 448.43 906.35 457.61 893.78 462.47"
/>
<path stroke="#f3c9a9" vector-effect="non-scaling-stroke" d="
  M 949.61 447.50
  Q 951.98 454.89 951.12 462.13
  C 950.02 471.49 947.42 480.65 943.58 490.56
  C 939.93 499.97 938.64 503.99 935.09 510.50
  A 0.68 0.68 0.0 0 0 935.68 511.51
  Q 935.81 511.51 936.35 511.90"
/>
<path stroke="#e0844c" vector-effect="non-scaling-stroke" d="
  M 904.78 520.00
  L 901.36 516.71
  A 2.06 2.01 74.4 0 0 900.50 516.21
  C 891.30 513.60 883.58 507.20 877.00 500.48
  C 870.09 493.43 865.35 485.52 862.02 476.69
  Q 860.99 473.95 860.68 471.01
  A 1.03 1.03 0.0 0 1 861.65 469.88
  Q 874.06 469.18 883.41 468.06
  Q 889.94 467.29 893.78 462.47"
/>
<path stroke="#26577f" vector-effect="non-scaling-stroke" d="
  M 946.69 402.24
  Q 938.20 405.25 930.53 410.15"
/>
<path stroke="#2d77bf" vector-effect="non-scaling-stroke" d="
  M 930.53 410.15
  Q 922.25 414.50 918.63 414.91
  Q 911.47 415.71 904.26 416.80
  A 2.80 2.76 -62.8 0 0 903.35 417.10
  Q 901.39 418.13 900.24 418.15
  Q 889.20 418.32 882.32 419.02
  C 878.57 419.40 875.03 420.56 871.46 421.25
  C 865.24 422.45 860.08 424.68 854.88 428.36
  A 3.95 3.91 75.4 0 0 853.24 431.18
  C 852.60 437.69 854.60 445.27 859.91 449.60
  Q 870.12 457.92 883.26 455.78
  C 892.64 454.24 902.02 450.44 906.48 441.75
  C 908.23 438.35 909.10 435.97 911.03 434.11
  C 915.05 430.24 920.04 429.35 925.22 428.66
  A 1.12 1.12 0.0 0 1 926.18 429.01
  C 928.08 431.07 930.07 431.50 932.11 433.82
  C 937.70 440.17 943.66 440.76 950.90 436.93
  C 954.28 435.14 955.59 432.31 955.95 428.51
  Q 957.26 414.66 952.65 402.33
  A 2.32 2.31 68.2 0 0 949.58 401.01
  L 946.69 402.24"
/>
<path stroke="#153057" vector-effect="non-scaling-stroke" d="
  M 930.53 410.15
  L 927.19 414.66
  A 2.66 2.56 72.0 0 0 926.78 415.50
  Q 925.30 421.05 926.91 426.10"
/>
<path stroke="#8ba5c9" vector-effect="non-scaling-stroke" d="
  M 926.91 426.10
  Q 926.82 430.38 931.49 429.95"
/>
<path stroke="#153057" vector-effect="non-scaling-stroke" d="
  M 931.49 429.95
  Q 933.25 431.76 936.00 432.20
  Q 939.06 432.70 939.64 428.59"
/>
<path stroke="#8ba5c9" vector-effect="non-scaling-stroke" d="
  M 939.64 428.59
  Q 939.98 429.10 940.37 428.67
  Q 942.17 426.65 942.50 423.96"
/>
<path stroke="#153057" vector-effect="non-scaling-stroke" d="
  M 942.50 423.96
  L 943.26 424.48
  A 0.46 0.46 0.0 0 0 943.89 424.38
  Q 944.22 423.95 944.70 424.42
  C 946.60 426.32 946.93 430.03 947.70 432.12
  A 2.06 2.05 -14.9 0 0 949.97 433.43
  L 949.99 433.43
  A 1.27 1.27 0.0 0 0 950.91 431.58
  Q 947.98 425.99 947.59 420.97
  C 947.43 418.87 946.20 417.23 946.13 415.00
  Q 945.87 405.97 945.76 405.52
  A 1.07 1.05 58.6 0 1 945.98 404.58
  Q 946.94 403.45 947.79 402.98
  A 0.38 0.38 0.0 0 0 947.49 402.28
  Q 947.25 402.36 946.69 402.24"
/>
<path stroke="#848589" vector-effect="non-scaling-stroke" d="
  M 942.50 423.96
  Q 942.69 422.56 942.55 422.46
  A 1.74 1.70 -71.5 0 0 939.88 423.83
  L 939.64 428.59"
/>
<path stroke="#848589" vector-effect="non-scaling-stroke" d="
  M 931.49 429.95
  Q 931.97 427.33 931.32 424.66
  A 1.22 1.21 76.3 0 0 929.86 423.77
  Q 928.90 424.00 926.91 426.10"
/>
<path stroke="#8ba5c9" vector-effect="non-scaling-stroke" d="
  M 866.25 440.39
  Q 866.90 441.18 867.48 441.50
  C 872.08 444.01 877.03 446.00 882.03 445.61
  A 0.66 0.66 0.0 0 0 882.40 444.44
  Q 880.91 443.18 880.41 441.07"
/>
<path stroke="#153057" vector-effect="non-scaling-stroke" d="
  M 880.41 441.07
  Q 883.01 445.16 886.39 443.94
  Q 890.02 442.62 890.63 438.89
  C 890.64 439.31 890.76 439.77 890.80 440.21"
/>
<path stroke="#8ba5c9" vector-effect="non-scaling-stroke" d="
  M 890.80 440.21
  Q 890.64 441.65 889.26 442.39
  A 0.24 0.24 0.0 0 0 889.20 442.77
  L 889.60 443.17
  A 0.42 0.42 0.0 0 0 890.19 443.17
  L 893.92 439.44
  A 1.25 1.25 0.0 0 0 894.15 437.99
  L 893.15 435.99"
/>
<path stroke="#153057" vector-effect="non-scaling-stroke" d="
  M 893.15 435.99
  Q 894.28 436.62 895.00 436.60
  A 0.62 0.62 0.0 0 0 895.59 435.85
  L 893.86 427.56
  A 0.57 0.54 -80.8 0 0 893.63 427.22
  Q 892.67 426.60 890.92 427.19
  C 888.87 427.89 886.74 427.60 884.67 427.49
  C 879.28 427.19 873.31 429.55 869.86 432.40
  Q 866.46 435.20 863.29 438.39
  A 1.23 1.22 -51.5 0 0 863.50 440.28
  Q 865.15 441.33 866.25 440.39"
/>
<path stroke="#848589" vector-effect="non-scaling-stroke" d="
  M 893.15 435.99
  L 892.01 434.05
  A 0.50 0.50 0.0 0 0 891.08 434.28
  L 890.80 440.21"
/>
<path stroke="#848589" vector-effect="non-scaling-stroke" d="
  M 880.41 441.07
  Q 878.16 437.39 879.68 432.89
  A 0.57 0.57 0.0 0 0 879.10 432.14
  C 875.03 432.37 869.00 437.49 866.25 440.39"
/>
<path stroke="#153057" vector-effect="non-scaling-stroke" d="
  M 933.80 414.59
  C 937.03 413.74 940.81 416.22 943.19 418.26
  A 0.47 0.47 0.0 0 0 943.97 417.91
  L 943.97 406.40
  A 0.74 0.74 0.0 0 0 942.90 405.74
  Q 937.29 408.54 933.13 412.64
  Q 932.59 413.18 932.63 413.70
  A 0.98 0.93 80.6 0 0 933.80 414.59"
/>
<path stroke="#153057" vector-effect="non-scaling-stroke" d="
  M 939.58 420.99
  A 0.77 0.77 0.0 0 0 939.70 420.08
  Q 938.58 418.05 936.32 417.39
  A 0.35 0.35 0.0 0 0 935.99 417.98
  Q 937.71 419.54 938.31 421.49
  A 0.37 0.37 0.0 0 0 938.92 421.64
  L 939.58 420.99"
/>
<path stroke="#7d5438" vector-effect="non-scaling-stroke" d="
  M 923.9305 456.5519
  A 5.34 1.89 -9.9 0 0 918.3451 455.6081
  A 5.34 1.89 -9.9 0 0 913.4095 458.3881
  A 5.34 1.89 -9.9 0 0 918.9949 459.3319
  A 5.34 1.89 -9.9 0 0 923.9305 456.5519"
/>
<path stroke="#e0844c" vector-effect="non-scaling-stroke" d="
  M 899.74 486.08
  Q 908.63 499.53 923.67 497.06
  Q 933.64 495.42 934.97 485.70
  Q 935.27 483.55 933.29 481.68"
/>
<path stroke="#7d5438" vector-effect="non-scaling-stroke" d="
  M 933.29 481.68
  Q 935.14 479.69 935.70 478.41
  Q 938.16 472.73 941.48 466.95
  A 0.78 0.78 0.0 0 0 940.89 465.79
  Q 940.06 465.69 939.05 466.06
  C 935.98 467.19 934.60 468.07 931.30 468.75
  C 925.62 469.91 920.29 470.23 915.16 471.59
  C 908.80 473.27 903.79 474.59 896.27 475.44
  Q 893.87 475.71 892.80 474.63
  A 1.38 1.36 -19.6 0 0 891.92 474.22
  Q 888.46 473.98 887.68 477.43
  A 0.64 0.64 0.0 0 0 888.23 478.21
  Q 890.30 478.45 891.86 479.26
  A 3.27 2.95 -7.3 0 1 892.48 479.69
  L 899.74 486.08"
/>
<path stroke="#71402b" vector-effect="non-scaling-stroke" d="
  M 933.29 481.68
  Q 931.21 484.00 928.60 485.09
  Q 918.61 489.28 907.25 487.26
  Q 903.84 486.65 899.74 486.08"
/>
<path stroke="#71402b" vector-effect="non-scaling-stroke" d="
  M 816.62 459.02
  Q 816.42 461.70 817.49 462.74
  A 0.37 0.37 0.0 0 0 818.12 462.47
  Q 818.14 459.22 820.12 458.25
  A 2.51 2.49 -52.6 0 1 821.71 458.03
  Q 826.13 458.89 829.81 463.07
  A 1.67 1.67 0.0 0 1 830.21 464.37
  Q 829.65 468.78 831.60 473.14
  A 1.62 1.57 -89.2 0 0 832.31 473.89
  Q 833.69 474.61 835.63 474.09
  A 0.65 0.65 0.0 0 0 835.92 473.00
  L 832.25 469.33
  A 2.57 2.57 0.0 0 1 831.66 466.61
  L 832.48 464.45
  A 2.84 2.81 36.2 0 0 832.04 461.67
  Q 829.52 458.51 826.34 456.72
  Q 820.46 453.40 816.91 458.23
  A 1.51 1.48 65.8 0 0 816.62 459.02"
/>
<path stroke="#848589" vector-effect="non-scaling-stroke" d="
  M 896.67 479.12
  Q 901.24 483.25 908.24 484.04
  Q 919.33 485.30 930.92 480.72
  A 0.79 0.78 -1.1 0 0 931.36 480.27
  L 934.59 471.77
  A 0.05 0.05 0.0 0 0 934.54 471.71
  L 900.51 478.81
  A 3.96 3.79 -46.3 0 1 899.37 478.86
  L 896.90 478.59
  A 0.31 0.30 68.9 0 0 896.67 479.12"
/>
</g>
<path fill="#0e1017" d="
  M 822.50 445.08
  L 827.51 445.81
  A 0.58 0.58 0.0 0 0 828.12 444.98
  Q 825.20 439.05 830.15 434.90
  Q 842.68 424.42 856.97 416.54
  Q 872.87 410.16 890.00 410.05
  Q 902.43 409.97 909.92 409.08
  Q 918.09 408.11 922.81 405.02
  Q 931.34 399.43 938.44 395.76
  A 0.72 0.72 0.0 0 0 938.73 394.76
  C 933.38 385.33 924.04 373.94 914.14 369.10
  Q 896.28 360.37 875.52 362.95
  Q 862.25 364.14 852.04 369.53
  Q 839.47 376.17 828.81 388.30
  A 0.12 0.12 0.0 0 1 828.67 388.32
  Q 828.56 388.25 828.45 388.18
  Q 839.56 374.13 853.43 367.45
  C 870.00 359.46 887.91 358.61 905.69 363.34
  C 914.01 365.55 920.00 369.20 926.64 375.55
  Q 936.23 384.73 942.67 393.31
  A 0.60 0.60 0.0 0 0 943.38 393.50
  C 951.62 390.05 957.24 392.32 959.80 400.68
  Q 964.18 414.96 963.12 429.58
  C 962.72 435.15 961.07 439.31 957.15 443.17
  A 2.40 2.38 62.4 0 0 956.48 445.34
  Q 959.98 462.55 954.78 479.31
  Q 949.56 496.16 940.96 512.20
  C 937.65 518.37 934.38 521.55 927.80 523.59
  Q 920.84 525.76 914.50 525.22
  Q 897.57 523.78 881.38 518.36
  Q 856.97 510.18 843.20 488.74
  A 0.88 0.88 0.0 0 0 841.80 488.64
  C 838.87 492.04 834.46 490.62 830.54 489.06
  C 819.16 484.54 811.89 478.18 809.27 466.00
  Q 806.92 455.04 815.80 447.77
  Q 817.69 446.22 822.50 445.08
  Z
  M 917.11 432.24
  Q 921.15 430.82 924.85 432.36
  A 3.20 3.16 -9.2 0 1 926.00 433.18
  C 930.31 437.97 934.30 443.65 938.38 444.38
  C 946.54 445.84 957.64 441.64 959.24 432.23
  C 960.83 422.82 959.50 414.28 956.76 403.51
  C 955.40 398.12 952.46 393.89 946.30 396.10
  C 939.70 398.46 932.53 402.51 926.12 406.62
  C 920.16 410.43 914.14 413.03 908.00 412.99
  Q 904.46 412.97 882.56 413.87
  Q 868.05 414.47 856.22 420.69
  Q 845.71 426.22 836.03 434.04
  C 833.91 435.75 830.87 438.82 831.21 441.74
  C 832.11 449.50 838.41 452.25 845.19 455.10
  Q 850.79 457.44 854.08 458.55
  Q 871.81 464.49 889.56 459.77
  Q 903.30 456.11 910.28 443.54
  Q 915.30 434.48 915.81 433.42
  A 2.28 2.26 2.5 0 1 917.11 432.24
  Z
  M 893.78 462.47
  Q 877.44 467.75 860.73 464.56
  C 853.82 463.24 847.33 460.51 840.83 457.91
  Q 839.36 457.32 837.92 458.16
  A 0.68 0.68 0.0 0 1 837.15 458.11
  Q 833.82 455.50 831.31 452.09
  C 829.52 449.67 827.28 448.13 824.53 448.07
  C 819.79 447.97 816.51 448.80 814.09 453.10
  C 809.69 460.89 812.49 470.55 818.15 476.85
  C 822.63 481.85 830.37 487.30 837.23 486.54
  C 840.45 486.18 840.67 484.75 841.34 482.09
  A 0.93 0.92 -62.2 0 1 842.85 481.62
  Q 844.89 483.44 846.25 485.83
  C 857.52 505.65 883.27 516.78 904.78 520.00
  C 916.09 522.15 929.13 522.59 936.35 511.90
  C 941.89 503.45 945.73 493.38 948.99 483.51
  C 953.20 470.73 954.88 459.80 952.47 446.89
  A 0.49 0.49 0.0 0 0 951.79 446.53
  L 949.61 447.50
  Q 943.13 449.68 936.89 448.05
  A 0.73 0.73 0.0 0 0 936.00 448.58
  C 934.87 453.28 930.81 460.16 925.26 459.95
  A 0.28 0.28 0.0 0 1 925.09 459.45
  Q 930.18 455.24 932.43 449.01
  Q 933.35 446.47 931.49 444.54
  Q 928.07 441.00 925.05 437.97
  C 923.03 435.96 919.68 433.59 917.85 437.11
  C 911.98 448.43 906.35 457.61 893.78 462.47
  Z"
/>
<path fill="#eb9758" d="
  M 856.97 416.54
  Q 855.74 416.82 855.40 415.87
  A 0.89 0.87 -46.8 0 1 855.39 415.28
  C 857.47 408.78 858.50 402.45 860.30 393.10
  Q 861.43 387.18 862.55 385.05
  C 865.01 380.34 869.56 376.43 874.40 374.41
  Q 883.44 370.63 894.02 369.25
  A 0.53 0.52 81.9 0 0 894.47 368.65
  C 894.04 365.68 891.06 364.90 888.21 364.65
  Q 881.83 364.08 875.52 362.95
  Q 896.28 360.37 914.14 369.10
  C 924.04 373.94 933.38 385.33 938.73 394.76
  A 0.72 0.72 0.0 0 1 938.44 395.76
  Q 931.34 399.43 922.81 405.02
  Q 918.09 408.11 909.92 409.08
  Q 902.43 409.97 890.00 410.05
  Q 872.87 410.16 856.97 416.54
  Z"
/>
<path fill="#d4703f" d="
  M 875.52 362.95
  Q 881.83 364.08 888.21 364.65
  C 891.06 364.90 894.04 365.68 894.47 368.65
  A 0.53 0.52 81.9 0 1 894.02 369.25
  Q 883.44 370.63 874.40 374.41
  C 869.56 376.43 865.01 380.34 862.55 385.05
  Q 861.43 387.18 860.30 393.10
  C 858.50 402.45 857.47 408.78 855.39 415.28
  A 0.89 0.87 -46.8 0 0 855.40 415.87
  Q 855.74 416.82 856.97 416.54
  Q 842.68 424.42 830.15 434.90
  Q 825.20 439.05 828.12 444.98
  A 0.58 0.58 0.0 0 1 827.51 445.81
  L 822.50 445.08
  L 823.03 444.48
  A 0.81 0.81 0.0 0 0 823.17 443.61
  Q 817.85 431.14 817.59 420.62
  Q 817.31 409.89 823.06 397.77
  Q 825.10 395.28 826.07 392.08
  Q 827.43 391.08 827.83 389.30
  Q 828.92 389.20 828.45 388.18
  Q 828.56 388.25 828.67 388.32
  A 0.12 0.12 0.0 0 0 828.81 388.30
  Q 839.47 376.17 852.04 369.53
  Q 862.25 364.14 875.52 362.95
  Z"
/>
<path fill="#0e1017" d="
  M 828.45 388.18
  Q 828.92 389.20 827.83 389.30
  L 828.45 388.18
  Z"
/>
<path fill="#0e1017" d="
  M 827.83 389.30
  Q 827.43 391.08 826.07 392.08
  Q 826.58 390.46 827.83 389.30
  Z"
/>
<path fill="#0e1017" d="
  M 826.07 392.08
  Q 825.10 395.28 823.06 397.77
  Q 824.01 394.61 826.07 392.08
  Z"
/>
<path fill="#3e9de7" d="
  M 917.11 432.24
  A 2.28 2.26 2.5 0 0 915.81 433.42
  Q 915.30 434.48 910.28 443.54
  Q 903.30 456.11 889.56 459.77
  Q 871.81 464.49 854.08 458.55
  Q 850.79 457.44 845.19 455.10
  C 838.41 452.25 832.11 449.50 831.21 441.74
  C 830.87 438.82 833.91 435.75 836.03 434.04
  Q 845.71 426.22 856.22 420.69
  Q 868.05 414.47 882.56 413.87
  Q 904.46 412.97 908.00 412.99
  C 914.14 413.03 920.16 410.43 926.12 406.62
  C 932.53 402.51 939.70 398.46 946.30 396.10
  C 952.46 393.89 955.40 398.12 956.76 403.51
  C 959.50 414.28 960.83 422.82 959.24 432.23
  C 957.64 441.64 946.54 445.84 938.38 444.38
  C 934.30 443.65 930.31 437.97 926.00 433.18
  A 3.20 3.16 -9.2 0 0 924.85 432.36
  Q 921.15 430.82 917.11 432.24
  Z
  M 946.69 402.24
  Q 938.20 405.25 930.53 410.15
  Q 922.25 414.50 918.63 414.91
  Q 911.47 415.71 904.26 416.80
  A 2.80 2.76 -62.8 0 0 903.35 417.10
  Q 901.39 418.13 900.24 418.15
  Q 889.20 418.32 882.32 419.02
  C 878.57 419.40 875.03 420.56 871.46 421.25
  C 865.24 422.45 860.08 424.68 854.88 428.36
  A 3.95 3.91 75.4 0 0 853.24 431.18
  C 852.60 437.69 854.60 445.27 859.91 449.60
  Q 870.12 457.92 883.26 455.78
  C 892.64 454.24 902.02 450.44 906.48 441.75
  C 908.23 438.35 909.10 435.97 911.03 434.11
  C 915.05 430.24 920.04 429.35 925.22 428.66
  A 1.12 1.12 0.0 0 1 926.18 429.01
  C 928.08 431.07 930.07 431.50 932.11 433.82
  C 937.70 440.17 943.66 440.76 950.90 436.93
  C 954.28 435.14 955.59 432.31 955.95 428.51
  Q 957.26 414.66 952.65 402.33
  A 2.32 2.31 68.2 0 0 949.58 401.01
  L 946.69 402.24
  Z"
/>
<path fill="#1b5097" d="
  M 930.53 410.15
  L 927.19 414.66
  A 2.66 2.56 72.0 0 0 926.78 415.50
  Q 925.30 421.05 926.91 426.10
  Q 926.82 430.38 931.49 429.95
  Q 933.25 431.76 936.00 432.20
  Q 939.06 432.70 939.64 428.59
  Q 939.98 429.10 940.37 428.67
  Q 942.17 426.65 942.50 423.96
  L 943.26 424.48
  A 0.46 0.46 0.0 0 0 943.89 424.38
  Q 944.22 423.95 944.70 424.42
  C 946.60 426.32 946.93 430.03 947.70 432.12
  A 2.06 2.05 -14.9 0 0 949.97 433.43
  L 949.99 433.43
  A 1.27 1.27 0.0 0 0 950.91 431.58
  Q 947.98 425.99 947.59 420.97
  C 947.43 418.87 946.20 417.23 946.13 415.00
  Q 945.87 405.97 945.76 405.52
  A 1.07 1.05 58.6 0 1 945.98 404.58
  Q 946.94 403.45 947.79 402.98
  A 0.38 0.38 0.0 0 0 947.49 402.28
  Q 947.25 402.36 946.69 402.24
  L 949.58 401.01
  A 2.32 2.31 68.2 0 1 952.65 402.33
  Q 957.26 414.66 955.95 428.51
  C 955.59 432.31 954.28 435.14 950.90 436.93
  C 943.66 440.76 937.70 440.17 932.11 433.82
  C 930.07 431.50 928.08 431.07 926.18 429.01
  A 1.12 1.12 0.0 0 0 925.22 428.66
  C 920.04 429.35 915.05 430.24 911.03 434.11
  C 909.10 435.97 908.23 438.35 906.48 441.75
  C 902.02 450.44 892.64 454.24 883.26 455.78
  Q 870.12 457.92 859.91 449.60
  C 854.60 445.27 852.60 437.69 853.24 431.18
  A 3.95 3.91 75.4 0 1 854.88 428.36
  C 860.08 424.68 865.24 422.45 871.46 421.25
  C 875.03 420.56 878.57 419.40 882.32 419.02
  Q 889.20 418.32 900.24 418.15
  Q 901.39 418.13 903.35 417.10
  A 2.80 2.76 -62.8 0 1 904.26 416.80
  Q 911.47 415.71 918.63 414.91
  Q 922.25 414.50 930.53 410.15
  Z
  M 866.25 440.39
  Q 866.90 441.18 867.48 441.50
  C 872.08 444.01 877.03 446.00 882.03 445.61
  A 0.66 0.66 0.0 0 0 882.40 444.44
  Q 880.91 443.18 880.41 441.07
  Q 883.01 445.16 886.39 443.94
  Q 890.02 442.62 890.63 438.89
  C 890.64 439.31 890.76 439.77 890.80 440.21
  Q 890.64 441.65 889.26 442.39
  A 0.24 0.24 0.0 0 0 889.20 442.77
  L 889.60 443.17
  A 0.42 0.42 0.0 0 0 890.19 443.17
  L 893.92 439.44
  A 1.25 1.25 0.0 0 0 894.15 437.99
  L 893.15 435.99
  Q 894.28 436.62 895.00 436.60
  A 0.62 0.62 0.0 0 0 895.59 435.85
  L 893.86 427.56
  A 0.57 0.54 -80.8 0 0 893.63 427.22
  Q 892.67 426.60 890.92 427.19
  C 888.87 427.89 886.74 427.60 884.67 427.49
  C 879.28 427.19 873.31 429.55 869.86 432.40
  Q 866.46 435.20 863.29 438.39
  A 1.23 1.22 -51.5 0 0 863.50 440.28
  Q 865.15 441.33 866.25 440.39
  Z"
/>
<path fill="#0e1017" d="
  M 946.69 402.24
  Q 947.25 402.36 947.49 402.28
  A 0.38 0.38 0.0 0 1 947.79 402.98
  Q 946.94 403.45 945.98 404.58
  A 1.07 1.05 58.6 0 0 945.76 405.52
  Q 945.87 405.97 946.13 415.00
  C 946.20 417.23 947.43 418.87 947.59 420.97
  Q 947.98 425.99 950.91 431.58
  A 1.27 1.27 0.0 0 1 949.99 433.43
  L 949.97 433.43
  A 2.06 2.05 -14.9 0 1 947.70 432.12
  C 946.93 430.03 946.60 426.32 944.70 424.42
  Q 944.22 423.95 943.89 424.38
  A 0.46 0.46 0.0 0 1 943.26 424.48
  L 942.50 423.96
  Q 942.69 422.56 942.55 422.46
  A 1.74 1.70 -71.5 0 0 939.88 423.83
  L 939.64 428.59
  Q 939.06 432.70 936.00 432.20
  Q 933.25 431.76 931.49 429.95
  Q 931.97 427.33 931.32 424.66
  A 1.22 1.21 76.3 0 0 929.86 423.77
  Q 928.90 424.00 926.91 426.10
  Q 925.30 421.05 926.78 415.50
  A 2.66 2.56 72.0 0 1 927.19 414.66
  L 930.53 410.15
  Q 938.20 405.25 946.69 402.24
  Z
  M 933.80 414.59
  C 937.03 413.74 940.81 416.22 943.19 418.26
  A 0.47 0.47 0.0 0 0 943.97 417.91
  L 943.97 406.40
  A 0.74 0.74 0.0 0 0 942.90 405.74
  Q 937.29 408.54 933.13 412.64
  Q 932.59 413.18 932.63 413.70
  A 0.98 0.93 80.6 0 0 933.80 414.59
  Z
  M 939.58 420.99
  A 0.77 0.77 0.0 0 0 939.70 420.08
  Q 938.58 418.05 936.32 417.39
  A 0.35 0.35 0.0 0 0 935.99 417.98
  Q 937.71 419.54 938.31 421.49
  A 0.37 0.37 0.0 0 0 938.92 421.64
  L 939.58 420.99
  Z"
/>
<path fill="#1b5097" d="
  M 933.80 414.59
  A 0.98 0.93 80.6 0 1 932.63 413.70
  Q 932.59 413.18 933.13 412.64
  Q 937.29 408.54 942.90 405.74
  A 0.74 0.74 0.0 0 1 943.97 406.40
  L 943.97 417.91
  A 0.47 0.47 0.0 0 1 943.19 418.26
  C 940.81 416.22 937.03 413.74 933.80 414.59
  Z"
/>
<path fill="#1b5097" d="
  M 938.31 421.49
  Q 937.71 419.54 935.99 417.98
  A 0.35 0.35 0.0 0 1 936.32 417.39
  Q 938.58 418.05 939.70 420.08
  A 0.77 0.77 0.0 0 1 939.58 420.99
  L 938.92 421.64
  A 0.37 0.37 0.0 0 1 938.31 421.49
  Z"
/>
<path fill="#fafafa" d="
  M 942.50 423.96
  Q 942.17 426.65 940.37 428.67
  Q 939.98 429.10 939.64 428.59
  L 939.88 423.83
  A 1.74 1.70 -71.5 0 1 942.55 422.46
  Q 942.69 422.56 942.50 423.96
  Z"
/>
<path fill="#fafafa" d="
  M 931.49 429.95
  Q 926.82 430.38 926.91 426.10
  Q 928.90 424.00 929.86 423.77
  A 1.22 1.21 76.3 0 1 931.32 424.66
  Q 931.97 427.33 931.49 429.95
  Z"
/>
<path fill="#0e1017" d="
  M 893.15 435.99
  L 892.01 434.05
  A 0.50 0.50 0.0 0 0 891.08 434.28
  L 890.80 440.21
  C 890.76 439.77 890.64 439.31 890.63 438.89
  Q 890.02 442.62 886.39 443.94
  Q 883.01 445.16 880.41 441.07
  Q 878.16 437.39 879.68 432.89
  A 0.57 0.57 0.0 0 0 879.10 432.14
  C 875.03 432.37 869.00 437.49 866.25 440.39
  Q 865.15 441.33 863.50 440.28
  A 1.23 1.22 -51.5 0 1 863.29 438.39
  Q 866.46 435.20 869.86 432.40
  C 873.31 429.55 879.28 427.19 884.67 427.49
  C 886.74 427.60 888.87 427.89 890.92 427.19
  Q 892.67 426.60 893.63 427.22
  A 0.57 0.54 -80.8 0 1 893.86 427.56
  L 895.59 435.85
  A 0.62 0.62 0.0 0 1 895.00 436.60
  Q 894.28 436.62 893.15 435.99
  Z"
/>
<path fill="#fafafa" d="
  M 880.41 441.07
  Q 880.91 443.18 882.40 444.44
  A 0.66 0.66 0.0 0 1 882.03 445.61
  C 877.03 446.00 872.08 444.01 867.48 441.50
  Q 866.90 441.18 866.25 440.39
  C 869.00 437.49 875.03 432.37 879.10 432.14
  A 0.57 0.57 0.0 0 1 879.68 432.89
  Q 878.16 437.39 880.41 441.07
  Z"
/>
<path fill="#fafafa" d="
  M 893.15 435.99
  L 894.15 437.99
  A 1.25 1.25 0.0 0 1 893.92 439.44
  L 890.19 443.17
  A 0.42 0.42 0.0 0 1 889.60 443.17
  L 889.20 442.77
  A 0.24 0.24 0.0 0 1 889.26 442.39
  Q 890.64 441.65 890.80 440.21
  L 891.08 434.28
  A 0.50 0.50 0.0 0 1 892.01 434.05
  L 893.15 435.99
  Z"
/>
<path fill="#eb9758" d="
  M 949.61 447.50
  Q 951.98 454.89 951.12 462.13
  C 950.02 471.49 947.42 480.65 943.58 490.56
  C 939.93 499.97 938.64 503.99 935.09 510.50
  A 0.68 0.68 0.0 0 0 935.68 511.51
  Q 935.81 511.51 936.35 511.90
  C 929.13 522.59 916.09 522.15 904.78 520.00
  L 901.36 516.71
  A 2.06 2.01 74.4 0 0 900.50 516.21
  C 891.30 513.60 883.58 507.20 877.00 500.48
  C 870.09 493.43 865.35 485.52 862.02 476.69
  Q 860.99 473.95 860.68 471.01
  A 1.03 1.03 0.0 0 1 861.65 469.88
  Q 874.06 469.18 883.41 468.06
  Q 889.94 467.29 893.78 462.47
  C 906.35 457.61 911.98 448.43 917.85 437.11
  C 919.68 433.59 923.03 435.96 925.05 437.97
  Q 928.07 441.00 931.49 444.54
  Q 933.35 446.47 932.43 449.01
  Q 930.18 455.24 925.09 459.45
  A 0.28 0.28 0.0 0 0 925.26 459.95
  C 930.81 460.16 934.87 453.28 936.00 448.58
  A 0.73 0.73 0.0 0 1 936.89 448.05
  Q 943.13 449.68 949.61 447.50
  Z
  M 923.9305 456.5519
  A 5.34 1.89 -9.9 0 0 918.3451 455.6081
  A 5.34 1.89 -9.9 0 0 913.4095 458.3881
  A 5.34 1.89 -9.9 0 0 918.9949 459.3319
  A 5.34 1.89 -9.9 0 0 923.9305 456.5519
  Z
  M 899.74 486.08
  Q 908.63 499.53 923.67 497.06
  Q 933.64 495.42 934.97 485.70
  Q 935.27 483.55 933.29 481.68
  Q 935.14 479.69 935.70 478.41
  Q 938.16 472.73 941.48 466.95
  A 0.78 0.78 0.0 0 0 940.89 465.79
  Q 940.06 465.69 939.05 466.06
  C 935.98 467.19 934.60 468.07 931.30 468.75
  C 925.62 469.91 920.29 470.23 915.16 471.59
  C 908.80 473.27 903.79 474.59 896.27 475.44
  Q 893.87 475.71 892.80 474.63
  A 1.38 1.36 -19.6 0 0 891.92 474.22
  Q 888.46 473.98 887.68 477.43
  A 0.64 0.64 0.0 0 0 888.23 478.21
  Q 890.30 478.45 891.86 479.26
  A 3.27 2.95 -7.3 0 1 892.48 479.69
  L 899.74 486.08
  Z"
/>
<path fill="#fafafa" d="
  M 936.35 511.90
  Q 935.81 511.51 935.68 511.51
  A 0.68 0.68 0.0 0 1 935.09 510.50
  C 938.64 503.99 939.93 499.97 943.58 490.56
  C 947.42 480.65 950.02 471.49 951.12 462.13
  Q 951.98 454.89 949.61 447.50
  L 951.79 446.53
  A 0.49 0.49 0.0 0 1 952.47 446.89
  C 954.88 459.80 953.20 470.73 948.99 483.51
  C 945.73 493.38 941.89 503.45 936.35 511.90
  Z"
/>
<path fill="#d4703f" d="
  M 893.78 462.47
  Q 889.94 467.29 883.41 468.06
  Q 874.06 469.18 861.65 469.88
  A 1.03 1.03 0.0 0 0 860.68 471.01
  Q 860.99 473.95 862.02 476.69
  C 865.35 485.52 870.09 493.43 877.00 500.48
  C 883.58 507.20 891.30 513.60 900.50 516.21
  A 2.06 2.01 74.4 0 1 901.36 516.71
  L 904.78 520.00
  C 883.27 516.78 857.52 505.65 846.25 485.83
  Q 844.89 483.44 842.85 481.62
  A 0.93 0.92 -62.2 0 0 841.34 482.09
  C 840.67 484.75 840.45 486.18 837.23 486.54
  C 830.37 487.30 822.63 481.85 818.15 476.85
  C 812.49 470.55 809.69 460.89 814.09 453.10
  C 816.51 448.80 819.79 447.97 824.53 448.07
  C 827.28 448.13 829.52 449.67 831.31 452.09
  Q 833.82 455.50 837.15 458.11
  A 0.68 0.68 0.0 0 0 837.92 458.16
  Q 839.36 457.32 840.83 457.91
  C 847.33 460.51 853.82 463.24 860.73 464.56
  Q 877.44 467.75 893.78 462.47
  Z
  M 816.62 459.02
  Q 816.42 461.70 817.49 462.74
  A 0.37 0.37 0.0 0 0 818.12 462.47
  Q 818.14 459.22 820.12 458.25
  A 2.51 2.49 -52.6 0 1 821.71 458.03
  Q 826.13 458.89 829.81 463.07
  A 1.67 1.67 0.0 0 1 830.21 464.37
  Q 829.65 468.78 831.60 473.14
  A 1.62 1.57 -89.2 0 0 832.31 473.89
  Q 833.69 474.61 835.63 474.09
  A 0.65 0.65 0.0 0 0 835.92 473.00
  L 832.25 469.33
  A 2.57 2.57 0.0 0 1 831.66 466.61
  L 832.48 464.45
  A 2.84 2.81 36.2 0 0 832.04 461.67
  Q 829.52 458.51 826.34 456.72
  Q 820.46 453.40 816.91 458.23
  A 1.51 1.48 65.8 0 0 816.62 459.02
  Z"
/>
<path fill="#0e1017" d="
  M 816.91 458.23
  Q 820.46 453.40 826.34 456.72
  Q 829.52 458.51 832.04 461.67
  A 2.84 2.81 36.2 0 1 832.48 464.45
  L 831.66 466.61
  A 2.57 2.57 0.0 0 0 832.25 469.33
  L 835.92 473.00
  A 0.65 0.65 0.0 0 1 835.63 474.09
  Q 833.69 474.61 832.31 473.89
  A 1.62 1.57 -89.2 0 1 831.60 473.14
  Q 829.65 468.78 830.21 464.37
  A 1.67 1.67 0.0 0 0 829.81 463.07
  Q 826.13 458.89 821.71 458.03
  A 2.51 2.49 -52.6 0 0 820.12 458.25
  Q 818.14 459.22 818.12 462.47
  A 0.37 0.37 0.0 0 1 817.49 462.74
  Q 816.42 461.70 816.62 459.02
  A 1.51 1.48 65.8 0 1 816.91 458.23
  Z"
/>
<ellipse fill="#0e1017" cx="0.00" cy="0.00" transform="translate(918.67,457.47) rotate(-9.9)" rx="5.34" ry="1.89"/>
<path fill="#0e1017" d="
  M 933.29 481.68
  Q 931.21 484.00 928.60 485.09
  Q 918.61 489.28 907.25 487.26
  Q 903.84 486.65 899.74 486.08
  L 892.48 479.69
  A 3.27 2.95 -7.3 0 0 891.86 479.26
  Q 890.30 478.45 888.23 478.21
  A 0.64 0.64 0.0 0 1 887.68 477.43
  Q 888.46 473.98 891.92 474.22
  A 1.38 1.36 -19.6 0 1 892.80 474.63
  Q 893.87 475.71 896.27 475.44
  C 903.79 474.59 908.80 473.27 915.16 471.59
  C 920.29 470.23 925.62 469.91 931.30 468.75
  C 934.60 468.07 935.98 467.19 939.05 466.06
  Q 940.06 465.69 940.89 465.79
  A 0.78 0.78 0.0 0 1 941.48 466.95
  Q 938.16 472.73 935.70 478.41
  Q 935.14 479.69 933.29 481.68
  Z
  M 896.67 479.12
  Q 901.24 483.25 908.24 484.04
  Q 919.33 485.30 930.92 480.72
  A 0.79 0.78 -1.1 0 0 931.36 480.27
  L 934.59 471.77
  A 0.05 0.05 0.0 0 0 934.54 471.71
  L 900.51 478.81
  A 3.96 3.79 -46.3 0 1 899.37 478.86
  L 896.90 478.59
  A 0.31 0.30 68.9 0 0 896.67 479.12
  Z"
/>
<path fill="#fafafa" d="
  M 896.90 478.59
  L 899.37 478.86
  A 3.96 3.79 -46.3 0 0 900.51 478.81
  L 934.54 471.71
  A 0.05 0.05 0.0 0 1 934.59 471.77
  L 931.36 480.27
  A 0.79 0.78 -1.1 0 1 930.92 480.72
  Q 919.33 485.30 908.24 484.04
  Q 901.24 483.25 896.67 479.12
  A 0.31 0.30 68.9 0 1 896.90 478.59
  Z"
/>
<path fill="#d4703f" d="
  M 933.29 481.68
  Q 935.27 483.55 934.97 485.70
  Q 933.64 495.42 923.67 497.06
  Q 908.63 499.53 899.74 486.08
  Q 903.84 486.65 907.25 487.26
  Q 918.61 489.28 928.60 485.09
  Q 931.21 484.00 933.29 481.68
  Z"
/>
</svg>
