<?xml version="1.0" encoding="UTF-8"?>
<svg id="Layer_1" xmlns="http://www.w3.org/2000/svg" version="1.1" xmlns:xlink="http://www.w3.org/1999/xlink" viewBox="0 0 2048 2048">
  <!-- Generator: Adobe Illustrator 29.8.6, SVG Export Plug-In . SVG Version: 2.1.1 Build 1)  -->
  <defs>
    <style>
      .st0 {
        fill: #bdb8b6;
      }

      .st1 {
        fill: #05162b;
      }

      .st2 {
        fill: #c46537;
      }

      .st3 {
        fill: #35475c;
      }

      .st4 {
        fill: #ea9555;
      }

      .st5 {
        fill: #f0c4b1;
      }

      .st6 {
        fill: #824632;
      }

      .st7 {
        fill: #3170b1;
      }

      .st8 {
        fill: #fff;
      }

      .st9 {
        fill: #90b1b5;
      }

      .st10 {
        fill: #1f0402;
      }

      .st11 {
        fill: #060309;
      }

      .st12 {
        fill: #8fc7ef;
      }

      .st13 {
        fill: #f7f3ed;
      }

      .st14 {
        fill: #da977a;
      }

      .st15 {
        fill: #0962ab;
      }

      .st16 {
        fill: #ede8e2;
      }

      .st17 {
        fill: #ca7255;
      }

      .st18 {
        fill: #8a8686;
      }

      .st19 {
        fill: none;
        stroke: #000;
        stroke-linecap: round;
        stroke-linejoin: round;
        stroke-width: 3px;
      }

      .st20 {
        fill: #b04831;
      }

      .st21 {
        fill: #005499;
      }

      .st22 {
        fill: #44110a;
      }

      .st23 {
        fill: #4da7ea;
      }

      .st24 {
        fill: #852510;
      }

      .st25 {
        fill: #369ae2;
      }

      .st26 {
        fill: #060608;
      }

      .st27 {
        fill: #00386e;
      }

      .st28 {
        fill: #b6e3f9;
      }

      .st29 {
        fill: url(#linear-gradient);
      }

      .st30 {
        fill: #889ba2;
      }

      .st31 {
        fill: #4381dd;
      }

      .st32 {
        fill: #5484cb;
      }

      .st33 {
        fill: #a4755d;
      }

      .st34 {
        fill: #1054b1;
      }

      .st35 {
        fill: #fb623b;
      }

      .st36 {
        fill: #cb5639;
      }
    </style>
    <linearGradient id="linear-gradient" x1="882.1" y1="1677.1" x2="963.5" y2="1717.2" gradientTransform="translate(0 2048) scale(1 -1)" gradientUnits="userSpaceOnUse">
      <stop offset="0" stop-color="#012a57"/>
      <stop offset="1" stop-color="#01437f"/>
    </linearGradient>
  </defs>
  <path class="st26" d="M767.1,225.9c-15.7,16.2-28.6,42.9,2,55.2,10.2,4.1,25.6-.9,35.1-6.1,24.4-13.2,11.6-41.5,9.6-63-1.3-13-.3-26.2,3.2-38.8,11.1-39.1,48.1-62.7,84.3-75.6,10.1-3.6,18.5-4.6,28.2-7.5,3.4-1,16.5-8.9,20.5-11.1,39.3-21,97.7-29.7,140.7-16.9,31.8,9.5,45.5,23.5,60.8,51.3,52.8,2,89.6,37,103.8,86.9,3.7,13,5.2,26.6,9.1,39.7,6.7,22.6,20.7,38.9,44,44.9,12.9,3.7,25.3,6.2,37.2,12.8,47.2,26.2,31.6,60.3,11.7,96.5,13.4-3.6,28.1-9.3,41.7-12.7,72.6-18.1,131,31.2,119.1,106.3-1.8,11.1-6.1,30.4-3.8,41.3,3.6,17.3,30,19.4,44.5,23.9,10.3,3.2,20.3,7.6,29.7,13,45.3,26.4,67.1,82.3,27.7,124.2-16.3,17.6-33.7,31.6-28,58.6,6.2,29.3,55.4,47.4,72.8,19,3.8-6.2,1.7-16.1-.8-22.9l2.1-.4c5,10.8,7,20.9,2.6,32.5-3,8-9.1,14.5-17,17.9-4.5,1.9-8.3,2.2-13.1,2.4,43.7,55.1-3.8,113.8-68.9,106.4,34.8,83.5,63.6,172.1,99,254.9h35.3c-3.6-15.8-6.6-36.9-10.6-51.2-2.2-1.2-2.9-1.1-5.4-1.5-3.5-4-6.3-30.9-7.5-38.2h23.5c-10-19.7-19.8-39.5-29.3-59.5-3.4-7.1-10.8-22.4-12.8-29.5l1.1-1.4c6.5,2,38.9,38.5,44.7,46.1-7.3-27.1-16.1-68.3-18.4-96.4,12.5,16.3,30.7,50.6,39,69.3,4.2-34.7,15.4-64.2,30.2-95.5,1.8-3.9,6.1-14.1,9.7-15.9,3,3.3-1.4,96.7-1.3,109.7.7,6.1.3,9.6.7,15.5,12.8-24.4,34-58.8,54.5-77.6-3.6,14.9-24.8,72.6-31.6,86.9,11.7-9.7,32-27.3,45.2-33.6-13.7,24.1-34.4,59.3-49.8,81.9h28.4c-.8,6.9-3.2,32.9-5.1,38.1-2.6,1.4-3.6,1.1-6.6,1-3.7,3.4-11.4,43.3-13.5,51.6h66.7c0,0,0,40.3,0,40.3-55.9,0-113.4-.8-169.2.2,56.3,126.5,114.5,252.3,174.5,377.1l78.9,160.1c12.5,25.5,28.5,56,39.8,81.7-25.1,52.1-95,66-143.4,85.2-13.9-41.7-24.2-85.1-37.3-126.5-56.6,33.6-97.9,51.4-163.1,60.6,6,25.9,11.4,54.2,17.8,79.6l88.2-.4c14,0,28.5-.3,42.5.3,22.5.9,42.6,13.6,35.1,39.2h56c7.1,0,21.3-.4,28,.2l1.4,1.8c-2.4,1.9-4.2,2-7.6,2-40-.3-80.3-.2-120.3-.2h-255.2s-304.2,0-304.2,0c-52.4,0-107.8.9-160-.2-19,.9-44.4.2-63.9.2h-121.1s-353-.2-353-.2c-6.7,9.5-36.6,46.8-48.9,53.3-38.1,20.1-106.1,17.6-149.8,21.4-8.4.7-33.6-1.4-33.4-10.7.5-25.1,59.4-52.8,79-63.7l-64.9-.2c-2.9,0-10.4-.8-12,.6-2.5,3.2-4.5,4.5-8.5,5.1-17.4-5.7-11.6,6-27-1.9-8,1.4-19.1,2.6-27.4,2.2-2.2,0-4.8-3.9-6.4-5.9l-.9-1.2h-1.8c-1.8,2.6-2.6,3.6-4.7,6-5.8,1-34.7-5.2-42.8-5.2-6.2,0-21.9-15-26.5-17.5-9.3-5-6.5-3.5-9.9-13.3-8.7-12.8-7-22.1,3.5-33.3,12.5-12,34.4-21.2,51.6-23,6.8-.7,8.9-2.9,15.4-4.1,7.7-1.2,15.7-1,23.1-1.4,17.3-1,14-6.4,26.6,7.4,1.5-9.7.7-47.4.7-59.9v-129.8c-.1,0,0-486.1,0-486.1-30.6.5-62.1.2-92.8.3v-40.3s158.2,0,158.2,0c-5.7-24.8-10.8-58.2-15.5-83.7h-12.7c0-13.2-.3-26.4-.7-39.6l64.5-.2c0-8.4.9-17.7,1.5-26.2-5.2-9.5-9.7-17.6-15.8-26.5-1,.3-2.1.6-3.1.9-13.3,3.8-28.6,1.6-40.5-5.4-30.4-18-39.6-56.7-48.4-88.3,49.7,4.4,118.4,24.1,94.8,90.1,4.4,6.4,9,14.6,13.1,21.4,2-19.9,4.6-39.7,7.7-59.4-14.1-11.9-19.1-28.4-18.2-46.3,1.6-33.4,26.4-55.8,49.7-76.6,14.3,39.6,28.1,109-27.8,123-3.5,19.6-5.6,40.9-7.6,60.8,4.8-6.3,6.7-8.4,12.5-13.9,4-30.8,23.5-51.7,52.9-60.8,16.9-5.2,32.2-5.1,49.6-5.1-16.1,34.1-37.7,75.4-80.7,78.7-12.9,1-18.4-8.2-21.5-8.4-4.6,4-9.6,11.3-13.3,16.4-.8,8.4-.9,17.3-1.2,25.8h76.1c-.5,13.2-.7,26.4-.8,39.7h-13.1s-13.8,83.3-13.8,83.3c4.3,0,27.3.8,29.8-.6,8.2-4.6,35.1-1.9,37-10.1-6.2-4.3-25-.5-28.3-13-4.3-16.2,20.8-17.2,31.3-19.3-6.8-1.9-15.9-4.6-18.4-11.9-4.7-13.6,11.5-17.7,20.1-20.1-1.6-1-3.1-2.1-4.5-3.2-6.2-5.1-11.8-14.2-3.7-20.6,7.9-6.3,18.3-5.2,27.7-4.2l2-2.7c-12.1-4.4-28.9-17.2-13.5-29.5,12-9.6,26.9-7.8,41.1-6.3-1-1.4-2-2.8-3-4.2-18.1-25.9-15.1-42.5,19.3-31-7.9-22.5-6.5-37.3,21.5-35.4-.2-15.9,2.5-29.4,21.8-24.3,7.2-22,22.6-53.9,32.8-75.6l53.8-112.3c8.8-18.1,21.3-36.9,27.3-56,6.3-19.7-4.7-104.5-7-129.6-1.1-11.9-4.5-28.7-.5-40.2,3.3-9.5,14.4-16.6,20.5-24.4,8.1-10.2,14.2-23.8,21.1-35-40-12.3-48-55.3-30.2-89.3,14.5-27.7,40.6-42,69.7-50.8-47.3-15.4-45.2-59.2-4.6-82.9Z"/>
  <path class="st21" d="M753.8,1244.6c11-15.4,24.1-32.6,33.5-49,3.6-6.9,6-16,8.8-22.9,4.6-11.6,15.6-43,23.9-50.5,26.5-23.8,77.5-47.4,114.2-39.2,58.8,13.2,122,37.2,177.4,61.1,101.5,43.9,205.6,87.6,296.6,151.1,11.6,8.1,22.6,17,33.5,26,5.5,4.6,17.8,18,22.8,20.7l.9-1.3c-5.1-13.6-65.7-56.1-79.8-65.8-2.3-1.2-2.2-1-3.7-3.1,3-1.6,8.4-1,12-1,13.5-1.8,43.5,2.2,49.2,0v-1.1c-13.8-5.1-53.4-2.7-68.6-1.6l-14.1-8.4c14.2-5.7,26.8-9.6,41.7-12.8,3.9-.8,27.5-3.7,28.3-4.4l-.9-1.7c-14.7-4.2-57.6,10.8-72.9,16l-9.6-5.5c26.1-15.1,50.5-33,76.3-48.4,5.7-3.4,12.1-3.5,18.6-4.1,34.1,53.8,82,126.3,82.4,191.4.7,118.7-82,178.3-196.1,159.5-74.8-12.3-116.7-41.9-173.4-90-75.4-62.6-139.1-134.6-209.1-201.5,17.2-3.3,31.8-3.3,49.4-1.5,6.3.6,13.7,4.5,18.5,1.6-3-3-7.9-3.4-12-4.2-25-5.1-46.2-2.1-70.5,3.7-1.9-.5-3.2-.7-5-1l-1.1.2c1.7-7.5,9-39.6,6.1-45.2l-1.5-.3c-2.1,2.3-2.5,14.9-3.3,19.5-2,11.3-8.3,43-12.9,53-79.1,13.4-133.6,35.1-196,85.7-.7-17.8-1.8-35.5-3.1-53.3,10.7-23.8,26.3-49.6,39.7-72.1Z"/>
  <path class="st11" d="M926,1256.9c8.4-6.2,32.8-42.2,32.6-42.1,6.6,3.1-24.5,39.3-27.6,43.1-1.9-.5-3.2-.7-5-1Z"/>
  <path class="st13" d="M813.4,1509.5c4.8-1.8,2.7.4,6.9-1.3l.2-3.2.9-.6c.8,7.2.2,22.4.6,31.3.9,22,3.6,44,7.9,65.6,24,27,49.5,55.3,72.9,82.8,23.3-33.5,46.9-66.8,70.8-99.8,8.2-11.5,28.4-41,37.2-50.4l.6,3.3,1.4.9,10.6,61.3c1.6,9.5,7.8,34,3,40.9,6.2,4.1,4.4,6.9,3.7,13.9-.3,51.9,2.7,105.7,2.7,157.8,0,33.9-.4,68.2.7,102,.4,10.8,1.1,32.2,3.2,42.6-23-1.8-69.7-.4-94.6-.3-2.5-14-6.8-28-10.5-41.8l-3.4,2.4h-309c-5.1-1.8-3.2-1.3-9.1-.1,46.3-25.7,37.1-51.1,24.7-94.8-6.5-24.1-11.7-56.1,1.4-79.4,42-74.4,104.2-136.4,155.7-204.1,7.2-9.5,14.1-19.8,21.6-28.7Z"/>
  <path class="st21" d="M931.3,1808.2c15.6-28.2,34.7-58.5,51.2-86.5,13.4-22.8,29.8-53.5,44.3-74.8.9,1.8,1.8,3,3,4.7l.4,2.5c-.3,51.9,2.7,105.7,2.7,157.8,0,33.9-.4,68.2.7,102,.4,10.8,1.1,32.2,3.2,42.6-23-1.8-69.7-.4-94.6-.3-2.5-14-6.8-28-10.5-41.8-17.5-56.9-36.9-113.2-58.2-168.9,18.1,20.5,39.1,42.7,57.9,62.7Z"/>
  <path class="st28" d="M1011.4,1537.1l1.4.9,10.6,61.3c1.6,9.5,7.8,34,3,40.9-9.6,17.6-21.8,37.2-32.1,54.6l-63.7,107.8-38.2-41c-6.8-7.3-14.8-14.8-20.3-23.1-10.6-16.1-36.2-108.8-41.2-131.3,7.7,7.8,18.4,20.7,25.8,29.2l46.3,52.5c7.2-8.8,15.4-21.4,22-31,28-40.8,58.3-80.2,86.5-120.8Z"/>
  <path class="st11" d="M813.4,1509.5c4.8-1.8,2.7.4,6.9-1.3l.2-3.2.9-.6c.8,7.2.2,22.4.6,31.3.9,22,3.6,44,7.9,65.6,24,27,49.5,55.3,72.9,82.8,23.3-33.5,46.9-66.8,70.8-99.8,8.2-11.5,28.4-41,37.2-50.4l.6,3.3c-28.2,40.5-58.5,80-86.5,120.8-6.6,9.6-14.8,22.2-22,31l-46.3-52.5c-7.4-8.5-18.1-21.5-25.8-29.2,5,22.5,30.6,115.2,41.2,131.3,5.5,8.3,13.5,15.8,20.3,23.1l38.2,41,63.7-107.8c10.3-17.4,22.5-37,32.1-54.6,6.2,4.1,4.4,6.9,3.7,13.9l-.4-2.5c-1.1-1.7-2.1-2.9-3-4.7-14.4,21.3-30.9,52-44.3,74.8-16.5,28-35.5,58.3-51.2,86.5-18.8-20-39.8-42.2-57.9-62.7,21.3,55.6,40.7,111.9,58.2,168.9l-3.4,2.4c-32.6-111-83.5-217.9-105.3-331.7-4.6-24-5.1-51.6-5-75.9-52.8,79.1-126.2,145.9-175,228.5-19.6,33.2-9.2,67.9.8,102.4,7.5,25.9,9.2,51.6-15.3,69.4-3,2.2-7.6,4.4-9.3,7.6-5.1-1.9-3.2-1.4-9.1-.3,46.3-25.7,37.1-51.1,24.7-94.8-6.5-24.1-11.7-56.1,1.4-79.4,42-74.4,104.2-136.4,155.7-204.1,7.2-9.5,14.1-19.8,21.6-28.7Z"/>
  <path class="st21" d="M1026.7,1646.8c.5-1.1.9-2.7,2.2-2.7,1.1,1.1.8,5.7.8,7.4-1.1-1.7-2.1-2.9-3-4.7Z"/>
  <path class="st13" d="M464.5,1242.9c2.3-2.3,265.6-.8,287.4-1.2-15.4,20.4-41.3,71-51.6,94.9-40.4,93-71.4,190.5-111,284-16.5,38.8-36.9,75.4-56.6,112.5-17.5,32.9-33.4,50-55.8,79.1-15.5,20.5-30.9,41.1-46.1,61.8-5.9,8.1-25.3,34.7-29.6,42.7-22.3.5-46.5.3-68.9.2-.4-4.6-.7-6.8-1.6-11.2.7-.3,1.3-.7,2-1,10.7-5.6,12.3-9.4,5.8-20l-.6-1c22.1-.8,12.3-10.2,12.3-20.7,23.3-12.8,7.3-16.1,8.2-25.1,2.4-2.8,5.8-3,10-4.2,6.9-6,.8-10.2-.6-17.1,19.3-4.9,4.5-18.4,5.5-23.8,2.8-.7,5.9-1.6,8.1-2.5,11.7-5.1,4.5-17.4,2.5-25.4,0-.3,12.1-4.4,12.9-9.5.8-5.7-1.1-8-4.3-12.8l-.8-1.2c3-3.8,3.6-1.6,9.1-5.1,4.6-7.4,2-9.5.5-18.5,9.1-12.2,10.5-13.7,1.1-25.4,3.6-6.5,24.6-4.7,4.3-25.1,13.7-4.9,15.6-11.8,6-23.2,4.2-3.7,9-8.4,11.1-13.5,2-4.7-2.8-9.3-3.9-14.8,1.2-.6,2.3-1.2,3.5-1.9,13-7.9-.2-15.9.9-21.4,2.3-10.8,12-8.8,1.9-23.6-.4-.7-.7-1.4-1-2.1-3-.7-6.1-1.5-9-2.4-1.5-.5-11.3-2.3-11.2-3.5,1.1-1.5,7.3-.5,8.7-.1,9.4,2.7,13.7,4.7,18.1-5.4,3-6.9.4-11.9-6.7-14-5.5-1.6-7.1-4.4-11.5-7.6l-3.8-2.7c3.7.2,12.7,1.5,15.8.1,19.2-8.4,7.8-19.2-2.1-25.7-2.5-1.1-9.6-2.6-10.6-4.3.5-4.7,26.8,3.5,26.9-14.9-2.9-10-15.9-14.5-24.8-17.8,7.7-.1,35.4-.2,29.7-15.6-2.9-7.9-15.2-11.5-22.2-14.8,2.6-2.9,24.1-4,25.9-13.7,2-10.6-19.7-17.4-25.9-19.7,7.3-.6,34-2,27.6-16.9-3.3-7.7-16.8-12.2-24.5-15.4,40.8-2.1,37.7-20.9,2.1-32.5,8.6-.8,35-3.1,26.7-20.2-3.7-7.6-16.4-10.7-24.4-12.4,8.5-.7,27.3-1.5,30.8-11.7,3.8-10.9-17.4-17.5-25.3-19.6,2.2-.7,4.5-1.3,6.7-2,16.4-5.2,26.8-11.4,19.8-30.3l2.7-.7Z"/>
  <path class="st11" d="M461.7,1243.5l2.7-.7c7.2,19.2-1.5,27.5-19.3,33.2,7,3.3,16,6.5,18.5,14.4,3.6,11.9-10.9,16-18.8,18.3,17.3,8.4,20.1,25.2.8,31.1-1.7.5-3.5,1-5.2,1.5,6.3,2.9,13.9,5.5,16.3,12.6,4.4,13-9.5,18.5-19.2,20.6,8.4,3.5,19.6,8.9,15.3,21.8-1.3,4-7.8,7.7-11.8,8.9l-.9,3.6c6.8,3.9,15.2,10.6,9.3,19.2-5.8,8.5-13.6,9.3-22.8,11.1,7.1,1.7,16.1,3.2,19.8,10.1,7.7,14.4-8.8,19.5-18.1,22.1,5.9,2.9,12,5.7,14.1,12.5,2.7,8.8-4.8,15.7-12.7,17.5-2.2.5-4.4.9-6.6,1.3,8,3.6,20.2,10.4,14.8,21.8-4.3,9.1-13.6,10.1-22.4,11.3,7.7,1.9,13.8,2.4,18.5,9.6,5.5,8.4-1.9,16.8-9,21.2-3-.7-6.1-1.5-9-2.4-1.5-.5-11.3-2.3-11.2-3.5,1.1-1.5,7.3-.5,8.7-.1,9.4,2.7,13.7,4.7,18.1-5.4,3-6.9.4-11.9-6.7-14-5.5-1.6-7.1-4.4-11.5-7.6l-3.8-2.7c3.7.2,12.7,1.5,15.8.1,19.2-8.4,7.8-19.2-2.1-25.7-2.5-1.1-9.6-2.6-10.6-4.3.5-4.7,26.8,3.5,26.9-14.9-2.9-10-15.9-14.5-24.8-17.8,7.7-.1,35.4-.2,29.7-15.6-2.9-7.9-15.2-11.5-22.2-14.8,2.6-2.9,24.1-4,25.9-13.7,2-10.6-19.7-17.4-25.9-19.7,7.3-.6,34-2,27.6-16.9-3.3-7.7-16.8-12.2-24.5-15.4,40.8-2.1,37.7-20.9,2.1-32.5,8.6-.8,35-3.1,26.7-20.2-3.7-7.6-16.4-10.7-24.4-12.4,8.5-.7,27.3-1.5,30.8-11.7,3.8-10.9-17.4-17.5-25.3-19.6,2.2-.7,4.5-1.3,6.7-2,16.4-5.2,26.8-11.4,19.8-30.3Z"/>
  <path class="st16" d="M440.1,1409c-.6-.2-1.2-.5-1.9-.7-.7-.3-2.3-.6-2.5-1.6.6-.9,2.4-.8,3.3-.9l1.9-.4-.9,3.6Z"/>
  <path class="st21" d="M751.9,1241.6l.8-.8,1,3.8c-13.4,22.4-29,48.3-39.7,72.1,1.4,17.7,2.4,35.5,3.1,53.3,62.4-50.7,116.9-72.3,196-85.7l-1.1,3.1c-4,24.2-25.6,72.8-34.8,97.3-2.8,7.4-8,17.9-10.2,25.1l-1.3,3.4c-14.3,28.4-27.7,56.8-44.7,83.7-2.5,3.9-5.5,8.7-7.7,12.8-7.6,8.9-14.4,19.3-21.6,28.7-51.4,67.7-113.6,129.7-155.7,204.1-13.1,23.3-7.9,55.3-1.4,79.4,12.4,43.8,21.6,69.1-24.7,94.8-4.5,1.6-6.2,2.5-10.4,4.9-5,1.4-25.7,10.9-31.7,13.5-16.2,7-32.6,13.5-49.2,19.5,10.1-13.2,22.5-28.4,36.9-36.6,2.9-1.7,4.4-2.4,5-4.9l-1.9-.7c-18.9,3.9-45,44.9-57.4,60.6-10.5,13.2-24.5,30.1-39,38.9-21,12.7-143.6,23.6-167,16.9-3.9-1.1-6.6-2.3-8.7-6-1.5-21,72.5-53.8,88-65.5,7-5.3,20.8-27.2,27.9-35.9-.5-2.4-.3-2.8-1.5-4.7,4.3-8,23.7-34.6,29.6-42.7,15.2-20.7,30.6-41.3,46.1-61.8,22.4-29.1,38.3-46.2,55.8-79.1,19.7-37.1,40.1-73.6,56.6-112.5,39.7-93.5,70.6-191,111-284,10.4-23.9,36.2-74.5,51.6-94.9Z"/>
  <path class="st28" d="M912.1,1287.3c-4,24.2-25.6,72.8-34.8,97.3-2.8,7.4-8,17.9-10.2,25.1-8.5,0-23.2,3.4-31.5,5.7-61.4,16.9-117.2,51.2-169.5,86.3-.1-19.1-4.3-39.7-2.5-58.6,1.6-17.7,34.8-94.2,44.7-114.2,1.8,2.7,1.8,3.7,3.6,6.5,1,14.1,1.8,28.3,2.5,42.4,45.6-41.7,91.1-64.1,150.6-80,15.9-4.2,31.5-6.7,47.2-10.5Z"/>
  <path class="st11" d="M751.9,1241.6l.8-.8,1,3.8c-13.4,22.4-29,48.3-39.7,72.1,1.4,17.7,2.4,35.5,3.1,53.3,62.4-50.7,116.9-72.3,196-85.7l-1.1,3.1c-15.7,3.8-31.3,6.3-47.2,10.5-59.5,15.9-104.9,38.3-150.6,80-.7-14.1-1.5-28.3-2.5-42.4-1.8-2.8-1.8-3.8-3.6-6.5-9.9,20-43,96.5-44.7,114.2-1.7,18.9,2.4,39.5,2.5,58.6,52.3-35.2,108.1-69.5,169.5-86.3,8.3-2.3,22.9-5.6,31.5-5.7l-1.3,3.4c-52.2.9-162.3,63.4-202.6,95.3-.4-9.8-.6-28.5-2-37.7.1-2.4-.4-18.6-1.7-19.5h-.3c-.9.8-1.9,4.2-2.4,5.4-37.8,104.2-77.6,209.3-135.8,304.4-8.1,13.3-21.5,28.3-31.3,40.8-22.1,28.4-43.6,57.3-64.6,86.6-6,8.6-17.4,24.2-22.5,32.9-.5-2.4-.3-2.8-1.5-4.7,4.3-8,23.7-34.6,29.6-42.7,15.2-20.7,30.6-41.3,46.1-61.8,22.4-29.1,38.3-46.2,55.8-79.1,19.7-37.1,40.1-73.6,56.6-112.5,39.7-93.5,70.6-191,111-284,10.4-23.9,36.2-74.5,51.6-94.9Z"/>
  <path class="st32" d="M708.3,1328.9c.5-1.3,1-3.3,2.2-4,1.4,0,1.4,9.6,1.4,10.5-1.8-2.8-1.8-3.8-3.6-6.5Z"/>
  <path class="st21" d="M656.8,1456.5c.4-1.1,1.5-4.6,2.4-5.3h.3c1.3.9,1.8,17.1,1.7,19.5-.5,4.5,0,23.3-.6,24.9,0,0-.2,0-.2,0-1.3-2.5.2-29.1-2.9-37.4l-.6-1.7Z"/>
  <path class="st11" d="M602,1775.3c.6.2,1.6.4,2.3.8,1.2.9,1.6,2.4,1.8,3.8,1,9.4,2.6,17.5.9,27.1-1.7,9.4-6.4,15.7-14.2,20.9-.7-.1-1.4-.3-1.9-.8-.4-.3-.6-.7-.5-1.2.1-.8,1-1.6,1.7-2,2.2-1.6,4.1-3.1,5.8-5.2,10.2-12.3,5.5-29.1,4.2-43.4Z"/>
  <path class="st13" d="M300.1,1241.8h80.2c23.8,0,47.6-2,70.1,7,2.5,1,3,3.8,3.8,6,.5-1.1.8-5.4,1-6.8,8.3,22.7-29.5,11.2-31.8,26.5,5,10.1,31.4,7.2,29.5,18.8-7.2,8.9-29.9,1.5-32.7,13.2,4,10.7,25.5,7.5,30.6,16.1-2.3,10.8-24.9,6.3-33.7,14.6l-.7,2.3c5,8.2,28.4,7.5,31.9,16.8-4,14.4-27.2.8-33.6,14.9,1.6,10.8,22.8,7.8,29,16.8,0,3.8.5,2.1-1.4,5.2-10.9,7.3-28.5-.2-30.7,10.9,4,9.1,23.3,6.8,29.3,15.1.7,14.9-27.8,4.2-32.7,16.9,2.3,11,20.7,5.9,28.8,15.4.8,3.6.9,1.8-.6,5.5-11.3,6.4-28,.7-32,10.6,4,12.9,25.2,5.3,30.4,19,.6-3.9,1-1.3,4.8-.4,0,18.4-26.4,10.2-26.9,14.9,1,1.8,8.1,3.2,10.6,4.3,9.9,6.5,21.3,17.2,2.1,25.7-3.1,1.4-12.1,0-15.8-.1l3.8,2.7c4.5,3.2,6.1,6,11.5,7.6,7.1,2.1,9.7,7.1,6.7,14-4.4,10.1-8.7,8-18.1,5.4-1.4-.4-7.5-1.4-8.7.1-.1,1.2,9.6,3.1,11.2,3.5,2.9.9,6.1,1.7,9,2.4.3.7.7,1.4,1,2.1,10,14.8.3,12.8-1.9,23.6-1.2,5.6,12.1,13.5-.9,21.4-1.1.7-2.3,1.3-3.5,1.9,1.1,5.5,5.9,10.1,3.9,14.8-2.2,5.2-7,9.8-11.1,13.5,9.6,11.5,7.6,18.3-6,23.2,20.3,20.4-.7,18.6-4.3,25.1,9.4,11.7,8,13.2-1.1,25.4,1.6,9,4.2,11.1-.5,18.5-5.6,3.5-6.2,1.2-9.1,5.1l.8,1.2c3.2,4.8,5.2,7.1,4.3,12.8-.7,5.1-12.9,9.2-12.9,9.5,1.9,8,9.2,20.4-2.5,25.4-2.1.9-5.2,1.7-8.1,2.5-.9,5.3,13.8,18.8-5.5,23.8,1.4,6.9,7.5,11.1.6,17.1-4.2,1.2-7.6,1.4-10,4.2-.9,9.1,15,12.3-8.2,25.1,0,10.5,9.8,19.9-12.3,20.7l.6,1c6.5,10.6,4.9,14.4-5.8,20-.7.3-1.3.7-2,1,1,4.5,1.3,6.7,1.6,11.2,22.4,0,46.6.3,68.9-.2,1.2,1.9,1.1,2.3,1.5,4.7-7.2,8.7-21,30.6-27.9,35.9-15.4,11.7-89.5,44.4-88,65.5,2.1,3.7,4.8,4.9,8.7,6,23.4,6.7,146-4.2,167-16.9,14.5-8.8,28.5-25.7,39-38.9,12.5-15.7,38.5-56.7,57.4-60.6l1.9.7c-.6,2.5-2.1,3.2-5,4.9-14.4,8.2-26.8,23.4-36.9,36.6,16.6-6.1,33-12.6,49.2-19.5,6.1-2.6,26.7-12,31.7-13.5,4.2-2.4,5.8-3.2,10.4-4.9,5.9-1.2,4.1-1.6,9.1.3h309c0-.1,3.4-2.5,3.4-2.5,3.7,13.8,7.9,27.8,10.5,41.8,24.9,0,71.5-1.5,94.6.3,3.8-6.8,0-4.6,2.3-10l.8,9.7c30.2,0,63.7-.7,93.7.1l1.6,1.2c3.3,0,6.7,0,9.9.2l-.6.8c-12.7.3-86.2-.9-90.5,1.4-19,.9-44.4.2-63.9.2h-121.1s-353-.2-353-.2c-6.7,9.5-36.6,46.8-48.9,53.3-38.1,20.1-106.1,17.6-149.8,21.4-8.4.7-33.6-1.4-33.4-10.7.5-25.1,59.4-52.8,79-63.7l-64.9-.2-2.6-2.8,1.3-1.1c6.2-5.4,3.9-4,.1-11,2-1.5,1.4-2.2,4.2-4.1,1.6-2.8-.6-3,.9-4.9.6,0,5.2,4.3,4-.4-1.5-5.9-11.2-14.8-16.4-17.5-5.7-3-5.9-6.6-3-12.4l1.8-1v-2.6c.1,0,2.9-3,2.9-3,2.9-3.1,4.2-9.5,6-13.7l2.9-1.4c1.9-1.4,2-1.5,3.7-3.2.3-2.3-1.7-8.2-2.1-11.4v-1.1c-1.4-8.7-.4-27.5-.8-37.2-1.1-31.7,1.6-70.1-.7-101.5-1.4-51.1,0-109.8,0-161.4v-326.3Z"/>
  <path class="st11" d="M455.3,1248c8.3,22.7-29.5,11.2-31.8,26.5,5,10.1,31.4,7.2,29.5,18.8-7.2,8.9-29.9,1.5-32.7,13.2,4,10.7,25.5,7.5,30.6,16.1-2.3,10.8-24.9,6.3-33.7,14.6l-.7,2.3c5,8.2,28.4,7.5,31.9,16.8-4,14.4-27.2.8-33.6,14.9,1.6,10.8,22.8,7.8,29,16.8,0,3.8.5,2.1-1.4,5.2-10.9,7.3-28.5-.2-30.7,10.9,4,9.1,23.3,6.8,29.3,15.1.7,14.9-27.8,4.2-32.7,16.9,2.3,11,20.7,5.9,28.8,15.4.8,3.6.9,1.8-.6,5.5-11.3,6.4-28,.7-32,10.6,4,12.9,25.2,5.3,30.4,19,.6-3.9,1-1.3,4.8-.4,0,18.4-26.4,10.2-26.9,14.9,1,1.8,8.1,3.2,10.6,4.3,9.9,6.5,21.3,17.2,2.1,25.7-3.1,1.4-12.1,0-15.8-.1l3.8,2.7c4.5,3.2,6.1,6,11.5,7.6,7.1,2.1,9.7,7.1,6.7,14-4.4,10.1-8.7,8-18.1,5.4-1.4-.4-7.5-1.4-8.7.1-.1,1.2,9.6,3.1,11.2,3.5,2.9.9,6.1,1.7,9,2.4.3.7.7,1.4,1,2.1,10,14.8.3,12.8-1.9,23.6-1.2,5.6,12.1,13.5-.9,21.4-1.1.7-2.3,1.3-3.5,1.9,1.1,5.5,5.9,10.1,3.9,14.8-2.2,5.2-7,9.8-11.1,13.5,9.6,11.5,7.6,18.3-6,23.2,20.3,20.4-.7,18.6-4.3,25.1,9.4,11.7,8,13.2-1.1,25.4,1.6,9,4.2,11.1-.5,18.5-5.6,3.5-6.2,1.2-9.1,5.1l.8,1.2c3.2,4.8,5.2,7.1,4.3,12.8-.7,5.1-12.9,9.2-12.9,9.5,1.9,8,9.2,20.4-2.5,25.4-2.1.9-5.2,1.7-8.1,2.5-.9,5.3,13.8,18.8-5.5,23.8,1.4,6.9,7.5,11.1.6,17.1-4.2,1.2-7.6,1.4-10,4.2-.9,9.1,15,12.3-8.2,25.1,0,10.5,9.8,19.9-12.3,20.7l.6,1c6.5,10.6,4.9,14.4-5.8,20-.7.3-1.3.7-2,1,1,4.5,1.3,6.7,1.6,11.2,22.4,0,46.6.3,68.9-.2,1.2,1.9,1.1,2.3,1.5,4.7-7.2,8.7-21,30.6-27.9,35.9-15.4,11.7-89.5,44.4-88,65.5,2.1,3.7,4.8,4.9,8.7,6,23.4,6.7,146-4.2,167-16.9,14.5-8.8,28.5-25.7,39-38.9,12.5-15.7,38.5-56.7,57.4-60.6l1.9.7c-.6,2.5-2.1,3.2-5,4.9-14.4,8.2-26.8,23.4-36.9,36.6,16.6-6.1,33-12.6,49.2-19.5,6.1-2.6,26.7-12,31.7-13.5,4.2-2.4,5.8-3.2,10.4-4.9,5.9-1.2,4.1-1.6,9.1.3h309c0-.1,3.4-2.5,3.4-2.5,3.7,13.8,7.9,27.8,10.5,41.8,24.9,0,71.5-1.5,94.6.3,3.8-6.8,0-4.6,2.3-10l.8,9.7c30.2,0,63.7-.7,93.7.1l1.6,1.2c3.3,0,6.7,0,9.9.2l-.6.8c-12.7.3-86.2-.9-90.5,1.4-19,.9-44.4.2-63.9.2h-121.1s-353-.2-353-.2c-6.7,9.5-36.6,46.8-48.9,53.3-38.1,20.1-106.1,17.6-149.8,21.4-8.4.7-33.6-1.4-33.4-10.7.5-25.1,59.4-52.8,79-63.7l-64.9-.2-2.6-2.8,1.3-1.1c6.2-5.4,3.9-4,.1-11,2-1.5,1.4-2.2,4.2-4.1,1.6-2.8-.6-3,.9-4.9.6,0,5.2,4.3,4-.4-1.5-5.9-11.2-14.8-16.4-17.5-5.7-3-5.9-6.6-3-12.4l1.8-1v-2.6c.1,0,2.9-3,2.9-3,2.9-3.1,4.2-9.5,6-13.7l2.9-1.4c1.9-1.4,2-1.5,3.7-3.2.3-2.3-1.7-8.2-2.1-11.4v-1.1c1.9-2,8.7-6,8.7-5.7-.2-6.4-1.6-11.4,3.7-16.7,5.4-5.4,3.5-14.9,7-21.6,1.6-3,4.2-.8,7.5-5.4-.6-1.2-1.1-2.4-1.6-3.6-3.8-9.3,2.4-13.1,10.4-15.5l1-.3c-4-5.3-8.8-12.2.2-16.3,14.6-6.7-8.1-19.1,15.7-22.5l-.2-.7c-4.8-3.9-8.2-7.6-6.2-13.8,3.3-3.5,5.4-4,10.1-5.6l1.5-.5c-6-8.5-12.2-17.3,3.6-19.5l1.4-3c-3-1.8-5.3-4-6-7.6-.5-2.7.2-5.5,1.8-7.8,3.2-4.2,8.4-4.6,13.2-4.8-13.6-11.4-11.5-16.3,3.7-23.8-6-8.2-10.3-16.5,1.9-22,.8-1.4,1.3-2.1,1.9-3.6-3.9-4-5-5.9-6.2-11.4,2.2-7,6.8-5.4,14.4-10.3-1.8-5.9-13.1-9.5-8.9-17.3,6.3-11.7,24.7-2.6,33.4-5.5l.4-1.7c-4.1-4.9-19.8-4.1-26.3-7.4-1.8-2.1-3.2-3.7-3.1-6.8.3-14,25.5-9.2,35.9-9-13.5-10.7-16.6-3.7-29.7-12.5-1.7-1.1-2.5-4.6-2.2-6.6,2.5-14.5,27.6-4.1,34.1-10-1.9-6.2-24.8-8-27.9-15.1-7.9-17.8,23.3-11.3,30.3-15l.4-1.9c-5.4-7.4-32.3-5.4-28-20.9,3.2-11.5,29.8-2.8,31.9-11.7-3.8-4.9-22.4-6-25.9-11.5-12.3-19,24.5-13.3,29.9-18.6l-.3-1.9c-5.5-5.1-25.8-6-27.8-14.2-4.1-16.8,26.9-9.7,32.1-17.3-4-9.4-30.5-3.9-29-20.4,5.4-10.3,21.5-4.5,31.2-10.2l.2-1.6c-6.6-6.8-34.3-7.1-27-22.2,4.5-9.4,26.2-3.2,30.8-10.3-3.5-7.1-28.5-6.9-29.8-16.5-2.2-15.8,26.7-8.8,32-16-1.2-8.4-28.6-3.9-28.8-18.7,5.3-13.8,24.3-6.1,32.4-13.5-1.5-7.1-32.3-7.7-29.2-19.2,3.2-11.9,22.9-7.8,34-18,.5-1.1.8-5.4,1-6.8Z"/>
  <path class="st9" d="M610,1916.5c5.9-1.2,4.1-1.6,9.1.3h309c0-.1,3.4-2.5,3.4-2.5-.5,2.9-.3,3.7-1.8,6.1,1.3,9.6,6.5,24.9,8.8,35.7h-167.3c9.6-9.6,17.3-15.2,30.2-20.6,4.7-1.9,15.8-2.8,18.7-5.3l-.2-1.5c-11.2-1.8-30.1,7.5-39,14.1-4.9,3.6-9.3,7.8-13.2,12.5-7.1-1.2-42.8-.4-51.7-.4-48.1.2-96.3.2-144.4,0-7.9,0-34.6,1.6-39.6-1.3,25.6-11.4,50.2-19.5,76.1-32.5-2.4.2-5.9.2-8.5.2,4.2-2.4,5.8-3.2,10.4-4.9Z"/>
  <path class="st26" d="M610,1916.5c5.9-1.2,4.1-1.6,9.1.3h309c0-.1,3.4-2.5,3.4-2.5-.5,2.9-.3,3.7-1.8,6.1-32.7-.8-314.4-2-321.7.7-2.4.2-5.9.2-8.5.2,4.2-2.4,5.8-3.2,10.4-4.9Z"/>
  <path class="st26" d="M824.3,1936.8c.6.2,1.5.3,2,.8.3.3.5.9.3,1.3-.2.8-1,1.4-1.7,1.8-2.8,1.7-5,3.7-7.3,6-.5.2-1.2.6-1.7.4-.3,0-.4-.1-.6-.4-.2-.3-.1-.8,0-1.1.7-2.8,4-5.4,6.3-6.9l2.9-1.9Z"/>
  <path class="st9" d="M332.1,1916.8c22.4,0,46.6.3,68.9-.2,1.2,1.9,1.1,2.3,1.5,4.7-1.4-.3-2.8-.7-4.2-1-8.3,10.7-18.5,26.9-27.5,35.9-17.9.2-55.2,1-72.1-.7,7.8-4.3,14.8-6.2,17.9-15.5,4.4-13.1-4.5-14.5,9.7-16.2,0-1.1.1-2.2.2-3.4l1.5-2.2c1.4-.5,2.5-.9,3.9-1.5Z"/>
  <path class="st26" d="M332.1,1916.8c22.4,0,46.6.3,68.9-.2,1.2,1.9,1.1,2.3,1.5,4.7-1.4-.3-2.8-.7-4.2-1h-48.6c-12.3,0-13.9-2.6-23.3,3.5,0-1.1.1-2.2.2-3.4l1.5-2.2c1.4-.5,2.5-.9,3.9-1.5Z"/>
  <path class="st35" d="M423.3,1505.3c9.9,6.5,21.3,17.2,2.1,25.7-3.1,1.4-12.1,0-15.8-.1l3.8,2.7c4.5,3.2,6.1,6,11.5,7.6,7.1,2.1,9.7,7.1,6.7,14-4.4,10.1-8.7,8-18.1,5.4-1.4-.4-7.5-1.4-8.7.1-.1,1.2,9.6,3.1,11.2,3.5,2.9.9,6.1,1.7,9,2.4.3.7.7,1.4,1,2.1-1.2.5-6.6,2.4-4.6,3.7,5.1,2.7,6.3.6,5.4,8.7-.4,3.9-4.6,7.7-8,9.6-3.7,2.1-18.3-7.7-14.1.5.3.7,1,2,1.3,2.9-2.7,0-21.6,1.9-17.7-8.8,3-8.4,23.6-1.6,29.7-3.9,2.6-1,3-3.7,1.6-6-4.7-9.4-14.1-5.7-22.1-8.4-3.3-1.4-7.4-3-5-8.4,4.9-10.8,37.4,4.4,33.3-11.8-.6-2.2-8.7-5.5-11.8-6.4-3.7-1.1-18.9-4.5-16.8-11.6,4.7-8.4,22.7-2.3,28.3-5.5,9.2-5.2.2-11.1-5.8-12.8,1.3-1.7,2.5-3.3,3.6-5Z"/>
  <path class="st35" d="M354.1,1759.9c7.6,1,20,2.4,26.3,6.5,9.8,17.1.8,26.7-17.9,22.3-.6.8,5.4,4.7,6.2,5.8,11.8,16.3,6.1,18.9-10.2,17.3,0-2.9-1.1-2.4-.4-5.1l1.3-.2c2.9-.4,7.5-1.5,8-4.6.9-5-17.1-8.7-19.9-9.8-2.7-1.1-6.8,2-8,2.5-7.1-1-.2-11.8,6.5-11.8,8.4,0,8.5,4.6,16.2,1.1-4.8-2.5-9.7-.8-12.5-3.3-16.5-14.4,8.3-19.1,7.5-18.2v-.3c-1-.9-1.6-1-2.9-1.6l-.2-.7Z"/>
  <path class="st11" d="M355.7,1768.4c-2.8-1.1-5,.2-7-1.2v-.4c3.5-3.6,22.6,2.2,27.1,3.5,1.4,1.1,3.3,2.2,3.4,4.2,0,1-.3,1.9-1,2.6-1.9,1.9-5.9,2.7-8.4,3.3-6.1-1-15.8-2.7-20.8-6.1-1.2-.8-.2-3.4,2.7-1.7.2-3.2.8-3.9,4-4.2Z"/>
  <path class="st16" d="M351.7,1772.6c.2-3.2.8-3.9,4-4.2,35.4,7.5,18.4,11.7-4,4.2Z"/>
  <path class="st36" d="M313.6,1852.6c3.1,1,4.3,1,7,3l-2,1.5c-.3-.1-.7-.3-1-.4-.3.1-.2,0-.3.3.5,4.3,18,12.8,21.9,13.8l-1.2.4c-4.1,1-.5,7.2.9,9.4-4.4-1.2-9.4-1.9-14-2.8l.8.5c9.2,5.1,8.2,3.7,12,12.6l-3.9-1.1-1.6-.3c-5.1-4.3-12.5-7.5-18.9-9.4l-1.1,1.2c-9.6-6.2-11.1-10.5-.6-16.1,1.3-.2,2.2-.4,3.5-.7-2.5-6-2.5-5.3-1.5-11.9Z"/>
  <path class="st35" d="M311.6,1865.2c2.9.8,2.5.9,5.1,2.4,3.4,2,8.6,3.2,12.4,4.6l2.9,2.1c-6,4.6-8.3-2.4-15.4,2.7-4.4,0-6.7-.7-3.3,3.1l-1.1,1.2c-9.6-6.2-11.1-10.5-.6-16.1Z"/>
  <path class="st11" d="M313.3,1880.1c-3.5-3.8-1.2-3.1,3.3-3.1,7.3,4.1,14.8,4.8,17.2,12.8l-1.6-.3c-5.1-4.3-12.5-7.5-18.9-9.4Z"/>
  <path class="st22" d="M315,1864.4c1.4.7,5.3,3.2,7,2.5.3-.8.3-1.6.5-2.4.8,0,6.7,5.5,8.2,6.6l-1.6,1c-3.8-1.4-9-2.6-12.4-4.6-2.6-1.5-2.1-1.6-5.1-2.4,1.3-.2,2.2-.4,3.5-.7Z"/>
  <path class="st24" d="M330.7,1871.1c.4.2,2.6,1.2,2.9,1.9,0,.1,0,.3,0,.4-.3.5-1.3.7-1.6.7l-2.9-2.1,1.6-1Z"/>
  <path class="st36" d="M302.7,1909.2c-1.7-1.9-4.3-5.5-6.3-2.6-1.5,2.1-6.5-1.7-5.6-3.6,2.9-5.9,8.7-1.2,9.5-1.4.4-.6-5.1-8.5-1.6-12.4,2.8-1,4.5,6,6.4,6.6,3.9,1.1,18.1,14.2,19.4,14.7h.2c1.4-4.7-11.1-11.7-13.3-14.1h0c1.3-.5,3.7,1.1,4.6,1.7,10.3,6.3,13.9,8.4,12.2,20.2l-1.5,2.2-1,.3c-8.7.4-18.4-4.2-23-11.5Z"/>
  <path class="st16" d="M303.4,1906.5c2.2,1.2,21.5,12.6,22.4,14.2-8.7.4-18.4-4.2-23-11.5l.6-2.7Z"/>
  <path class="st22" d="M303.4,1906.5c-.7-1.2-1.3-1.7-1.2-3,.3-.4.1-.3.6-.5,1.5,0,19.2,12.9,25.5,15.2l-1.5,2.2-1,.3c-.9-1.6-20.1-13.1-22.4-14.2Z"/>
  <path class="st35" d="M286.4,1905.7c5.7,4,11,6,17,9.5,4.2,7.3,12.3,13.3,10.4,21.3-1.9,7.8-10.7,19.7-12.9,4.4,1.6-2.8-.6-3,.9-4.9.6,0,5.2,4.3,4-.4-1.5-5.9-11.2-14.8-16.4-17.5-5.7-3-5.9-6.6-3-12.4Z"/>
  <path class="st17" d="M434.8,1486.5c.6-3.9,1-1.3,4.8-.4,0,18.4-26.4,10.2-26.9,14.9,1,1.8,8.1,3.2,10.6,4.3-1.2,1.7-2.4,3.4-3.6,5-4.1-1-31.1-8-14.2-16.6,6.9-3.5,19.8,1.3,28-6l1.3-1.2Z"/>
  <path class="st17" d="M348.5,1811.8c2.3-1,7.1-.2,10-.2,4.1,3.5,5,4.1,8.3,8.6,5.3,13.5-8,14.4-18,13.6h-5.2c-4.5-2-5.9-2.7-11.2-2.9-.9-3.3-1.8-5.4-2.5-8.9,1.9.4,3.7.8,5.6,1,.5,0,2.7.6,2.8.6,1,.6,6.1-.3,6.1-.3,6,.9,9.1,5.1,15.4.8.3-.2,1.8-.9,2.2-1.1-.4-9.7-7.6-6.8-13.5-11.3Z"/>
  <path class="st22" d="M313.9,1850.2c4.4-5.8,5.2-6.2,11.8-4.8,1.6.3,0-2,3.6.8.9,6.1,1.7,5.2,3,10.2,3.1,1.8,5.5,3.3,8.6,5.2,2.3,3,2.9,1.8,4.3,6-2,1-4,2-6,3.1-3.9-1-21.5-9.5-21.9-13.8.1-.2,0-.2.3-.3.3.1.7.2,1,.4l2-1.5c-2.6-1.9-3.9-2-7-3,.1-.8.2-1.6.3-2.4Z"/>
  <path class="st36" d="M313.9,1850.2c4.4-5.8,5.2-6.2,11.8-4.8,1.6.3,0-2,3.6.8.9,6.1,1.7,5.2,3,10.2-7.2-1.8-11.4-2.9-18.4-6.2Z"/>
  <path class="st16" d="M325.7,1857.2c15.9,4.7,10.4,6.9.4,3.4l-1.1-.4.7-3Z"/>
  <path class="st14" d="M320.5,1855.5c1.8.5,3.4,1.1,5.2,1.7l-.7,3c-2.2-1.2-4.3-2.1-6.5-3.2l2-1.5Z"/>
  <path class="st5" d="M334.5,1863.2c.5,0,1,.1,1.6.2,1.3.1,2.6.1,3.8.8,1.5.9,1.9,2.3,2.3,3.9h-.6c-2.1-.3-4-.4-5.8-1.9-1.1-.9-1.2-1.6-1.3-3Z"/>
  <path class="st30" d="M767.7,1955.4c-4.7,1.5-33.8.8-40,.8h-68.1c-10.5,0-129.3,1-131.5-1.1l4-1.5c5,2.9,31.6,1.3,39.6,1.3,48.1.3,96.3.3,144.4,0,9,0,44.7-.8,51.7.4Z"/>
  <path class="st17" d="M351.8,1845.2l1.5-.2c6.4-1.7,3.7,2.2,3.8,9-7.7,9.2-15,1.8-14.2,6.1-.8,1.1-.7.9-2,1.5-3.1-1.9-5.5-3.4-8.6-5.2-1.3-5.1-2.1-4.2-3-10.2,2.3,1.3,12.2,6.7,13.9,3.1v-2.3c3.7,1.1,7.3,3.6,7.6-1l1.1-.8Z"/>
  <path class="st17" d="M336.9,1816.9c-7.7-.5-11.7-5.3-5-11.4,4.9-4.5,15.9-1.8,22.3-1.1,1.7.9,2.3,1.2,3.9,2.2-.7,2.7.5,2.2.4,5.1-2.8,0-7.7-.9-10,.2l-2.6,1c-2.8-.8-4.2-1.3-7-1.8-1.2.4-1.2.3-2.1,1-.1,1-.2.6,1,1.2-2.6,1.6-3,1.6-.8,3.7Z"/>
  <path class="st35" d="M354.2,1804.3c1.7.9,2.3,1.2,3.9,2.2-.7,2.7.5,2.2.4,5.1-2.8,0-7.7-.9-10,.2l-2.6,1c-.3-2.4-.5-3.6-.5-6,3.8-.5,4.3-1,7.8-2.1l.9-.3Z"/>
  <path class="st35" d="M345.5,1806.8c0,2.4.2,3.6.5,6-2.8-.8-4.2-1.3-7-1.8l1.1-1.1c2.1-2,2.6-2.2,5.5-3.2Z"/>
  <path class="st10" d="M332.4,1830.9c5.3.2,6.7.9,11.2,3,2.9,1.7,14.9,7.8,8.4,10.4l-.2.8-1.1.8c-2.5-1-4.8-1.8-7.4-2.6-4.4-1.8-8.7-3.6-13.2-5.3.4-3.2.3-3.5,1.8-6.3l.5-.9Z"/>
  <path class="st35" d="M331.9,1831.8c3.6,1.6,8.2,3.2,11.5,5.4v6.2c-4.5-1.8-8.8-3.6-13.3-5.3.4-3.2.3-3.5,1.8-6.3Z"/>
  <path class="st16" d="M343.4,1837.2c3.7,2.4,5.8,3.7,8.6,7.1l-.2.8-1.1.8c-2.5-1-4.8-1.8-7.4-2.6v-6.2Z"/>
  <path class="st17" d="M345.2,1867.6c.9-.1,1.7-.3,2.6-.4,3.1,8,.3,16.5-8.9,13.3-1.5-2.2-5.1-8.4-.9-9.4l1.2-.4c2-1.1,4-2.1,6-3.1Z"/>
  <path class="st17" d="M332.2,1889.5l1.6.3,3.9,1.1c4.5,11.6-7.5,11.4-15.5,7.8,1.7-2.2,1.7-3.4,4-4.9,1.4-.2,2.8-.4,4-1,.7-1.1,1.3-2.2,2-3.3Z"/>
  <path class="st16" d="M337.7,1813.2c4.3.9,8.5,2,12.7,3.1,12.9,3.6,8,8.6,0,5.7-5.2-1.9-7.2-3.8-13.6-5.2-2.2-2.1-1.8-2.1.8-3.7Z"/>
  <path class="st36" d="M330.2,1838.1c-6.2-4.1-12-12.3-1.7-15.5l1.5-.5c.7,3.4,1.7,5.6,2.5,8.9l-.5.9c-1.4,2.7-1.3,3.1-1.8,6.3Z"/>
  <path class="st36" d="M313.4,1885.9c5.3,4.7,7,4.4,12.7,7.8-2.3,1.5-2.3,2.6-4,4.9-2.4-1.7-5-3.3-7.6-4.6-1-.5-2-1-3-1.5.7-2.2,1.3-4.4,1.9-6.6Z"/>
  <path class="st13" d="M313.3,1880.1c6.4,2,13.7,5.1,18.9,9.4-.7,1.1-1.3,2.2-2,3.3-6.6-4.4-11-6.3-18-11.5l1.1-1.2Z"/>
  <path class="st35" d="M311.5,1892.5c-1.3-.7-10.8-4.9-9.2-6.9,4.3-5.4,5.1-4.1,8.7-1.5l2.4,1.7c-.6,2.2-1.3,4.4-1.9,6.6Z"/>
  <path class="st36" d="M343.6,1833.9h5.2c7.1,5.9,12.3,8,8.7,18.6l-.5,1.5c0-6.8,2.7-10.7-3.8-9l-1.5.2.2-.8c6.5-2.6-5.5-8.7-8.4-10.4Z"/>
  <path class="st36" d="M328.3,1844.7c-12.9-1-10-14.8-2-5.6l2,5.6Z"/>
  <path class="st35" d="M326.3,1839.1c3.3,1.6,8.2,3.5,11,5.3l-.2,3.5c-4.2-2.2-4.3-2.9-8.8-3.2l-2-5.6Z"/>
  <path class="st20" d="M342.9,1860.1c2.2,2.4,4,4.1,4.9,7.1-.9.1-1.7.3-2.6.4-1.4-4.2-2-3-4.3-6,1.3-.6,1.3-.4,2-1.5Z"/>
  <path class="st36" d="M404.8,1591.1c5.5,1.2,4.3.1,8.9.4l.4.6-.3-.5-.2,1c-2.9,2-4,1.6-7.6,1.5-.3-.9-.9-2.2-1.3-2.9Z"/>
  <path class="st16" d="M381,1647.9l2.8,1.4c.8.4,2.3.9,2.7,1.8-.2,1.3-6.5.5-7.3.4.8-1.4,1.3-2.1,1.9-3.6Z"/>
  <path class="st5" d="M337.3,1844.4c2,.8,4,1.5,5.8,2.6v2.3c-2.4-.8-3.5-1-6-1.4l.2-3.5Z"/>
  <path class="st16" d="M364.4,1717.5c.9.2,3.9.4,3.9,1.8-.5.8-4.7,1.1-5.3,1.2l1.4-3Z"/>
  <path class="st17" d="M411.8,1607.9c14.5-6.9-2.1-9.8,1.2-12.4,6.4-5.1,13.4,4.4,11.9,10.6-1.6,5.4-8.4,7-13.5,8.4,0,1,.3,1.3,1.1,1.8l.7.5c2.1.8,3.4,1.4,5.5,2.3l.6,1.2c4.8,4.8-.8,12.3-3.5,16.5-2-.8-6.9-3.3-8.6-4.8,4.8-2.4,6.6-2.1,7-7.6-7.9-2.4-5.3-2.2-13.7-2.7.3,0-5.4,1-6.8-.2-4.3-3.8-16.9-2.8-8.3-13.4,3-3.7,20.1-1.1,26.3-.1Z"/>
  <path class="st35" d="M411.8,1607.9c14.5-6.9-2.1-9.8,1.2-12.4,6.4-5.1,13.4,4.4,11.9,10.6-1.6,5.4-8.4,7-13.5,8.4-3.4.3-6.7.3-10.1.6,6.6-6.1,7.2-.4,9.8-5.8l.7-1.4Z"/>
  <path class="st22" d="M401.3,1615c3.4-.3,6.7-.3,10.1-.6,0,1,.3,1.3,1.1,1.8l.7.5c-6.5,0-6.3,2.8-11.9-1.7Z"/>
  <path class="st36" d="M381.5,1683.9l2.6.7c6.5.9,5.2-1.2,9.2,3.6.2,1.4.3,1.4,1.7,1.7,3.1.7,6.6,5.6,8.5,8,3.5,4.5.8,13.9-3.9,16.4-2.1,1.2-3.9-1.4-6-1.5l-.3.2c0,.1-.1.4,0,.5,5.5,4.9,6.3,9.1,6.7,16.1-.7-1.4-1.1-2.2-1.9-3.6l-.5-1c-3.8-8.3-4.6-7.1-11.5-11.9-4.1-.9-8.5-2.1-12.3-.1-1.4.9-2.6,1.7-4.1,2.4-13-2.6-11.9-13.7,4.1-15.5,5.4,0,7.8-1.2,13,2.5,3.7,2.6,10.8,5,13.6,0,4.4-8-16.9-14.1-21.7-15.8.9-.9,1.8-1.8,2.7-2.7Z"/>
  <path class="st17" d="M369.8,1715.5c-13-2.6-11.9-13.7,4.1-15.5-.2,1.5-.8,3.1-.9,4.5,3.6,3.3,8.2.5,13.3,8.6-4.1-.9-8.5-2.1-12.3-.1-1.4.9-2.6,1.7-4.1,2.4Z"/>
  <path class="st17" d="M374.7,1720.3c6.2,3.6,12.1,7,19.6,6.2l3.9-.5c.8,1.4,1.2,2.2,1.9,3.6-2.6,4.5-2.1,4.9-6.5,7.7-9.1,1.6-10.3.8-19.3-3.4-2.4-1.3-10.4-5.4-11.3.4l-.2,3.1c-16.6-12.8,1.2-14.4,12-17.1Z"/>
  <path class="st36" d="M374.2,1733.9c4.4-1,5-3.5,6.6-3.7,4.1-.6,4.9,3.7,5.2,6.5.1.4,5.7.5,7.5.6-9.1,1.6-10.3.8-19.3-3.4Z"/>
  <path class="st17" d="M402.3,1644.6c-9-1.7-11.8-1.5-20.3-.3-4.1.5-4.7-9.5,0-12.2,5.5-3.2,9.3-2.7,15.8-1.7,3.8,1.3,5.9.8,9.4,1.7,1.7,1.4,6.6,4,8.6,4.8-4,2.9-6.4,3.2-8.9,4.9,0,.2,5.5,6.2,6.2,7.1-.7.4-1.1.5-1.9.7-3.8-3.6-4.4-2.6-8.9-4.8Z"/>
  <path class="st36" d="M397.8,1630.3c3.8,1.3,5.9.8,9.4,1.7,1.7,1.4,6.6,4,8.6,4.8-4,2.9-6.4,3.2-8.9,4.9,0,.2,5.5,6.2,6.2,7.1-.7.4-1.1.5-1.9.7-3.8-3.6-4.4-2.6-8.9-4.8,4.5-2.2,1.6-4.5-.3-7.5l-.2-1c-7.7.9-3.7-1-3.9-5.8Z"/>
  <path class="st10" d="M401.7,1636.2c2-.7,5.4-1.2,7.3.2.7,2.8-6.3,1-7.1.8l-.2-1Z"/>
  <path class="st35" d="M360.9,1758.1c-18-4.2-9.7-21.7,6.9-14.2,5.8,1.9,9.2,3.3,14.5,6.5-3,3.3-3.3,1-6.2,3.6l-2.9,1.1c0,1.7,0,3.4,0,5-4.3-.8-8-1.5-12.3-2.1Z"/>
  <path class="st17" d="M367.8,1743.9c5.8,1.9,9.2,3.3,14.5,6.5-3,3.3-3.3,1-6.2,3.6-3.8-1.3-6.7-2.3-10.6-3.3.3-2,.5-3.9,1.6-5.6l.8-1.2Z"/>
  <path class="st5" d="M360.2,1752.4c4.4.7,8.6,1.8,13,2.7,0,1.7,0,3.4,0,5-4.3-.8-8-1.5-12.3-2.1-.2-1.9-.4-3.7-.7-5.6Z"/>
  <path class="st10" d="M360.2,1752.4c-1.4-.5-3.3-1.1-2.9-2.8,2.2-2.4,5.8,0,8.2,1,3.9,1.1,6.8,2,10.6,3.3l-2.9,1.1c-4.3-.9-8.6-2-13-2.7Z"/>
  <path class="st35" d="M407.8,1672.5c3.4,4.5,6.1,8.5.2,13.6-3.8,3.3-10.1,1.4-14.7,2.2-4-4.8-2.8-2.7-9.2-3.6l-2.6-.7-2.6-2.4c-.4-1.9-.2-1.9-2.2-2.2l-.6-1.6,1.4-.4c3.2-.9,2.3-2,4-3.1,7.2-.3,13,8.1,24.3,3.6l1.5-.6c.2-1.6.4-3.1.6-4.7Z"/>
  <path class="st20" d="M378.9,1681.5c1.8.2,8.5.7,9.7,2-.5.8-4,1.1-4.5,1.2l-2.6-.7-2.6-2.4Z"/>
  <path class="st35" d="M384.8,1742c17.7,6.8,7.4,23.3-11.6,18.2,0-1.7,0-3.4,0-5l2.9-1.1c2.9-2.6,3.2-.3,6.2-3.6,5.2.6,5-2.7,1-5.2.4-1,1-2.3,1.5-3.2Z"/>
  <path class="st17" d="M379.7,1669.6c-5.7-2.6-6.8-9.3-2.1-13.5,4.2-3.8,9-1,12.6-1.8,1.9-4.6,4.6-1,10.9.5l-2,.3c-5.4.5-4.6.8-1,3.8l1.2.6-3.3,1.9c-2.3-.7-2.6-.8-4.8-1.9-3.1,2.1-3.4.9-6.6,3.7-.9.3-1.2.5-1.5,1.4l-.2.8c-2.5,1.4-2.8,1.5-3.3,4.3Z"/>
  <path class="st24" d="M398.1,1658.8l1.2.6-3.3,1.9c-2.3-.7-2.6-.8-4.8-1.9,2.3-.2,4.6-.4,6.9-.6Z"/>
  <path class="st35" d="M413,1648.7c3.6,8.1,3.2,12.3-6,15.7l-1,.4c-1.1-1.1-2.2-2.4-3.4-3.6-.4-1.9-1.3-1.5-3.4-1.8l-1.2-.6c-3.6-3-4.4-3.3,1-3.8l2-.3c4.7-.8,6.1-2.8,10.1-5.3.8-.2,1.2-.3,1.9-.7Z"/>
  <path class="st13" d="M374.9,1690.6c5.4,1.3,10.1,2.2,15.4,4.1,11.9,4.1,7.9,10.4-2.5,5.4-5.3-2.5-10.5-5.1-15.7-7.8,1.2-.6,1.5-.9,2.8-1.7Z"/>
  <path class="st36" d="M384.7,1663.1c3.2-2.8,3.5-1.6,6.6-3.7,2.2,1.1,2.5,1.2,4.8,1.9l3.3-1.9c2.1.3,3-.1,3.4,1.8,1.1,1.2,2.2,2.4,3.4,3.6h-1.9c-6.6.3.8,5.4,3.5,7.7-.2,1.6-.5,3.1-.6,4.7-4.6-10.7-12.1-11.5-22.5-14.1Z"/>
  <path class="st22" d="M399.3,1659.4c2.1.3,3-.1,3.4,1.8-3.2,1.1-3.3.8-6.7,0l3.3-1.9Z"/>
  <path class="st17" d="M372.1,1692.2c-6.3-5.7-3.9-12.3,4-14.6l.6,1.6c2.1.3,1.8.2,2.2,2.2l2.6,2.4c-.9.9-1.8,1.8-2.7,2.7-2.7-.8-3.4,1.7-3.9,3.9-1.3.8-1.6,1.1-2.8,1.7Z"/>
  <path class="st36" d="M376.6,1679.3c2.1.3,1.8.2,2.2,2.2-2.8,0-1.9.1-2.2-2.2Z"/>
  <path class="st13" d="M382.9,1665.3c1.7.7,28,8.8,17.6,11.6-1,.3-18.3-6.5-20.8-7.3.5-2.8.8-2.9,3.3-4.3Z"/>
  <path class="st13" d="M339.6,1795.2c3.6-.2,6.8,0,10.4.4,2.1.2,3.6.3,5.5,1.3,1.7.8,3.3,1.8,5.1,2.5,2.5,1,3.1.9,4.4,3.3-.8.2-1.5.5-2.3.7-4.5,1.2-17.1-4.2-20.8-6.6-.8-.5-1.5-1-2.2-1.5Z"/>
  <path class="st16" d="M373.9,1713.1c1.9.6,25.6,7.8,18.7,10.9-1.1.5-20-7.4-22.8-8.5,1.5-.8,2.7-1.6,4.1-2.4Z"/>
  <path class="st13" d="M362.9,1734.3c8.2,2.3,14.3,3.8,21.8,7.7-.5.9-1.1,2.2-1.5,3.2-4.7-1.1-16.4-5.5-20.6-7.8l.2-3.1Z"/>
  <path class="st13" d="M390.1,1622.1c4.3.6,8.6,1.4,12.9,1.8,1.6.2,3,.2,4.5,1,1.5.7,1.7,1.6,2.2,3.2-2.1.3-4,.7-6.1.5-5.6-.7-10-2.1-13.5-6.4Z"/>
  <path class="st13" d="M384.8,1645.3c3.5,0,6.8.2,10.2.7,3.5.5,9,1.8,11.3,4.7-3.6,1.2-5.2,1.2-8.8-.2-2-.7-4-1.5-6.1-2.1-2.7-.8-4.2-1.6-6.6-3.1Z"/>
  <path class="st18" d="M309.6,1919.8c1,.4,2,.7,2.9,1.2,1.3.8,1.6,1.4,1.9,2.8-.2,0-.3,0-.5,0-.9,0-1.6-1-2.2-1.6-.3-.3-.6-.7-.9-1.1-.4-.5-.8-.9-1.2-1.4Z"/>
  <path class="st21" d="M909.6,1310.1c123-17.2,198.4,146.1,103.1,209.5-3.2-14.8-12-59.1-19.6-69.2l-1.6-.8c-.9,8.3,23.7,76.4,19.3,84.1-8.8,9.4-29,38.9-37.2,50.4-23.9,33.1-47.5,66.3-70.8,99.8-23.4-27.5-48.9-55.8-72.9-82.8-4.4-21.6-7-43.6-7.9-65.6-.4-8.8.2-24-.6-31.3l.5-.9c7.7-15.1,18-30.2,26.1-45.9,24.2-47.6,44.8-96.9,61.7-147.5Z"/>
  <path class="st11" d="M960.9,1386.5c.5.1,1.9.3,2.5.7,4.7,3,7.9,17,8.6,22.3,1.2,8.7,2.2,18.7-.1,27.2-.1,0-.2,0-.4-.1-.7-.3-1.5-.5-2-1.1-.8-.8-.7-1.9-.6-3,.9-8,.4-15.1-.8-23-1.2-8.3-5-15.2-7.2-23Z"/>
  <path class="st11" d="M285.9,1960.5c-2.5,3.2-4.5,4.5-8.5,5.1-17.4-5.7-11.6,6-27-1.9-8,1.4-19.1,2.6-27.4,2.2-2.2,0-4.8-3.9-6.4-5.9l-.9-1.2h-1.8c-1.8,2.6-2.6,3.6-4.7,6-5.8,1-34.7-5.2-42.8-5.2-6.2,0-21.9-15-26.5-17.5-9.3-5-6.5-3.5-9.9-13.3-8.7-12.8-7-22.1,3.5-33.3,12.5-12,34.4-21.2,51.6-23,6.8-.7,8.9-2.9,15.4-4.1,7.7-1.2,15.7-1,23.1-1.4,17.3-1,14-6.4,26.6,7.4l-3.2,2.1c5.2,11.5,3.3,16.9,4.6,28.7,1.4,3.4.8,4.4-1,7.8,1.9,2.6,1.2,4.1-.5,6.6l5.7,2.5c.5.9,1,1.8,1.5,2.7,1.3-1.1,1.8-1,3.6-1.5,10-3.3,8.3-1.5,9.3,7.7,1.2,10.5,5,21,13.7,27.6l1.9,2Z"/>
  <path class="st35" d="M251.6,1905.3c-1.8,8.5-10.6,3.2-8.7-4.8,1.3-5.3-4-19.3-8.8-22.7-8.5-6-8.4-10.3,2.8-9.7,4.1.2,7.5,5.1,10,8.4,5.2,11.5,3.3,16.9,4.6,28.7Z"/>
  <path class="st35" d="M260.9,1923.3c10-3.3,8.3-1.5,9.3,7.7,1.2,10.5,5,21,13.7,27.6-18.8,16.9-23.3-24.2-23-35.3Z"/>
  <path class="st35" d="M257.3,1924.8c-3.5,10.7-2.3,22.9,5.1,31.8,2.2,2.7,3.9,5.7-1,6.4-16,2.4-16.6-28.6-14.5-38,.4-2.1,7.9-2.7,8.9-2.9.5.9,1,1.8,1.5,2.7Z"/>
  <path class="st13" d="M201.7,1914.9c3.1-1,4.3-4.9,6.6-3.5,2.9,1.7,7.2,2.7,10.1.2,4.8-3.9,12.8,5.3,20.1-.2,3.5-2.7,4.8,1.6,12.3,1.7,1.9,2.6,1.2,4.1-.5,6.6-1,.3-5.9,2.3-6.1,2.2-8.8-5.3-10.3,3.2-18.5-2.2-1.6-1.1-6.5,2.2-9.9-.1-3.7-2.6-7.9-1.2-11.7-.6-.7-1.3-1.5-2.8-2.3-4Z"/>
  <path class="st16" d="M204,1918.9l-1.3-.2-1.9-.3c-5.4-1-3.6-2.7.9-3.4.8,1.2,1.6,2.7,2.3,4Z"/>
  <path class="st35" d="M165.8,1900.3c1.5,0,2.7.1,3.9,1.1,1.1.8,2.7,3.5,2.6,4.8,0,.3-.1.5-.3.8-.9,1.4-4.7,1-6,1.1-4.7.5-10.4,3.2-14.1,6-7.7,5.9-8.7,17-9.9,25.8-1.1-.5-2.1-1-3.1-1.7-2.1-1.5-3.9-4.1-4.2-6.7-.8-7,2.3-13.5,6.4-18.9,6.6-8.7,14.4-10.7,24.7-12.3Z"/>
  <path class="st35" d="M189.7,1876.4c19.2-12,22,2.4,27,18.7,5.5,18-8.4,21.8-9.9,2.5-.6-7.4-4.3-15.5-11.7-18.7l-3.2,2.5c-1.9-1.5-2.5-2.3-3.9-4.1.5-.3,1.1-.6,1.6-.8Z"/>
  <path class="st22" d="M188.1,1877.2c.5-.3,1.1-.6,1.6-.8l1.6,1c1.4,1,2.1,1.3,3.8,1.4l-3.2,2.5c-1.9-1.5-2.5-2.3-3.9-4.1Z"/>
  <path class="st35" d="M192,1881.3l1.8,2.2c3,3.7,15.2,23.4,8.2,28-6.4,4.2-7.6-3.1-9-7.5-2.3-7.3-5.6-17.7-14.1-20-9.4-2.8-9.1-4.6-.9-7.8,5.3-2,5.2-1.5,10.1,1,1.5,1.8,2.1,2.6,3.9,4.1Z"/>
  <path class="st35" d="M214.6,1868.6c3,.4,6.4.6,8.7,2.8,5.8,5.3,8.5,13.5,9,21.1.4,6.8.7,12-3.9,17.1-.6-.2-1.2-.5-1.9-.8-1.4-.5-2.8-1-4-1.9-2.2-1.7-.8-12.4-1.1-15.5-.6-5-1.2-11-5.6-14.2-.4-.3-.8-.5-1.3-.8-1-.7-3.3-2.5-3.3-3.9,0-.7.6-1.4,1.1-1.9.4-.3.8-.6,1.1-.9l1.1-1.1Z"/>
  <path class="st35" d="M191.3,1919.6c1.8.2,3.6.4,5.4.9,1.1.3,2,.6,2.5,1.6,0,.6-.2,1.1-.5,1.6-.9,1.9-1.9,3.8-2.5,5.8-2.2,6.7-3.7,16-.2,22.4,1.8,3.3,1.8,4.8,1.6,8.7l-2-.3c-2.3-.3-5-.5-6.9-1.9-1.7-1.3-2.6-2.8-2.7-4.9-.2-3.1-1.1-6-1.6-9-1.3-7.5.4-16.6,5.1-22.7.2-.2.4-.5.6-.7l1.2-1.5Z"/>
  <path class="st35" d="M175.7,1916.1c3.2,0,7.9-.7,10.8.9.6.3.9.6,1.1,1.3-.3.6-1.2,1.2-1.8,1.5-2.1,1.2-3.5,2.2-5.1,3.9-7.4,7.6-10.1,21.2-10.1,31.4,0,.6.2,1.4-.3,1.9-.4.4-.8.5-1.3.4-1.8-.1-3.6-1.6-4.7-2.9-2.3-2.6-2.5-5.2-2.3-8.6.5-10.2,6.3-22.9,13.7-29.9Z"/>
  <path class="st35" d="M165.2,1911c2.9,0,5.9-.3,8.8,0,1.1.2,2.8.5,3.5,1.4h0c-.7.6-1.4,1-2.1,1.3-1.3.5-2.5.9-3.7,1.5-7.2,3.5-12.8,10.9-15.2,18.4-1.3,4-2.3,9.4-.1,13.3l1.3,2.2c.5.3.7.4.9.9,0,.2,0,.2-.3.4-1.2.7-3.4.2-4.6-.3-4.9-2.1-6.2-7.5-8-11.9,1-3.3,1.9-6.6,3.1-9.8,3.4-8.6,8.3-13.6,16.6-17.4Z"/>
  <path class="st35" d="M235.5,1922.5c1.9.4,4.4.6,6,1.8.5.3-1,14.9-.6,17.8.1,1.2.2,2.3.5,3.5.2.8.4,1.7.6,2.5.8,4.2,4.9,8.6,5.3,11.9,0,.5-.3,1.1-.5,1.6-.2.3-.3.6-.5.8-.2.4-.4.8-.6,1.1-2.4-.2-6.6.2-8.6-1.4-3-2.5-4.4-8.4-4.8-12.1-.9-6.8-1.2-12.6-.3-19.5.5-3.9,1.2-5,3.7-8Z"/>
  <path class="st17" d="M151.3,1890.2c2.5-.1,6.3-.9,8.7.3,1.6.9,3,3.2,3.4,4.9,0,.4.1.8-.1,1.1-.6.9-2.3,1.2-3.3,1.3-4.1.5-8.8,1-12.6,2.6-6.9,3-10.7,9.7-13.4,16.3-.5,1.6-1,3.3-1.6,4.9-.2.6-.7,2-1.5,2.2-.4,0-.7,0-1-.2-1-.6-1.5-2.1-1.9-3.2-2-6.4,1.7-13.6,4.8-19.1,3.8-6.9,11.3-9.2,18.4-11.2Z"/>
  <path class="st35" d="M221.6,1922.5c1.6.4,6.2,1.1,7,3,.2.3-.3,1.8-.3,2.1-.4,1.7-.9,3.3-1.2,5-1.3,7.8-1.4,17.9,1.4,25.3,0,.3.2.5.3.8.4,1,.8,2.2.2,3.2,0,.1-.2.2-.3.4-.3.5-.6.9-.9,1.4-.4,0-.7-.2-1.1-.2-3.1-.6-4.8-1.4-6.8-4-4.9-6.7-4.4-15.2-3.3-23,.6-4,1.3-7.9,3.3-11.5.5-.8,1-1.7,1.5-2.5Z"/>
  <path class="st17" d="M207.9,1922.5c1.9.1,5.8-.3,7.3,1.1.3.8,0,1.6-.4,2.3-5,11.4-2.1,24-4.6,35.8-2.3-.2-7.1.4-8.8-1.7-1.1-1.4-1-3.9-.8-5.5.6-6.4,1-13.3,2.6-19.5,1.2-4.5,2.6-8.3,4.7-12.5Z"/>
  <path class="st17" d="M163.1,1880.9c.6,0,1.1.2,1.7.3,7.4,1.7,13.1,8.9,16.5,15.2,1.8,3.3,4.8,8.8,3.4,12.7-.3.9-.9,1.9-1.8,2.2-1,.4-2.2-.1-3.1-.6-.6-.3-1.1-.6-1.7-.9l-1.1-.6c-.6-1.4-1.3-2.7-1.6-4.2-.4-1.8-.7-3.4-1.6-5.1-1.9-3.4-4.5-5.7-7.3-8.4-9.8-9.5-6-2.3-13.9-4.7,0-.2-.1-.2,0-.4,1.6-2.6,8.1-4.5,10.8-5.6Z"/>
  <path class="st35" d="M181.8,1927.9c-.7,7-2.3,12.3-1.5,19.6.2,2.4,3.4,7.2,2.9,8.9-.3.9-1.4,1.5-2.2,1.9-.4.2-.7.3-1.1.5l-1.6.8c-.3-.2-.5-.5-.8-.7-1.6-1.4-2.7-2.5-3.3-4.6-2-6.9,3.1-18.9,6.6-24.8l1-1.7Z"/>
  <path class="st35" d="M237.3,1888c.9,4.4,3.6,14.5,1.7,18.9-.5,1.1-3.4,2.6-4.9,1.9.3.4,1.9-13,1.7-15.9l1.5-4.9Z"/>
  <path class="st6" d="M200.4,1927.8c.2.2.6.6.8.8.5.6,0,2.1-.1,2.8-.7,2.6-1.6,5.4-1.9,8.1-.2,1.9-.6,3.5-1.2,5.4-.2,0-.4.1-.6,0-1-1.3,0-6.2.3-7.9.5-3.4,1.4-6,2.6-9.2Z"/>
  <path class="st5" d="M189.3,1905.8c1.9,3.1,2.8,5.7,3.4,9.3-.1,0-.3-.1-.4-.2-1.2-.5-2.8-1-3.7-2.2-.6-.7-.5-1.7-.3-2.6.3-1.2.6-2.3.8-3.5l.2-.9Z"/>
  <path class="st6" d="M161.3,1929.7c.9,3.2-.3,5.2-1.1,8.4-.5,1.9-.9,3.4-1.5,5.3-1.3-4.8.9-9.2,2.6-13.7Z"/>
  <path class="st20" d="M235.7,1892.9c-.2-1-.4-1.9-.6-2.9l-.3-2c0-.3-.8-3,0-3.3,1,.4,2.1,2.5,2.5,3.3l-1.5,4.9Z"/>
  <path class="st35" d="M467.6,1097.6c6.9,1.4,21.4,4.5,24,12,5.2,15.2-20,15.6-29.1,18.4-4.1,1.3-8,2.6-12,4.3,6.3-.2,12.9-.7,19.2-1.1,6.7,3.5,15.1,10.3,11.6,19.7-7.6,20.1-31.3,7.6-38.9,11.4,1.6,2.7,23.2,2.9,26.7,10.3,9.1,19.4-18.4,18.2-24.8,21.1,6.4,4.2,14.4,1.4,19.8,8.3,6.2,6.2,5.3,13.2-.7,19-4.4,3.3-7.3,4.1-12.3,6-1.5,1.9-3.6,2.4-3.7,2.7.6,1.4,2.7,2.6,4,3.6,3.5,2.9,7.6,6.8,10.4,10.3,7.1,19-3.4,25.1-19.8,30.3-2.2.7-4.5,1.4-6.7,2,7.9,2.1,29.1,8.8,25.3,19.6-3.6,10.2-22.3,11-30.8,11.7,8,1.7,20.7,4.8,24.4,12.4,8.3,17.1-18.1,19.4-26.7,20.2,35.6,11.6,38.7,30.4-2.1,32.5,7.7,3.2,21.2,7.7,24.5,15.4,6.3,14.9-20.3,16.3-27.6,16.9,6.2,2.3,27.9,9,25.9,19.7-1.8,9.7-23.3,10.8-25.9,13.7,7,3.2,19.3,6.9,22.2,14.8,5.7,15.3-22.1,15.5-29.7,15.6,8.9,3.2,21.9,7.7,24.8,17.8-3.8-.8-4.1-3.5-4.8.4-5.2-13.7-26.4-6-30.4-19,4.1-9.9,20.8-4.2,32-10.6,1.4-3.7,1.4-1.9.6-5.5-8.2-9.4-26.5-4.3-28.8-15.4,4.9-12.8,33.4-2,32.7-16.9-6-8.4-25.3-6-29.3-15.1,2.3-11.2,19.8-3.6,30.7-10.9,1.9-3.1,1.4-1.4,1.4-5.2-6.2-9-27.4-6-29-16.8,6.4-14,29.6-.4,33.6-14.9-3.5-9.2-26.9-8.5-31.9-16.8l.7-2.3c8.8-8.2,31.3-3.8,33.7-14.6-5.1-8.6-26.6-5.5-30.6-16.1,2.9-11.7,25.5-4.2,32.7-13.2,2-11.7-24.5-8.8-29.5-18.8,2.3-15.2,40.1-3.8,31.8-26.5-7.5-8.7-33-10.4-29-21.3,6-4.8,23.6-6.8,33.1-9.7,2.5-4.1,2.6-4,2.6-8.6-8.5-8-33.4-6.7-29.9-17,8.9-7.3,27.2-4.5,31-13.8-2.8-6.7-15.9.8-25.7-5.8-1.7-2.4-1.8-2.6-1.8-5.7,0-14.2,28.8-5.3,36.7-14.1,2.1-2.4,1.7-3.8,1.7-6.8-.5-.8-1-1.5-1.5-2.3-8-2-25.2.2-27.9-10.6,4.9-18.5,40.2-8.3,41.1-19.7-3.6-7.6-10.8-10.3-18-14.8Z"/>
  <path class="st11" d="M451.3,1233.3c-15.5-3.4-20.8-4.2-.3-6.3-1.5,1.9-3.6,2.4-3.7,2.7.6,1.4,2.7,2.6,4,3.6Z"/>
  <path class="st9" d="M1650,1917l88.2-.4c14,0,28.5-.3,42.5.3,22.5.9,42.6,13.6,35.1,39.2h-157c-3.1-13-6-26.1-8.8-39.1Z"/>
  <path class="st16" d="M288.4,1902c-1.7-21.5-.3-62.8-.2-86.1v-167.9c0,0,0-270.5,0-270.5,0-43.2-1.1-91.9.2-134.5l1.1-.9c3.9,0,3.7-.6,6.6,1.1,1.4,9,.6,43.1.7,54.4v121.6c.1,0,0,252.4,0,252.4-.2,69.6-1.2,144.2.4,213.6-1.7,4.2-3.1,10.7-6,13.7l-2.8,3Z"/>
  <path class="st9" d="M1037.6,1920.3h111.3c-1.9,11.9-3.5,23.9-4.9,35.8h-10.6c-30-.8-63.4,0-93.7,0l-.8-9.7c-.5-8.7-1-17.4-1.4-26.1Z"/>
  <path class="st35" d="M295.2,1957.1c-11.8-1.1-13.2-26.8-17.5-31.9-6.7-7.9-.6-10.1,5.2-7.7,4.5,1.8,11.6,22.3,13.7,27.5,3.8,7,6.1,5.6-.1,11l-1.3,1.1Z"/>
  <path class="st35" d="M505,1052.6c4.3-2.2,7.2-4.6,4.4-10.3-2.6-5.2-8.8-5.4-13-7.7-.4-.7.9-1.3,1.2-1.3,3.7-.2,12.5,1.3,15.5,3.8,12.4,10.3,1.3,15.5-7.3,17.9l-.7-2.4Z"/>
  <path class="st14" d="M300.2,1729.5c2.3,31.4-.5,69.8.7,101.5.3,9.6-.7,28.5.7,37.2v1.1c.5,3.2,2.5,9.1,2.2,11.4-1.7,1.6-1.8,1.8-3.7,3.2,1.4-50.7-1-103.4.2-154.3Z"/>
  <path class="st5" d="M497,1052.6h1.6c2.2.2,4.3.1,6.4,0l.7,2.4c-4,.2-6.6.3-10.7.2l2-2.7Z"/>
  <path class="st16" d="M1762.9,994.8c.7,6.1.3,9.6.7,15.5,0,.1,0,1-.1,1.1,0,.5-.5.9-.8,1.2h-.2c-1.2-2.7,0-14.8.4-17.8Z"/>
  <path class="st21" d="M1097.2,586.1l89.2-65.6c1.5,8.1,14.4,70.1,22.2,68.6.4-3-2.9-9.9-4.2-13.2,11.7.4,22.8.7,34.6.5l1.4,2.3c5.2-3.1,32.4-.5,41.4-.5.6.4,2.2,1.5,2.7,1.7,5.6-1.6,45.9,2.8,52.4,4l3.2.7c17.9.2,43.3,8.9,60.8,12.6l3,2.2c19.5,2.5,50.8,25,63.1,41,25.3,33.1,23.4,92.2,32.8,134.5.4-2.2.5-3.9.7-6.1,2.2,1,1.2.3,2.7,3.1,1,.9,1.1,1.2,1.9,2.3l-1.6,3.6c3.2,18.7,5.1,37.5,7.4,56.3.7,5.7,2.6,25.5,4.2,30-1.8,3-2,2.9-1.9,6.5l-1.2.5c1.4,28,4.9,58.7,6.9,87.2,2.3,36.4,3.8,72.9,4.5,109.3.5,18.3,0,36-.3,54-.6,35.1-4.7,64.6-46.6,70.1-18.3,2.4-37,4.4-55.4,5.8,19.7-22.4,39.5-47.9,52.4-75-29.4-26.2-62.4-48.2-98-65.3,21.5-.3,38.6,1.3,59.3,7.7,1.8.6,1.4.4,3.4,0v-1.5c-4.6-4.2-34.6-8.8-42-9.8,13.5-3.3,49.7-4.9,65.2-4.2.6-.5,1.2-1,1.8-1.5-4.5-3.9-32.1-2.1-39.7-1.6-11.8.9-23.5,2.2-35.1,4.1-4.1-22.8-8.7-46-12.6-68.8-2.7,3-2.8,3.2-4.7,6.8-2,3.6-10.8,60.7-12,68.3-93.2,21-207.8,55.7-301.6,38.8-5.2-7.6-21.1-25.2-27.7-33.2-13.2-16.2-25.7-32.8-37.6-49.9,14.6,2.6,45.2,3.8,58.3-3.2l-.4-.9c-3-.6-18.5,1.4-22.2,1.8-89.2,8.1-132.4-69.7-116.5-150,12.8-64.7,48.6-90.7,89.4-137.8,16.4-1.1,33.2-1.3,49.7-1.7,0-41.8-4.1-100.9-15.4-140.5,9.3,2.7,23.7,10.6,32.7,15.3,1.3,8.9,20.3,85.3,22.6,87.3,3.1,0,2.9.1,5.5-1.4,1.2-5.3.9-22.6,1-29.1l.7-66.1Z"/>
  <path class="st21" d="M1335.4,749.4c9.4,10.1,23.6,21.6,34,31.3,27.3,25.3,58.7,50.4,85.1,76.3,12.9-18.7,34.5-56.6,46-77,1.5,16.1,4.7,33.7,6.3,50.2.8,8.9,3.3,32.8,5.1,40.7,1.4,28,4.9,58.7,6.9,87.2,2.3,36.4,3.8,72.9,4.5,109.3.5,18.3,0,36-.3,54-.6,35.1-4.7,64.6-46.6,70.1-18.3,2.4-37,4.4-55.4,5.8,19.7-22.4,39.5-47.9,52.4-75-29.4-26.2-62.4-48.2-98-65.3,21.5-.3,38.6,1.3,59.3,7.7,1.8.6,1.4.4,3.4,0v-1.5c-4.6-4.2-34.6-8.8-42-9.8,13.5-3.3,49.7-4.9,65.2-4.2.6-.5,1.2-1,1.8-1.5-4.5-3.9-32.1-2.1-39.7-1.6-11.8.9-23.5,2.2-35.1,4.1-4.1-22.8-8.7-46-12.6-68.8-14.4-77.1-30.4-154.5-40-232.2Z"/>
  <path class="st28" d="M1403.9,599.5c19.5,2.5,50.8,25,63.1,41,25.3,33.1,23.4,92.2,32.8,134.5-12.3,22.8-31.9,54.2-45.6,76.5l-123.7-110.3,7.2,54.2c-30.3-25-60.9-49.8-91.5-74.4,41.1-30.8,81.6-62.7,122.4-93.8,10.4-7.9,26.2-18.9,35.4-27.7Z"/>
  <path class="st11" d="M1239,576.3l1.4,2.3c5.2-3.1,32.4-.5,41.4-.5.6.4,2.2,1.5,2.7,1.7,5.6-1.6,45.9,2.8,52.4,4l3.2.7c17.9.2,43.3,8.9,60.8,12.6l3,2.2c-9.2,8.9-25,19.8-35.4,27.7-40.9,31.1-81.3,63.1-122.4,93.8,30.7,24.6,61.2,49.4,91.5,74.4l-7.2-54.2,123.7,110.3c13.7-22.3,33.3-53.8,45.6-76.5.4-2.2.5-3.9.7-6.1,2.2,1,1.2.3,2.7,3.1,1,.9,1.1,1.2,1.9,2.3l-1.6,3.6c3.2,18.7,5.1,37.5,7.4,56.3.7,5.7,2.6,25.5,4.2,30-1.8,3-2,2.9-1.9,6.5l-1.2.5c-1.9-8-4.3-31.8-5.1-40.7-1.6-16.5-4.8-34.2-6.3-50.2-11.5,20.4-33,58.3-46,77-26.4-25.9-57.8-51-85.1-76.3-10.4-9.6-24.6-21.2-34-31.3,9.6,77.7,25.7,155.2,40,232.2-2.7,3-2.8,3.2-4.7,6.8,1.6-7.5-1.9-22-3.4-30-4.8,8.5-13.1,23.2-17.8,31.1-7.2,12-42.4,60.9-51.8,65.1l-1.1-1.1c.4-1.3,23.5-29.2,26.4-32.9,17.2-22.4,30.5-43.5,42.8-68.9-8.7-49.5-19.8-100.8-27.2-150.3-12.3-11.6-33.9-28.6-47.2-39.4l-81.9-66.1c-16.7,1.6-33.8,3.7-50.4,5.6,19.4-28.2,37.3-59.8,56.2-88.5,7.7-11.8,15.3-25.4,23.6-36.5Z"/>
  <path class="st28" d="M1340.1,584.6c17.9.2,43.3,8.9,60.8,12.6-2.1,4.8-143.7,111.5-157.2,121.7-7.3-5.7-14.6-11.8-21.9-17.6,26.5-28,57.5-55.6,84.7-83.2,10.7-10.9,23.6-22.2,33.5-33.5Z"/>
  <path class="st28" d="M1284.5,579.9c5.6-1.6,45.9,2.8,52.4,4-39.5,38.3-78.7,76.8-117.6,115.6l-8.2-6.6c-4.7,0-9.2.7-13.8,1.2,19.6-27.7,42.9-55,63.3-82.2,4.8-6.4,21.1-26.1,24-32Z"/>
  <path class="st28" d="M1240.4,578.7c5.2-3.1,32.4-.5,41.4-.5-1.7,5.5-79,102.6-88.9,115.8l-26.6,3.4c16.6-28.1,35.2-55.3,52.2-83.1,5.5-9,17.8-26.8,21.9-35.7Z"/>
  <path class="st21" d="M1503.1,771.9c1,.9,1.1,1.2,1.9,2.3l-1.6,3.6c-.3-2.8-.4-3.2-.3-5.9Z"/>
  <path class="st21" d="M1139.4,809.4l12.6-.9,22,38.2c-24.4,30.2-52.8,68-75.9,99.2-11.7-11-23.3-22.2-34.7-33.6-15.1-15.1-30.6-29.5-45.7-45,5.8-13.5,14.8-29.5,21.5-43.2l33.5-6.6c7.5,7,17.6,18.3,24.9,26,7.4-10.8,14.9-21.5,22.7-32.1,6.3-.5,12.7-1.3,19-2Z"/>
  <path class="st11" d="M1337.2,889.2c2.7,1,1.6.2,3.3,2.4.2,3.7-.1,6.5-1,10.1-7.5,30.4-26.6,56.4-53.2,72.8-37,22.8-76.9,24-118,14.4l-2.8-1.8.3-1.3c4.7-.9,14.3,2.2,19.5,3,73.1,11.2,139.8-23.5,152-99.7Z"/>
  <path class="st25" d="M1505,774.1c21.3,48.5,44.8,98.5,64.5,147.7,32.7,81.8,61,165.5,96,246.5,96.7,219,199,435.6,306.6,649.4-19.6,43.8-93.7,66.8-137,81-62.2-208.6-119.9-418.5-173.1-629.6-4.7-18.2-12.4-45.1-15.4-63-1.9-11.4,4.5-51.1.7-63.7-1.6-5.4-13.5-28.2-16.5-34.3-9.2-18.7-18.2-37.6-27.1-56.4l-59.5-126.7c-3.6-7.9-25.7-56.4-29.2-61.1-1.6-4.5-3.5-24.3-4.2-30-2.3-18.8-4.3-37.5-7.4-56.3l1.6-3.6Z"/>
  <path class="st7" d="M1641.9,1311.8c-.4-11.8,1.3-30.5,1.9-42.8.7-14.4,1-33.1,2.9-47,4.1,19.5,10.1,38.5,14.3,57.8l133.3,493.3c-50.9,31.9-103.1,53.4-162.9,60.8l-28.1-125c-7.8-34.5-13.3-84.9-45.2-105.3-3-1.9-6-3.7-9.2-5.2-1.2-.3-3-.5-3.5-1.8.8-1.3,9.1-.8,10.7-.8,18.1.6,39-6.9,44.6-26.9,3.2-11.5,1.5-27.3,3.2-40,5.7-42.3,10.7-84.7,16.2-126.9,2-15.5,9.8-25.8,14.7-40.9,5.9-18.1,4.8-31.2,7.1-49.2Z"/>
  <path class="st31" d="M1641.9,1311.8c-.4-11.8,1.3-30.5,1.9-42.8.7-14.4,1-33.1,2.9-47,4.1,19.5,10.1,38.5,14.3,57.8v2.1c0,1.3.3,1.9-.4,2.7v1c.1,0,0,0,0,0-3.5-5.4-8.5-35.4-11.2-42.9-4.6,1,.1,11.2-3,16.3-.2.4,0,13.2-.4,15.6-1.5,8.2.9,13.9-1.3,22.9-2.3,9.1,1.3,16-2.4,25.8.4-.7.2-.3.5-1l-.5-.4c.4-3.4,0-6.6-.3-10Z"/>
  <path class="st15" d="M1549,1598.3c-1.2-.3-3-.5-3.5-1.8.8-1.3,9.1-.8,10.7-.8-3.6.8-4.2.5-7.1,2.5Z"/>
  <path class="st21" d="M772.7,842.9l130.7-48.9c-7.8,32.1-14,64.7-18.6,97.4-1.6,11.4-4.1,27.1-4.5,38.2-32.7,39-94.2,96.6-132.8,126.4-41.5,32.1-108.7,79.4-163.1,70.3-5.9-1-13-3.1-16.2-8.4-23.8-38.7-7.4-107.3-.5-148.2,12.9.7,27.2-6.3,16.1-19.9,2.6-1.3,3-1.6,5.3-3.3,8.8,5.3,23.6,6.7,20.1-8.7-1.9-8.4-13.4-10.2-5.8-22.4,8.3,5.5,17.8,21.1,28.4,10.4,4.5-10.5-5.3-21.9-8.9-31.5l1.3.6c10.1,4.8,23.2,21.8,32.9,10.2,3.3-13.5-11.1-25.5-5.2-31.3,8.1,0,21.4,17.5,31.3,8.1,11.3-10.6-4.6-24.4-.2-34.8l1.8-1.3c6.4,3.6,6.8,11.2,13.8,14.9,9.8,5.2,16.6,1.6,25.6-3.7-6.4,48.6,5.2,88-3.9,135.7-4.3,22.7-14.6,43.3-27.5,62.2-2.1,3.2-9.2,12.1-9.5,15,11.3,1.1,37.5-57.8,38.8-69.7l.7-2.6c.3-1.1.7-3.2,1.8-3.8.4.2.4.5.7,1,3.6,16.8-1.3,26.2-2.8,42.2v1.4c6.4-13.8,9.9-28.1,6.5-43.8-.6-2.8-4.2-6-3.6-9.8,4.7-28,1.6-52.6.5-80.7,16.3-21.5,29.2-39.8,46.9-61.2Z"/>
  <path class="st21" d="M722,1000.1l.7-2.6c.3-1.1.7-3.2,1.8-3.8.4.2.4.5.7,1v2c-.1,2.5.9,10.3-3.1,3.3Z"/>
  <path class="st13" d="M1384.9,1643l74.6-.3c37.9-.2,66.8-4.7,85.2,38.5,8.3,19.5,11.1,40.9,17.3,61.1,7.8,30.9,17.5,63.1,24.5,93.9-2.8,1.5-3.3,1.1-6.4,1,3.2.7,5.6.7,7.6,3.2,7.3,21.1,13,53.3,20,76.3,3,12.9,6.4,26.8,10.2,39.4h-164.4c-2.7-12.3-5.7-27.3-8.9-39.2-4-21.9-10-46.8-14.8-68.8l-19.2-88.4c5-.7,8.8-1.6,13.7-2.8-3.8-.2-10.3.2-14.5.2-5.9-31.8-16.9-83-24.8-114.1Z"/>
  <path class="st7" d="M1384.9,1643l74.6-.3c37.9-.2,66.8-4.7,85.2,38.5,8.3,19.5,11.1,40.9,17.3,61.1,7.8,30.9,17.5,63.1,24.5,93.9-2.8,1.5-3.3,1.1-6.4,1-45.1-2.7-57.4-68.9-65.7-103-21.6,6.4-68.4,20.5-90.1,22.6-3.8-.2-10.3.2-14.5.2-5.9-31.8-16.9-83-24.8-114.1Z"/>
  <path class="st11" d="M1513.9,1730.6c-1.9-6.9-5.1-17.3-5.5-24.1l1.1-1c10.2,9.9,12.6,93.4,48.4,119.3,8.9,6.5,18.5,7.7,28.5,11.4-2.8,1.5-3.3,1.1-6.4,1-45.1-2.7-57.4-68.9-65.7-103-21.6,6.4-68.4,20.5-90.1,22.6-3.8-.2-10.3.2-14.5.2,11.6-3.7,27.9-6,40.3-9,21.6-5.3,42.7-11.1,63.9-17.4Z"/>
  <path class="st9" d="M1607.6,1916.6c3,12.9,6.4,26.8,10.2,39.4h-164.4c-2.7-12.3-5.7-27.3-8.9-39.2l163.1-.2Z"/>
  <path class="st4" d="M1158.9,324.6c3.7,0,12.2.4,14.5-2.6,5.1-6.7,5.5-15.2,9.2-23.3,7.5-16.5,23.8-16.2,37.3-6.8,9.5,6.6,13.4,21.4,14.5,32.4,2.6,24-9.8,45.7-24.7,63.4-5,6-12.2,12.7-20.4,13.5-4.7.5-10.2-1-13.1-5-2.4,2.2-2.5,20.4-3.5,26-2.2,12.6-6.4,23.1-11,34.8-15.4,38.8-95.3,104.8-137.5,102.6-7.1-.3-13.9-2.2-20.1-5.6-15.5-8.3-57.7-47.8-71.4-62.5-15.4-16.6-25.7-42.3-31.1-64.2-1.5-6-2.6-12.2-4.1-18.2,12.1,2.5,22.6,3.7,34.9,1.5l2-.4c8.6-1.6,14.6-4.1,22.4-8.1,10.1-8.1,16.9-23.1,22.4-34.7l.6,1c.4,12.8-4,19.3-10,30.5,5.3,6,20.6,19,29.1,15.5,0-2.7-.4-2.1-3.6-3.4-8.7-3.5-13.6-4.9-20.1-12.1l-.8-.9c2.7-4.9,5.3-10.2,6.7-15.5,3.7-13.6-1.2-31.5,19.9-28.9,15.8,1.9,23.9,15.4,37,21.7,7.1,3.4,23.8,3.4,31.7,3.1,29.1-2.5,61.3-12.1,81.5-34.3,4.3-7.8,5.5-10.8,7.6-19.7Z"/>
  <path class="st36" d="M1151.3,344.3c4.2,36.8-19.3,61.6-57.8,54.5-12.8-2.4-17.3-9.9-23.7-20.2,29.1-2.5,61.3-12.1,81.5-34.3Z"/>
  <path class="st36" d="M956.9,402.2c.3,29.6-32.1,35.4-55.2,25.2-1.5-6-2.6-12.2-4.1-18.2,12.1,2.5,22.6,3.7,34.9,1.5l2-.4c8.6-1.6,14.6-4.1,22.4-8.1Z"/>
  <path class="st11" d="M1093.7,414.7c-3.6-1-4.6-.7-6-3,3.4-1.7,2.9-1.1,7.4-.8,3.3,2.4,5,3.2,7.1,6.6l-.4,2.2c-5.6-.1-.8-4.2-5.5-1.9-11.7,29.1-19.5,71.1-50.5,83.5-37,14.8-61.4-8.6-77.3-38.5-1.7-3.1-10.9-10.5-14-13.5v-1.2c6.8-.5,8,.8,13-4.4,12.9-13.3,17.9-14.6,35.4-8.2,12.1-6.8,13.5-7.1,26.7-10.1,20.7-4.7,47.3,2.9,64.1-10.7Z"/>
  <path class="st36" d="M1079.7,444l2.8,1.2c-7.5,19.7-11.6,35.6-30,48.3-10.7,7.3-25.4,10.7-38.1,7.6-20.3-4.9-28.6-17.4-38.8-33.1,39.1,19.1,76.5,9.4,104.1-24Z"/>
  <path class="st13" d="M1075.7,430c2.4-.2,1.6-.1,4.1.8.9,1.6,1.8,3,.6,5-19.1,32.3-59.3,46-94.1,33.3-2.3-1-6.6-3.5-9-4.8l-.3-11.4c34.3,1.1,68.2-6.8,98.5-22.9Z"/>
  <path class="st36" d="M1002.8,439.4c23.2-11.7,33.4-12.9,59.7-12.4.6,1.6,1.1,2.9,1.7,4.5-34.4,15.5-59.9,18.9-96.8,17.3,14.8-15.9,15.5-15.7,35.4-9.3Z"/>
  <path class="st20" d="M1062.5,427c1,0,8.1-.4,8.7.6-.5,1.1-5.5,3.2-7,3.9-.6-1.6-1-2.9-1.7-4.5Z"/>
  <path class="st20" d="M1087.6,432.6l-5.1,12.5-2.8-1.2c1.9-3.3,5.6-8.1,7.9-11.4Z"/>
  <path class="st11" d="M1209.8,301.7c2.8.9,3.6,2.6.7,4.1-9,4.8-13.7,14.4-18.7,22.7,6.5,4.6,11.2,7.2,14,15.4,4.2,11.9-6.4,25.7-15.9,31.6-.5.3-1.6-.7-1.6-1.3.2-2.3,4-5.2,5.6-6.8,13.8-15.2,12.4-24-3.2-35.7-1.6,3.6-2.7,7.4-4.8,10.7-1.6,2.6-4,1.3-3.1-1,6.1-15.7,12.2-30.4,26.9-39.8Z"/>
  <path class="st11" d="M1023.1,397.8c7.6,1.8-5.7,6.4-8.6,8.3-1,.3-3.5,1-2.5-1.5,1.2-3,8.1-5.5,11.1-6.8Z"/>
  <path class="st11" d="M948.8,444.8c2.2,1.4,3.5,1.6,2.1,3.8-3.4.7-2.6-.9-2.1-3.8Z"/>
  <path class="st13" d="M1260.1,1642.2c23.7,0,47.3,0,71-.3,4.7,20.1,10.7,40.6,16.1,60.7,5.2,19.3,10.1,39.6,16,58.7l1.4-.4c-1.3,1.9-1.1,1.8-2.7,3.4,4,2.5,14.1,45,16.1,52.5l26.6,99.8h-213.4c11.8-55.4,20.5-113.8,32-169.5,5.4-26.2,8.8-55.7,17.1-81.2,2.9-9,9.3-16.7,16.1-23.1.4,7.5.6,13.9,1.7,21.3,1.3-2.5,2-6.8,2.6-9.7l-.6-12.4Z"/>
  <path class="st7" d="M1260.1,1642.2c23.7,0,47.3,0,71-.3,4.7,20.1,10.7,40.6,16.1,60.7,5.2,19.3,10.1,39.6,16,58.7l1.4-.4c-1.3,1.9-1.1,1.8-2.7,3.4-23,3.5-61.1-3.7-78.1-20.8-18.9-19.1-25.6-53.7-25.8-79.2,1.3-2.5,2-6.8,2.6-9.7l-.6-12.4Z"/>
  <path class="st11" d="M1258,1664.3c1.3-2.5,2-6.8,2.6-9.7,6.4,79.4,18.4,105.9,102.5,106.7l1.4-.4c-1.3,1.9-1.1,1.8-2.7,3.4-23,3.5-61.1-3.7-78.1-20.8-18.9-19.1-25.6-53.7-25.8-79.2Z"/>
  <path class="st13" d="M1076.4,1632.9c40.5.3,81,.8,121.6,1.7-5.8,11.5-10.6,23.2-13.7,35.8-6.5,26.5-8.5,55.2-12.3,82.4l-22,158.1c-.1,2.4-.1,3.8-1.6,5.7-12.8,1.3-26.2.4-39,.4h-72c-.5-17.9-.6-35.8-.9-53.6-.2-11.8-.9-23.9.2-35.6,2-21.4,8.4-43.5,12.8-64.7l26.9-130.1Z"/>
  <path class="st21" d="M767,439.9c20.1,9.4,39.6,20.2,59.9,29.3,5.2,2.3,10.1,1.5,14,5.8,2.2,8.7-1.7,20.1-5.1,28.2-1.5,2.5-.8,4.8-.4,7.8,2.2,5,5.7,10.6,2.2,15.3-8.5,2.3-22.6-6.4-28.9-11.9-3.4-2.9-3.4-5.3-4.1-9.6l-.3-1.6c-3.4-2.7-28.9-.5-35.5-.4-.5,1-1.1,2-1.7,3-14.2,24.7-13.6,9.9-29.4,14.1v1.4c5.5,3.3,6.3,3.8,12.5,4.9,2.6,13.2,1.6,20.2,0,33.3,13.5,13.2,24.5,60.7,19,79.6-2.1,7.1-9.1,19.9-9.4,26.4,1.9-1.3,28.1-37.8,31.8-42.8,4,13.2,6.1,21.4,12.4,33.6-8.9,14.3-20.3,30.7-37.2,36.4-4.2,1.4-16.2,4-19.3,5.8l.8,1.2c6.4,1.1,14.1-1.8,20.3-3.7-11.8,26.2-31.5,81.7-35.4,109.8-3.2,2.9-6.1,5.4-8.5,9-7,10.1-2.8,26.2-11.9,33.4-13.4,3.1-17.5-28.5-41.2-11.4-5.8,13.3-3.9,19,.9,31.7-6.8-4.8-23.8-15.6-31.9-6.9-6.2,6.8-3.7,16.6-3.4,24.8-2.5-1-6.7-3.1-9.1-3.4-10-1.3-18.6,6-19.3,15.7-2.4,1.7-7.9,1.9-11.1,2.3-2.4-11.3,97.4-198.1,105.5-225.5,8.2-27.7-9.7-95.6-8-126.3.6-11.1-4.1-23.6-2-35,7.7-19,58.4-62.3,74-74.3Z"/>
  <path class="st11" d="M765.7,471.9c-11.3,5.6-54.2,34.8-60.2,35.1l-.6-1.3c.8-1,1.8-2.1,2.9-2.7,14.7-7.6,44.4-31.1,59.1-33.8,9-1.7,46.2,4.9,55.9,7.1,5.5,8.8,8,18.1,12.9,27.1-1.5,2.5-.8,4.8-.4,7.8-5-10.1-9.9-21.9-14.7-32.2-16.7-2.5-38.4-6.3-55-7Z"/>
  <path class="st31" d="M1060,251.6c27.2-2.4,57.1-1.3,83.7,5,2.8,7.5,5.2,15.2,6.9,23,3.5,16.2,8.3,47.4-1.9,61.5-13.1,18.2-43.7,28.5-64.8,32.3-14.6,2.2-36.2,4-49-4.2-14.2-9.2-22.5-22.6-41.5-17.9-16.5,4.1-22.2,26.2-30.6,39.6-14.3,21-61.3,22.5-79.7,6.4-12.5-10.9-18.2-24.6-19.4-41.2-1.2-16.2-4.3-39.7,4.7-54.3,3.6-5.2,22.1-11.8,28.8-14.3,52.2-19.9,107-32,162.7-35.8Z"/>
  <path class="st11" d="M1085.6,256.4c14.3-.6,37.4-1.5,49.4,5.8,8.6,19.9,20.7,69.7-.2,84.3-22.5,15.7-64.3,31-91.8,20.7-12.8-4.8-23.7-21.7-39.3-22-31.8-1.3-33.4,34.2-52.6,49.8-7.4,3.7-15.3,6.3-23.5,7.6-30.4,4.8-52.9-11.9-55.8-43-1.2-12.5-4.8-41.1,2.9-52.2,7.3-7.4,22-13.4,30.9-16.9,58.2-22.9,118.3-31.1,180.1-34.2Z"/>
  <path class="st31" d="M1055.8,261.8c5.3-2,59-1.2,67.4-.7,3.2.5,6.9,1.7,8.6,4.6,8,14,13.7,50.7,9.6,65.9-6.5,23.9-65.8,37.5-86.2,35.1-12.3-2.2-15.5-4.1-24.9-12.3-18.7-14.6-32.7-18-52.5-3-.9.9-1.8,1.7-2.7,2.6-1.8,2.2-2.9,3.5-4.5,5.9-.8,1.8-2.1,3.3-2.8,5.1-9.1,15.9-13.1,28.2-32.6,32.5-16.5,3.6-23.6,3.8-39.4-2.3-1.7-1.5-2.2-2.2-4.3-2.9-9.6-6.3-14.2-18.2-15.5-29.2-1.5-13.8-3.1-28.2-1.6-42.1,0-.3.7-.9,1-.9,5.2-1.6,4.7,3.4,5.5,7,1.6-2.2,1.6-2.1,2.3-4.6-.5-3.1-1.2-5.6-1.8-8.6l-1-7,2-1c8.5-7.7,37.8-16.7,49.4-20.9,39.5-11.1,73.4-19,114.4-22.5,3.2-.3,6.5-.5,9.7-.7Z"/>
  <path class="st29" d="M891.5,392.2c-9.6-6.3-14.2-18.2-15.5-29.2-1.5-13.8-3.1-28.2-1.6-42.1,0-.3.7-.9,1-.9,5.2-1.6,4.7,3.4,5.5,7,1.6-2.2,1.6-2.1,2.3-4.6l.7.8c0,3.5,1,6.6,2.1,10-.2,4.8,2.2,5.1,6.9,5.8l9.5,1.6c-2.4-6.4-3.8-11.6-5.6-18.2,4.9,3.5,9.5,6.7,14.3,10.3,6.4-7.1,13.7-12.2,23.9-12.4,7.5-.2,20.8,4.8,26.2,10.1-1.6,3.3,5.2,6.9,8.3,12.3,0,1.2-1.1,1.1-1.7,1.7.2.3.4.6.6.9,3.1,2.6,4.6,5.3,6.8,8.8-1.8,2.2-2.9,3.5-4.5,5.9-.8,1.8-2.1,3.3-2.8,5.1-9.1,15.9-13.1,28.2-32.6,32.5-16.5,3.6-23.6,3.8-39.4-2.3-1.7-1.5-2.2-2.2-4.3-2.9Z"/>
  <path class="st31" d="M892.9,350.3c7.7,3.6,11,4.9,19.4,7.1l-.2-.3c13.1,16.8,37.8,7.6,55.8,7.8-9.1,15.9-13.1,28.2-32.6,32.5-16.5,3.6-23.6,3.8-39.4-2.3-2-11.3-5.5-29.9-4.6-40.9.6-1.4,1.1-2.4,1.6-3.9Z"/>
  <path class="st31" d="M891.5,392.2c-9.6-6.3-14.2-18.2-15.5-29.2-1.5-13.8-3.1-28.2-1.6-42.1,0-.3.7-.9,1-.9,5.2-1.6,4.7,3.4,5.5,7,0,6.9,3.1,17.8,4.2,25,2,13.3,4.8,26.8,6.4,40.2Z"/>
  <path class="st12" d="M968.4,345.2c3.1,2.6,4.6,5.3,6.8,8.8-1.8,2.2-2.9,3.5-4.5,5.9-2.2,0-4.7.6-6.7,0-.9-.2-.2-1.8.1-2.2,2.8-3.7,3.7-7.9,4.2-12.5Z"/>
  <path class="st15" d="M891.3,354.2c-1.5-2.1-4.2-5.9-3.2-8.7,1.4-1.1,2.8,3.7,4.8,4.9-.5,1.5-.9,2.4-1.6,3.9Z"/>
  <path class="st12" d="M928.5,336.9c1.1,1.2,1.5,1.9.8,3.6-4.6,11.5,5.1,15.8,7.8,21.9-1.2,1.1-7.2.4-8.7.4l-1.4-.3c-19.5-3.8-10.4-19.3,1.5-25.6Z"/>
  <path class="st27" d="M1095.2,293.6c5.9-3,12.1-5.8,15.4-12,.3-.6,1.8-3.7,2.9-3.3,3.5,4.5-1.6,13.6-4,17.5,14.1-4.8,14.1-5,25.5-14.4-3.9,6.8-7.7,11.6-11.2,17.7.9-.7,10.3-7.9,10.6-7.9,3.8,3.5-5.6,14.9-8.6,17.3-7.3,5.7-11.3,3.8-13.6,12.1-4.1,7.9-6.3,9.7-14,14.4-17.3,7.3-33.2,11.8-52,14-1.2-4.1,1.2-3.4,5.7-4.2-6.1-.7-5.5-1.4-5.5-6.3v-1.6c-2.3,3.9-2.6,6.2-6.2,7.8-.5-16.2,15-41.4,28.7-50,4.8-3,11.4-3.6,16.9-3.9,5.8-5.7,7.5-8.2,12.2-14.6-.9,8.9-.9,9-2.7,17.3Z"/>
  <path class="st12" d="M1057.2,318.8l.2,1c3.2,13.8,3.4,12.2,13.8,20-6.8,2-12.4,3.6-19.4,5-6.1-.7-5.5-1.4-5.5-6.3v-1.6c3.1-6.9,6.6-12,10.8-18.1Z"/>
  <path class="st13" d="M1097.3,330.5c-1.7-2.1,2.3-13.1-.4-17.5.2.2-3.5-8.8-3.5-7.7,4.9-3,14.3,7.9,16.2,13.1-3.5,6.4-5.8,8.8-12.2,12.1Z"/>
  <path class="st27" d="M882.4,305.9c8.5-7.7,37.8-16.7,49.4-20.9,4.4,1.4,10.4,3.6,15.7,5.2,11.8,3.4,17,10.4,4.5,18-6.2,2.3-14.7.9-21-.2-2.8-.5-8.5-2.9-10.5-2.6-23.9,3.6-29.8,6.9-34.4,27.9-1.1-3.4-2.2-6.5-2.1-10l-.7-.8c-.5-3.1-1.2-5.6-1.8-8.6l-1-7,2-1Z"/>
  <path class="st7" d="M882.4,305.9c2.1,2.9,3.3,13.3,1.6,17.3l-.7-.8c-.5-3.1-1.2-5.6-1.8-8.6l-1-7,2-1Z"/>
  <path class="st27" d="M1055.8,261.8c5.3-2,59-1.2,67.4-.7-9.5,6.5-21,3-32.2,5.9-14.2,3.7-36.3,26.7-50.6,22.5-22.7-6.6,6.2-20.4,11.3-23.4-2.4-2.3-2.7-1.9-5.6-3.7,3.2-.3,6.5-.5,9.7-.7Z"/>
  <path class="st31" d="M1055.8,261.8c1.4,2.1-2.1,3-4.1,4.4-2.4-2.3-2.7-1.9-5.6-3.7,3.2-.3,6.5-.5,9.7-.7Z"/>
  <path class="st23" d="M1046.4,336.9v1.6c0,4.9-.6,5.5,5.5,6.3-4.5.8-6.9,0-5.7,4.2-.9,2.7-3.8,5.6-3.9,6.3-.4,2.2,7.1,4.9,7.3,5.4-.3.9-1.7,1.1-2.4,1.7,1.8,3.5,11.6-1.4,8,4.3-12.3-2.2-15.5-4.1-24.9-12.3,3.5-1.5,8.2.1,6.4-5.9-.5-1.6-1.4-3.6,1.2-3.7.7,0,1.4,0,2.1,0,3.7-1.6,4-3.9,6.2-7.8Z"/>
  <path class="st27" d="M968.4,345.2c-.2-.3-.4-.6-.6-.9.6-.6,1.6-.5,1.7-1.7-3.1-5.4-9.9-9-8.3-12.3,7.8,6,11.6,12.9,16.7,21-.9.9-1.8,1.7-2.7,2.6-2.2-3.5-3.7-6.2-6.8-8.8Z"/>
  <path class="st1" d="M881.4,313.8c-2,12.5-12.7,2.7-1-7l1,7Z"/>
  <path class="st21" d="M829.1,1106.8c21.5-35.1,34.5-34.2,70.2-50.1,25.6-11.4,33.7-5.9,58.2,3.2,19.8,7.4,39.4,15.2,58.9,23.5,21.9,9.2,38.5,17.5,62.7,19.8,28.7,2.8,55.5,1.6,84-2.4,43-6,86.6-14.4,128.7-25.4,42.5,17.2,73.7,32.6,111.1,60.3-11.7,27.2-20.1,39.1-40.4,61.5-41.9-3.2-83.1-9-124.5-16.3-19.6-3.4-40.1-6.5-59.1-12.6-19-6.1-37.7-15.8-56.1-23.7-48.6-20.7-164.6-70.3-213.8-66.3-27.3,2.2-52,14.6-75.2,28.4-2.9,2.2-2.9,2.1-6.2,3.5,0-2.3-.2-1.1,1.7-3.4Z"/>
  <path class="st13" d="M903.4,909.7c1.8,1.8,6,23.8,7.7,29.3,2.7,8.6,6.4,16.9,11,24.7,14.5,24.2,36.7,40.3,64,47.1,21.7,30.7,41.8,54.5,65.1,83.3-38.3-16.4-82.4-36.4-122.9-47.5-14.8-2.4-32.8,7.9-45.8,13.1-25.8,10.3-37.3,15.4-52.7,38.8-4.7,6.9-9.2,14-13.4,21.2l-163.6.2c100.2-48.7,177.7-127.5,250.7-210.1Z"/>
  <path class="st7" d="M1475.1,1522.9c20.4.2,40.8.2,61.2,0,11.4,0,23.7-1,34.8,1.1,6.8,1.3,13.4,4.2,18.6,8.8,6.3,5.7,9.5,14.5,9.6,22.9.1,9.5-3.9,18.8-10.5,25.5-4.6,4.7-10.8,8.8-17.4,9.8-13.3,1.9-27.1,1.1-40.5,1.1h-63.7s-222.1,0-222.1,0c-39.8.2-79.5.1-119.3-.2.9-.7,1.8-1.4,2.7-2.1,16.1-12.2,62.8-37.9,81.2-41.9,15.1-3.3,32.3-.7,47.7-.6,12.1.1,25.1-.9,37.2.5,12.5,1.4,24.8,4.4,37.3,6.1,52.9,7.3,99.8,1.6,143.1-31.2Z"/>
  <path class="st4" d="M1052,167.8l-.2,1.5c8-1.3,17.2-3.8,25.2-5.8,1.4,9.2,2.2,13.8,6.1,22.5,1.5,3.6,3,7.8,5.2,10.9,1.3,2.7,2.2,4.8,4,7.3,10.9,19.9,25.6,33.2,43.3,46.7-5.4-.8-12.1-1.8-17.3-3.3-13.3-3.7-25.7-9.8-39.6-10.4-13.2-.2-23.7,9-36.1,11.8-6.6,1.3-13.6,2.2-20.3,3-49,5.4-95,20-140.6,38-2.8-20.9,1.6-42.2,12.5-60.3,17.2-28.9,43.7-41.2,75.1-49.1l8.4-1.7c7,.4,30.8-8,38.3-10.5h2.4s.9,2.6.9,2.6c4.9,1.9,25.6-4.5,32.6-6l.2,2.8Z"/>
  <path class="st28" d="M870.9,678.8c11.5-.7,21.1-1.2,32.2-4.4,22.7,24.9,46.3,48.8,69.1,73.8-15.1,16.8-49.1,54.9-54.3,76l-4.2,1.2c-.4-4.4-4.7-58.7-5-59.2l-1.5.4c-1.9,3.8-.9,17.6-.6,22.8-25.6,9.3-51.1,18.8-76.5,28.5-15.8,6-36.9,14.5-52.8,19.4,10.3-12.1,22.7-29.1,36-37.6,7.7-4.9,42.5-17.5,44.4-26.2l.3.9.5-1.3c-9,2.7-29.5,16.9-44.2,22.5,12.6-38.3,27.6-87.6,56.7-116.7Z"/>
  <path class="st35" d="M800.3,505.8c4.6,16.2,12.5,12.5,17.6,20.9,4.8,8,8.9,14,14.8,22.2.9,2,1.4,2,3.3,3.1,8.2-3.2,15.2-7.1,22.9-11.3-1.1,3.5-2.1,7.1-3,10.7-9.6,42.5,17.2,102.5,62.6,112.7-20.6,10.5-60.9,14.9-82.3,9.1,11.2-9.3,3.8-24.2-8.9-25.8-8.9-1.2-8.9,14.8-8.8,21-5.1-6-13.1-15.7-15.8-23.1-13-36-22.6-73.2-31.6-110.4-2-8.2-4.9-18.2-1.7-26.3,3.2-3.1,25.1-2.8,30.8-3Z"/>
  <path class="st11" d="M832.7,548.9c.9,2,1.4,2,3.3,3.1-1.1.3-31.2,12.9-19.5,3.3.4-.4,13.4-4.7,16.2-6.4Z"/>
  <path class="st13" d="M476.7,1162c106.4-1.1,213,0,319.4,0-4.6,10.5-6.9,22.2-12.3,32.2-2.6,1.6-6,.9-8.9.8h-205.6s-66.4-.1-66.4-.1c-9.9,0-20,.6-29.9.2-3.5-.2-7.4-.4-10.3-2.4l.7-1.2c3-.5,4.9-1.6,6.9-3.8,2.6-2.9,4.3-7.1,4.1-11-.2-2.8-1.3-4.5-3.3-6.3-1.3-1.2-2.2-2-3-3.7,1.6-2.6,5.8-3.6,8.6-4.7Z"/>
  <path class="st28" d="M1365.2,1059.3c25.2.5,84.2,47.8,104.2,64.2-14.2,26.5-32,53-53.4,74.3-16.2.3-33.2,1.4-49.3-.6,17.2-19.6,30.8-38.2,39.8-62.8-32.6-25.7-70.8-44.7-109.1-60.2,22.7-4.6,45.1-10.8,67.9-14.9Z"/>
  <path class="st13" d="M558,989.5c.4,1.6.7,3.2,1.1,4.8-5.5,32.8-10.5,67-4.1,100.1,3.8,19.7,9.8,33.2,31.6,35.7v1.7c.1,0-51.7,11.1-51.7,11.1.8,4.8,1,10.3,1.2,15.2l-56.4.2c10.5-14.6,4.1-21.9-9.4-29.5,3.4-.3,11.4-.7,13.8-2,22.8-12,7.2-24.7-7.1-30.4-.8,0-1.5-.1-2.2-.3l-2,.2c-9.6,2.1-1.3,7.5,3,10.2,14.4,7.5,3,10.6-2.6,5.4-6.5-2.6-18.9-5.5-14.8-17.3,1.9-5.2,18.3-9.1,23.4-9.8,7.8-1.1,11.4,2.6,16.1-6.4-3.4-2.3-11.8-8.9-15-9.9-9.2-2.7.6-3.8,4-3.6,1.8-1.1,1.8-1.2,3.7-2l-2-.8c-1.5-2.8-.8-3.1,2-3.6,10.4.8,24,.8,30.1-9.9,5.4-9.5-7.4-15.4-14.7-17.5l.2-2.2c7,0,14.2.4,20.9-1.8,19.4-6.2,2.8-26.6-2.7-37.6,12,4.7,23.8,12,33.5-.1Z"/>
  <path class="st35" d="M490.7,1063c26.7,11.2,19,23.9-4.8,31.3-4,.7-5.4.2-8.8,2.1-.8,0-1.5-.1-2.2-.3l-2,.2c-9.6,2.1-1.3,7.5,3,10.2,14.4,7.5,3,10.6-2.6,5.4-6.5-2.6-18.9-5.5-14.8-17.3,1.9-5.2,18.3-9.1,23.4-9.8,7.8-1.1,11.4,2.6,16.1-6.4-3.4-2.3-11.8-8.9-15-9.9-9.2-2.7.6-3.8,4-3.6,1.8-1.1,1.8-1.2,3.7-2Z"/>
  <path class="st11" d="M490.7,1063c26.7,11.2,19,23.9-4.8,31.3-4,.7-5.4.2-8.8,2.1-.8,0-1.5-.1-2.2-.3l-2,.2-.6-2.5c.5-3.3,18.3-1.6,27.6-8.9l1.4-1.1c7.2-12.2-3.2-15.5-14.2-18.8,1.8-1.1,1.8-1.2,3.7-2Z"/>
  <path class="st5" d="M474.4,1094c4.2,0,7.3,0,11.6.3-4,.7-5.4.2-8.8,2.1-.8,0-1.5-.1-2.2-.3l-.5-2.1Z"/>
  <path class="st17" d="M472.3,1093.8l2.2.2.5,2.1-2,.2-.6-2.5Z"/>
  <path class="st17" d="M475.9,1106.5c14.4,7.5,3,10.6-2.6,5.4-2.5-4.5-2.5-3.9,2.6-5.4Z"/>
  <path class="st13" d="M1415.2,383.3c63.7-6.7,106.2,36.1,99,99.6-3,26.1-17,58.1,17.4,67.5,8.5,2.3,17.3,4.4,25.7,7,8,2.5,15.8,5.7,23.2,9.6,45.2,23.9,72.6,78.2,32.9,119.8-22.5,23.6-48,49.9-17.5,83.6,10.1,11.2,26.9,15.8,35.9,30.5,5.7,9.4,9.5,12,12.9,23.5,4.3,14.1,2.7,29.4-4.6,42.3-10.5,18.7-26.6,26.9-46.2,32.8,9.9-6.3,14.9-9.8,23.3-18,9.1-9.5,16.2-21.7,19-34.6,2.3-10.5,1.7-21.9-2-32-13.1-36-48.7-28.7-62.9-52.4-14.3-23.7,12-46.8,24.2-64.7,7.5-11,13.8-23.5,17-36.6,4.7-19.8.2-41.5-10.5-58.6-21.1-33.6-52-37.7-87.3-46.2-5.9-1.4-13.5-4-16.8-9.6-11.5-19.2,18.6-68.7-7.7-111.3-5.9-9.5-14.1-17.2-23.8-22.8-33.1-19.4-68.5-8.1-103.7-16.2,17.6-5.3,34.3-11,52.5-13.4Z"/>
  <path class="st13" d="M162.1,1162.3c90.2-.2,180.5-1.1,270.6,0,0,.6-.1,1.2-.2,1.8-.3,3.4.3,6.9,2.9,9.4,5.6,5.5,18.8,4.2,26.3,4.8-5.4,1.5-11,2.7-16.5,4-8.9,2.3-13.4,4.7-18.1,12.8H162s0-32.9,0-32.9Z"/>
  <path class="st7" d="M1621.4,1099.6c5.8,4.3,19,35.1,23.1,43.4-.8,15.6-.6,31.5-1,47.1-.9,33.1-2.4,66.2-4.4,99.2-1.1,20.6-1.2,42.1-5.7,62.3-6,26.6-18.1,45.8-41.2,60.5-7,3.4-14.3,5-21.8,6.7,1.8-1.4,3.7-2.8,5.4-4.3,12.7-10.9,21-25.1,25.4-41.2,8.6-32,7.6-72.5,9.6-105.9,3.2-56,6.8-112,10.8-167.9Z"/>
  <path class="st17" d="M304.3,1074.9h109.9s-11.8,72.8-11.8,72.8l-1.8,10.5-81.1.2c-2.7-25.7-9.7-58-15.1-83.5Z"/>
  <path class="st9" d="M1190.4,1920.1l214.8.2c2,8,10.3,28.7,7.6,35.5l-3.5.3h-225.6c2.8-11.8,4.5-24,6.7-36Z"/>
  <path class="st35" d="M933.6,644.3c-.5,5.5-5.6,13.3-11,15-5.3,1.8-13.4-1.2-18.1-3.8-30.6-17.1-47.4-56.3-46.9-90.3.1-11.1,1.3-26.4,14.4-29.6,4.9-1.2,15.1-1.7,19.6.8l2.5,3.4,1.4.3c29.9,5.4,57.9,76.4,36.7,100.7l1.4,3.5Z"/>
  <path class="st35" d="M933.6,644.3c-.5,5.5-5.6,13.3-11,15-5.3,1.8-13.4-1.2-18.1-3.8-30.6-17.1-47.4-56.3-46.9-90.3.1-11.1,1.3-26.4,14.4-29.6,4.9-1.2,15.1-1.7,19.6.8l2.5,3.4c-29.4,13.4-5,108.3,38.1,101l1.4,3.5Z"/>
  <path class="st11" d="M891.6,536.5l2.5,3.4c-29.4,13.4-5,108.3,38.1,101l1.4,3.5c-45.1,8.6-75.2-84.6-42-107.9Z"/>
  <path class="st11" d="M895.8,563.9c6.4.2,9.5.3,14.6,5.2,10.1,9.8,21.9,38.3,9.2,49.6l-1.4,1.3c-19.7-.6-28.4-23.8-29.6-41.1-.4-6.5,2.6-10.9,7.2-15.1Z"/>
  <path class="st35" d="M897.5,567c18.7,3.1,31.6,37.7,18.5,50.2-17.8-5.3-31.4-36.5-18.5-50.2Z"/>
  <path class="st35" d="M718.6,847.9c4.6-10.5,2.4-20.2,7.4-30,5.7-11.4,21.2-11.9,29.9-20.3,29.7-28.6,49.5-67.4,62.4-106.2,1.4-4.3,4-15,6.9-17.1,7.1,2.6,2.7,11.3.8,16.5-14.5,40.8-40.4,104.1-81.8,122.4-3.7,1.6-7.5,3.2-11.3,4.7-1.9,7.4-4.9,25-7,30.1-6.7,12.4-23.1,17.6-31.4,3.8-1.2-1.5-2.4-3-3.6-4.4-3-3.5-4.4-4.6-8.7-4.8l-2,1.8c-4.7,10.7,8.6,26,.6,35.4-12.6,6.6-24.5-15.6-33.9-8.2-3.1,12.8,14.8,25.5,4,33.6-10.2,1.7-17.4-13.3-27.6-11.3-6.5,7.6,9.2,17.3,6.6,28.7-2.9,3.3-1.2,2-5.7,3.5-10.4-1-12.7-14.5-22-14.8-13.4,10.5,6.8,23.8,2.9,34.1-12,8.6-20.8-13.8-29.3-14l-1.6,1.9c-4,16.8,3.4,12.5,9.4,25.6.4.9-.6,3.1-1.2,3.7-13.6,12.8-20.4-6.2-32.1-4.7-8.7,8.5,6.5,18.2,3.9,30.5-8.6,13.5-23.1-4.1-31.9-.6-3.2,6.9,13.9,20,11.3,30.1-3.6,14.2-42,3.3-43.5,16.2,5,6,17.6,6.3,17.7,13.5l-1.8,1.8c-10.9,3.7-28-9-24.5-19.6,5.5-16.5,32.2-7.5,41.8-11.6,5-7.8-10.5-18.7-10.2-32.5,5.4-10.6,25.8-1.8,34.2,1.6-6-14.1-19.1-41,13.3-37.9,1.5.1,8.6,9.4,14.4,9.5l.2-2.2c-1.3-2.2-6.7-6-9.6-9.9-.1-4.8-.5-12.5,1.5-16.7,8.2-16.9,26.5,5.9,33.5,11.4l1.1.8-10.8-15.6c-.2-7-1-18.9,7.1-22,9.4-3.6,17.1,7.6,24.2,10.7-.4-5.5-16.2-15.3-8-24.7,10.1-11.6,23.8,2.7,30.8,4.8,0-7.3-11.3-17.2-6-27.4,8-15.4,30.8,4.5,35.8,3,1.4-9.4-10.2-25.2,1.4-34.3,8.2-6.4,17,1.9,22.2,7.8,7.5,8.9,10,11.3,20.1,3.3Z"/>
  <path class="st13" d="M834,676.9c8.7,1.7,22.4,1.8,31.5,2-29.6,33.6-41.4,76-55,117.1-17.4,14-56.5,64-70.2,82.1-5.6,7.4-9.6,12.9-14.5,20.7-.8-31.2,3.6-49,9.9-79,16.8-5.3,27.3-11.7,39-25.2,29.5-34,46.1-75.6,59.3-117.8Z"/>
  <path class="st13" d="M1667.3,1162.5c60.2-.9,120.5-.2,180.7,0v32.6c.1,0-166.9,0-166.9,0-4.3-9.4-12.2-22.5-13.7-32.6Z"/>
  <path class="st7" d="M1526.5,1422c15.3,0,30.5-.8,45.8,0-.3,2.3-.8,4.7-1.1,7-.4,2.7-.9,5.3-1.2,8-2,17.4-4.7,34.7-6.8,52-.3,2.8-.8,5.7-1.2,8.5-.3,2.5-.6,5-.9,7.5-.5,5-1.2,9.9-1.6,14.9h-33.3c0,0-48.5,0-48.5,0,26.9-26.7,43.8-60.2,48.8-97.8Z"/>
  <path class="st35" d="M846.9,324.2l3.3,1.6c3.6,0,5.7-.7,8.4.9.7,38.4,5.2,72.1,32.6,101.7-2.3,5.5-4.4,11.7-8.9,15.6-1.3,1.3-1.4,1-3.3,1.8-4.8,3.1-13,6.9-18.8,7.1-3.2,0-6.5-1.7-8.5-4.3-18.7-23.8-27.9-59.7-27.8-89.6,0-8.1.8-26.5,6.9-32.2,3.6-3.3,11.5-2.7,16.1-2.6Z"/>
  <path class="st35" d="M850.2,325.8c3.6,0,5.7-.7,8.4.9.7,38.4,5.2,72.1,32.6,101.7-2.3,5.5-4.4,11.7-8.9,15.6-33.6-24.4-45.4-80.4-32.1-118.2Z"/>
  <path class="st11" d="M846.9,324.2l3.3,1.6c-13.2,37.8-1.5,93.8,32.1,118.2-1.3,1.3-1.4,1-3.3,1.8-34.4-23.6-45.8-84.3-32.1-121.5Z"/>
  <path class="st9" d="M250.6,893.7c46.7,4.5,103.2,21.6,88.1,81.3l-.5,1.9c-13.3-17.3-45.1-52.4-64.5-62.2-1,4.9,4.2,6.7,8.5,10.1,19.6,15.6,38.9,34.5,53.5,55l-1.6.3c-26.6,6-46.7-6.3-61.2-28.1-12-18.1-16-38.1-22.3-58.3Z"/>
  <path class="st17" d="M1692.9,1106.8c33.5-.4,67,0,100.4,0-.4,1.7-.8,3.4-1.2,5.1-1.2,5.9-2.6,11.7-4,17.5l-3.6,15.9c-.2.9-.4,1.9-.6,2.8-.8,3.5-1.6,6.9-2.5,10.3l-78,.2c-.4-2.3-.9-4.5-1.3-6.8-.3-1.7-.6-3.3-1-5-1-5-2.1-10-3.1-15-.3-1.5-.6-3-.9-4.5-.3-1.7-.7-3.3-1-5-.3-1.7-.7-3.3-1-5-.4-1.7-.8-3.3-1.1-5-.4-1.9-.8-3.8-1.2-5.7Z"/>
  <path class="st35" d="M822.5,329.9l1,.7c.5,2.4.5,1.3.1,3.1-8.5,35.3-.3,76.6,18.7,107.4,2.2,3.6,6.7,8.2,6.5,11.9-9.1,8.5-25-6.4-33.2-12.2-10.8-7.7-38.6-27.6-49.8-31.4,9.1-35.5,26.4-59,56.7-79.4Z"/>
  <path class="st13" d="M805.8,660.5c5.5,3.4,6.4,8.1,14.6,12.3-11.1,39.5-39,103.3-72.5,126.7l-10.9,4.6c4.5-30.5,23.9-81.1,35.7-109.7,15.5-8.7,23.5-19.5,33.1-34Z"/>
  <path class="st17" d="M291,1038.9h136.9c0,10.6-.4,21.3-.6,32-44.8,1.9-90.4.3-135.3.3-.2-10.8-.5-21.6-.9-32.3Z"/>
  <path class="st9" d="M390.5,825.8c2.9,3.1,3.7,8.2,5,12.3,10.8,34.8,13.9,88-30,100.2,4-16.1,10.6-57.6,14.8-75.8-.3-.6-.6-1.1-.9-1.7l-2.4-.3c-5.4,25.6-9.7,51.5-15.2,77.2-11.3-11.5-15.3-24.4-15-40.3.7-31.4,22.3-51.4,43.7-71.5Z"/>
  <path class="st17" d="M1681.7,1071.5c41.5.3,83,.3,124.5-.2-1.3,9.9-2.3,19.8-3.6,29.8l-.2,1.5c-4.4,2.1-103.5.6-117.1.6-.7-8.8-5.5-23.9-3.6-31.7Z"/>
  <path class="st28" d="M1312.5,1196.5c32.2,3.5,58.6,5.3,91.3,5.4,5-.5,8.7-1.2,13.6-.3v1c.1,0-3.3,2-3.3,2-15.7,11.8-53,35.2-70.4,44.9-21.3-11.7-42.7-23-64.4-33.9,11-6.1,22.2-12.8,33.1-19.1Z"/>
  <path class="st28" d="M956.7,650c2.7,2.1,32.9,65.9,37.1,74.2-6.6,7.8-12.4,14-19.5,21.3-5-5.5-10.2-10.7-15.3-16.1-15.6-18.3-37.7-37.9-52.5-56.3,9.7-3.1,40.5-17.8,50.1-23Z"/>
  <path class="st9" d="M1760.5,897.6c.2-.5.5-1.5.9-1.9,1.5,1.2,0,18-.3,20.4,0,48.8-1.4,103.4-11.6,150.9l-1.5.7c-8.9-8.9,2.6-105.1,1.7-120.4h-1c-8.1,16.9-8.3,98.2-5.6,120.4h-16.2c-5.6-61.2,4.2-116.1,33.5-170.1Z"/>
  <path class="st30" d="M1760.5,897.6c.2-.5.5-1.5.9-1.9,1.5,1.2,0,18-.3,20.4-.7-7.1.2-12.4-.6-18.5Z"/>
  <path class="st9" d="M461.5,926.5c1.2,0,2.8-.3,3.9,0,.6.2.9.3,1.1.9-.5,2.5-3,5.8-4.2,8.1-8.2,16.2-17.2,32.6-31.3,44.5-11.6,9.8-27.1,20-43.1,18-4.2-.5-10-2.7-12.5-6.5-.4-.6-.6-1.3-.3-2,2.7-7.2,46.9-31.8,55.5-36.5,3.3-1.7,8.7-3.3,11.1-6.1.6-.7.4-.4.3-1.4-.5-.2-1-.4-1.6-.5-8.9-1-58.4,33.7-67.8,40.8,7.9-23.1,15.2-37.8,38.4-49.4,16.6-8.3,32.3-9.1,50.3-9.9Z"/>
  <path class="st13" d="M567.3,1140.7c19.1-4.5,35.7-9.5,55.4-12.2,13.6-1.8,19.4-5.9,34.7-5.3,52.4-.3,106.8.9,158.9-.1-4,1.3-9.3,3.3-13.3,4.3-7.2,2.4-37,12.5-43.1,12.8-21,1.3-48.5,1.1-69.8.7-40-.7-83.4,1.4-122.9-.2Z"/>
  <path class="st16" d="M657.4,1123.2c52.4-.3,106.8.9,158.9-.1-4,1.3-9.3,3.3-13.3,4.3l-1.3-2.5c-7.7-1.2-31-.6-39.8-.6h-72.7c-7.7,0-25.1.5-31.9-1.1Z"/>
  <path class="st28" d="M1036.5,610.9c6.8,4.7,9.4,94.4,9.7,105.9-8.2.2-15.6,1.5-23.5-.3-2.6-2.3-1.8-1.6-2.6-5.8-6.6-26.6-12.5-56.3-18.2-83.3l34.5-16.6Z"/>
  <path class="st2" d="M1170.4,445.1l3,2c1.2,17,8,52.9,12,69.3-19.9,16.8-55,41-77.1,57.1,10.3-18.2,20.6-37.5,30-56.2,6.4-12.7,11.1-26.4,16.9-39.2,5.3-11.8,10.6-20.6,15.1-33Z"/>
  <path class="st28" d="M996.9,630c2.6.8,2.2,1.6,2.8,4.5l1,4.5c.3,1.5.7,3,1,4.5l1,4.5c2,9.2,4.1,18.3,6,27.5,2.9,14.1,6.1,28.1,9.7,42-5,.2-14.4.1-18.7,1.9-4.5,1.9-3.7,2.6-6.3-3.3l-1.1-2.4c-10-21.4-21.5-44.3-32.1-65.5,11-5.1,26-12.4,36.6-18.2Z"/>
  <path class="st3" d="M1256.7,378.7l2.1,2-.3,2.1c-.6.6-1.3,1.3-1.9,2-20,21.4-28.3,62.5-3.1,82.8,34.5,27.8,86.6-2.1,126.1-4.3,37.6-2.1,75.1,12.9,70.8,57.9-1.2,12.7-7,25-6.1,38.2,1,24.3,31.2,25.5,50.5,30.8,44.9,12.2,70.8,64,36.5,103.4-.6-.3-1.6-1.2-2.1-1.6.4-4.7,6.7-12.5,8.6-17.4,7.6-21,4.9-36.4-6.2-54.3-19.1-30.6-62.7-24.7-83.9-41.9-24.2-19.6,16.7-70.2-13.3-95.1-43.1-35.7-96-.5-144,.5-63.9.8-73.3-67.1-33.6-105.1Z"/>
  <path class="st13" d="M788.4,309.6l1.8.3c.8,0,2.2.1,2.8.8-.6,1.2-.3.7-1.7,1.3-30.9,9.5-71,39.7-76.3,74-3.7,24.1,3.5,39.8,17.1,58.9-6.5-2.6-10.2-4-15.7-8.4-10.8-8.8-17.6-21.6-18.8-35.5-4.6-48.5,46.8-87.8,90.7-91.4Z"/>
  <path class="st0" d="M788.4,309.6l1.8.3c.8,0,2.2.1,2.8.8-.6,1.2-.3.7-1.7,1.3-.8-.6-2.2-1.6-2.9-2.4Z"/>
  <path class="st3" d="M1285.1,1619.2c9.2-.9,18.9,0,28.2,0l54.6.3c54.8,0,110.1-1.8,164.9,0,5.8.2,12.7.2,18.1,2.5,13.5,5.7,22.9,20.6,28.5,33.6,1.1,2.6,2.3,5.4,1.2,8.2l-2,.6-1.7-1.2c-2.4-9.5-9.2-21.5-16.2-28.4-13-12.9-31.2-10.5-47.9-10.5l-153.2.4c-23.5,0-48.6-2.2-71.9,0-7.4.7-14.5,2.8-21.1,6.3-24.8,13.5-32,43.8-35.2,45.8l-1.3-1.2c.2-8.2,6.2-19.3,10.6-26.2,10.8-16.9,24.9-25.8,44.4-30.1Z"/>
  <path class="st21" d="M762.7,412.6c12.5,1.3,61.2,38.8,76.5,47.8l-5.1,8.7c-16.2-7.9-32.3-15.9-48.4-24-7-3.6-12.2-5.9-19.5-8.8-12,8.6-34.7,30.3-46.5,40.9,7.2-14.3,32.6-52.7,43-64.5Z"/>
  <path class="st13" d="M1305,288.1c1.4.5,2.6.8,4,1.1l8.5,2c40.8,9.4,69.9,39.3,46.9,81-3.2,5.8-5.9,11.8-9.5,17.4-.9-5.7-2.4-14.1-1.5-19.6,6.2-39.4-9.4-66.2-50.8-75.1-2.6-.6-5.2-1.2-7.8-1.9,4.2-2,5.9-2.5,10.2-4.9Z"/>
  <path class="st9" d="M1809.8,946.8c0,7.9-42.8,112.4-47.4,119.3-1.6,2.4-5.6,1.8-8.1,2-.3-.9-.4-1-.5-2.1-.4-5.3,1.5-12.8,2.5-18.1,7.5-37.8,28-72.4,53.5-101Z"/>
  <path class="st9" d="M1689.7,939.5c8.7,14.4,32.4,52.5,32.6,67.3.2,9.9-.3,35.3-.2,46.9.6,3.4,1.6,9.9.5,13.4-.1.4-.7.2-.9-.1-.8-1-.8-1.8-1.1-3.1-14.5-36.5-23.5-86-30.9-124.4Z"/>
  <path class="st30" d="M1722.1,1053.7c.6,3.4,1.6,9.9.5,13.4-.1.4-.7.2-.9-.1-.8-1-.8-1.8-1.1-3.1,1.6-3.2,1.1-6.5,1.5-10.2Z"/>
  <path class="st13" d="M539.1,1152.1c72.2,0,144.4-.6,216.6.2,2.5,1.8,2.1,3,2.7,5.9-22.2,0-212.7,1.4-217.1-.2-.6-.2-1.1-.7-1.6-1.1l-.6-4.8Z"/>
  <path class="st3" d="M1083.1,186.1c19,17.8,32.8,26.7,60.1,26.1,20.3-.5,41.6-5.7,58.6,10.6,25.5,24.5,14.4,68.5,63.7,69.1,13.1.2,27.4-7,39.6-3.7-4.3,2.4-6,2.9-10.2,4.9-5.8-2.4-30.7,10-52.6-1.3-32.9-17-23.5-61.1-53-71.9-36-13.2-54.1,9.6-93.7-16.6l-3,1c-1.7-2.5-2.7-4.6-4-7.3-2.3-3.1-3.8-7.3-5.2-10.9Z"/>
  <path class="st11" d="M1088.3,197c3.4,2.5,3.9,3.2,7,6.3l-3,1c-1.7-2.5-2.7-4.6-4-7.3Z"/>
  <path class="st3" d="M1015.9,168.4c-4.8-18.1-11-30-27.7-39.5-54.6-30.9-110.9-2.6-139.8,48-3.9,6.7-7.2,13.8-9.9,21-1.6,4.4-6.4,23-8.7,24.8-1.6-1.8-2.2-3.6-1.6-6.2,6.7-31.7,24-59.5,48.5-80.8,36.7-31.8,99-33.6,131.8,4.5,4.3,5,13,23.6,10.7,30.6l-.9-2.6h-2.4Z"/>
  <path class="st3" d="M969.1,180.6c-9.9-2.1-23.7-.2-33.4,2.2-63.8,13.8-66.5,88.9-118.7,115.4-9.6,4.9-48.8,11.4-52.9.8,2.1-2.3,39.1,7.3,61.3-10.8,41.7-34.1,47.5-91.6,104.1-108.3,12.8-3.8,35.7-7.3,48-.9l-8.4,1.7Z"/>
  <path class="st9" d="M1704.2,1067.7c-11.6-21.4-27.7-55.3-38.2-78.3,0-.2,0-.6.1-.8.5-.2.2,0,1,0,1.1.9,1.2,1,2.1,2.1,11.8,12.1,25.1,26.1,35.1,39.6,4.1,5.6,10.3,28.8,13.4,37.3h-13.5Z"/>
  <path class="st13" d="M543,1144.4c2.1-.3,4.3-.6,6.5-.6,37.4-.5,74.9.5,112.3.6,29.9,0,60.3-.9,90.2,0,2.4,0,4.1.4,5.9,2.1l-.3,1.7-2.4.8c-24.4,0-209.4,1.7-215.4-1.6l.2-1.8,3-1.2Z"/>
  <path class="st9" d="M1818.9,998.1c.3.3.5.5.7.8.2.4-.1.8-.3,1.1-13.2,22.8-27,45.3-41,67.6-3.6.3-7.3,0-11,0-.4-.2-.8-.5-.9-.9-.4-.8.2-2.1.5-2.8,4.4-10.3,8.6-20.6,13.5-30.7,6.2-12.9,27-26.5,38.5-35.2Z"/>
  <path class="st31" d="M1147.9,257.9c5.6,1.4,8.3,2.8,13.6,4.9,4.6,19.3,8.7,38.1,5.7,58.1-4.1,0-9.2,1.8-9-3.3,1.2-21.9-4.4-39.2-10.3-59.7Z"/>
  <path class="st3" d="M1051.8,165c7-7.4,9.5-22.8,8.2-33-3.9-32.2-37.9-50.3-68-46.5-7.6.9-8.3-3.6-3.5-4.4,41.2-6.4,84.9,24.6,75.1,69.3-1.6,7.4-4.7,13.4-11.5,17.5l-.2-2.8Z"/>
  <path class="st31" d="M1166,264.5c8.5,3.1,17.3,6.2,26.1,8.6,3.2.9,3.8,6.7,4.4,9.6-11.5,5.9-13.4,6.7-19.8,18.2-.6-.7-2.2-3-3-3.2-.7.3-.9,1.1-1.1,1.7l-.7,1.2c-1.8-12.9-3-23.3-5.9-36.1Z"/>
  <path class="st3" d="M1079.7,1622.2c15.1,0,109-1.4,114.2.1,2.4.8,2.2,2.5,2.9,4.6-14.4.2-111.4,2-116.8-.9l-.4-3.8Z"/>
  <path class="st3" d="M1297.5,341.2c2.7,1.1,4.2,1.5,2.6,4.8-4.2,9-4.6,19.9-3.1,29.5,1.8,11.6,7.6,20.7,16.9,27.6,8.1,6,18.7,7.9,28.5,6.1,4.7-.7,7.3-2.5,10,1.1l.9,1.2c-5.7,2.6-11.1,2.9-17.4,3-35.5.8-53.9-41.1-39.8-70.6l1.3-2.7Z"/>
  <path class="st3" d="M1156.1,147.3c22.4-.4,45.6,10.6,60,27.7,7.7,9.1,17.8,25.3,16.8,37.7-2.2-.7-4.1-.7-4.6-3.2-2.2-9.5-6.5-19.2-12.2-27-12.1-16.3-30.5-27.2-50.5-30.5-1.8-.3-7.1-.5-8.6-1.5-.8-.5-.8-2.5-.8-3.2Z"/>
  <path class="st7" d="M1021.1,1563.4c13.3,4.2,35.8,10.2,47.5,16.5-14.5,1.1-29.7.2-44.2.2-1.2-5.6-2.1-11.2-3.2-16.7Z"/>
  <path class="st13" d="M808.6,1129c.3,0,.5,0,.8.2.3,0,.5.2.6.5.6,1.8-3.1,6.9-4,8.4-14.3,3.8-29.3,8.4-43.2,13.7-.5-.3-1.1-.7-1.3-1.2-.6-1.4-1-4.2-.4-5.6.9-2.1,42.3-14.3,47.5-15.9Z"/>
  <path class="st13" d="M803,1142.2c.1.2.3.4.4.6.9,1.7-5,13.4-6.1,15.7-11.1,0-22.3,0-33.4-.1-.7-.4-1.2-.6-1.5-1.4-.1-.4,0-.8.1-1.1,1.7-3.1,31.5-10.7,36.6-12.4,1.3-.5,2.6-.9,3.9-1.3Z"/>
  <path class="st3" d="M1137.7,125.6c.5.3,2.9,1.8,2.3,2.9-14,24.7-34.6,30.8-60,36-7.9-3.8,11.9-6.4,13.7-6.8,21-5.5,30.9-16.1,44-32.1Z"/>
  <path class="st35" d="M826.1,650.5c10.4,2.8,17.1,12.2,7.9,19.8-12.3-2.6-13.9-1.2-10.3-13.8,1-3.6.4-2.6,2.4-6Z"/>
  <path class="st3" d="M1228.5,1595.8c1,0,4.4-.3,5.2.6.1.2.1.4,0,.6-.3,1.3-2.8,2.7-3.6,3.3-11,7.5-19.6,15.8-27.3,26.6-.3.2-.9.9-1.4,1-.5.1-1,0-1.4-.3-.6-.4-.9-.9-.9-1.6-.2-3.6,5.8-9.3,8-11.9,6.4-7.5,13-13,21.3-18.3Z"/>
  <path class="st35" d="M471.1,1075.8c-7.4-8.8-5.6-13.3,4.2-18,4.1,1.6,3.9.8,5.6,4.6-8,10.1-3.3,3.8,2.6,10.6v.3c-.6.6-3.5,1.6-5.9,3.4-2.2-2.4-3.4-1.5-6.6-.9Z"/>
  <path class="st13" d="M558.7,985.9c-3.9-14.3-17.5-35.4,5.7-17.5l-2.5,12.6-.8,3.7v.7c-.1,0-2.5.5-2.5.5Z"/>
  <path class="st5" d="M477.7,1076.8c7.3.6,6.6-.3,10.9-1.3,1.7-.4,7.9,6.2,0,6.7-6.8.4-12.2-1.7-17.4-6.3,3.2-.6,4.4-1.4,6.6.9Z"/>
  <path class="st15" d="M583.8,949.9c-.6-.4-1.3-.8-1.9-1.1-4-2.3-2.7-2.3-3-6.7-.7-9.2,7.3,1.7,10.2,4.5-2.3,1.7-2.8,2.1-5.3,3.3Z"/>
  <path class="st31" d="M1171.9,300.6l.7-1.2c.2-.6.4-1.4,1.1-1.7.8.2,2.4,2.5,3,3.2-.8,2.8-2.9,16.3-4.9,16.8h0c0,0,.2-.8.2-.8l-.5-.6c.6-5.5.5-10,.5-15.6Z"/>
  <path class="st35" d="M475.4,1057.9c3.4,0,12.4-.4,15.3.8-2.8.5-3.5.8-2,3.6-3,.3-4.6.3-7.7.2-1.8-3.8-1.6-3-5.6-4.6Z"/>
  <path class="st16" d="M558.7,985.9l2.3-.5c-.6,3-1.2,5.9-1.8,8.9-.4-1.6-.8-3.2-1.1-4.8.2-1.5.3-2.2.7-3.6Z"/>
  <path class="st33" d="M1170.4,445.1c2.3-7.2,2.5-2,3,2l-3-2Z"/>
  <path class="st32" d="M913.6,825.4l4.2-1.2c-2.1,4.4-3.2,9.2-4.2,1.2Z"/>
  <path class="st18" d="M586.6,1130.2c.9.3,1.9.6,2.8.8-.7.8-1.7.7-2.7.8v-1.7Z"/>
  <path class="st0" d="M506.1,1031.2c-.6-.2-2.4-.2-2.4-1.1.8-.8,1.5-.8,2.7-1.1l-.2,2.2Z"/>
  <path class="st9" d="M1628.7,217.2h82.6c0-.1,0,81.9,0,81.9l-82.5.2c0-27.3.3-54.8,0-82.1Z"/>
  <path class="st9" d="M1561.5,339.2c21.7.4,44-.2,65.8,0,.2,21.2.5,46.6-.2,67.5-21-.5-44.5-.4-65.6-.1.2-22.5-.3-45,0-67.5Z"/>
  <path class="st9" d="M1496.6,274.1c15.1-.2,30.2,0,45.3-.2,0,15,0,30.1-.2,45.1-14.3.5-30.6,0-45.2,0,.1-14.9.2-29.9,0-44.8Z"/>
  <path class="st26" d="M1722,1872.2c1.9-.2,5.1-.9,6.9,0,.4.2.7.5.8.9.1.5,0,.8-.3,1.1-.5.6-2.2.7-2.9.8-3.8.2-7.5.9-11.1,2-16.1,4.8-27.3,14-35.3,28.7-.3,1-.6,1.9-1.5,2.6-.4.3-1.1.6-1.6.4-.5-.2-.5-.2-.7-.7-1-2.2,3-8.5,4-10.2,9.2-14.6,25.2-22.2,41.5-25.6Z"/>
  <path class="st26" d="M61.8,1955.4c3.9,0,33.9-1,35.7.3,1.1.8,1.2,1.8,1.5,3.1-5.2.7-32.5,1.8-36,0-.6-.3-.9-.9-1-1.6,0-.3,0-.5,0-.8,0-.4-.1-.8-.2-1.1Z"/>
  <path class="st26" d="M1732.9,1883c.1.1.7.6.8.7.3.4.5.8.4,1.3-.2.9-1.3,1.5-2,1.8-11.4,5-16.8,11.9-24.1,21.4,0-.1-.1-.2-.2-.4-.3-.5-.6-1-.9-1.5-.4-.9-.2-1.9.2-2.8,5.1-10,15.8-16.8,25.9-20.6Z"/>
  <path class="st26" d="M1947.8,1955.3c6.4.1,20-1.2,25.6.5.7.2,1.2.6,1.5,1.3,0,.2.2.5.3.7l.4,1c-7,1.1-20.2,2.1-27.1.3-.6-.2-1.1-.4-1.3-1-.3-1,.3-2,.7-2.8Z"/>
  <path class="st11" d="M1660.1,745c-6.5-11.1-2.1-7.4,2.1-.4l-2.1.4Z"/>
  <path class="st8" d="M1024.9,799.6c24.6-14.4,46.9-19.4,75-23.6l.9.2c34.9-.3,75.3,6.2,100.9,31.5,28.9,28.8,21.8,66.8-6,93.9-31.4,30.5-75.7,45.4-119.4,45.4-45,0-105.4-21.6-104.4-75.6.5-28.3,24.8-53.1,47.1-68.6l5.9-3.2Z"/>
  <path class="st34" d="M1061.2,800.6c30.1-10.5,73.8-13.4,102.3,1.1,79.1,40.6,25.4,98.2-31,118.9-33.4,12-72.6,12.5-105.6-1.8-27.3-11.8-43.8-39-29.8-67.8,12.1-24.8,38.7-41.2,64.2-50.4Z"/>
  <path class="st8" d="M1062.2,816.2l28.8-2.2c15.9,27.5,30.9,58.8,45.6,87.3-9.8.3-20.7,1.2-30.5,1.9-1.7-4.7-4.5-10.8-6.5-15.5l-18.1,1.4c-7.2.9-15.8,1.3-23.1,1.9-1.9,4.7-3.8,11.4-5.4,16.4-9.7.7-19.3,1.5-29,2.5,11.7-30.3,24.7-64.1,38.3-93.6Z"/>
  <path class="st34" d="M1076,840.5c3.6,2.8,12.3,23.2,14.6,28.2-4.8.1-10.8.9-15.7,1.4-2,.2-3.9.2-5.9.2l-1.1-2.1c.3-8.3,5.2-19.4,8.2-27.8Z"/>
  <path class="st8" d="M1120.7,816.6c12.7-3.3,15.2-1,24.5,7.7,3.9-5.6,8.4-10.1,15.5-11.2,10.6-1.7,18.1,8,18.9,17.6.9,10.7-4.1,16.7-10.5,24.3-5.9,6.7-11.8,13.4-17.7,20.2-14.9-15.4-54.5-33.3-30.7-58.6Z"/>
  <path class="st19" d="M1142.8,1099.6s-7.4-73.1-23.6-101.3"/>
</svg>