<?xml version="1.0" encoding="UTF-8" standalone="no"?>
<!DOCTYPE svg PUBLIC "-//W3C//DTD SVG 1.1//EN" "http://www.w3.org/Graphics/SVG/1.1/DTD/svg11.dtd">
<svg xmlns="http://www.w3.org/2000/svg" version="1.1" viewBox="0.00 0.00 197.00 205.00">
<g stroke-width="2.00" fill="none" stroke-linecap="butt">
<path stroke="#0e2d68" vector-effect="non-scaling-stroke" d="
  M 145.69 3.92
  Q 140.04 4.89 135.05 7.83
  Q 125.07 13.72 115.92 20.28
  C 108.41 25.67 99.73 34.08 91.55 39.56
  Q 76.70 49.52 63.54 59.37
  Q 56.95 64.30 42.82 76.57
  Q 33.97 84.26 22.40 94.14
  Q 17.52 98.30 11.69 106.69"
/>
<path stroke="#0a1f56" vector-effect="non-scaling-stroke" d="
  M 11.69 106.69
  L 9.63 109.16"
/>
<path stroke="#081846" vector-effect="non-scaling-stroke" d="
  M 9.63 109.16
  Q 4.85 114.88 4.01 122.26
  A 3.60 3.56 44.7 0 0 4.02 123.22
  Q 4.53 127.17 5.03 128.18
  Q 8.89 136.06 11.28 138.72
  Q 20.76 149.31 23.83 152.96
  A 0.47 0.46 28.4 0 0 24.65 152.72
  Q 24.76 151.73 24.34 150.31
  Q 23.32 146.80 23.53 144.25
  Q 24.17 136.55 26.65 129.27"
/>
<path stroke="#0a1f56" vector-effect="non-scaling-stroke" d="
  M 26.65 129.27
  L 36.25 115.99"
/>
<path stroke="#0e2d68" vector-effect="non-scaling-stroke" d="
  M 36.25 115.99
  Q 42.56 110.92 51.06 108.87"
/>
<path stroke="#0a1f56" vector-effect="non-scaling-stroke" d="
  M 51.06 108.87
  Q 59.79 106.64 68.25 110.44
  A 0.50 0.50 0.0 0 0 68.82 109.65
  C 64.18 104.65 60.13 101.97 53.04 98.26
  Q 48.81 96.04 40.25 95.77
  A 0.97 0.95 88.3 0 1 39.32 94.88
  L 39.31 94.85
  A 0.81 0.81 0.0 0 1 40.08 93.97
  C 54.68 93.14 66.47 99.09 74.42 111.17
  C 76.20 113.87 77.75 115.92 79.89 117.50
  A 2.14 2.14 0.0 0 0 81.47 117.89
  Q 87.80 116.90 95.35 114.57
  Q 110.47 109.90 128.66 102.71
  C 138.68 98.74 146.14 94.73 155.98 90.17
  C 159.91 88.35 164.32 85.37 168.23 83.36
  C 170.42 82.23 172.05 80.74 173.97 79.34
  A 5.13 4.89 1.3 0 0 174.65 78.72
  Q 178.92 73.97 183.88 70.12
  Q 185.15 69.14 186.89 65.64"
/>
<path stroke="#081846" vector-effect="non-scaling-stroke" d="
  M 186.89 65.64
  Q 189.47 62.40 190.76 58.74
  Q 192.66 53.35 193.54 46.72
  Q 194.00 43.26 194.41 36.02
  Q 194.68 31.13 193.57 27.09
  Q 192.38 22.78 190.25 18.69"
/>
<path stroke="#0a1f56" vector-effect="non-scaling-stroke" d="
  M 190.25 18.69
  C 188.03 14.10 183.41 8.17 178.61 6.55
  Q 162.21 1.01 145.69 3.92"
/>
<path stroke="#0e2d7c" vector-effect="non-scaling-stroke" d="
  M 190.25 18.69
  C 186.58 34.47 178.86 46.89 163.74 53.99
  A 1.91 1.85 -54.7 0 1 162.78 54.17
  Q 142.93 52.72 139.84 52.14
  Q 128.42 49.99 116.89 47.44
  Q 114.32 46.88 112.21 46.85
  A 0.94 0.91 -71.3 0 0 111.47 47.23
  L 109.09 50.46
  A 0.61 0.61 0.0 0 0 109.22 51.31
  Q 114.09 54.92 117.77 56.47
  Q 129.88 61.57 145.56 65.43
  C 150.58 66.66 158.14 67.56 165.00 68.88
  A 4.35 4.27 -40.3 0 0 165.97 68.95
  C 171.78 68.68 177.00 68.47 182.22 66.79
  Q 184.53 66.04 186.89 65.64"
/>
<path stroke="#15419d" vector-effect="non-scaling-stroke" d="
  M 51.06 108.87
  Q 47.16 102.49 41.48 97.31
  A 3.75 3.74 62.4 0 0 38.46 96.36
  Q 30.64 97.37 23.15 101.69
  A 1.14 1.13 -27.9 0 0 22.69 103.16
  C 25.45 108.91 26.25 111.31 29.05 114.71
  A 3.12 3.11 65.6 0 0 31.96 115.81
  Q 34.07 115.47 36.25 115.99"
/>
<path stroke="#0e2d7c" vector-effect="non-scaling-stroke" d="
  M 26.65 129.27
  C 18.82 124.24 14.37 116.92 9.63 109.16"
/>
<path stroke="#15419d" vector-effect="non-scaling-stroke" d="
  M 11.69 106.69
  Q 12.09 107.41 12.98 106.96
  C 13.79 106.54 14.41 105.79 15.13 105.50
  Q 18.82 103.99 21.13 101.37
  A 4.02 3.96 -83.7 0 1 22.20 100.50
  C 25.30 98.76 27.95 97.78 28.84 95.69
  A 1.88 1.80 84.3 0 1 29.45 94.91
  Q 36.28 89.92 37.00 89.26
  Q 41.51 85.13 52.74 76.48
  Q 57.69 72.66 63.76 69.19
  Q 66.89 67.40 74.81 61.91
  Q 80.24 58.15 85.92 55.10
  C 94.44 50.54 100.88 48.17 104.37 42.61
  Q 107.83 37.11 110.92 34.18
  Q 121.21 24.45 132.00 16.92
  C 137.01 13.43 142.79 10.23 147.74 6.89
  A 0.90 0.90 0.0 0 0 147.76 5.41
  L 145.69 3.92"
/>
<path stroke="#818590" vector-effect="non-scaling-stroke" d="
  M 50.76 111.59
  Q 45.10 113.27 40.10 116.90"
/>
<path stroke="#5d7790" vector-effect="non-scaling-stroke" d="
  M 40.10 116.90
  Q 32.73 122.39 28.68 129.96"
/>
<path stroke="#345b84" vector-effect="non-scaling-stroke" d="
  M 28.68 129.96
  Q 24.91 138.62 25.48 147.26
  Q 25.89 153.51 31.10 157.34
  Q 36.44 161.26 41.95 165.51
  A 0.18 0.18 0.0 0 0 42.23 165.33
  Q 41.10 160.18 41.86 155.02
  Q 42.86 148.22 45.16 142.50"
/>
<path stroke="#5d7790" vector-effect="non-scaling-stroke" d="
  M 45.16 142.50
  L 50.91 134.25"
/>
<path stroke="#818590" vector-effect="non-scaling-stroke" d="
  M 50.91 134.25
  L 61.05 127.40"
/>
<path stroke="#5d7790" vector-effect="non-scaling-stroke" d="
  M 61.05 127.40
  Q 69.82 123.69 79.75 125.27
  A 0.19 0.19 0.0 0 0 79.94 124.98
  C 77.44 121.08 75.22 117.66 71.20 114.83
  Q 62.03 108.38 50.76 111.59"
/>
<path stroke="#dbf2ff" vector-effect="non-scaling-stroke" d="
  M 61.05 127.40
  L 50.76 111.59"
/>
<path stroke="#dbf2ff" vector-effect="non-scaling-stroke" d="
  M 50.91 134.25
  L 51.04 132.06
  A 2.09 2.08 -62.4 0 0 50.61 130.68
  L 40.10 116.90"
/>
<path stroke="#8ec8f4" vector-effect="non-scaling-stroke" d="
  M 45.16 142.50
  L 28.68 129.96"
/>
<path stroke="#123a72" vector-effect="non-scaling-stroke" d="
  M 67.13 127.85
  Q 55.34 131.14 47.98 141.54"
/>
<path stroke="#0e2d68" vector-effect="non-scaling-stroke" d="
  M 47.98 141.54
  Q 43.69 150.54 43.66 160.53"
/>
<path stroke="#123a72" vector-effect="non-scaling-stroke" d="
  M 43.66 160.53
  Q 43.87 166.14 47.80 168.42
  Q 65.56 178.76 82.87 185.00
  A 0.26 0.26 0.0 0 0 83.20 184.68
  Q 82.70 183.10 81.85 182.21"
/>
<path stroke="#0e2d68" vector-effect="non-scaling-stroke" d="
  M 81.85 182.21
  Q 81.80 177.92 81.92 174.26
  Q 82.13 167.45 84.87 161.42"
/>
<path stroke="#123a72" vector-effect="non-scaling-stroke" d="
  M 84.87 161.42
  Q 85.08 160.77 84.96 160.74"
/>
<path stroke="#0e2d68" vector-effect="non-scaling-stroke" d="
  M 84.96 160.74
  L 85.41 160.61
  A 0.36 0.36 0.0 0 1 85.86 160.92
  Q 85.88 161.06 85.86 161.23"
/>
<path stroke="#345b84" vector-effect="non-scaling-stroke" d="
  M 85.86 161.23
  Q 82.92 168.15 83.07 175.57
  Q 83.19 180.88 84.06 182.83
  Q 85.48 186.00 89.69 187.25
  Q 99.54 190.18 102.17 190.63"
/>
<path stroke="#0e2d68" vector-effect="non-scaling-stroke" d="
  M 102.17 190.63
  L 115.19 193.81
  A 0.52 0.52 0.0 0 0 115.72 192.98
  Q 114.86 191.93 114.56 190.57
  Q 113.39 185.31 114.16 180.13"
/>
<path stroke="#724130" vector-effect="non-scaling-stroke" d="
  M 114.16 180.13
  Q 114.56 183.65 114.70 187.00
  Q 114.81 189.92 117.58 192.99
  A 2.76 2.67 -5.8 0 0 118.33 193.58
  C 128.59 199.11 133.31 202.23 143.76 200.69
  C 145.43 200.44 147.22 198.96 149.02 199.74
  Q 155.03 202.34 160.97 201.89
  C 164.92 201.59 166.30 198.64 167.20 195.18
  A 1.18 1.18 0.0 0 0 166.40 193.75
  Q 159.74 191.75 153.76 187.38
  A 0.22 0.22 0.0 0 1 153.97 187.00
  C 160.19 189.67 164.50 193.87 172.19 191.72
  Q 173.25 191.42 174.50 189.37
  A 1.06 1.06 0.0 0 0 174.65 188.70
  L 174.15 184.38
  A 1.45 1.43 16.3 0 0 173.62 183.43
  C 170.56 181.00 167.90 180.16 162.87 178.15
  Q 160.21 177.08 158.35 175.16
  A 0.26 0.25 -46.7 0 1 158.34 174.81
  L 158.35 174.81
  A 0.26 0.26 0.0 0 1 158.70 174.78
  Q 161.09 176.61 162.37 176.95
  Q 166.72 178.12 174.09 182.17
  Q 175.59 182.99 177.11 181.81"
/>
<path stroke="#7a513a" vector-effect="non-scaling-stroke" d="
  M 177.11 181.81
  Q 178.65 180.71 179.07 178.87
  C 179.72 176.05 180.60 172.69 178.13 170.66
  Q 175.99 168.91 173.32 167.67
  Q 164.26 163.45 163.23 163.03
  Q 161.01 162.10 160.12 160.32
  A 0.14 0.14 0.0 0 1 160.31 160.13
  Q 160.77 160.38 174.37 166.77
  Q 177.91 168.44 180.29 171.27
  A 1.07 1.06 49.0 0 0 181.82 171.38
  C 189.45 164.50 183.77 158.90 178.17 154.04
  A 1.00 0.98 -69.2 0 1 177.82 153.24
  Q 177.91 149.93 174.38 149.08
  C 172.53 148.63 169.98 148.73 167.39 147.93
  Q 155.51 144.26 154.24 143.99
  C 149.24 142.92 143.46 146.31 139.53 149.03
  Q 138.62 149.66 123.61 159.10
  Q 120.20 161.24 117.52 167.26"
/>
<path stroke="#0e2d68" vector-effect="non-scaling-stroke" d="
  M 117.52 167.26
  Q 116.91 167.10 117.28 165.68"
/>
<path stroke="#123a72" vector-effect="non-scaling-stroke" d="
  M 117.28 165.68
  Q 120.24 159.49 126.16 155.75
  A 0.41 0.40 33.9 0 0 126.01 155.01
  Q 120.05 153.92 113.98 151.11"
/>
<path stroke="#637d90" vector-effect="non-scaling-stroke" d="
  M 113.98 151.11
  L 103.16 145.19"
/>
<path stroke="#0e2d68" vector-effect="non-scaling-stroke" d="
  M 103.16 145.19
  Q 94.71 138.55 86.42 132.21
  Q 81.01 128.07 77.59 127.28
  Q 72.61 126.11 67.13 127.85"
/>
<path stroke="#6e9fd7" vector-effect="non-scaling-stroke" d="
  M 103.16 145.19
  Q 99.30 146.13 97.18 147.68
  Q 90.07 152.90 86.12 160.72"
/>
<path stroke="#3f7ecc" vector-effect="non-scaling-stroke" d="
  M 86.12 160.72
  Q 86.22 160.80 85.86 161.23"
/>
<path stroke="#1d5dba" vector-effect="non-scaling-stroke" d="
  M 84.96 160.74
  Q 89.43 152.77 96.18 147.08
  A 0.82 0.82 0.0 0 0 96.03 145.72
  C 91.65 143.44 88.14 140.26 83.60 137.48
  Q 75.50 132.54 67.13 127.85"
/>
<path stroke="#71ade2" vector-effect="non-scaling-stroke" d="
  M 113.98 151.11
  Q 113.94 151.38 113.92 151.59
  A 1.21 1.19 -14.7 0 1 113.45 152.38
  C 107.37 156.77 104.61 161.54 101.07 168.36"
/>
<path stroke="#94cef4" vector-effect="non-scaling-stroke" d="
  M 101.07 168.36
  L 86.89 161.72
  A 1.22 1.20 0.9 0 1 86.32 161.14
  Q 86.23 160.95 86.12 160.72"
/>
<path stroke="#3f7ecc" vector-effect="non-scaling-stroke" d="
  M 101.02 168.48
  Q 97.82 176.71 100.44 186.62
  Q 101.06 188.96 102.71 189.42
  A 0.44 0.44 0.0 0 1 103.01 189.97
  Q 102.87 190.43 102.17 190.63"
/>
<path stroke="#1d5dba" vector-effect="non-scaling-stroke" d="
  M 84.87 161.42
  Q 80.57 158.10 78.96 157.52
  Q 70.73 154.58 67.86 152.41
  Q 58.86 145.62 47.98 141.54"
/>
<path stroke="#1d5dba" vector-effect="non-scaling-stroke" d="
  M 117.28 165.68
  L 115.19 172.17
  A 0.61 0.61 0.0 0 1 114.58 172.60
  C 109.95 172.35 105.49 169.93 101.02 168.48"
/>
<path stroke="#438bd6" vector-effect="non-scaling-stroke" d="
  M 101.02 168.48
  Q 101.05 168.42 101.07 168.36"
/>
<path stroke="#7d6377" vector-effect="non-scaling-stroke" d="
  M 114.66 176.76
  Q 114.68 178.67 114.16 180.13"
/>
<path stroke="#1d5dba" vector-effect="non-scaling-stroke" d="
  M 81.85 182.21
  Q 74.41 179.96 68.61 176.92
  Q 61.25 173.06 48.64 165.64
  C 47.42 164.92 46.34 163.58 45.43 162.00
  Q 44.70 160.71 43.66 160.53"
/>
<path stroke="#e8884a" vector-effect="non-scaling-stroke" d="
  M 177.11 181.81
  L 176.64 176.96
  A 1.85 1.83 6.9 0 0 175.42 175.42
  Q 166.18 172.19 155.45 170.65
  A 1.53 1.52 25.3 0 0 154.12 171.12
  Q 149.65 175.85 143.57 179.73
  Q 129.48 188.72 115.38 179.71
  A 1.42 1.37 -84.0 0 1 114.81 178.98
  Q 114.50 178.04 114.66 176.76"
/>
<path stroke="#857482" vector-effect="non-scaling-stroke" d="
  M 114.66 176.76
  L 117.52 167.26"
/>
</g>
<path fill="#030a20" d="
  M 83.72 122.00
  A 1.17 1.17 0.0 0 0 83.08 123.81
  C 86.47 128.55 90.91 132.09 98.25 137.77
  C 103.85 142.09 124.43 156.32 131.52 151.26
  C 138.04 146.60 147.42 139.00 155.65 141.58
  Q 162.64 143.78 176.30 147.41
  Q 177.23 147.66 178.53 149.07
  C 179.76 150.40 180.05 153.59 181.50 154.60
  Q 182.71 155.45 186.32 160.25
  Q 189.88 164.99 186.42 169.89
  Q 184.28 172.92 182.74 174.03
  A 1.99 1.97 72.3 0 0 181.92 175.64
  L 181.92 178.95
  A 4.64 4.63 -22.5 0 1 180.56 182.23
  L 178.03 184.76
  A 3.11 3.08 -18.9 0 0 177.15 186.53
  Q 177.08 186.99 176.93 188.25
  C 176.54 191.36 173.75 193.55 170.80 194.52
  A 2.20 2.18 -1.6 0 0 169.37 196.02
  C 167.27 203.78 164.17 204.74 156.29 204.05
  Q 153.11 203.77 149.01 202.43
  A 5.04 5.01 47.4 0 0 146.30 202.31
  Q 141.07 203.51 136.27 203.51
  C 131.30 203.51 127.13 201.33 120.46 198.46
  A 9.04 8.90 60.9 0 0 118.24 197.81
  Q 90.37 193.23 62.54 180.47
  Q 43.02 171.52 27.05 159.49
  C 18.90 153.36 12.22 146.31 6.67 138.64
  C 4.55 135.70 2.40 131.97 1.91 128.18
  Q 1.61 125.89 1.15 124.05
  C -1.12 115.02 7.46 104.14 13.29 98.28
  Q 41.05 70.39 72.34 47.33
  C 82.34 39.96 92.75 33.57 104.44 24.66
  Q 114.18 17.23 126.29 9.51
  C 135.50 3.63 145.18 0.62 156.44 0.83
  C 163.77 0.97 172.32 1.87 178.89 4.67
  Q 180.46 5.34 182.58 7.13
  Q 186.96 10.83 190.90 18.38
  Q 198.45 32.83 194.72 49.75
  C 192.65 59.11 189.64 66.31 183.29 72.72
  Q 182.26 73.76 176.55 79.80
  Q 172.94 83.62 167.44 87.16
  C 152.75 96.62 138.06 102.76 122.22 109.97
  Q 119.89 111.04 115.10 112.57
  Q 98.63 117.83 83.72 122.00
  Z
  M 145.69 3.92
  Q 140.04 4.89 135.05 7.83
  Q 125.07 13.72 115.92 20.28
  C 108.41 25.67 99.73 34.08 91.55 39.56
  Q 76.70 49.52 63.54 59.37
  Q 56.95 64.30 42.82 76.57
  Q 33.97 84.26 22.40 94.14
  Q 17.52 98.30 11.69 106.69
  L 9.63 109.16
  Q 4.85 114.88 4.01 122.26
  A 3.60 3.56 44.7 0 0 4.02 123.22
  Q 4.53 127.17 5.03 128.18
  Q 8.89 136.06 11.28 138.72
  Q 20.76 149.31 23.83 152.96
  A 0.47 0.46 28.4 0 0 24.65 152.72
  Q 24.76 151.73 24.34 150.31
  Q 23.32 146.80 23.53 144.25
  Q 24.17 136.55 26.65 129.27
  L 36.25 115.99
  Q 42.56 110.92 51.06 108.87
  Q 59.79 106.64 68.25 110.44
  A 0.50 0.50 0.0 0 0 68.82 109.65
  C 64.18 104.65 60.13 101.97 53.04 98.26
  Q 48.81 96.04 40.25 95.77
  A 0.97 0.95 88.3 0 1 39.32 94.88
  L 39.31 94.85
  A 0.81 0.81 0.0 0 1 40.08 93.97
  C 54.68 93.14 66.47 99.09 74.42 111.17
  C 76.20 113.87 77.75 115.92 79.89 117.50
  A 2.14 2.14 0.0 0 0 81.47 117.89
  Q 87.80 116.90 95.35 114.57
  Q 110.47 109.90 128.66 102.71
  C 138.68 98.74 146.14 94.73 155.98 90.17
  C 159.91 88.35 164.32 85.37 168.23 83.36
  C 170.42 82.23 172.05 80.74 173.97 79.34
  A 5.13 4.89 1.3 0 0 174.65 78.72
  Q 178.92 73.97 183.88 70.12
  Q 185.15 69.14 186.89 65.64
  Q 189.47 62.40 190.76 58.74
  Q 192.66 53.35 193.54 46.72
  Q 194.00 43.26 194.41 36.02
  Q 194.68 31.13 193.57 27.09
  Q 192.38 22.78 190.25 18.69
  C 188.03 14.10 183.41 8.17 178.61 6.55
  Q 162.21 1.01 145.69 3.92
  Z
  M 50.76 111.59
  Q 45.10 113.27 40.10 116.90
  Q 32.73 122.39 28.68 129.96
  Q 24.91 138.62 25.48 147.26
  Q 25.89 153.51 31.10 157.34
  Q 36.44 161.26 41.95 165.51
  A 0.18 0.18 0.0 0 0 42.23 165.33
  Q 41.10 160.18 41.86 155.02
  Q 42.86 148.22 45.16 142.50
  L 50.91 134.25
  L 61.05 127.40
  Q 69.82 123.69 79.75 125.27
  A 0.19 0.19 0.0 0 0 79.94 124.98
  C 77.44 121.08 75.22 117.66 71.20 114.83
  Q 62.03 108.38 50.76 111.59
  Z
  M 67.13 127.85
  Q 55.34 131.14 47.98 141.54
  Q 43.69 150.54 43.66 160.53
  Q 43.87 166.14 47.80 168.42
  Q 65.56 178.76 82.87 185.00
  A 0.26 0.26 0.0 0 0 83.20 184.68
  Q 82.70 183.10 81.85 182.21
  Q 81.80 177.92 81.92 174.26
  Q 82.13 167.45 84.87 161.42
  Q 85.08 160.77 84.96 160.74
  L 85.41 160.61
  A 0.36 0.36 0.0 0 1 85.86 160.92
  Q 85.88 161.06 85.86 161.23
  Q 82.92 168.15 83.07 175.57
  Q 83.19 180.88 84.06 182.83
  Q 85.48 186.00 89.69 187.25
  Q 99.54 190.18 102.17 190.63
  L 115.19 193.81
  A 0.52 0.52 0.0 0 0 115.72 192.98
  Q 114.86 191.93 114.56 190.57
  Q 113.39 185.31 114.16 180.13
  Q 114.56 183.65 114.70 187.00
  Q 114.81 189.92 117.58 192.99
  A 2.76 2.67 -5.8 0 0 118.33 193.58
  C 128.59 199.11 133.31 202.23 143.76 200.69
  C 145.43 200.44 147.22 198.96 149.02 199.74
  Q 155.03 202.34 160.97 201.89
  C 164.92 201.59 166.30 198.64 167.20 195.18
  A 1.18 1.18 0.0 0 0 166.40 193.75
  Q 159.74 191.75 153.76 187.38
  A 0.22 0.22 0.0 0 1 153.97 187.00
  C 160.19 189.67 164.50 193.87 172.19 191.72
  Q 173.25 191.42 174.50 189.37
  A 1.06 1.06 0.0 0 0 174.65 188.70
  L 174.15 184.38
  A 1.45 1.43 16.3 0 0 173.62 183.43
  C 170.56 181.00 167.90 180.16 162.87 178.15
  Q 160.21 177.08 158.35 175.16
  A 0.26 0.25 -46.7 0 1 158.34 174.81
  L 158.35 174.81
  A 0.26 0.26 0.0 0 1 158.70 174.78
  Q 161.09 176.61 162.37 176.95
  Q 166.72 178.12 174.09 182.17
  Q 175.59 182.99 177.11 181.81
  Q 178.65 180.71 179.07 178.87
  C 179.72 176.05 180.60 172.69 178.13 170.66
  Q 175.99 168.91 173.32 167.67
  Q 164.26 163.45 163.23 163.03
  Q 161.01 162.10 160.12 160.32
  A 0.14 0.14 0.0 0 1 160.31 160.13
  Q 160.77 160.38 174.37 166.77
  Q 177.91 168.44 180.29 171.27
  A 1.07 1.06 49.0 0 0 181.82 171.38
  C 189.45 164.50 183.77 158.90 178.17 154.04
  A 1.00 0.98 -69.2 0 1 177.82 153.24
  Q 177.91 149.93 174.38 149.08
  C 172.53 148.63 169.98 148.73 167.39 147.93
  Q 155.51 144.26 154.24 143.99
  C 149.24 142.92 143.46 146.31 139.53 149.03
  Q 138.62 149.66 123.61 159.10
  Q 120.20 161.24 117.52 167.26
  Q 116.91 167.10 117.28 165.68
  Q 120.24 159.49 126.16 155.75
  A 0.41 0.40 33.9 0 0 126.01 155.01
  Q 120.05 153.92 113.98 151.11
  L 103.16 145.19
  Q 94.71 138.55 86.42 132.21
  Q 81.01 128.07 77.59 127.28
  Q 72.61 126.11 67.13 127.85
  Z"
/>
<path fill="#10338b" d="
  M 190.25 18.69
  C 186.58 34.47 178.86 46.89 163.74 53.99
  A 1.91 1.85 -54.7 0 1 162.78 54.17
  Q 142.93 52.72 139.84 52.14
  Q 128.42 49.99 116.89 47.44
  Q 114.32 46.88 112.21 46.85
  A 0.94 0.91 -71.3 0 0 111.47 47.23
  L 109.09 50.46
  A 0.61 0.61 0.0 0 0 109.22 51.31
  Q 114.09 54.92 117.77 56.47
  Q 129.88 61.57 145.56 65.43
  C 150.58 66.66 158.14 67.56 165.00 68.88
  A 4.35 4.27 -40.3 0 0 165.97 68.95
  C 171.78 68.68 177.00 68.47 182.22 66.79
  Q 184.53 66.04 186.89 65.64
  Q 185.15 69.14 183.88 70.12
  Q 178.92 73.97 174.65 78.72
  A 5.13 4.89 1.3 0 1 173.97 79.34
  C 172.05 80.74 170.42 82.23 168.23 83.36
  C 164.32 85.37 159.91 88.35 155.98 90.17
  C 146.14 94.73 138.68 98.74 128.66 102.71
  Q 110.47 109.90 95.35 114.57
  Q 87.80 116.90 81.47 117.89
  A 2.14 2.14 0.0 0 1 79.89 117.50
  C 77.75 115.92 76.20 113.87 74.42 111.17
  C 66.47 99.09 54.68 93.14 40.08 93.97
  A 0.81 0.81 0.0 0 0 39.31 94.85
  L 39.32 94.88
  A 0.97 0.95 88.3 0 0 40.25 95.77
  Q 48.81 96.04 53.04 98.26
  C 60.13 101.97 64.18 104.65 68.82 109.65
  A 0.50 0.50 0.0 0 1 68.25 110.44
  Q 59.79 106.64 51.06 108.87
  Q 47.16 102.49 41.48 97.31
  A 3.75 3.74 62.4 0 0 38.46 96.36
  Q 30.64 97.37 23.15 101.69
  A 1.14 1.13 -27.9 0 0 22.69 103.16
  C 25.45 108.91 26.25 111.31 29.05 114.71
  A 3.12 3.11 65.6 0 0 31.96 115.81
  Q 34.07 115.47 36.25 115.99
  L 26.65 129.27
  C 18.82 124.24 14.37 116.92 9.63 109.16
  L 11.69 106.69
  Q 12.09 107.41 12.98 106.96
  C 13.79 106.54 14.41 105.79 15.13 105.50
  Q 18.82 103.99 21.13 101.37
  A 4.02 3.96 -83.7 0 1 22.20 100.50
  C 25.30 98.76 27.95 97.78 28.84 95.69
  A 1.88 1.80 84.3 0 1 29.45 94.91
  Q 36.28 89.92 37.00 89.26
  Q 41.51 85.13 52.74 76.48
  Q 57.69 72.66 63.76 69.19
  Q 66.89 67.40 74.81 61.91
  Q 80.24 58.15 85.92 55.10
  C 94.44 50.54 100.88 48.17 104.37 42.61
  Q 107.83 37.11 110.92 34.18
  Q 121.21 24.45 132.00 16.92
  C 137.01 13.43 142.79 10.23 147.74 6.89
  A 0.90 0.90 0.0 0 0 147.76 5.41
  L 145.69 3.92
  Q 162.21 1.01 178.61 6.55
  C 183.41 8.17 188.03 14.10 190.25 18.69
  Z"
/>
<path fill="#194faf" d="
  M 145.69 3.92
  L 147.76 5.41
  A 0.90 0.90 0.0 0 1 147.74 6.89
  C 142.79 10.23 137.01 13.43 132.00 16.92
  Q 121.21 24.45 110.92 34.18
  Q 107.83 37.11 104.37 42.61
  C 100.88 48.17 94.44 50.54 85.92 55.10
  Q 80.24 58.15 74.81 61.91
  Q 66.89 67.40 63.76 69.19
  Q 57.69 72.66 52.74 76.48
  Q 41.51 85.13 37.00 89.26
  Q 36.28 89.92 29.45 94.91
  A 1.88 1.80 84.3 0 0 28.84 95.69
  C 27.95 97.78 25.30 98.76 22.20 100.50
  A 4.02 3.96 -83.7 0 0 21.13 101.37
  Q 18.82 103.99 15.13 105.50
  C 14.41 105.79 13.79 106.54 12.98 106.96
  Q 12.09 107.41 11.69 106.69
  Q 17.52 98.30 22.40 94.14
  Q 33.97 84.26 42.82 76.57
  Q 56.95 64.30 63.54 59.37
  Q 76.70 49.52 91.55 39.56
  C 99.73 34.08 108.41 25.67 115.92 20.28
  Q 125.07 13.72 135.05 7.83
  Q 140.04 4.89 145.69 3.92
  Z"
/>
<path fill="#0c266c" d="
  M 186.89 65.64
  Q 184.53 66.04 182.22 66.79
  C 177.00 68.47 171.78 68.68 165.97 68.95
  A 4.35 4.27 -40.3 0 1 165.00 68.88
  C 158.14 67.56 150.58 66.66 145.56 65.43
  Q 129.88 61.57 117.77 56.47
  Q 114.09 54.92 109.22 51.31
  A 0.61 0.61 0.0 0 1 109.09 50.46
  L 111.47 47.23
  A 0.94 0.91 -71.3 0 1 112.21 46.85
  Q 114.32 46.88 116.89 47.44
  Q 128.42 49.99 139.84 52.14
  Q 142.93 52.72 162.78 54.17
  A 1.91 1.85 -54.7 0 0 163.74 53.99
  C 178.86 46.89 186.58 34.47 190.25 18.69
  Q 192.38 22.78 193.57 27.09
  Q 194.68 31.13 194.41 36.02
  Q 194.00 43.26 193.54 46.72
  Q 192.66 53.35 190.76 58.74
  Q 189.47 62.40 186.89 65.64
  Z"
/>
<path fill="#194faf" d="
  M 51.06 108.87
  Q 42.56 110.92 36.25 115.99
  Q 34.07 115.47 31.96 115.81
  A 3.12 3.11 65.6 0 1 29.05 114.71
  C 26.25 111.31 25.45 108.91 22.69 103.16
  A 1.14 1.13 -27.9 0 1 23.15 101.69
  Q 30.64 97.37 38.46 96.36
  A 3.75 3.74 62.4 0 1 41.48 97.31
  Q 47.16 102.49 51.06 108.87
  Z"
/>
<path fill="#0c266c" d="
  M 9.63 109.16
  C 14.37 116.92 18.82 124.24 26.65 129.27
  Q 24.17 136.55 23.53 144.25
  Q 23.32 146.80 24.34 150.31
  Q 24.76 151.73 24.65 152.72
  A 0.47 0.46 28.4 0 1 23.83 152.96
  Q 20.76 149.31 11.28 138.72
  Q 8.89 136.06 5.03 128.18
  Q 4.53 127.17 4.02 123.22
  A 3.60 3.56 44.7 0 1 4.01 122.26
  Q 4.85 114.88 9.63 109.16
  Z"
/>
<path fill="#b7e4ff" d="
  M 61.05 127.40
  L 50.76 111.59
  Q 62.03 108.38 71.20 114.83
  C 75.22 117.66 77.44 121.08 79.94 124.98
  A 0.19 0.19 0.0 0 1 79.75 125.27
  Q 69.82 123.69 61.05 127.40
  Z"
/>
<path fill="#ffffff" d="
  M 50.76 111.59
  L 61.05 127.40
  L 50.91 134.25
  L 51.04 132.06
  A 2.09 2.08 -62.4 0 0 50.61 130.68
  L 40.10 116.90
  Q 45.10 113.27 50.76 111.59
  Z"
/>
<path fill="#b7e4ff" d="
  M 40.10 116.90
  L 50.61 130.68
  A 2.09 2.08 -62.4 0 1 51.04 132.06
  L 50.91 134.25
  L 45.16 142.50
  L 28.68 129.96
  Q 32.73 122.39 40.10 116.90
  Z"
/>
<path fill="#194faf" d="
  M 103.16 145.19
  Q 99.30 146.13 97.18 147.68
  Q 90.07 152.90 86.12 160.72
  Q 86.22 160.80 85.86 161.23
  Q 85.88 161.06 85.86 160.92
  A 0.36 0.36 0.0 0 0 85.41 160.61
  L 84.96 160.74
  Q 89.43 152.77 96.18 147.08
  A 0.82 0.82 0.0 0 0 96.03 145.72
  C 91.65 143.44 88.14 140.26 83.60 137.48
  Q 75.50 132.54 67.13 127.85
  Q 72.61 126.11 77.59 127.28
  Q 81.01 128.07 86.42 132.21
  Q 94.71 138.55 103.16 145.19
  Z"
/>
<path fill="#206ac4" d="
  M 67.13 127.85
  Q 75.50 132.54 83.60 137.48
  C 88.14 140.26 91.65 143.44 96.03 145.72
  A 0.82 0.82 0.0 0 1 96.18 147.08
  Q 89.43 152.77 84.96 160.74
  Q 85.08 160.77 84.87 161.42
  Q 80.57 158.10 78.96 157.52
  Q 70.73 154.58 67.86 152.41
  Q 58.86 145.62 47.98 141.54
  Q 55.34 131.14 67.13 127.85
  Z"
/>
<path fill="#65ace8" d="
  M 28.68 129.96
  L 45.16 142.50
  Q 42.86 148.22 41.86 155.02
  Q 41.10 160.18 42.23 165.33
  A 0.18 0.18 0.0 0 1 41.95 165.51
  Q 36.44 161.26 31.10 157.34
  Q 25.89 153.51 25.48 147.26
  Q 24.91 138.62 28.68 129.96
  Z"
/>
<path fill="#194faf" d="
  M 47.98 141.54
  Q 58.86 145.62 67.86 152.41
  Q 70.73 154.58 78.96 157.52
  Q 80.57 158.10 84.87 161.42
  Q 82.13 167.45 81.92 174.26
  Q 81.80 177.92 81.85 182.21
  Q 74.41 179.96 68.61 176.92
  Q 61.25 173.06 48.64 165.64
  C 47.42 164.92 46.34 163.58 45.43 162.00
  Q 44.70 160.71 43.66 160.53
  Q 43.69 150.54 47.98 141.54
  Z"
/>
<path fill="#f09854" d="
  M 177.11 181.81
  L 176.64 176.96
  A 1.85 1.83 6.9 0 0 175.42 175.42
  Q 166.18 172.19 155.45 170.65
  A 1.53 1.52 25.3 0 0 154.12 171.12
  Q 149.65 175.85 143.57 179.73
  Q 129.48 188.72 115.38 179.71
  A 1.42 1.37 -84.0 0 1 114.81 178.98
  Q 114.50 178.04 114.66 176.76
  L 117.52 167.26
  Q 120.20 161.24 123.61 159.10
  Q 138.62 149.66 139.53 149.03
  C 143.46 146.31 149.24 142.92 154.24 143.99
  Q 155.51 144.26 167.39 147.93
  C 169.98 148.73 172.53 148.63 174.38 149.08
  Q 177.91 149.93 177.82 153.24
  A 1.00 0.98 -69.2 0 0 178.17 154.04
  C 183.77 158.90 189.45 164.50 181.82 171.38
  A 1.07 1.06 49.0 0 1 180.29 171.27
  Q 177.91 168.44 174.37 166.77
  Q 160.77 160.38 160.31 160.13
  A 0.14 0.14 0.0 0 0 160.12 160.32
  Q 161.01 162.10 163.23 163.03
  Q 164.26 163.45 173.32 167.67
  Q 175.99 168.91 178.13 170.66
  C 180.60 172.69 179.72 176.05 179.07 178.87
  Q 178.65 180.71 177.11 181.81
  Z"
/>
<path fill="#c2efff" d="
  M 103.16 145.19
  L 113.98 151.11
  Q 113.94 151.38 113.92 151.59
  A 1.21 1.19 -14.7 0 1 113.45 152.38
  C 107.37 156.77 104.61 161.54 101.07 168.36
  L 86.89 161.72
  A 1.22 1.20 0.9 0 1 86.32 161.14
  Q 86.23 160.95 86.12 160.72
  Q 90.07 152.90 97.18 147.68
  Q 99.30 146.13 103.16 145.19
  Z"
/>
<path fill="#206ac4" d="
  M 117.28 165.68
  L 115.19 172.17
  A 0.61 0.61 0.0 0 1 114.58 172.60
  C 109.95 172.35 105.49 169.93 101.02 168.48
  Q 101.05 168.42 101.07 168.36
  C 104.61 161.54 107.37 156.77 113.45 152.38
  A 1.21 1.19 -14.7 0 0 113.92 151.59
  Q 113.94 151.38 113.98 151.11
  Q 120.05 153.92 126.01 155.01
  A 0.41 0.40 33.9 0 1 126.16 155.75
  Q 120.24 159.49 117.28 165.68
  Z"
/>
<path fill="#206ac4" d="
  M 81.85 182.21
  Q 82.70 183.10 83.20 184.68
  A 0.26 0.26 0.0 0 1 82.87 185.00
  Q 65.56 178.76 47.80 168.42
  Q 43.87 166.14 43.66 160.53
  Q 44.70 160.71 45.43 162.00
  C 46.34 163.58 47.42 164.92 48.64 165.64
  Q 61.25 173.06 68.61 176.92
  Q 74.41 179.96 81.85 182.21
  Z"
/>
<path fill="#65ace8" d="
  M 86.12 160.72
  Q 86.23 160.95 86.32 161.14
  A 1.22 1.20 0.9 0 0 86.89 161.72
  L 101.07 168.36
  Q 101.05 168.42 101.02 168.48
  Q 97.82 176.71 100.44 186.62
  Q 101.06 188.96 102.71 189.42
  A 0.44 0.44 0.0 0 1 103.01 189.97
  Q 102.87 190.43 102.17 190.63
  Q 99.54 190.18 89.69 187.25
  Q 85.48 186.00 84.06 182.83
  Q 83.19 180.88 83.07 175.57
  Q 82.92 168.15 85.86 161.23
  Q 86.22 160.80 86.12 160.72
  Z"
/>
<path fill="#194faf" d="
  M 117.28 165.68
  Q 116.91 167.10 117.52 167.26
  L 114.66 176.76
  Q 114.68 178.67 114.16 180.13
  Q 113.39 185.31 114.56 190.57
  Q 114.86 191.93 115.72 192.98
  A 0.52 0.52 0.0 0 1 115.19 193.81
  L 102.17 190.63
  Q 102.87 190.43 103.01 189.97
  A 0.44 0.44 0.0 0 0 102.71 189.42
  Q 101.06 188.96 100.44 186.62
  Q 97.82 176.71 101.02 168.48
  C 105.49 169.93 109.95 172.35 114.58 172.60
  A 0.61 0.61 0.0 0 0 115.19 172.17
  L 117.28 165.68
  Z"
/>
<path fill="#e0773f" d="
  M 177.11 181.81
  Q 175.59 182.99 174.09 182.17
  Q 166.72 178.12 162.37 176.95
  Q 161.09 176.61 158.70 174.78
  A 0.26 0.26 0.0 0 0 158.35 174.81
  L 158.34 174.81
  A 0.26 0.25 -46.7 0 0 158.35 175.16
  Q 160.21 177.08 162.87 178.15
  C 167.90 180.16 170.56 181.00 173.62 183.43
  A 1.45 1.43 16.3 0 1 174.15 184.38
  L 174.65 188.70
  A 1.06 1.06 0.0 0 1 174.50 189.37
  Q 173.25 191.42 172.19 191.72
  C 164.50 193.87 160.19 189.67 153.97 187.00
  A 0.22 0.22 0.0 0 0 153.76 187.38
  Q 159.74 191.75 166.40 193.75
  A 1.18 1.18 0.0 0 1 167.20 195.18
  C 166.30 198.64 164.92 201.59 160.97 201.89
  Q 155.03 202.34 149.02 199.74
  C 147.22 198.96 145.43 200.44 143.76 200.69
  C 133.31 202.23 128.59 199.11 118.33 193.58
  A 2.76 2.67 -5.8 0 1 117.58 192.99
  Q 114.81 189.92 114.70 187.00
  Q 114.56 183.65 114.16 180.13
  Q 114.68 178.67 114.66 176.76
  Q 114.50 178.04 114.81 178.98
  A 1.42 1.37 -84.0 0 0 115.38 179.71
  Q 129.48 188.72 143.57 179.73
  Q 149.65 175.85 154.12 171.12
  A 1.53 1.52 25.3 0 1 155.45 170.65
  Q 166.18 172.19 175.42 175.42
  A 1.85 1.83 6.9 0 1 176.64 176.96
  L 177.11 181.81
  Z"
/>
</svg>
