<?xml version="1.0" encoding="UTF-8" standalone="no"?>
<!DOCTYPE svg PUBLIC "-//W3C//DTD SVG 1.1//EN" "http://www.w3.org/Graphics/SVG/1.1/DTD/svg11.dtd">
<svg xmlns="http://www.w3.org/2000/svg" version="1.1" viewBox="0.00 0.00 1280.00 1280.00">
<g fill="#0c152c">
<path d="
  M 926.01 426.58
  L 926.01 421.18
  A 0.32 0.31 68.1 0 1 926.10 420.96
  Q 927.84 419.16 927.49 416.41
  A 0.41 0.41 0.0 0 1 928.14 416.03
  C 929.03 416.71 929.65 417.08 930.68 416.59
  Q 937.84 413.21 945.13 416.87
  A 1.20 1.20 0.0 0 0 946.00 416.95
  L 948.33 416.23
  A 0.51 0.51 0.0 0 1 948.88 417.03
  Q 946.13 420.56 943.77 425.92
  Q 943.14 427.35 941.78 428.14
  A 0.25 0.25 0.0 0 1 941.42 427.83
  Q 942.42 425.34 941.97 421.33
  A 1.65 1.65 0.0 0 0 940.77 419.92
  Q 932.20 417.53 926.45 426.71
  A 0.24 0.24 0.0 0 1 926.01 426.58
  Z"
/>
<path d="
  M 894.19 436.44
  A 0.42 0.42 0.0 0 1 893.42 436.53
  C 891.55 433.11 889.02 431.59 885.23 431.31
  C 878.04 430.78 871.31 434.14 866.62 439.37
  A 2.85 2.84 28.4 0 1 863.75 440.22
  L 862.35 439.84
  A 1.20 1.20 0.0 0 1 861.86 437.79
  Q 869.03 431.36 875.31 428.32
  Q 881.14 425.50 888.44 427.78
  C 890.64 428.47 891.38 428.05 892.84 426.57
  A 0.80 0.80 0.0 0 1 894.14 427.44
  Q 893.09 429.96 894.89 431.63
  A 1.13 1.12 29.4 0 1 895.20 432.73
  L 894.19 436.44
  Z"
/>
<path d="
  M 929.8282 431.2485
  A 1.48 0.35 -171.0 0 1 931.3448 431.1343
  A 1.48 0.35 -171.0 0 1 932.7518 431.7115
  A 1.48 0.35 -171.0 0 1 931.2352 431.8257
  A 1.48 0.35 -171.0 0 1 929.8282 431.2485
  Z"
/>
<path d="
  M 888.94 443.38
  Q 889.09 443.22 889.73 442.92
  A 0.29 0.29 0.0 0 1 890.08 443.36
  Q 890.01 443.44 889.10 443.66
  A 0.17 0.17 0.0 0 1 888.94 443.38
  Z"
/>
<path d="
  M 875.09 445.64
  Q 874.10 445.47 874.07 445.45
  A 0.24 0.24 0.0 0 1 874.18 445.01
  Q 874.71 444.96 875.23 445.25
  A 0.21 0.21 0.0 0 1 875.09 445.64
  Z"
/>
<path d="
  M 884.6126 445.2714
  A 3.51 0.31 -5.7 0 1 881.1508 445.9285
  A 3.51 0.31 -5.7 0 1 877.6274 445.9686
  A 3.51 0.31 -5.7 0 1 881.0892 445.3115
  A 3.51 0.31 -5.7 0 1 884.6126 445.2714
  Z"
/>
</g>
</svg>
