<?xml version="1.0" encoding="UTF-8" standalone="no"?>
<!DOCTYPE svg PUBLIC "-//W3C//DTD SVG 1.1//EN" "http://www.w3.org/Graphics/SVG/1.1/DTD/svg11.dtd">
<svg xmlns="http://www.w3.org/2000/svg" version="1.1" viewBox="0.00 0.00 1280.00 1280.00">
<path fill="#ffffff" d="
  M 940.68 415.70
  A 2.84 2.84 0.0 0 1 942.28 417.86
  Q 943.01 422.94 941.90 426.69
  C 940.53 431.29 933.19 432.01 929.44 431.34
  C 918.52 429.38 921.30 417.12 930.08 414.92
  Q 935.92 413.46 940.68 415.70
  Z"
/>
<path fill="#ffffff" d="
  M 859.94 433.18
  Q 860.21 431.45 862.82 430.31
  Q 874.92 425.04 887.87 428.45
  Q 891.86 429.50 893.83 431.44
  Q 894.84 432.44 895.61 435.46
  Q 896.66 439.58 893.36 441.34
  C 886.39 445.05 878.19 447.50 870.78 443.75
  Q 866.23 441.45 862.91 438.60
  Q 861.76 437.61 860.09 434.20
  A 1.69 1.64 -54.3 0 1 859.94 433.18
  Z"
/>
</svg>
