<?xml version="1.0" encoding="UTF-8" standalone="no"?>
<!DOCTYPE svg PUBLIC "-//W3C//DTD SVG 1.1//EN" "http://www.w3.org/Graphics/SVG/1.1/DTD/svg11.dtd">
<svg xmlns="http://www.w3.org/2000/svg" version="1.1" viewBox="0.00 0.00 453.00 242.00">
<g stroke-width="2.00" fill="none" stroke-linecap="butt">
<path stroke="#071a41" vector-effect="non-scaling-stroke" d="
  M 363.81 14.22
  Q 362.85 14.45 362.78 12.73
  Q 362.61 8.01 359.19 5.46
  Q 357.13 3.93 353.91 3.55
  C 346.21 2.63 338.40 2.71 329.33 2.99
  C 319.71 3.28 311.46 3.37 305.13 5.16
  Q 297.67 7.27 290.32 9.45"
/>
<path stroke="#050e24" vector-effect="non-scaling-stroke" d="
  M 290.32 9.45
  L 278.15 11.26"
/>
<path stroke="#11326d" vector-effect="non-scaling-stroke" d="
  M 264.74 23.15
  L 226.59 49.01"
/>
<path stroke="#050e24" vector-effect="non-scaling-stroke" d="
  M 226.59 49.01
  Q 230.34 45.01 236.76 40.50
  Q 239.07 38.88 240.16 35.34"
/>
<path stroke="#071a41" vector-effect="non-scaling-stroke" d="
  M 363.89 17.46
  Q 363.54 17.92 363.81 18.47"
/>
<path stroke="#092357" vector-effect="non-scaling-stroke" d="
  M 405.50 110.44
  Q 409.15 115.14 413.07 115.93
  Q 420.38 117.40 427.58 119.20
  Q 429.51 119.69 433.27 119.90"
/>
<path stroke="#081c4b" vector-effect="non-scaling-stroke" d="
  M 445.40 122.71
  Q 437.20 130.00 428.86 136.35
  Q 423.96 140.08 419.60 142.45
  C 411.27 146.96 402.78 152.78 395.58 156.38
  Q 378.12 165.11 365.16 169.27
  Q 345.18 175.68 339.15 176.84
  Q 322.16 180.12 318.96 180.36
  Q 288.00 182.75 280.74 182.56
  Q 252.11 181.82 227.61 182.98
  C 222.69 183.21 217.26 184.05 212.22 184.07
  C 206.73 184.11 200.67 185.17 195.91 185.65
  C 193.06 185.93 190.71 185.70 188.25 186.17
  Q 185.50 186.69 182.55 186.88
  Q 165.86 187.94 149.56 191.49"
/>
<path stroke="#285ca0" vector-effect="non-scaling-stroke" d="
  M 149.56 191.49
  L 153.64 190.64
  A 0.66 0.66 0.0 0 0 153.85 189.43
  Q 147.74 185.62 144.19 179.71"
/>
<path stroke="#081c4b" vector-effect="non-scaling-stroke" d="
  M 144.19 179.71
  L 148.91 185.09
  A 0.55 0.54 45.3 0 0 149.73 185.10
  L 149.77 185.05
  A 0.76 0.75 -43.8 0 0 149.80 184.08
  C 144.68 177.65 140.48 171.88 140.24 163.34"
/>
<path stroke="#0d2e78" vector-effect="non-scaling-stroke" d="
  M 140.24 163.34
  Q 142.81 167.61 148.56 166.10
  Q 156.42 164.04 159.97 161.75
  A 0.48 0.48 0.0 0 0 160.09 161.06
  C 156.34 156.20 151.73 151.96 147.61 147.40
  Q 145.64 145.21 141.96 144.30"
/>
<path stroke="#081c4b" vector-effect="non-scaling-stroke" d="
  M 141.96 144.30
  L 143.76 138.97
  A 1.47 1.45 82.9 0 1 144.32 138.24
  Q 147.82 135.84 148.50 135.51
  C 152.33 133.65 155.69 135.91 158.88 137.89
  C 169.70 144.65 178.04 150.61 188.39 153.94
  Q 199.86 157.61 207.57 158.65
  Q 226.81 161.24 247.16 158.92
  Q 275.01 155.74 301.30 147.97
  Q 316.48 143.49 336.39 134.98
  C 341.08 132.98 343.98 132.29 348.77 133.18
  Q 352.73 133.92 355.14 134.13
  Q 372.31 135.55 390.40 133.89
  Q 399.38 133.07 408.60 130.62
  A 0.31 0.31 0.0 0 0 408.82 130.30
  L 408.80 130.02
  A 0.56 0.55 -6.4 0 0 408.17 129.52
  Q 391.38 131.80 380.01 131.98
  Q 377.59 132.02 367.71 131.91
  C 359.24 131.82 351.40 130.12 343.12 130.16
  A 0.53 0.52 36.5 0 1 342.96 129.13
  Q 348.37 127.55 352.78 123.52
  Q 353.12 123.20 353.13 123.06
  A 0.72 0.66 -8.3 0 0 352.19 122.42
  Q 347.03 124.13 340.36 127.30
  C 325.53 134.34 313.67 138.24 296.35 143.92
  C 286.87 147.04 278.84 148.75 267.99 150.88
  Q 237.65 156.84 207.26 153.48
  Q 196.71 152.32 188.62 148.87
  C 184.55 147.14 176.92 143.91 171.61 140.68
  Q 156.67 131.60 150.45 127.40
  C 141.89 121.62 132.95 116.93 123.98 110.68
  Q 123.06 110.05 121.28 109.09
  Q 119.45 108.12 118.64 107.45"
/>
<path stroke="#285ca0" vector-effect="non-scaling-stroke" d="
  M 118.64 107.45
  Q 116.28 98.88 115.42 93.43
  Q 114.10 85.00 117.83 77.00"
/>
<path stroke="#336aa8" vector-effect="non-scaling-stroke" d="
  M 117.83 77.00
  Q 123.67 63.11 136.98 56.70
  A 0.16 0.16 0.0 0 0 136.92 56.40
  L 133.19 56.29"
/>
<path stroke="#081c4b" vector-effect="non-scaling-stroke" d="
  M 133.19 56.29
  Q 131.73 56.45 130.18 56.24
  A 0.10 0.09 46.3 0 1 130.18 56.05
  Q 138.81 55.62 147.34 57.28"
/>
<path stroke="#133e8a" vector-effect="non-scaling-stroke" d="
  M 147.34 57.28
  Q 146.28 57.32 142.24 57.18
  C 136.05 56.96 129.00 63.54 125.23 68.34"
/>
<path stroke="#0d2e78" vector-effect="non-scaling-stroke" d="
  M 125.23 68.34
  Q 118.05 74.82 117.66 85.33
  A 0.86 0.85 19.2 0 0 118.02 86.06
  Q 135.38 98.49 155.86 106.86
  Q 162.08 109.41 165.23 115.27
  C 167.68 119.81 171.22 125.43 175.53 129.07
  Q 183.84 136.06 194.28 138.47
  Q 208.48 141.76 223.00 140.76
  Q 241.88 139.47 258.02 134.20
  Q 274.74 128.73 282.68 124.38
  Q 297.69 116.18 303.97 111.72
  Q 310.76 106.91 322.09 95.11
  C 324.76 92.32 328.79 86.56 329.49 83.86
  Q 330.85 78.64 328.39 73.83
  Q 322.82 62.94 321.50 61.29
  Q 321.16 60.87 319.84 57.96
  A 0.28 0.27 -79.2 0 1 320.29 57.65
  C 323.35 60.93 325.52 64.70 330.45 72.28
  Q 332.42 75.32 335.53 76.98
  A 0.58 0.57 -57.4 0 0 336.26 76.81
  C 341.13 70.23 343.93 65.27 345.59 57.41
  A 2.26 2.23 44.7 0 0 345.58 56.45
  Q 345.10 54.30 342.79 52.94
  Q 330.99 46.02 317.09 38.16
  Q 301.94 29.59 287.69 23.49"
/>
<path stroke="#133e8a" vector-effect="non-scaling-stroke" d="
  M 287.69 23.49
  L 271.02 20.75
  A 3.37 3.36 30.6 0 0 268.43 21.41
  Q 267.09 22.45 264.74 23.15"
/>
<path stroke="#081c4b" vector-effect="non-scaling-stroke" d="
  M 264.74 23.15
  Q 271.98 19.10 279.18 14.91
  C 282.80 12.80 286.54 11.19 290.32 9.45"
/>
<path stroke="#050e24" vector-effect="non-scaling-stroke" d="
  M 214.78 53.16
  Q 221.08 52.39 226.59 49.01"
/>
<path stroke="#081c4b" vector-effect="non-scaling-stroke" d="
  M 210.80 61.00
  C 203.84 65.05 196.32 68.74 190.05 73.17
  Q 185.85 76.14 181.28 78.56
  C 179.14 79.69 176.47 81.90 174.30 83.59"
/>
<path stroke="#11326d" vector-effect="non-scaling-stroke" d="
  M 171.43 63.63
  Q 160.03 58.13 147.34 57.28"
/>
<path stroke="#315e8b" vector-effect="non-scaling-stroke" d="
  M 133.19 56.29
  L 118.75 58.01"
/>
<path stroke="#081c4b" vector-effect="non-scaling-stroke" d="
  M 118.75 58.01
  L 99.23 60.32"
/>
<path stroke="#071739" vector-effect="non-scaling-stroke" d="
  M 99.23 60.32
  L 88.82 59.51
  A 0.08 0.08 0.0 0 1 88.82 59.36
  L 97.94 58.62
  A 0.49 0.49 0.0 0 0 98.11 57.69
  C 93.75 55.60 87.78 53.20 82.91 53.26
  C 75.55 53.36 69.00 54.64 61.54 56.74
  C 55.26 58.51 48.34 61.52 41.68 63.90"
/>
<path stroke="#16449a" vector-effect="non-scaling-stroke" d="
  M 287.69 23.49
  Q 275.02 29.96 262.89 35.78
  C 252.76 40.65 245.27 47.40 235.77 53.00
  Q 230.56 56.07 223.68 60.60
  C 216.89 65.07 210.11 67.53 203.09 71.70
  Q 191.80 78.40 182.17 83.93
  Q 176.57 87.14 171.80 85.00"
/>
<path stroke="#11326d" vector-effect="non-scaling-stroke" d="
  M 171.80 85.00
  L 174.30 83.59"
/>
<path stroke="#133e8a" vector-effect="non-scaling-stroke" d="
  M 174.30 83.59
  C 178.24 81.46 181.74 78.78 185.75 76.92
  A 23.10 22.73 14.5 0 0 189.21 74.92
  Q 197.84 68.84 207.25 63.98
  Q 208.59 63.29 210.80 61.00"
/>
<path stroke="#11326d" vector-effect="non-scaling-stroke" d="
  M 210.80 61.00
  L 226.59 49.01"
/>
<path stroke="#519ee0" vector-effect="non-scaling-stroke" d="
  M 117.83 77.00
  L 115.26 82.95
  A 1.18 1.17 -71.0 0 1 113.89 83.62
  L 92.86 78.20"
/>
<path stroke="#336aa8" vector-effect="non-scaling-stroke" d="
  M 92.86 78.20
  C 94.56 70.90 100.41 63.10 107.64 59.81
  A 1.97 1.96 28.4 0 1 108.25 59.63
  L 118.75 58.01"
/>
<path stroke="#265082" vector-effect="non-scaling-stroke" d="
  M 118.64 107.45
  L 96.47 97.85"
/>
<path stroke="#16449a" vector-effect="non-scaling-stroke" d="
  M 125.23 68.34
  Q 130.84 70.52 136.67 72.20
  Q 144.59 74.48 147.72 75.76
  Q 155.23 78.81 158.57 79.89
  C 164.95 81.96 169.54 79.78 173.90 75.35
  A 1.24 1.20 -23.6 0 0 174.25 74.50
  Q 174.23 68.85 171.43 63.63"
/>
<path stroke="#0b225b" vector-effect="non-scaling-stroke" d="
  M 171.43 63.63
  C 177.07 65.71 181.51 69.00 187.62 69.60
  A 0.55 0.55 0.0 0 1 187.83 70.63
  Q 177.80 76.28 169.18 83.88
  A 0.86 0.85 18.8 0 0 169.91 85.36
  L 171.80 85.00"
/>
<path stroke="#050e24" vector-effect="non-scaling-stroke" d="
  M 85.86 224.25
  L 81.68 223.72"
/>
<path stroke="#071739" vector-effect="non-scaling-stroke" d="
  M 81.68 223.72
  Q 89.95 216.86 98.21 210.11
  C 104.02 205.36 110.31 203.36 116.58 200.44
  C 121.10 198.32 127.20 196.58 132.39 194.18"
/>
<path stroke="#265082" vector-effect="non-scaling-stroke" d="
  M 132.39 194.18
  L 149.56 191.49"
/>
<path stroke="#0b225b" vector-effect="non-scaling-stroke" d="
  M 141.96 144.30
  C 140.13 149.95 138.76 157.28 140.24 163.34"
/>
<path stroke="#265082" vector-effect="non-scaling-stroke" d="
  M 144.19 179.71
  L 139.16 169.66"
/>
<path stroke="#315e8b" vector-effect="non-scaling-stroke" d="
  M 139.16 169.66
  Q 134.98 154.58 141.40 140.76
  A 0.65 0.64 -82.2 0 0 140.72 139.85
  L 140.45 139.90
  A 0.35 0.22 13.3 0 0 140.33 139.94
  Q 126.08 148.44 116.71 157.20
  Q 115.30 158.51 113.99 160.93"
/>
<path stroke="#071739" vector-effect="non-scaling-stroke" d="
  M 113.99 160.93
  Q 109.16 163.28 104.85 165.95
  Q 100.59 168.58 98.92 169.16
  C 91.28 171.80 83.28 174.45 76.63 177.20
  C 62.65 182.97 52.18 190.48 44.07 203.00"
/>
<path stroke="#050e24" vector-effect="non-scaling-stroke" d="
  M 44.07 203.00
  L 43.75 199.45"
/>
<path stroke="#050e24" vector-effect="non-scaling-stroke" d="
  M 56.83 184.71
  C 66.30 183.20 70.25 176.52 76.18 168.94
  C 81.49 162.14 90.85 158.28 98.98 156.30
  C 101.08 155.79 103.73 155.73 106.04 155.59"
/>
<path stroke="#050e24" vector-effect="non-scaling-stroke" d="
  M 103.51 49.08
  C 100.86 46.23 98.66 42.33 96.28 40.13
  Q 90.15 34.49 80.90 34.33
  Q 74.39 34.22 70.19 35.50
  Q 65.85 36.82 59.86 42.12
  Q 54.14 47.18 49.43 53.39
  Q 45.49 58.59 41.68 63.90"
/>
<path stroke="#061530" vector-effect="non-scaling-stroke" d="
  M 41.68 63.90
  L 29.48 69.42
  A 14.21 13.92 14.0 0 0 26.96 70.90
  Q 20.57 75.61 13.98 82.52
  Q 8.99 87.76 6.74 93.75
  Q 3.71 101.80 3.20 107.03
  Q 2.97 109.48 4.58 115.30
  C 5.51 118.64 8.75 121.81 11.64 122.50
  C 20.90 124.69 29.75 121.72 38.23 117.22
  C 44.23 114.04 48.71 111.69 53.39 107.06
  C 57.13 103.36 61.76 100.23 65.95 98.04
  C 73.01 94.35 82.06 94.76 89.57 96.99"
/>
<path stroke="#071a41" vector-effect="non-scaling-stroke" d="
  M 89.57 96.99
  Q 90.30 97.12 90.93 97.56"
/>
<path stroke="#050e24" vector-effect="non-scaling-stroke" d="
  M 90.93 97.56
  L 96.04 101.58"
/>
<path stroke="#092357" vector-effect="non-scaling-stroke" d="
  M 99.23 60.32
  Q 95.24 60.56 91.24 60.42
  Q 85.69 60.23 83.34 60.88
  Q 74.59 63.30 70.00 70.44
  Q 65.60 77.29 66.82 83.72
  Q 68.08 90.41 76.36 92.84
  Q 82.98 94.79 89.57 96.99"
/>
<path stroke="#285ca0" vector-effect="non-scaling-stroke" d="
  M 92.86 78.20
  Q 91.54 90.09 96.47 97.85"
/>
<path stroke="#081c4b" vector-effect="non-scaling-stroke" d="
  M 96.47 97.85
  L 90.93 97.56"
/>
<path stroke="#519ee0" vector-effect="non-scaling-stroke" d="
  M 139.16 169.66
  L 111.54 181.84"
/>
<path stroke="#316597" vector-effect="non-scaling-stroke" d="
  M 111.54 181.84
  Q 109.53 171.47 113.99 160.93"
/>
<path stroke="#27578e" vector-effect="non-scaling-stroke" d="
  M 111.54 181.84
  Q 112.88 184.27 113.90 185.35
  Q 117.61 189.26 123.27 193.24
  C 126.30 195.37 129.21 194.61 132.39 194.18"
/>
<path stroke="#061530" vector-effect="non-scaling-stroke" d="
  M 81.68 223.72
  Q 77.90 226.83 74.15 230.15
  Q 68.72 234.93 57.97 238.34
  Q 51.75 240.31 45.88 237.02
  C 40.42 233.97 37.39 226.07 38.13 219.88
  Q 39.14 211.50 44.07 203.00"
/>
</g>
<path fill="#040c1a" d="
  M 363.81 14.22
  Q 362.85 14.45 362.78 12.73
  Q 362.61 8.01 359.19 5.46
  Q 357.13 3.93 353.91 3.55
  C 346.21 2.63 338.40 2.71 329.33 2.99
  C 319.71 3.28 311.46 3.37 305.13 5.16
  Q 297.67 7.27 290.32 9.45
  L 278.15 11.26
  Q 294.12 3.05 309.97 1.65
  Q 328.07 0.05 348.85 1.75
  Q 355.73 2.32 358.66 4.25
  Q 363.58 7.48 363.81 14.22
  Z"
/>
<path fill="#0a2868" d="
  M 363.81 14.22
  L 363.89 17.46
  Q 363.54 17.92 363.81 18.47
  Q 363.48 22.10 363.89 24.26
  Q 366.10 35.73 368.95 52.50
  C 370.32 60.57 370.41 69.54 370.55 76.57
  A 4.60 4.58 -70.7 0 0 372.18 79.97
  C 376.79 83.83 380.46 87.30 383.84 92.40
  Q 387.33 97.65 388.14 98.62
  Q 394.04 105.76 405.50 110.44
  Q 409.15 115.14 413.07 115.93
  Q 420.38 117.40 427.58 119.20
  Q 429.51 119.69 433.27 119.90
  L 445.40 122.71
  Q 437.20 130.00 428.86 136.35
  Q 423.96 140.08 419.60 142.45
  C 411.27 146.96 402.78 152.78 395.58 156.38
  Q 378.12 165.11 365.16 169.27
  Q 345.18 175.68 339.15 176.84
  Q 322.16 180.12 318.96 180.36
  Q 288.00 182.75 280.74 182.56
  Q 252.11 181.82 227.61 182.98
  C 222.69 183.21 217.26 184.05 212.22 184.07
  C 206.73 184.11 200.67 185.17 195.91 185.65
  C 193.06 185.93 190.71 185.70 188.25 186.17
  Q 185.50 186.69 182.55 186.88
  Q 165.86 187.94 149.56 191.49
  L 153.64 190.64
  A 0.66 0.66 0.0 0 0 153.85 189.43
  Q 147.74 185.62 144.19 179.71
  L 148.91 185.09
  A 0.55 0.54 45.3 0 0 149.73 185.10
  L 149.77 185.05
  A 0.76 0.75 -43.8 0 0 149.80 184.08
  C 144.68 177.65 140.48 171.88 140.24 163.34
  Q 142.81 167.61 148.56 166.10
  Q 156.42 164.04 159.97 161.75
  A 0.48 0.48 0.0 0 0 160.09 161.06
  C 156.34 156.20 151.73 151.96 147.61 147.40
  Q 145.64 145.21 141.96 144.30
  L 143.76 138.97
  A 1.47 1.45 82.9 0 1 144.32 138.24
  Q 147.82 135.84 148.50 135.51
  C 152.33 133.65 155.69 135.91 158.88 137.89
  C 169.70 144.65 178.04 150.61 188.39 153.94
  Q 199.86 157.61 207.57 158.65
  Q 226.81 161.24 247.16 158.92
  Q 275.01 155.74 301.30 147.97
  Q 316.48 143.49 336.39 134.98
  C 341.08 132.98 343.98 132.29 348.77 133.18
  Q 352.73 133.92 355.14 134.13
  Q 372.31 135.55 390.40 133.89
  Q 399.38 133.07 408.60 130.62
  A 0.31 0.31 0.0 0 0 408.82 130.30
  L 408.80 130.02
  A 0.56 0.55 -6.4 0 0 408.17 129.52
  Q 391.38 131.80 380.01 131.98
  Q 377.59 132.02 367.71 131.91
  C 359.24 131.82 351.40 130.12 343.12 130.16
  A 0.53 0.52 36.5 0 1 342.96 129.13
  Q 348.37 127.55 352.78 123.52
  Q 353.12 123.20 353.13 123.06
  A 0.72 0.66 -8.3 0 0 352.19 122.42
  Q 347.03 124.13 340.36 127.30
  C 325.53 134.34 313.67 138.24 296.35 143.92
  C 286.87 147.04 278.84 148.75 267.99 150.88
  Q 237.65 156.84 207.26 153.48
  Q 196.71 152.32 188.62 148.87
  C 184.55 147.14 176.92 143.91 171.61 140.68
  Q 156.67 131.60 150.45 127.40
  C 141.89 121.62 132.95 116.93 123.98 110.68
  Q 123.06 110.05 121.28 109.09
  Q 119.45 108.12 118.64 107.45
  Q 116.28 98.88 115.42 93.43
  Q 114.10 85.00 117.83 77.00
  Q 123.67 63.11 136.98 56.70
  A 0.16 0.16 0.0 0 0 136.92 56.40
  L 133.19 56.29
  Q 131.73 56.45 130.18 56.24
  A 0.10 0.09 46.3 0 1 130.18 56.05
  Q 138.81 55.62 147.34 57.28
  Q 146.28 57.32 142.24 57.18
  C 136.05 56.96 129.00 63.54 125.23 68.34
  Q 118.05 74.82 117.66 85.33
  A 0.86 0.85 19.2 0 0 118.02 86.06
  Q 135.38 98.49 155.86 106.86
  Q 162.08 109.41 165.23 115.27
  C 167.68 119.81 171.22 125.43 175.53 129.07
  Q 183.84 136.06 194.28 138.47
  Q 208.48 141.76 223.00 140.76
  Q 241.88 139.47 258.02 134.20
  Q 274.74 128.73 282.68 124.38
  Q 297.69 116.18 303.97 111.72
  Q 310.76 106.91 322.09 95.11
  C 324.76 92.32 328.79 86.56 329.49 83.86
  Q 330.85 78.64 328.39 73.83
  Q 322.82 62.94 321.50 61.29
  Q 321.16 60.87 319.84 57.96
  A 0.28 0.27 -79.2 0 1 320.29 57.65
  C 323.35 60.93 325.52 64.70 330.45 72.28
  Q 332.42 75.32 335.53 76.98
  A 0.58 0.57 -57.4 0 0 336.26 76.81
  C 341.13 70.23 343.93 65.27 345.59 57.41
  A 2.26 2.23 44.7 0 0 345.58 56.45
  Q 345.10 54.30 342.79 52.94
  Q 330.99 46.02 317.09 38.16
  Q 301.94 29.59 287.69 23.49
  L 271.02 20.75
  A 3.37 3.36 30.6 0 0 268.43 21.41
  Q 267.09 22.45 264.74 23.15
  Q 271.98 19.10 279.18 14.91
  C 282.80 12.80 286.54 11.19 290.32 9.45
  Q 297.67 7.27 305.13 5.16
  C 311.46 3.37 319.71 3.28 329.33 2.99
  C 338.40 2.71 346.21 2.63 353.91 3.55
  Q 357.13 3.93 359.19 5.46
  Q 362.61 8.01 362.78 12.73
  Q 362.85 14.45 363.81 14.22
  Z"
/>
<path fill="#06102d" d="
  M 290.32 9.45
  C 286.54 11.19 282.80 12.80 279.18 14.91
  Q 271.98 19.10 264.74 23.15
  L 226.59 49.01
  Q 230.34 45.01 236.76 40.50
  Q 239.07 38.88 240.16 35.34
  Q 251.58 27.12 263.51 19.53
  Q 270.72 14.95 278.15 11.26
  L 290.32 9.45
  Z"
/>
<path fill="#040c1a" d="
  M 363.89 17.46
  L 363.81 18.47
  Q 363.54 17.92 363.89 17.46
  Z"
/>
<path fill="#1b53ac" d="
  M 287.69 23.49
  Q 275.02 29.96 262.89 35.78
  C 252.76 40.65 245.27 47.40 235.77 53.00
  Q 230.56 56.07 223.68 60.60
  C 216.89 65.07 210.11 67.53 203.09 71.70
  Q 191.80 78.40 182.17 83.93
  Q 176.57 87.14 171.80 85.00
  L 174.30 83.59
  C 178.24 81.46 181.74 78.78 185.75 76.92
  A 23.10 22.73 14.5 0 0 189.21 74.92
  Q 197.84 68.84 207.25 63.98
  Q 208.59 63.29 210.80 61.00
  L 226.59 49.01
  L 264.74 23.15
  Q 267.09 22.45 268.43 21.41
  A 3.37 3.36 30.6 0 1 271.02 20.75
  L 287.69 23.49
  Z"
/>
<path fill="#103488" d="
  M 125.23 68.34
  Q 130.84 70.52 136.67 72.20
  Q 144.59 74.48 147.72 75.76
  Q 155.23 78.81 158.57 79.89
  C 164.95 81.96 169.54 79.78 173.90 75.35
  A 1.24 1.20 -23.6 0 0 174.25 74.50
  Q 174.23 68.85 171.43 63.63
  C 177.07 65.71 181.51 69.00 187.62 69.60
  A 0.55 0.55 0.0 0 1 187.83 70.63
  Q 177.80 76.28 169.18 83.88
  A 0.86 0.85 18.8 0 0 169.91 85.36
  L 171.80 85.00
  Q 176.57 87.14 182.17 83.93
  Q 191.80 78.40 203.09 71.70
  C 210.11 67.53 216.89 65.07 223.68 60.60
  Q 230.56 56.07 235.77 53.00
  C 245.27 47.40 252.76 40.65 262.89 35.78
  Q 275.02 29.96 287.69 23.49
  Q 301.94 29.59 317.09 38.16
  Q 330.99 46.02 342.79 52.94
  Q 345.10 54.30 345.58 56.45
  A 2.26 2.23 44.7 0 1 345.59 57.41
  C 343.93 65.27 341.13 70.23 336.26 76.81
  A 0.58 0.57 -57.4 0 1 335.53 76.98
  Q 332.42 75.32 330.45 72.28
  C 325.52 64.70 323.35 60.93 320.29 57.65
  A 0.28 0.27 -79.2 0 0 319.84 57.96
  Q 321.16 60.87 321.50 61.29
  Q 322.82 62.94 328.39 73.83
  Q 330.85 78.64 329.49 83.86
  C 328.79 86.56 324.76 92.32 322.09 95.11
  Q 310.76 106.91 303.97 111.72
  Q 297.69 116.18 282.68 124.38
  Q 274.74 128.73 258.02 134.20
  Q 241.88 139.47 223.00 140.76
  Q 208.48 141.76 194.28 138.47
  Q 183.84 136.06 175.53 129.07
  C 171.22 125.43 167.68 119.81 165.23 115.27
  Q 162.08 109.41 155.86 106.86
  Q 135.38 98.49 118.02 86.06
  A 0.86 0.85 19.2 0 1 117.66 85.33
  Q 118.05 74.82 125.23 68.34
  Z"
/>
<path fill="#040c1a" d="
  M 103.51 49.08
  C 100.86 46.23 98.66 42.33 96.28 40.13
  Q 90.15 34.49 80.90 34.33
  Q 74.39 34.22 70.19 35.50
  Q 65.85 36.82 59.86 42.12
  Q 54.14 47.18 49.43 53.39
  Q 45.49 58.59 41.68 63.90
  L 29.48 69.42
  A 14.21 13.92 14.0 0 0 26.96 70.90
  Q 20.57 75.61 13.98 82.52
  Q 8.99 87.76 6.74 93.75
  Q 3.71 101.80 3.20 107.03
  Q 2.97 109.48 4.58 115.30
  C 5.51 118.64 8.75 121.81 11.64 122.50
  C 20.90 124.69 29.75 121.72 38.23 117.22
  C 44.23 114.04 48.71 111.69 53.39 107.06
  C 57.13 103.36 61.76 100.23 65.95 98.04
  C 73.01 94.35 82.06 94.76 89.57 96.99
  Q 90.30 97.12 90.93 97.56
  L 96.04 101.58
  Q 86.43 97.17 78.75 97.22
  Q 73.77 97.25 66.52 101.29
  C 59.51 105.20 51.25 112.52 44.12 116.77
  C 33.99 122.81 19.33 130.28 8.14 122.68
  C 0.74 117.66 -0.36 106.74 2.18 98.39
  Q 9.01 75.94 30.65 65.18
  Q 39.04 61.02 41.52 59.77
  C 42.77 59.14 44.20 57.69 45.07 56.35
  Q 49.06 50.21 51.61 46.88
  C 59.94 36.00 72.54 29.32 86.50 32.45
  C 94.46 34.24 100.76 41.60 103.51 49.08
  Z"
/>
<path fill="#06102d" d="
  M 103.51 49.08
  L 105.18 56.06
  A 1.44 1.44 0.0 0 0 106.92 57.13
  Q 123.35 53.17 139.50 53.05
  Q 150.46 52.97 165.57 57.22
  C 172.43 59.14 180.27 63.84 186.48 66.00
  Q 188.66 66.76 191.14 66.65
  A 3.78 3.62 -55.7 0 0 192.27 66.41
  Q 198.43 64.04 204.23 60.22
  Q 209.63 56.66 214.78 53.16
  Q 221.08 52.39 226.59 49.01
  L 210.80 61.00
  C 203.84 65.05 196.32 68.74 190.05 73.17
  Q 185.85 76.14 181.28 78.56
  C 179.14 79.69 176.47 81.90 174.30 83.59
  L 171.80 85.00
  L 169.91 85.36
  A 0.86 0.85 18.8 0 1 169.18 83.88
  Q 177.80 76.28 187.83 70.63
  A 0.55 0.55 0.0 0 0 187.62 69.60
  C 181.51 69.00 177.07 65.71 171.43 63.63
  Q 160.03 58.13 147.34 57.28
  Q 138.81 55.62 130.18 56.05
  A 0.10 0.09 46.3 0 0 130.18 56.24
  Q 131.73 56.45 133.19 56.29
  L 118.75 58.01
  L 99.23 60.32
  L 88.82 59.51
  A 0.08 0.08 0.0 0 1 88.82 59.36
  L 97.94 58.62
  A 0.49 0.49 0.0 0 0 98.11 57.69
  C 93.75 55.60 87.78 53.20 82.91 53.26
  C 75.55 53.36 69.00 54.64 61.54 56.74
  C 55.26 58.51 48.34 61.52 41.68 63.90
  Q 45.49 58.59 49.43 53.39
  Q 54.14 47.18 59.86 42.12
  Q 65.85 36.82 70.19 35.50
  Q 74.39 34.22 80.90 34.33
  Q 90.15 34.49 96.28 40.13
  C 98.66 42.33 100.86 46.23 103.51 49.08
  Z"
/>
<path fill="#040c1a" d="
  M 240.16 35.34
  Q 239.07 38.88 236.76 40.50
  Q 230.34 45.01 226.59 49.01
  Q 221.08 52.39 214.78 53.16
  L 240.16 35.34
  Z"
/>
<path fill="#071d45" d="
  M 99.23 60.32
  Q 95.24 60.56 91.24 60.42
  Q 85.69 60.23 83.34 60.88
  Q 74.59 63.30 70.00 70.44
  Q 65.60 77.29 66.82 83.72
  Q 68.08 90.41 76.36 92.84
  Q 82.98 94.79 89.57 96.99
  C 82.06 94.76 73.01 94.35 65.95 98.04
  C 61.76 100.23 57.13 103.36 53.39 107.06
  C 48.71 111.69 44.23 114.04 38.23 117.22
  C 29.75 121.72 20.90 124.69 11.64 122.50
  C 8.75 121.81 5.51 118.64 4.58 115.30
  Q 2.97 109.48 3.20 107.03
  Q 3.71 101.80 6.74 93.75
  Q 8.99 87.76 13.98 82.52
  Q 20.57 75.61 26.96 70.90
  A 14.21 13.92 14.0 0 1 29.48 69.42
  L 41.68 63.90
  C 48.34 61.52 55.26 58.51 61.54 56.74
  C 69.00 54.64 75.55 53.36 82.91 53.26
  C 87.78 53.20 93.75 55.60 98.11 57.69
  A 0.49 0.49 0.0 0 1 97.94 58.62
  L 88.82 59.36
  A 0.08 0.08 0.0 0 0 88.82 59.51
  L 99.23 60.32
  Z"
/>
<path fill="#5bace8" d="
  M 117.83 77.00
  L 115.26 82.95
  A 1.18 1.17 -71.0 0 1 113.89 83.62
  L 92.86 78.20
  C 94.56 70.90 100.41 63.10 107.64 59.81
  A 1.97 1.96 28.4 0 1 108.25 59.63
  L 118.75 58.01
  L 133.19 56.29
  L 136.92 56.40
  A 0.16 0.16 0.0 0 1 136.98 56.70
  Q 123.67 63.11 117.83 77.00
  Z"
/>
<path fill="#1b53ac" d="
  M 147.34 57.28
  Q 160.03 58.13 171.43 63.63
  Q 174.23 68.85 174.25 74.50
  A 1.24 1.20 -23.6 0 1 173.90 75.35
  C 169.54 79.78 164.95 81.96 158.57 79.89
  Q 155.23 78.81 147.72 75.76
  Q 144.59 74.48 136.67 72.20
  Q 130.84 70.52 125.23 68.34
  C 129.00 63.54 136.05 56.96 142.24 57.18
  Q 146.28 57.32 147.34 57.28
  Z"
/>
<path fill="#0a2868" d="
  M 118.75 58.01
  L 108.25 59.63
  A 1.97 1.96 28.4 0 0 107.64 59.81
  C 100.41 63.10 94.56 70.90 92.86 78.20
  Q 91.54 90.09 96.47 97.85
  L 90.93 97.56
  Q 90.30 97.12 89.57 96.99
  Q 82.98 94.79 76.36 92.84
  Q 68.08 90.41 66.82 83.72
  Q 65.60 77.29 70.00 70.44
  Q 74.59 63.30 83.34 60.88
  Q 85.69 60.23 91.24 60.42
  Q 95.24 60.56 99.23 60.32
  L 118.75 58.01
  Z"
/>
<path fill="#0a2868" d="
  M 210.80 61.00
  Q 208.59 63.29 207.25 63.98
  Q 197.84 68.84 189.21 74.92
  A 23.10 22.73 14.5 0 1 185.75 76.92
  C 181.74 78.78 178.24 81.46 174.30 83.59
  C 176.47 81.90 179.14 79.69 181.28 78.56
  Q 185.85 76.14 190.05 73.17
  C 196.32 68.74 203.84 65.05 210.80 61.00
  Z"
/>
<path fill="#4690d7" d="
  M 117.83 77.00
  Q 114.10 85.00 115.42 93.43
  Q 116.28 98.88 118.64 107.45
  L 96.47 97.85
  Q 91.54 90.09 92.86 78.20
  L 113.89 83.62
  A 1.18 1.17 -71.0 0 0 115.26 82.95
  L 117.83 77.00
  Z"
/>
<path fill="#06102d" d="
  M 96.47 97.85
  L 118.64 107.45
  Q 119.45 108.12 121.28 109.09
  Q 123.06 110.05 123.98 110.68
  C 132.95 116.93 141.89 121.62 150.45 127.40
  Q 156.67 131.60 171.61 140.68
  C 176.92 143.91 184.55 147.14 188.62 148.87
  Q 196.71 152.32 207.26 153.48
  Q 237.65 156.84 267.99 150.88
  C 278.84 148.75 286.87 147.04 296.35 143.92
  C 313.67 138.24 325.53 134.34 340.36 127.30
  Q 347.03 124.13 352.19 122.42
  A 0.72 0.66 -8.3 0 1 353.13 123.06
  Q 353.12 123.20 352.78 123.52
  Q 348.37 127.55 342.96 129.13
  A 0.53 0.52 36.5 0 0 343.12 130.16
  C 351.40 130.12 359.24 131.82 367.71 131.91
  Q 377.59 132.02 380.01 131.98
  Q 391.38 131.80 408.17 129.52
  A 0.56 0.55 -6.4 0 1 408.80 130.02
  L 408.82 130.30
  A 0.31 0.31 0.0 0 1 408.60 130.62
  Q 399.38 133.07 390.40 133.89
  Q 372.31 135.55 355.14 134.13
  Q 352.73 133.92 348.77 133.18
  C 343.98 132.29 341.08 132.98 336.39 134.98
  Q 316.48 143.49 301.30 147.97
  Q 275.01 155.74 247.16 158.92
  Q 226.81 161.24 207.57 158.65
  Q 199.86 157.61 188.39 153.94
  C 178.04 150.61 169.70 144.65 158.88 137.89
  C 155.69 135.91 152.33 133.65 148.50 135.51
  Q 147.82 135.84 144.32 138.24
  A 1.47 1.45 82.9 0 0 143.76 138.97
  L 141.96 144.30
  C 140.13 149.95 138.76 157.28 140.24 163.34
  C 140.48 171.88 144.68 177.65 149.80 184.08
  A 0.76 0.75 -43.8 0 1 149.77 185.05
  L 149.73 185.10
  A 0.55 0.54 45.3 0 1 148.91 185.09
  L 144.19 179.71
  L 139.16 169.66
  Q 134.98 154.58 141.40 140.76
  A 0.65 0.64 -82.2 0 0 140.72 139.85
  L 140.45 139.90
  A 0.35 0.22 13.3 0 0 140.33 139.94
  Q 126.08 148.44 116.71 157.20
  Q 115.30 158.51 113.99 160.93
  Q 109.16 163.28 104.85 165.95
  Q 100.59 168.58 98.92 169.16
  C 91.28 171.80 83.28 174.45 76.63 177.20
  C 62.65 182.97 52.18 190.48 44.07 203.00
  L 43.75 199.45
  Q 49.00 190.70 56.83 184.71
  C 66.30 183.20 70.25 176.52 76.18 168.94
  C 81.49 162.14 90.85 158.28 98.98 156.30
  C 101.08 155.79 103.73 155.73 106.04 155.59
  L 110.99 156.97
  A 2.17 2.16 -61.7 0 0 113.21 156.30
  C 118.43 150.29 124.04 146.86 132.09 141.10
  C 137.41 137.30 142.64 134.67 147.95 132.63
  A 0.61 0.61 0.0 0 0 148.20 131.67
  Q 147.70 131.07 146.65 130.34
  Q 128.19 117.38 109.48 107.26
  Q 106.69 105.75 96.04 101.58
  L 90.93 97.56
  L 96.47 97.85
  Z"
/>
<path fill="#071d45" d="
  M 405.50 110.44
  Q 418.97 115.86 433.27 119.90
  Q 429.51 119.69 427.58 119.20
  Q 420.38 117.40 413.07 115.93
  Q 409.15 115.14 405.50 110.44
  Z"
/>
<path fill="#06102d" d="
  M 85.86 224.25
  L 81.68 223.72
  Q 89.95 216.86 98.21 210.11
  C 104.02 205.36 110.31 203.36 116.58 200.44
  C 121.10 198.32 127.20 196.58 132.39 194.18
  L 149.56 191.49
  Q 165.86 187.94 182.55 186.88
  Q 185.50 186.69 188.25 186.17
  C 190.71 185.70 193.06 185.93 195.91 185.65
  C 200.67 185.17 206.73 184.11 212.22 184.07
  C 217.26 184.05 222.69 183.21 227.61 182.98
  Q 252.11 181.82 280.74 182.56
  Q 288.00 182.75 318.96 180.36
  Q 322.16 180.12 339.15 176.84
  Q 345.18 175.68 365.16 169.27
  Q 378.12 165.11 395.58 156.38
  C 402.78 152.78 411.27 146.96 419.60 142.45
  Q 423.96 140.08 428.86 136.35
  Q 437.20 130.00 445.40 122.71
  L 451.49 123.39
  A 0.58 0.58 0.0 0 1 451.81 124.40
  Q 433.63 140.46 413.51 151.93
  C 409.03 154.49 404.19 157.93 399.44 160.16
  Q 379.28 169.63 368.68 173.41
  Q 361.90 175.82 345.91 179.95
  Q 322.54 185.97 298.75 186.45
  Q 281.98 186.79 261.75 186.55
  C 259.26 186.52 256.36 186.09 253.74 186.16
  Q 232.94 186.69 229.98 186.90
  Q 198.60 189.10 171.24 192.31
  Q 156.35 194.05 139.51 196.68
  Q 132.97 197.70 128.65 197.56
  A 1.70 1.68 26.9 0 0 127.56 197.91
  C 126.23 198.89 125.41 199.45 123.86 200.01
  Q 113.33 203.81 103.85 209.82
  C 98.01 213.53 91.63 219.30 85.86 224.25
  Z"
/>
<path fill="#5bace8" d="
  M 139.16 169.66
  L 111.54 181.84
  Q 109.53 171.47 113.99 160.93
  Q 115.30 158.51 116.71 157.20
  Q 126.08 148.44 140.33 139.94
  A 0.35 0.22 13.3 0 1 140.45 139.90
  L 140.72 139.85
  A 0.65 0.64 -82.2 0 1 141.40 140.76
  Q 134.98 154.58 139.16 169.66
  Z"
/>
<path fill="#103488" d="
  M 140.24 163.34
  C 138.76 157.28 140.13 149.95 141.96 144.30
  Q 145.64 145.21 147.61 147.40
  C 151.73 151.96 156.34 156.20 160.09 161.06
  A 0.48 0.48 0.0 0 1 159.97 161.75
  Q 156.42 164.04 148.56 166.10
  Q 142.81 167.61 140.24 163.34
  Z"
/>
<path fill="#040c1a" d="
  M 106.04 155.59
  C 103.73 155.73 101.08 155.79 98.98 156.30
  C 90.85 158.28 81.49 162.14 76.18 168.94
  C 70.25 176.52 66.30 183.20 56.83 184.71
  L 65.50 179.09
  A 9.92 9.89 0.6 0 0 68.32 176.34
  C 71.11 172.24 74.27 167.55 78.23 164.25
  C 85.25 158.39 96.58 153.24 106.04 155.59
  Z"
/>
<path fill="#071d45" d="
  M 113.99 160.93
  Q 109.53 171.47 111.54 181.84
  Q 112.88 184.27 113.90 185.35
  Q 117.61 189.26 123.27 193.24
  C 126.30 195.37 129.21 194.61 132.39 194.18
  C 127.20 196.58 121.10 198.32 116.58 200.44
  C 110.31 203.36 104.02 205.36 98.21 210.11
  Q 89.95 216.86 81.68 223.72
  Q 77.90 226.83 74.15 230.15
  Q 68.72 234.93 57.97 238.34
  Q 51.75 240.31 45.88 237.02
  C 40.42 233.97 37.39 226.07 38.13 219.88
  Q 39.14 211.50 44.07 203.00
  C 52.18 190.48 62.65 182.97 76.63 177.20
  C 83.28 174.45 91.28 171.80 98.92 169.16
  Q 100.59 168.58 104.85 165.95
  Q 109.16 163.28 113.99 160.93
  Z"
/>
<path fill="#4690d7" d="
  M 144.19 179.71
  Q 147.74 185.62 153.85 189.43
  A 0.66 0.66 0.0 0 1 153.64 190.64
  L 149.56 191.49
  L 132.39 194.18
  C 129.21 194.61 126.30 195.37 123.27 193.24
  Q 117.61 189.26 113.90 185.35
  Q 112.88 184.27 111.54 181.84
  L 139.16 169.66
  L 144.19 179.71
  Z"
/>
<path fill="#040c1a" d="
  M 43.75 199.45
  L 44.07 203.00
  Q 39.14 211.50 38.13 219.88
  C 37.39 226.07 40.42 233.97 45.88 237.02
  Q 51.75 240.31 57.97 238.34
  Q 68.72 234.93 74.15 230.15
  Q 77.90 226.83 81.68 223.72
  L 85.86 224.25
  C 76.86 232.64 57.59 246.36 44.94 237.90
  C 31.78 229.09 35.91 210.65 43.75 199.45
  Z"
/>
</svg>
