<?xml version="1.0" encoding="UTF-8" standalone="no"?>
<!DOCTYPE svg PUBLIC "-//W3C//DTD SVG 1.1//EN" "http://www.w3.org/Graphics/SVG/1.1/DTD/svg11.dtd">
<svg xmlns="http://www.w3.org/2000/svg" version="1.1" viewBox="0.00 0.00 1280.00 1280.00">
<g stroke-width="2.00" fill="none" stroke-linecap="butt">
<path stroke="#6d322a" vector-effect="non-scaling-stroke" d="
  M 934.26 480.79
  Q 928.07 486.33 920.74 487.22
  Q 912.47 488.23 909.24 487.53
  Q 903.85 486.37 898.21 485.52"
/>
<path stroke="#898991" vector-effect="non-scaling-stroke" d="
  M 931.39 471.90
  Q 927.74 473.38 922.40 474.19
  Q 916.13 475.14 913.30 475.78
  C 906.50 477.33 902.12 478.55 897.64 478.42
  A 0.44 0.44 0.0 0 0 897.29 479.14
  C 903.32 486.26 918.67 484.45 926.51 482.13
  A 9.21 9.20 -83.2 0 0 931.87 477.91
  L 933.76 474.63
  A 1.91 1.91 0.0 0 0 931.39 471.90"
/>
</g>
<path fill="#c65231" d="
  M 934.26 480.79
  Q 936.48 493.60 924.59 497.15
  C 914.87 500.05 904.30 492.83 898.21 485.52
  Q 903.85 486.37 909.24 487.53
  Q 912.47 488.23 920.74 487.22
  Q 928.07 486.33 934.26 480.79
  Z"
/>
<path fill="#131223" d="
  M 934.26 480.79
  Q 928.07 486.33 920.74 487.22
  Q 912.47 488.23 909.24 487.53
  Q 903.85 486.37 898.21 485.52
  C 896.17 483.35 893.60 480.23 891.76 478.76
  Q 890.20 477.51 887.96 478.39
  A 0.82 0.82 0.0 0 1 886.93 477.26
  Q 888.00 475.17 890.38 473.81
  A 1.47 1.47 0.0 0 1 891.78 473.77
  L 893.72 474.75
  A 1.49 1.44 -29.3 0 0 894.25 474.89
  Q 899.25 475.08 902.25 474.25
  C 911.35 471.73 915.70 470.18 921.48 470.04
  A 17.60 17.49 -52.8 0 0 925.42 469.49
  L 940.41 465.62
  A 0.81 0.80 -20.5 0 1 941.33 466.03
  Q 942.20 467.69 939.35 469.67
  Q 938.12 470.52 937.84 471.95
  Q 936.92 476.69 934.26 480.79
  Z
  M 931.39 471.90
  Q 927.74 473.38 922.40 474.19
  Q 916.13 475.14 913.30 475.78
  C 906.50 477.33 902.12 478.55 897.64 478.42
  A 0.44 0.44 0.0 0 0 897.29 479.14
  C 903.32 486.26 918.67 484.45 926.51 482.13
  A 9.21 9.20 -83.2 0 0 931.87 477.91
  L 933.76 474.63
  A 1.91 1.91 0.0 0 0 931.39 471.90
  Z"
/>
<path fill="#ffffff" d="
  M 931.39 471.90
  A 1.91 1.91 0.0 0 1 933.76 474.63
  L 931.87 477.91
  A 9.21 9.20 -83.2 0 1 926.51 482.13
  C 918.67 484.45 903.32 486.26 897.29 479.14
  A 0.44 0.44 0.0 0 1 897.64 478.42
  C 902.12 478.55 906.50 477.33 913.30 475.78
  Q 916.13 475.14 922.40 474.19
  Q 927.74 473.38 931.39 471.90
  Z"
/>
</svg>
