<?xml version="1.0" encoding="UTF-8" standalone="no"?>
<!DOCTYPE svg PUBLIC "-//W3C//DTD SVG 1.1//EN" "http://www.w3.org/Graphics/SVG/1.1/DTD/svg11.dtd">
<svg xmlns="http://www.w3.org/2000/svg" version="1.1" viewBox="0.00 0.00 327.00 262.00">
<g stroke-width="2.00" fill="none" stroke-linecap="butt">
<path stroke="#bf6032" vector-effect="non-scaling-stroke" d="
  M 307.58 64.18
  Q 300.16 64.70 295.39 60.45
  Q 293.68 58.93 292.59 59.04
  C 289.40 59.38 286.55 63.24 283.19 66.87
  A 5.37 5.25 4.0 0 1 282.33 67.60
  Q 279.30 69.62 275.40 71.89
  Q 273.99 72.70 264.97 73.82
  A 0.89 0.86 50.9 0 1 264.54 73.77
  L 256.58 70.76
  A 0.20 0.20 0.0 0 1 256.62 70.38
  L 258.00 70.20"
/>
<path stroke="#ca703d" vector-effect="non-scaling-stroke" d="
  M 258.00 70.20
  C 269.51 72.21 277.59 70.03 284.49 61.17
  C 286.08 59.13 288.54 57.50 290.75 57.26
  Q 300.74 56.15 309.82 51.05
  Q 312.11 49.76 313.03 48.74
  A 1.66 1.66 0.0 0 0 313.36 47.09
  L 311.38 41.32
  A 1.87 1.86 76.5 0 0 309.35 40.07
  Q 303.15 40.94 295.78 42.32
  C 288.98 43.60 280.73 43.59 274.25 44.26
  Q 270.43 44.66 265.05 46.91
  A 1.31 1.29 44.0 0 1 264.08 46.92
  L 263.59 46.74
  A 0.54 0.54 0.0 0 1 263.51 45.77
  L 269.41 42.37
  A 1.64 1.64 0.0 0 0 270.21 41.18
  L 271.29 33.84
  A 0.95 0.88 42.9 0 0 271.26 33.44
  Q 269.78 28.53 269.62 27.46
  C 269.37 25.68 267.72 24.91 268.11 22.84
  A 0.32 0.31 -65.3 0 1 268.61 22.65
  Q 273.31 26.47 276.15 30.59
  A 1.02 1.02 0.0 0 0 277.72 30.73
  L 281.78 26.67
  A 1.35 1.34 -63.2 0 1 282.93 26.29
  Q 284.75 26.54 285.80 28.44
  A 0.78 0.78 0.0 0 1 285.18 29.60
  C 280.21 30.02 279.61 35.07 278.40 39.28
  A 1.02 1.01 7.1 0 0 279.41 40.57
  Q 286.21 40.37 289.64 39.87
  C 293.77 39.28 299.15 33.51 302.14 30.38
  C 309.74 22.43 298.06 12.84 293.86 5.90
  Q 292.84 4.19 290.50 4.37
  Q 279.06 5.25 267.09 7.44"
/>
<path stroke="#e58548" vector-effect="non-scaling-stroke" d="
  M 258.00 70.20
  C 252.82 68.00 247.88 66.72 242.79 69.34"
/>
<path stroke="#84727e" vector-effect="non-scaling-stroke" d="
  M 242.79 69.34
  L 239.20 64.18"
/>
<path stroke="#8a818b" vector-effect="non-scaling-stroke" d="
  M 239.20 64.18
  Q 237.55 58.86 235.87 53.48
  Q 234.48 49.01 238.62 45.45"
/>
<path stroke="#7a503a" vector-effect="non-scaling-stroke" d="
  M 238.62 45.45
  Q 242.40 43.78 242.51 39.24"
/>
<path stroke="#6f412f" vector-effect="non-scaling-stroke" d="
  M 270.42 77.88
  Q 267.51 75.80 265.10 75.63"
/>
<path stroke="#796273" vector-effect="non-scaling-stroke" d="
  M 265.10 75.63
  Q 263.01 78.02 260.37 79.23
  Q 258.10 80.27 255.96 79.58
  Q 247.86 76.96 242.79 69.34"
/>
<path stroke="#133d73" vector-effect="non-scaling-stroke" d="
  M 238.62 45.45
  Q 239.25 44.04 239.24 42.64
  A 0.69 0.68 71.9 0 0 238.16 42.09
  L 194.00 73.23"
/>
<path stroke="#647c90" vector-effect="non-scaling-stroke" d="
  M 194.00 73.23
  L 183.33 80.70"
/>
<path stroke="#0d2e65" vector-effect="non-scaling-stroke" d="
  M 183.33 80.70
  L 178.16 82.77
  A 1.95 1.86 -77.4 0 0 177.49 83.22
  L 175.20 85.60
  A 0.08 0.07 14.9 0 1 175.14 85.63
  L 174.76 85.64
  A 0.65 0.64 22.5 0 0 174.36 85.80
  Q 172.53 87.39 170.11 89.67
  Q 168.32 91.35 165.66 93.04
  Q 162.05 95.34 157.50 98.52
  C 155.43 99.96 154.75 101.26 152.60 102.52
  Q 151.68 103.06 149.09 105.69
  Q 142.81 112.05 138.51 117.79
  C 136.65 120.27 134.27 121.39 131.55 123.54
  A 3.35 3.04 11.8 0 1 130.75 124.01
  Q 123.09 127.11 114.02 129.72
  C 108.73 131.24 103.14 133.82 98.56 136.08
  Q 83.79 143.38 68.63 150.77"
/>
<path stroke="#0a1f56" vector-effect="non-scaling-stroke" d="
  M 68.63 150.77
  L 55.22 155.48"
/>
<path stroke="#071a47" vector-effect="non-scaling-stroke" d="
  M 55.22 155.48
  C 50.91 155.72 46.87 156.05 42.59 157.20
  Q 34.78 159.30 32.55 160.11
  Q 15.67 166.21 8.67 183.17
  Q 7.27 186.57 6.58 194.01"
/>
<path stroke="#0a1f56" vector-effect="non-scaling-stroke" d="
  M 6.58 194.01
  L 5.17 206.51"
/>
<path stroke="#0d2e65" vector-effect="non-scaling-stroke" d="
  M 265.10 75.63
  Q 267.22 78.16 265.99 79.24
  Q 263.54 81.38 260.99 83.48"
/>
<path stroke="#1d5eb7" vector-effect="non-scaling-stroke" d="
  M 260.99 83.48
  Q 261.39 82.41 260.74 82.16
  A 0.49 0.48 -48.6 0 0 260.33 82.19
  Q 257.54 83.74 254.34 86.84
  Q 238.83 101.81 230.03 110.81
  Q 228.86 112.00 226.97 113.48"
/>
<path stroke="#4283cb" vector-effect="non-scaling-stroke" d="
  M 226.97 113.48
  Q 210.83 108.04 201.57 92.71"
/>
<path stroke="#6e9ed4" vector-effect="non-scaling-stroke" d="
  M 201.57 92.71
  L 197.14 82.29"
/>
<path stroke="#1d5eb7" vector-effect="non-scaling-stroke" d="
  M 239.20 64.18
  Q 236.70 67.50 233.35 69.84
  Q 218.14 80.46 204.40 91.78
  A 0.83 0.83 0.0 0 1 203.14 91.53
  Q 200.76 87.12 199.06 81.87
  Q 198.56 80.31 197.16 79.47
  A 0.24 0.24 0.0 0 0 196.79 79.71
  L 197.14 82.29"
/>
<path stroke="#74ade2" vector-effect="non-scaling-stroke" d="
  M 197.14 82.29
  Q 196.67 80.96 196.40 79.61
  Q 196.20 78.58 196.40 76.87
  Q 196.93 72.19 194.00 73.23"
/>
<path stroke="#071a47" vector-effect="non-scaling-stroke" d="
  M 66.73 251.68
  Q 68.96 247.99 69.02 243.32
  Q 69.04 241.12 69.31 240.25
  Q 70.11 237.67 69.93 237.16
  A 0.19 0.19 0.0 0 1 70.14 236.91
  L 70.43 236.95
  A 0.32 0.32 0.0 0 1 70.69 237.25
  Q 70.78 240.24 70.08 244.51
  Q 69.97 245.21 70.34 245.86
  A 0.39 0.38 52.0 0 0 70.96 245.94
  C 76.61 239.95 83.88 235.14 90.52 229.83
  Q 99.83 222.37 112.17 212.41
  C 114.45 210.57 115.88 208.81 118.09 207.39
  Q 119.77 206.31 122.65 203.81
  C 128.34 198.85 137.83 191.35 145.21 184.20
  Q 151.51 178.11 162.01 168.70
  Q 164.37 166.59 165.48 165.82
  Q 168.63 163.64 169.15 163.16
  C 171.20 161.28 174.59 160.40 176.66 158.98
  Q 179.65 156.92 185.30 154.09
  Q 193.68 149.88 202.21 143.29
  C 204.52 141.50 206.94 138.59 209.05 137.59
  A 1.10 1.10 0.0 0 0 209.63 136.94
  Q 209.84 136.30 209.82 135.88
  A 0.67 0.66 -8.4 0 1 210.33 135.20
  Q 211.14 134.99 211.71 134.32"
/>
<path stroke="#386187" vector-effect="non-scaling-stroke" d="
  M 211.71 134.32
  Q 214.00 133.04 215.95 131.21
  Q 224.17 123.45 232.06 114.67"
/>
<path stroke="#133d73" vector-effect="non-scaling-stroke" d="
  M 232.06 114.67
  Q 234.37 111.54 236.25 109.50
  Q 246.43 98.42 260.99 83.48"
/>
<path stroke="#14419a" vector-effect="non-scaling-stroke" d="
  M 172.41 97.87
  Q 158.46 102.59 149.71 112.47
  Q 141.66 121.54 136.78 125.53
  Q 131.03 130.22 127.17 131.27
  Q 101.11 138.39 77.75 149.78
  Q 72.26 152.46 68.63 150.77"
/>
<path stroke="#99d1f6" vector-effect="non-scaling-stroke" d="
  M 201.57 92.71
  Q 202.02 94.69 200.57 95.60
  Q 187.87 103.52 178.04 112.48"
/>
<path stroke="#6b8fc5" vector-effect="non-scaling-stroke" d="
  M 178.04 112.48
  Q 173.39 105.50 172.41 97.87"
/>
<path stroke="#6e9ed4" vector-effect="non-scaling-stroke" d="
  M 172.41 97.87
  L 172.21 90.25
  A 1.77 1.72 60.7 0 1 172.46 89.31
  Q 173.43 87.76 174.99 86.74
  Q 179.19 83.99 183.33 80.70"
/>
<path stroke="#0e2d7b" vector-effect="non-scaling-stroke" d="
  M 199.59 131.55
  Q 194.32 130.32 191.06 127.68
  C 187.62 124.90 183.53 124.02 179.73 127.31
  C 170.01 135.74 163.80 140.81 157.23 148.35
  Q 152.40 153.89 151.29 156.03
  Q 144.10 169.86 131.26 178.52
  Q 123.10 184.02 120.29 185.59
  C 107.95 192.49 94.20 190.47 81.43 191.81
  A 1.14 1.14 0.0 0 1 80.19 190.49
  L 85.00 161.84
  A 0.22 0.22 0.0 0 0 84.60 161.68
  C 78.11 171.04 74.36 176.81 67.40 187.95
  Q 57.83 203.28 51.39 211.40
  Q 43.63 221.21 34.62 233.11
  Q 32.75 235.58 27.00 241.04
  A 0.99 0.98 28.3 0 1 26.12 241.30
  C 20.61 240.26 17.82 237.84 13.47 235.20"
/>
<path stroke="#0e2d7b" vector-effect="non-scaling-stroke" d="
  M 6.58 194.01
  C 10.98 187.01 17.32 184.73 24.10 181.42
  A 12.63 12.56 -82.3 0 0 28.10 178.36
  C 35.92 169.40 45.53 162.64 55.22 155.48"
/>
<path stroke="#3c6fac" vector-effect="non-scaling-stroke" d="
  M 211.71 134.32
  C 207.84 134.89 203.22 132.92 199.59 131.55"
/>
<path stroke="#3f74bb" vector-effect="non-scaling-stroke" d="
  M 199.59 131.55
  Q 185.59 125.21 178.04 112.48"
/>
<path stroke="#4892d8" vector-effect="non-scaling-stroke" d="
  M 232.06 114.67
  L 226.97 113.48"
/>
<path stroke="#ca703d" vector-effect="non-scaling-stroke" d="
  M 298.12 38.65
  L 308.71 37.91
  A 1.50 1.36 24.5 0 0 309.33 37.71
  C 317.79 32.58 319.02 19.69 313.33 12.00
  Q 311.82 9.95 309.21 6.89
  A 7.50 7.49 67.7 0 0 302.97 4.27
  L 298.86 4.56
  A 1.82 1.82 0.0 0 0 297.67 7.64
  Q 302.75 12.96 306.21 20.75
  Q 307.82 24.38 307.26 26.45
  Q 306.45 29.45 304.46 31.73
  Q 299.80 37.06 297.97 38.16
  A 0.27 0.26 -62.4 0 0 298.12 38.65"
/>
<path stroke="#ca703d" vector-effect="non-scaling-stroke" d="
  M 315.78 46.02
  A 0.38 0.38 0.0 0 0 316.39 46.18
  C 319.71 43.25 322.85 39.58 323.38 34.57
  Q 324.17 27.19 320.68 21.90
  A 0.75 0.75 0.0 0 0 319.31 22.30
  Q 319.19 31.41 313.95 38.40
  A 1.68 1.67 53.9 0 0 313.71 39.95
  L 315.78 46.02"
/>
<path stroke="#bf6032" vector-effect="non-scaling-stroke" d="
  M 296.76 58.83
  C 302.49 64.15 309.57 61.15 315.37 57.37
  Q 323.61 52.02 323.60 42.09
  A 0.48 0.48 0.0 0 0 322.69 41.89
  C 320.43 46.81 316.95 50.22 312.08 53.23
  C 307.16 56.26 302.50 58.55 296.89 58.50
  A 0.19 0.19 0.0 0 0 296.76 58.83"
/>
</g>
<path fill="#a34b27" d="
  M 307.58 64.18
  Q 300.16 64.70 295.39 60.45
  Q 293.68 58.93 292.59 59.04
  C 289.40 59.38 286.55 63.24 283.19 66.87
  A 5.37 5.25 4.0 0 1 282.33 67.60
  Q 279.30 69.62 275.40 71.89
  Q 273.99 72.70 264.97 73.82
  A 0.89 0.86 50.9 0 1 264.54 73.77
  L 256.58 70.76
  A 0.20 0.20 0.0 0 1 256.62 70.38
  L 258.00 70.20
  C 269.51 72.21 277.59 70.03 284.49 61.17
  C 286.08 59.13 288.54 57.50 290.75 57.26
  Q 300.74 56.15 309.82 51.05
  Q 312.11 49.76 313.03 48.74
  A 1.66 1.66 0.0 0 0 313.36 47.09
  L 311.38 41.32
  A 1.87 1.86 76.5 0 0 309.35 40.07
  Q 303.15 40.94 295.78 42.32
  C 288.98 43.60 280.73 43.59 274.25 44.26
  Q 270.43 44.66 265.05 46.91
  A 1.31 1.29 44.0 0 1 264.08 46.92
  L 263.59 46.74
  A 0.54 0.54 0.0 0 1 263.51 45.77
  L 269.41 42.37
  A 1.64 1.64 0.0 0 0 270.21 41.18
  L 271.29 33.84
  A 0.95 0.88 42.9 0 0 271.26 33.44
  Q 269.78 28.53 269.62 27.46
  C 269.37 25.68 267.72 24.91 268.11 22.84
  A 0.32 0.31 -65.3 0 1 268.61 22.65
  Q 273.31 26.47 276.15 30.59
  A 1.02 1.02 0.0 0 0 277.72 30.73
  L 281.78 26.67
  A 1.35 1.34 -63.2 0 1 282.93 26.29
  Q 284.75 26.54 285.80 28.44
  A 0.78 0.78 0.0 0 1 285.18 29.60
  C 280.21 30.02 279.61 35.07 278.40 39.28
  A 1.02 1.01 7.1 0 0 279.41 40.57
  Q 286.21 40.37 289.64 39.87
  C 293.77 39.28 299.15 33.51 302.14 30.38
  C 309.74 22.43 298.06 12.84 293.86 5.90
  Q 292.84 4.19 290.50 4.37
  Q 279.06 5.25 267.09 7.44
  Q 277.48 4.01 281.43 3.12
  Q 286.56 1.96 294.58 2.36
  C 297.60 2.51 300.96 2.02 303.35 2.08
  Q 310.05 2.22 313.84 8.75
  C 316.48 13.29 318.45 16.77 321.72 20.83
  Q 325.26 25.22 325.33 32.03
  Q 325.43 40.45 324.63 46.45
  Q 323.41 55.55 315.68 59.93
  Q 313.65 61.08 307.58 64.18
  Z
  M 298.12 38.65
  L 308.71 37.91
  A 1.50 1.36 24.5 0 0 309.33 37.71
  C 317.79 32.58 319.02 19.69 313.33 12.00
  Q 311.82 9.95 309.21 6.89
  A 7.50 7.49 67.7 0 0 302.97 4.27
  L 298.86 4.56
  A 1.82 1.82 0.0 0 0 297.67 7.64
  Q 302.75 12.96 306.21 20.75
  Q 307.82 24.38 307.26 26.45
  Q 306.45 29.45 304.46 31.73
  Q 299.80 37.06 297.97 38.16
  A 0.27 0.26 -62.4 0 0 298.12 38.65
  Z
  M 315.78 46.02
  A 0.38 0.38 0.0 0 0 316.39 46.18
  C 319.71 43.25 322.85 39.58 323.38 34.57
  Q 324.17 27.19 320.68 21.90
  A 0.75 0.75 0.0 0 0 319.31 22.30
  Q 319.19 31.41 313.95 38.40
  A 1.68 1.67 53.9 0 0 313.71 39.95
  L 315.78 46.02
  Z
  M 296.76 58.83
  C 302.49 64.15 309.57 61.15 315.37 57.37
  Q 323.61 52.02 323.60 42.09
  A 0.48 0.48 0.0 0 0 322.69 41.89
  C 320.43 46.81 316.95 50.22 312.08 53.23
  C 307.16 56.26 302.50 58.55 296.89 58.50
  A 0.19 0.19 0.0 0 0 296.76 58.83
  Z"
/>
<path fill="#f09452" d="
  M 297.97 38.16
  Q 299.80 37.06 304.46 31.73
  Q 306.45 29.45 307.26 26.45
  Q 307.82 24.38 306.21 20.75
  Q 302.75 12.96 297.67 7.64
  A 1.82 1.82 0.0 0 1 298.86 4.56
  L 302.97 4.27
  A 7.50 7.49 67.7 0 1 309.21 6.89
  Q 311.82 9.95 313.33 12.00
  C 319.02 19.69 317.79 32.58 309.33 37.71
  A 1.50 1.36 24.5 0 1 308.71 37.91
  L 298.12 38.65
  A 0.27 0.26 -62.4 0 1 297.97 38.16
  Z"
/>
<path fill="#f09452" d="
  M 258.00 70.20
  C 252.82 68.00 247.88 66.72 242.79 69.34
  L 239.20 64.18
  Q 237.55 58.86 235.87 53.48
  Q 234.48 49.01 238.62 45.45
  Q 242.40 43.78 242.51 39.24
  Q 246.30 29.36 250.75 20.27
  Q 256.09 9.36 267.09 7.44
  Q 279.06 5.25 290.50 4.37
  Q 292.84 4.19 293.86 5.90
  C 298.06 12.84 309.74 22.43 302.14 30.38
  C 299.15 33.51 293.77 39.28 289.64 39.87
  Q 286.21 40.37 279.41 40.57
  A 1.02 1.01 7.1 0 1 278.40 39.28
  C 279.61 35.07 280.21 30.02 285.18 29.60
  A 0.78 0.78 0.0 0 0 285.80 28.44
  Q 284.75 26.54 282.93 26.29
  A 1.35 1.34 -63.2 0 0 281.78 26.67
  L 277.72 30.73
  A 1.02 1.02 0.0 0 1 276.15 30.59
  Q 273.31 26.47 268.61 22.65
  A 0.32 0.31 -65.3 0 0 268.11 22.84
  C 267.72 24.91 269.37 25.68 269.62 27.46
  Q 269.78 28.53 271.26 33.44
  A 0.95 0.88 42.9 0 1 271.29 33.84
  L 270.21 41.18
  A 1.64 1.64 0.0 0 1 269.41 42.37
  L 263.51 45.77
  A 0.54 0.54 0.0 0 0 263.59 46.74
  L 264.08 46.92
  A 1.31 1.29 44.0 0 0 265.05 46.91
  Q 270.43 44.66 274.25 44.26
  C 280.73 43.59 288.98 43.60 295.78 42.32
  Q 303.15 40.94 309.35 40.07
  A 1.87 1.86 76.5 0 1 311.38 41.32
  L 313.36 47.09
  A 1.66 1.66 0.0 0 1 313.03 48.74
  Q 312.11 49.76 309.82 51.05
  Q 300.74 56.15 290.75 57.26
  C 288.54 57.50 286.08 59.13 284.49 61.17
  C 277.59 70.03 269.51 72.21 258.00 70.20
  Z"
/>
<path fill="#f09452" d="
  M 315.78 46.02
  L 313.71 39.95
  A 1.68 1.67 53.9 0 1 313.95 38.40
  Q 319.19 31.41 319.31 22.30
  A 0.75 0.75 0.0 0 1 320.68 21.90
  Q 324.17 27.19 323.38 34.57
  C 322.85 39.58 319.71 43.25 316.39 46.18
  A 0.38 0.38 0.0 0 1 315.78 46.02
  Z"
/>
<path fill="#030c21" d="
  M 242.51 39.24
  Q 242.40 43.78 238.62 45.45
  Q 239.25 44.04 239.24 42.64
  A 0.69 0.68 71.9 0 0 238.16 42.09
  L 194.00 73.23
  L 183.33 80.70
  L 178.16 82.77
  A 1.95 1.86 -77.4 0 0 177.49 83.22
  L 175.20 85.60
  A 0.08 0.07 14.9 0 1 175.14 85.63
  L 174.76 85.64
  A 0.65 0.64 22.5 0 0 174.36 85.80
  Q 172.53 87.39 170.11 89.67
  Q 168.32 91.35 165.66 93.04
  Q 162.05 95.34 157.50 98.52
  C 155.43 99.96 154.75 101.26 152.60 102.52
  Q 151.68 103.06 149.09 105.69
  Q 142.81 112.05 138.51 117.79
  C 136.65 120.27 134.27 121.39 131.55 123.54
  A 3.35 3.04 11.8 0 1 130.75 124.01
  Q 123.09 127.11 114.02 129.72
  C 108.73 131.24 103.14 133.82 98.56 136.08
  Q 83.79 143.38 68.63 150.77
  L 55.22 155.48
  C 50.91 155.72 46.87 156.05 42.59 157.20
  Q 34.78 159.30 32.55 160.11
  Q 15.67 166.21 8.67 183.17
  Q 7.27 186.57 6.58 194.01
  L 5.17 206.51
  Q 4.59 201.51 5.00 196.49
  Q 5.50 190.23 6.43 186.53
  Q 8.43 178.63 14.43 171.15
  Q 20.88 163.10 29.56 159.31
  C 41.93 153.92 58.13 151.29 72.58 144.25
  Q 73.84 143.63 94.91 133.41
  Q 110.52 125.84 127.52 121.07
  Q 130.69 120.18 132.98 118.44
  A 4.69 4.60 89.5 0 0 134.01 117.37
  C 141.99 105.85 150.70 97.86 162.09 90.80
  Q 167.70 87.32 173.57 83.32
  Q 182.24 77.41 190.89 71.61
  Q 194.58 69.12 198.30 66.58
  Q 212.42 56.94 233.07 42.30
  Q 237.17 39.40 242.51 39.24
  Z"
/>
<path fill="#da753d" d="
  M 296.76 58.83
  A 0.19 0.19 0.0 0 1 296.89 58.50
  C 302.50 58.55 307.16 56.26 312.08 53.23
  C 316.95 50.22 320.43 46.81 322.69 41.89
  A 0.48 0.48 0.0 0 1 323.60 42.09
  Q 323.61 52.02 315.37 57.37
  C 309.57 61.15 302.49 64.15 296.76 58.83
  Z"
/>
<path fill="#236dc4" d="
  M 238.62 45.45
  Q 234.48 49.01 235.87 53.48
  Q 237.55 58.86 239.20 64.18
  Q 236.70 67.50 233.35 69.84
  Q 218.14 80.46 204.40 91.78
  A 0.83 0.83 0.0 0 1 203.14 91.53
  Q 200.76 87.12 199.06 81.87
  Q 198.56 80.31 197.16 79.47
  A 0.24 0.24 0.0 0 0 196.79 79.71
  L 197.14 82.29
  Q 196.67 80.96 196.40 79.61
  Q 196.20 78.58 196.40 76.87
  Q 196.93 72.19 194.00 73.23
  L 238.16 42.09
  A 0.69 0.68 71.9 0 1 239.24 42.64
  Q 239.25 44.04 238.62 45.45
  Z"
/>
<path fill="#da753d" d="
  M 307.58 64.18
  C 304.75 67.17 301.89 70.25 298.64 72.38
  Q 289.16 78.56 277.48 78.17
  Q 274.10 78.06 270.42 77.88
  Q 267.51 75.80 265.10 75.63
  Q 263.01 78.02 260.37 79.23
  Q 258.10 80.27 255.96 79.58
  Q 247.86 76.96 242.79 69.34
  C 247.88 66.72 252.82 68.00 258.00 70.20
  L 256.62 70.38
  A 0.20 0.20 0.0 0 0 256.58 70.76
  L 264.54 73.77
  A 0.89 0.86 50.9 0 0 264.97 73.82
  Q 273.99 72.70 275.40 71.89
  Q 279.30 69.62 282.33 67.60
  A 5.37 5.25 4.0 0 0 283.19 66.87
  C 286.55 63.24 289.40 59.38 292.59 59.04
  Q 293.68 58.93 295.39 60.45
  Q 300.16 64.70 307.58 64.18
  Z"
/>
<path fill="#174fa9" d="
  M 239.20 64.18
  L 242.79 69.34
  Q 247.86 76.96 255.96 79.58
  Q 258.10 80.27 260.37 79.23
  Q 263.01 78.02 265.10 75.63
  Q 267.22 78.16 265.99 79.24
  Q 263.54 81.38 260.99 83.48
  Q 261.39 82.41 260.74 82.16
  A 0.49 0.48 -48.6 0 0 260.33 82.19
  Q 257.54 83.74 254.34 86.84
  Q 238.83 101.81 230.03 110.81
  Q 228.86 112.00 226.97 113.48
  Q 210.83 108.04 201.57 92.71
  L 197.14 82.29
  L 196.79 79.71
  A 0.24 0.24 0.0 0 1 197.16 79.47
  Q 198.56 80.31 199.06 81.87
  Q 200.76 87.12 203.14 91.53
  A 0.83 0.83 0.0 0 0 204.40 91.78
  Q 218.14 80.46 233.35 69.84
  Q 236.70 67.50 239.20 64.18
  Z"
/>
<path fill="#c5ecff" d="
  M 197.14 82.29
  L 201.57 92.71
  Q 202.02 94.69 200.57 95.60
  Q 187.87 103.52 178.04 112.48
  Q 173.39 105.50 172.41 97.87
  L 172.21 90.25
  A 1.77 1.72 60.7 0 1 172.46 89.31
  Q 173.43 87.76 174.99 86.74
  Q 179.19 83.99 183.33 80.70
  L 194.00 73.23
  Q 196.93 72.19 196.40 76.87
  Q 196.20 78.58 196.40 79.61
  Q 196.67 80.96 197.14 82.29
  Z"
/>
<path fill="#030c21" d="
  M 270.42 77.88
  C 267.80 80.85 265.33 84.16 262.68 86.86
  C 243.74 106.05 227.54 126.51 207.35 143.59
  C 197.65 151.79 187.68 157.53 175.55 164.14
  Q 166.91 168.85 163.06 172.23
  C 157.07 177.48 151.85 183.29 146.99 187.60
  Q 124.38 207.65 112.47 216.98
  Q 85.77 237.89 70.24 250.24
  Q 68.83 251.36 66.73 251.68
  Q 68.96 247.99 69.02 243.32
  Q 69.04 241.12 69.31 240.25
  Q 70.11 237.67 69.93 237.16
  A 0.19 0.19 0.0 0 1 70.14 236.91
  L 70.43 236.95
  A 0.32 0.32 0.0 0 1 70.69 237.25
  Q 70.78 240.24 70.08 244.51
  Q 69.97 245.21 70.34 245.86
  A 0.39 0.38 52.0 0 0 70.96 245.94
  C 76.61 239.95 83.88 235.14 90.52 229.83
  Q 99.83 222.37 112.17 212.41
  C 114.45 210.57 115.88 208.81 118.09 207.39
  Q 119.77 206.31 122.65 203.81
  C 128.34 198.85 137.83 191.35 145.21 184.20
  Q 151.51 178.11 162.01 168.70
  Q 164.37 166.59 165.48 165.82
  Q 168.63 163.64 169.15 163.16
  C 171.20 161.28 174.59 160.40 176.66 158.98
  Q 179.65 156.92 185.30 154.09
  Q 193.68 149.88 202.21 143.29
  C 204.52 141.50 206.94 138.59 209.05 137.59
  A 1.10 1.10 0.0 0 0 209.63 136.94
  Q 209.84 136.30 209.82 135.88
  A 0.67 0.66 -8.4 0 1 210.33 135.20
  Q 211.14 134.99 211.71 134.32
  Q 214.00 133.04 215.95 131.21
  Q 224.17 123.45 232.06 114.67
  Q 234.37 111.54 236.25 109.50
  Q 246.43 98.42 260.99 83.48
  Q 263.54 81.38 265.99 79.24
  Q 267.22 78.16 265.10 75.63
  Q 267.51 75.80 270.42 77.88
  Z"
/>
<path fill="#174fa9" d="
  M 183.33 80.70
  Q 179.19 83.99 174.99 86.74
  Q 173.43 87.76 172.46 89.31
  A 1.77 1.72 60.7 0 0 172.21 90.25
  L 172.41 97.87
  Q 158.46 102.59 149.71 112.47
  Q 141.66 121.54 136.78 125.53
  Q 131.03 130.22 127.17 131.27
  Q 101.11 138.39 77.75 149.78
  Q 72.26 152.46 68.63 150.77
  Q 83.79 143.38 98.56 136.08
  C 103.14 133.82 108.73 131.24 114.02 129.72
  Q 123.09 127.11 130.75 124.01
  A 3.35 3.04 11.8 0 0 131.55 123.54
  C 134.27 121.39 136.65 120.27 138.51 117.79
  Q 142.81 112.05 149.09 105.69
  Q 151.68 103.06 152.60 102.52
  C 154.75 101.26 155.43 99.96 157.50 98.52
  Q 162.05 95.34 165.66 93.04
  Q 168.32 91.35 170.11 89.67
  Q 172.53 87.39 174.36 85.80
  A 0.65 0.64 22.5 0 1 174.76 85.64
  L 175.14 85.63
  A 0.08 0.07 14.9 0 0 175.20 85.60
  L 177.49 83.22
  A 1.95 1.86 -77.4 0 1 178.16 82.77
  L 183.33 80.70
  Z"
/>
<path fill="#236dc4" d="
  M 260.99 83.48
  Q 246.43 98.42 236.25 109.50
  Q 234.37 111.54 232.06 114.67
  L 226.97 113.48
  Q 228.86 112.00 230.03 110.81
  Q 238.83 101.81 254.34 86.84
  Q 257.54 83.74 260.33 82.19
  A 0.49 0.48 -48.6 0 1 260.74 82.16
  Q 261.39 82.41 260.99 83.48
  Z"
/>
<path fill="#6db6ec" d="
  M 226.97 113.48
  L 232.06 114.67
  Q 224.17 123.45 215.95 131.21
  Q 214.00 133.04 211.71 134.32
  C 207.84 134.89 203.22 132.92 199.59 131.55
  Q 185.59 125.21 178.04 112.48
  Q 187.87 103.52 200.57 95.60
  Q 202.02 94.69 201.57 92.71
  Q 210.83 108.04 226.97 113.48
  Z"
/>
<path fill="#10328a" d="
  M 172.41 97.87
  Q 173.39 105.50 178.04 112.48
  Q 185.59 125.21 199.59 131.55
  Q 194.32 130.32 191.06 127.68
  C 187.62 124.90 183.53 124.02 179.73 127.31
  C 170.01 135.74 163.80 140.81 157.23 148.35
  Q 152.40 153.89 151.29 156.03
  Q 144.10 169.86 131.26 178.52
  Q 123.10 184.02 120.29 185.59
  C 107.95 192.49 94.20 190.47 81.43 191.81
  A 1.14 1.14 0.0 0 1 80.19 190.49
  L 85.00 161.84
  A 0.22 0.22 0.0 0 0 84.60 161.68
  C 78.11 171.04 74.36 176.81 67.40 187.95
  Q 57.83 203.28 51.39 211.40
  Q 43.63 221.21 34.62 233.11
  Q 32.75 235.58 27.00 241.04
  A 0.99 0.98 28.3 0 1 26.12 241.30
  C 20.61 240.26 17.82 237.84 13.47 235.20
  C 7.61 226.95 5.63 216.36 5.17 206.51
  L 6.58 194.01
  C 10.98 187.01 17.32 184.73 24.10 181.42
  A 12.63 12.56 -82.3 0 0 28.10 178.36
  C 35.92 169.40 45.53 162.64 55.22 155.48
  L 68.63 150.77
  Q 72.26 152.46 77.75 149.78
  Q 101.11 138.39 127.17 131.27
  Q 131.03 130.22 136.78 125.53
  Q 141.66 121.54 149.71 112.47
  Q 158.46 102.59 172.41 97.87
  Z"
/>
<path fill="#0b276c" d="
  M 199.59 131.55
  C 203.22 132.92 207.84 134.89 211.71 134.32
  Q 211.14 134.99 210.33 135.20
  A 0.67 0.66 -8.4 0 0 209.82 135.88
  Q 209.84 136.30 209.63 136.94
  A 1.10 1.10 0.0 0 1 209.05 137.59
  C 206.94 138.59 204.52 141.50 202.21 143.29
  Q 193.68 149.88 185.30 154.09
  Q 179.65 156.92 176.66 158.98
  C 174.59 160.40 171.20 161.28 169.15 163.16
  Q 168.63 163.64 165.48 165.82
  Q 164.37 166.59 162.01 168.70
  Q 151.51 178.11 145.21 184.20
  C 137.83 191.35 128.34 198.85 122.65 203.81
  Q 119.77 206.31 118.09 207.39
  C 115.88 208.81 114.45 210.57 112.17 212.41
  Q 99.83 222.37 90.52 229.83
  C 83.88 235.14 76.61 239.95 70.96 245.94
  A 0.39 0.38 52.0 0 1 70.34 245.86
  Q 69.97 245.21 70.08 244.51
  Q 70.78 240.24 70.69 237.25
  A 0.32 0.32 0.0 0 0 70.43 236.95
  L 70.14 236.91
  A 0.19 0.19 0.0 0 0 69.93 237.16
  Q 70.11 237.67 69.31 240.25
  Q 69.04 241.12 69.02 243.32
  Q 68.96 247.99 66.73 251.68
  Q 63.61 252.86 57.81 255.83
  C 48.74 260.48 36.26 255.85 28.38 250.63
  Q 20.56 245.45 13.47 235.20
  C 17.82 237.84 20.61 240.26 26.12 241.30
  A 0.99 0.98 28.3 0 0 27.00 241.04
  Q 32.75 235.58 34.62 233.11
  Q 43.63 221.21 51.39 211.40
  Q 57.83 203.28 67.40 187.95
  C 74.36 176.81 78.11 171.04 84.60 161.68
  A 0.22 0.22 0.0 0 1 85.00 161.84
  L 80.19 190.49
  A 1.14 1.14 0.0 0 0 81.43 191.81
  C 94.20 190.47 107.95 192.49 120.29 185.59
  Q 123.10 184.02 131.26 178.52
  Q 144.10 169.86 151.29 156.03
  Q 152.40 153.89 157.23 148.35
  C 163.80 140.81 170.01 135.74 179.73 127.31
  C 183.53 124.02 187.62 124.90 191.06 127.68
  Q 194.32 130.32 199.59 131.55
  Z"
/>
<path fill="#0b276c" d="
  M 55.22 155.48
  C 45.53 162.64 35.92 169.40 28.10 178.36
  A 12.63 12.56 -82.3 0 1 24.10 181.42
  C 17.32 184.73 10.98 187.01 6.58 194.01
  Q 7.27 186.57 8.67 183.17
  Q 15.67 166.21 32.55 160.11
  Q 34.78 159.30 42.59 157.20
  C 46.87 156.05 50.91 155.72 55.22 155.48
  Z"
/>
</svg>
