<?xml version="1.0" encoding="UTF-8" standalone="no"?>
<!DOCTYPE svg PUBLIC "-//W3C//DTD SVG 1.1//EN" "http://www.w3.org/Graphics/SVG/1.1/DTD/svg11.dtd">
<svg xmlns="http://www.w3.org/2000/svg" version="1.1" viewBox="0.00 0.00 1280.00 1280.00">
<g stroke-width="2.00" fill="none" stroke-linecap="butt">
<path stroke="#0c2354" vector-effect="non-scaling-stroke" d="
  M 844.57 710.54
  Q 841.48 710.96 840.92 711.92"
/>
<path stroke="#235383" vector-effect="non-scaling-stroke" d="
  M 840.92 711.92
  Q 832.66 716.17 826.21 721.25"
/>
<path stroke="#123166" vector-effect="non-scaling-stroke" d="
  M 826.21 721.25
  Q 823.48 721.80 821.96 722.76
  Q 818.18 725.15 814.12 727.00
  Q 808.40 729.60 806.11 730.89
  C 797.81 735.56 789.92 738.91 784.34 745.11
  Q 775.41 755.06 767.75 765.91
  Q 764.25 770.87 758.58 776.98
  Q 751.67 784.42 744.58 792.07"
/>
<path stroke="#0c2354" vector-effect="non-scaling-stroke" d="
  M 736.32 793.05
  Q 739.55 792.79 739.84 788.65
  A 1.80 1.77 71.2 0 1 740.42 787.45
  L 748.22 780.42
  A 0.44 0.44 0.0 0 0 747.76 779.69
  L 735.62 784.63
  A 0.93 0.91 27.3 0 1 735.39 784.70
  Q 730.25 785.74 724.93 787.40
  Q 722.09 788.29 715.43 788.15"
/>
<path stroke="#637990" vector-effect="non-scaling-stroke" d="
  M 670.72 766.18
  Q 677.62 774.77 685.15 782.59
  Q 685.97 783.44 688.46 784.46"
/>
<path stroke="#2f5c86" vector-effect="non-scaling-stroke" d="
  M 688.46 784.46
  Q 696.02 786.43 707.50 786.25
  Q 733.41 785.84 753.02 775.26
  Q 756.45 773.41 757.75 771.72
  Q 763.41 764.33 770.51 755.73
  A 0.43 0.42 2.5 0 0 769.94 755.11
  Q 760.18 761.80 748.92 765.19
  Q 736.41 768.95 726.63 770.66
  Q 716.42 772.45 706.64 771.98"
/>
<path stroke="#637990" vector-effect="non-scaling-stroke" d="
  M 706.64 771.98
  L 684.31 747.38"
/>
<path stroke="#2f5c86" vector-effect="non-scaling-stroke" d="
  M 684.31 747.38
  Q 678.50 739.44 673.86 731.67
  Q 667.24 720.55 660.48 709.49
  Q 652.82 696.94 650.98 681.62"
/>
<path stroke="#0c2354" vector-effect="non-scaling-stroke" d="
  M 650.98 681.62
  Q 652.70 680.51 654.08 680.34
  Q 656.63 680.04 659.29 681.22
  Q 663.37 683.02 669.84 684.69
  A 0.37 0.36 -79.2 0 1 670.11 685.09
  Q 670.09 685.34 669.86 685.54
  A 0.50 0.45 -66.4 0 1 669.64 685.64
  C 664.26 686.14 660.08 684.78 655.10 682.59
  A 0.82 0.82 0.0 0 0 653.95 683.43
  C 654.56 689.01 655.15 694.22 657.87 699.33
  Q 659.81 702.97 661.48 707.23
  Q 662.73 710.39 665.48 714.90
  Q 671.25 724.35 671.99 725.25
  Q 673.42 727.01 674.84 729.89
  Q 676.32 732.90 680.30 737.20
  A 0.87 0.87 0.0 0 1 680.50 738.01
  Q 680.24 738.98 681.11 740.22
  Q 686.37 747.75 691.88 753.62
  Q 694.40 756.31 695.31 757.47
  Q 697.42 760.14 698.65 761.17
  Q 701.44 763.50 704.74 766.55
  A 2.81 2.81 0.0 0 1 705.43 767.52
  Q 706.22 769.38 707.64 769.81
  A 0.79 0.79 0.0 0 0 708.57 769.43
  Q 709.35 768.00 713.10 764.08
  Q 713.57 763.59 717.83 758.93
  Q 730.60 744.94 743.79 736.54
  Q 770.09 719.79 779.49 712.73
  Q 788.69 705.81 800.38 697.64
  Q 802.74 695.99 805.99 695.11
  A 0.48 0.48 0.0 0 1 806.50 695.86
  Q 805.94 696.60 805.15 696.85
  A 0.95 0.92 5.6 0 0 804.62 697.27
  C 803.11 699.85 799.29 701.42 797.03 703.11
  C 789.51 708.73 782.68 713.21 776.64 717.65
  Q 764.68 726.43 746.50 737.50
  C 739.27 741.90 733.72 746.64 726.86 752.58
  Q 722.10 756.69 718.44 760.71
  Q 715.81 763.59 710.29 769.13
  A 0.85 0.85 0.0 0 0 710.52 770.49
  C 711.77 771.11 713.44 770.56 714.49 770.47
  Q 731.80 768.88 747.90 763.61
  Q 757.07 760.60 762.45 757.16
  Q 767.04 754.23 771.09 752.44
  A 8.25 8.24 -84.6 0 0 774.53 749.59
  Q 781.02 740.16 791.37 734.42
  C 794.08 732.92 797.85 730.67 801.27 729.02
  Q 816.27 721.79 819.12 719.83
  C 826.00 715.08 832.10 711.62 838.65 706.39
  C 841.63 704.02 844.70 702.52 848.55 700.66
  A 0.50 0.50 0.0 0 0 848.43 699.72
  C 839.89 697.99 831.43 695.24 823.45 693.05
  C 813.71 690.37 802.20 689.98 792.64 687.91
  Q 789.63 687.26 786.66 685.71
  A 0.04 0.04 0.0 0 1 786.69 685.63
  Q 789.40 686.22 795.28 687.27
  C 801.58 688.40 810.83 687.43 815.75 688.04
  Q 822.27 688.85 838.55 693.21
  Q 841.97 694.12 843.54 694.36
  C 848.28 695.08 851.36 696.07 856.22 695.90
  C 860.07 695.76 868.43 696.36 873.22 695.25
  Q 877.09 694.36 881.80 692.49
  C 890.59 689.01 898.43 684.70 904.57 677.61
  Q 909.56 671.86 918.05 658.03
  Q 919.05 656.40 919.62 651.26
  A 6.86 6.32 58.6 0 1 919.81 650.30
  C 922.12 641.59 923.64 636.90 923.96 629.25
  Q 924.59 613.80 924.29 597.81
  C 924.21 593.80 924.93 590.21 925.00 586.59
  A 0.25 0.25 0.0 0 0 924.59 586.39
  Q 918.33 591.50 917.00 592.49
  Q 908.60 598.74 899.20 602.34
  A 0.68 0.68 0.0 0 1 898.35 602.01
  L 898.31 601.95
  A 0.57 0.56 65.5 0 1 898.60 601.17
  Q 899.96 600.63 900.98 599.41"
/>
<path stroke="#637990" vector-effect="non-scaling-stroke" d="
  M 900.98 599.41
  Q 924.27 587.05 938.41 564.45
  C 947.04 550.66 950.77 533.65 946.74 517.79"
/>
<path stroke="#2f5c86" vector-effect="non-scaling-stroke" d="
  M 946.74 517.79
  Q 944.48 506.49 935.80 499.27
  C 934.21 497.94 932.21 497.10 930.35 498.07
  Q 926.21 500.24 921.85 500.87
  A 2.55 2.45 -60.2 0 0 921.10 501.09
  L 917.69 502.64"
/>
<path stroke="#143a70" vector-effect="non-scaling-stroke" d="
  M 917.69 502.64
  C 915.29 505.26 911.79 505.20 908.42 505.25"
/>
<path stroke="#123166" vector-effect="non-scaling-stroke" d="
  M 908.42 505.25
  L 897.21 506.78"
/>
<path stroke="#0c2354" vector-effect="non-scaling-stroke" d="
  M 897.21 506.78
  Q 887.74 508.16 882.56 509.58
  Q 874.27 511.86 864.66 517.79
  A 3.09 2.94 -66.1 0 1 863.79 518.15
  Q 861.69 518.66 860.31 518.59
  Q 849.97 518.14 840.69 518.07
  Q 839.59 518.06 837.18 517.21"
/>
<path stroke="#0c2354" vector-effect="non-scaling-stroke" d="
  M 906.75 564.22
  C 906.05 558.43 905.79 549.34 902.47 545.00
  Q 899.24 540.79 897.72 538.84
  A 0.37 0.37 0.0 0 0 897.06 539.12
  Q 897.55 542.43 900.14 544.63
  A 2.30 2.25 3.8 0 1 900.57 545.11
  Q 902.21 547.64 902.64 549.58
  Q 904.11 556.18 903.52 571.35
  Q 903.49 572.15 903.30 572.27
  Q 901.88 573.23 901.80 575.17
  Q 901.54 581.49 899.88 586.94
  A 0.48 0.47 -88.5 0 0 900.44 587.54
  Q 900.54 587.51 900.78 587.28"
/>
<path stroke="#698cbd" vector-effect="non-scaling-stroke" d="
  M 900.79 599.35
  Q 900.88 599.38 900.98 599.41"
/>
<path stroke="#356fb3" vector-effect="non-scaling-stroke" d="
  M 650.98 681.62
  Q 647.94 678.96 644.55 681.10
  Q 642.08 682.67 640.16 686.44
  C 636.87 692.89 633.67 701.21 635.97 708.03
  Q 637.46 712.43 639.36 716.09
  Q 645.21 727.37 652.21 738.02"
/>
<path stroke="#698cbd" vector-effect="non-scaling-stroke" d="
  M 652.21 738.02
  L 658.25 747.94"
/>
<path stroke="#184492" vector-effect="non-scaling-stroke" d="
  M 564.63 712.34
  C 577.93 705.88 574.98 692.50 571.84 680.83
  A 0.49 0.49 0.0 0 0 571.20 680.50
  C 561.87 683.87 556.26 686.47 548.12 686.66
  A 1.39 1.37 -23.2 0 1 547.10 686.26
  C 540.61 679.94 540.48 675.18 542.36 666.52
  A 2.19 2.07 74.3 0 1 542.87 665.55
  Q 549.09 658.97 552.52 650.75
  A 1.36 1.36 0.0 0 0 551.56 648.90
  Q 547.35 647.95 543.18 649.17
  Q 517.68 656.62 497.87 661.62
  A 1.70 1.70 0.0 0 1 495.76 659.78
  L 495.77 659.68
  A 3.78 3.77 -9.0 0 1 497.85 656.82
  L 513.80 648.98
  A 0.58 0.58 0.0 0 0 513.54 647.87
  C 508.99 647.92 505.55 648.53 501.02 650.14
  C 494.53 652.43 486.44 655.74 478.62 657.59
  Q 474.82 658.50 465.35 661.60
  Q 454.11 665.29 420.76 672.52
  C 414.76 673.82 409.59 675.66 403.75 676.71
  C 390.94 679.00 384.00 680.60 373.99 680.21
  A 0.47 0.46 28.2 0 1 373.73 679.37
  Q 374.92 678.53 376.49 678.15"
/>
<path stroke="#2966af" vector-effect="non-scaling-stroke" d="
  M 376.49 678.15
  C 393.47 675.64 410.15 671.86 426.98 668.48
  Q 437.83 666.30 458.29 659.98"
/>
<path stroke="#1a4d9d" vector-effect="non-scaling-stroke" d="
  M 458.29 659.98
  C 464.78 658.28 471.69 656.94 477.69 654.92
  C 484.18 652.74 489.79 650.49 497.48 648.22
  Q 512.28 643.84 526.13 636.64
  Q 536.95 631.02 547.44 625.45"
/>
<path stroke="#184492" vector-effect="non-scaling-stroke" d="
  M 547.44 625.45
  Q 561.13 621.41 571.61 611.35
  Q 572.61 610.38 572.94 609.49
  A 1.48 1.48 0.0 0 0 571.16 607.55
  L 554.89 612.04"
/>
<path stroke="#1a4d9d" vector-effect="non-scaling-stroke" d="
  M 554.89 612.04
  L 553.24 612.33"
/>
<path stroke="#184492" vector-effect="non-scaling-stroke" d="
  M 553.24 612.33
  Q 549.28 605.87 543.63 601.09
  Q 539.24 597.37 533.79 598.10
  Q 506.02 601.82 480.47 600.81
  Q 447.21 599.49 431.44 598.41
  Q 396.33 596.00 362.99 597.41
  Q 355.89 597.72 328.22 601.31"
/>
<path stroke="#1a4d9d" vector-effect="non-scaling-stroke" d="
  M 328.22 601.31
  Q 322.31 595.50 315.61 591.10"
/>
<path stroke="#899bc0" vector-effect="non-scaling-stroke" d="
  M 814.05 598.52
  C 798.64 603.99 783.48 616.50 783.00 633.49
  C 782.69 644.49 786.98 652.80 795.41 660.58
  Q 802.42 667.04 807.34 669.63
  C 832.86 683.08 864.38 683.92 890.27 670.77
  Q 901.43 665.10 908.33 654.80
  C 916.27 642.96 914.67 629.49 905.74 618.51
  Q 898.76 609.92 890.08 604.89
  C 880.19 599.16 870.03 595.05 858.93 593.54"
/>
<path stroke="#184492" vector-effect="non-scaling-stroke" d="
  M 858.93 593.54
  L 857.29 591.24"
/>
<path stroke="#8cc5ef" vector-effect="non-scaling-stroke" d="
  M 684.31 747.38
  Q 672.51 746.19 661.82 742.00
  Q 656.92 740.08 652.86 736.96
  A 0.45 0.45 0.0 0 0 652.14 737.36
  L 652.21 738.02"
/>
<path stroke="#8cc5ef" vector-effect="non-scaling-stroke" d="
  M 706.64 771.98
  Q 705.66 773.36 702.83 774.16
  Q 701.47 774.55 698.87 776.93
  A 4.50 4.46 8.4 0 1 698.11 777.49
  Q 696.79 778.26 692.78 781.07
  Q 690.51 782.66 688.46 784.46"
/>
<path stroke="#6f9acf" vector-effect="non-scaling-stroke" d="
  M 666.00 759.55
  Q 666.06 759.05 665.54 758.96"
/>
<path stroke="#698cbd" vector-effect="non-scaling-stroke" d="
  M 665.54 758.79
  Q 663.45 754.06 659.93 750.24"
/>
<path stroke="#71a3d9" vector-effect="non-scaling-stroke" d="
  M 659.93 750.24
  Q 659.90 749.59 659.25 749.47"
/>
<path stroke="#2f74c1" vector-effect="non-scaling-stroke" d="
  M 752.25 793.05
  Q 767.74 784.56 782.05 774.61
  C 786.17 771.75 789.40 768.02 793.44 764.76
  Q 795.36 763.21 797.40 760.67
  Q 800.43 756.88 805.16 752.09
  Q 808.59 748.63 809.88 746.48
  Q 810.30 745.77 813.88 740.31
  Q 815.12 738.42 816.33 737.41
  A 2.34 2.27 86.6 0 0 816.89 736.76
  L 826.21 721.25"
/>
<path stroke="#8cc5ef" vector-effect="non-scaling-stroke" d="
  M 946.74 517.79
  Q 944.95 517.43 943.75 519.12
  A 2.11 2.03 -22.1 0 0 943.42 519.86
  Q 941.62 527.70 940.98 531.40
  C 939.84 538.05 937.97 542.76 935.47 551.20
  Q 933.43 558.06 926.27 566.24"
/>
<path stroke="#2f5c86" vector-effect="non-scaling-stroke" d="
  M 926.27 566.24
  Q 932.35 553.20 934.53 539.96
  Q 936.57 527.61 933.92 517.38
  Q 931.89 509.54 924.26 504.74
  Q 923.12 504.02 920.88 503.57"
/>
<path stroke="#3d86cf" vector-effect="non-scaling-stroke" d="
  M 920.88 503.57
  Q 917.57 503.70 917.69 502.64"
/>
<path stroke="#143a70" vector-effect="non-scaling-stroke" d="
  M 920.88 503.57
  Q 919.95 503.96 918.95 503.91
  A 0.26 0.26 0.0 0 0 918.67 504.14
  L 918.66 504.16
  A 0.31 0.31 0.0 0 0 918.93 504.50
  C 928.99 505.80 933.57 516.24 933.59 525.42
  Q 933.63 543.41 927.33 558.05
  Q 920.28 574.44 907.99 591.27"
/>
<path stroke="#71a3d9" vector-effect="non-scaling-stroke" d="
  M 907.99 591.27
  L 900.80 598.37
  A 0.60 0.55 73.8 0 0 900.64 598.69
  Q 900.59 599.03 900.79 599.35"
/>
<path stroke="#1a4d9d" vector-effect="non-scaling-stroke" d="
  M 900.79 599.35
  Q 899.97 600.00 899.20 599.87
  A 0.65 0.64 3.3 0 1 898.65 599.26
  Q 898.65 599.17 898.65 599.09
  A 0.82 0.81 5.1 0 0 897.97 598.29
  Q 897.39 598.19 897.16 597.60
  Q 897.02 597.23 897.38 596.44
  Q 899.42 592.00 900.78 587.28"
/>
<path stroke="#143a70" vector-effect="non-scaling-stroke" d="
  M 900.78 587.28
  L 904.63 576.77"
/>
<path stroke="#205aaf" vector-effect="non-scaling-stroke" d="
  M 904.63 576.77
  Q 907.82 573.60 909.22 569.56
  Q 911.10 564.16 911.12 564.11
  Q 914.44 556.52 916.27 551.61
  Q 920.49 540.28 918.73 528.08
  Q 918.12 523.85 913.62 515.30
  A 6.51 6.44 -81.6 0 0 912.46 513.72
  Q 910.62 511.86 909.01 510.13
  Q 906.44 507.37 908.42 505.25"
/>
<path stroke="#123166" vector-effect="non-scaling-stroke" d="
  M 904.63 576.77
  L 906.75 564.22"
/>
<path stroke="#184492" vector-effect="non-scaling-stroke" d="
  M 906.75 564.22
  C 909.14 557.88 908.96 552.29 908.81 544.49
  Q 908.71 539.22 906.55 531.31
  Q 905.32 526.77 903.65 517.37
  A 7.26 7.23 -71.9 0 0 901.77 513.64
  C 900.23 512.03 897.72 510.22 897.21 506.78"
/>
<path stroke="#2966af" vector-effect="non-scaling-stroke" d="
  M 757.21 798.06
  L 761.06 800.51
  A 3.73 3.70 62.6 0 0 762.87 801.09
  Q 766.62 801.31 769.49 799.99
  Q 777.45 796.34 784.04 790.28
  Q 801.65 774.08 814.11 755.12
  Q 821.18 744.35 826.05 735.96
  A 2.14 0.52 -35.5 0 1 826.69 735.22
  C 827.72 734.26 827.89 732.36 828.97 731.24
  A 0.59 0.43 -87.5 0 0 829.09 731.09
  L 840.92 711.92"
/>
<path stroke="#8fa8d2" vector-effect="non-scaling-stroke" d="
  M 858.93 593.54
  Q 840.88 591.18 822.64 595.28"
/>
<path stroke="#205aaf" vector-effect="non-scaling-stroke" d="
  M 720.19 535.28
  Q 728.11 534.45 735.88 536.77
  Q 752.04 541.59 760.71 544.83
  Q 768.70 547.81 771.22 549.51
  Q 780.95 556.04 784.35 557.20
  Q 791.24 559.55 794.83 560.79
  A 0.94 0.94 0.0 0 0 796.05 559.67
  L 795.55 557.68"
/>
<path stroke="#205aaf" vector-effect="non-scaling-stroke" d="
  M 328.22 601.31
  L 350.29 626.64"
/>
<path stroke="#317dcc" vector-effect="non-scaling-stroke" d="
  M 350.29 626.64
  Q 342.43 625.05 336.99 622.76
  Q 320.03 615.61 303.48 613.15
  Q 291.25 611.33 279.50 614.24"
/>
<path stroke="#205aaf" vector-effect="non-scaling-stroke" d="
  M 279.50 614.24
  Q 278.90 612.63 279.40 609.19"
/>
<path stroke="#205aaf" vector-effect="non-scaling-stroke" d="
  M 547.44 625.45
  Q 550.00 622.84 552.38 620.63
  Q 555.46 617.77 554.89 612.04"
/>
<path stroke="#317dcc" vector-effect="non-scaling-stroke" d="
  M 458.29 659.98
  C 466.61 655.82 473.08 651.44 482.22 645.20
  Q 484.07 643.94 485.59 642.34
  A 2.00 2.00 0.0 0 0 485.43 639.44
  C 483.54 637.83 478.39 637.84 474.42 637.49
  Q 469.80 637.07 466.57 637.04
  Q 442.11 636.75 438.01 636.53
  Q 431.84 636.19 426.84 636.38
  C 422.66 636.53 417.93 635.88 413.47 635.61"
/>
<path stroke="#2f74c1" vector-effect="non-scaling-stroke" d="
  M 279.50 614.24
  Q 279.19 617.85 279.81 620.22
  C 283.49 634.08 290.54 646.15 301.13 655.70
  Q 307.04 661.03 310.66 663.58
  Q 320.00 670.16 333.79 674.95
  Q 348.27 679.98 364.25 678.93
  Q 370.33 678.53 376.49 678.15"
/>
<path stroke="#123166" vector-effect="non-scaling-stroke" d="
  M 559.22 713.09
  Q 545.25 715.90 531.39 718.60
  Q 528.50 719.16 526.20 719.99
  Q 523.68 720.89 521.19 721.94"
/>
<path stroke="#123166" vector-effect="non-scaling-stroke" d="
  M 463.04 731.40
  Q 462.46 730.99 461.54 731.29"
/>
<path stroke="#123166" vector-effect="non-scaling-stroke" d="
  M 459.04 730.92
  Q 458.62 730.70 458.05 730.78"
/>
<path stroke="#6f9acf" vector-effect="non-scaling-stroke" d="
  M 307.76 664.99
  L 294.39 652.80"
/>
<path stroke="#0c2354" vector-effect="non-scaling-stroke" d="
  M 834.94 516.99
  Q 834.14 522.21 837.92 527.59
  Q 842.81 534.56 849.35 539.91
  Q 856.26 545.57 858.07 547.15
  Q 860.77 549.50 861.82 553.43
  A 3.10 3.07 -50.5 0 1 861.92 554.53
  C 861.35 561.08 861.07 567.84 862.96 574.21
  A 0.62 0.40 -77.8 0 0 863.02 574.37
  L 864.80 577.85
  A 2.00 1.99 -20.9 0 0 867.09 578.87
  Q 873.14 577.25 876.37 572.40
  C 877.87 570.15 879.63 567.73 880.58 565.34
  C 882.17 561.33 884.37 556.22 886.51 551.93
  Q 887.79 549.37 889.30 544.50
  A 0.29 0.24 -39.3 0 0 889.32 544.40
  L 889.69 534.62
  A 1.95 1.94 -60.1 0 0 889.40 533.53
  Q 885.45 526.99 877.99 524.07
  Q 870.19 521.02 865.90 519.89
  A 0.22 0.21 -83.2 0 1 865.74 519.68
  L 865.74 519.40
  A 0.39 0.39 0.0 0 1 866.22 519.02
  C 873.85 520.74 881.55 523.06 887.20 528.87
  Q 892.72 534.55 894.51 537.24
  A 4.84 4.55 -72.9 0 1 895.05 538.34
  Q 896.10 541.47 897.63 543.73
  A 1.68 1.63 30.0 0 1 897.91 544.71
  Q 897.76 549.59 896.30 553.10
  A 2.66 2.53 56.9 0 0 896.11 554.13
  Q 896.14 555.44 895.80 556.31
  Q 893.89 561.14 889.21 570.96
  Q 882.97 584.03 869.95 590.92
  Q 863.66 594.26 857.29 591.24"
/>
<path stroke="#123166" vector-effect="non-scaling-stroke" d="
  M 857.29 591.24
  Q 847.35 588.39 839.22 582.55
  Q 833.42 578.38 827.56 573.23
  C 823.34 569.54 819.87 564.50 815.93 559.81
  Q 815.60 559.41 815.25 559.24
  A 0.41 0.40 8.0 0 0 814.67 559.67
  Q 816.82 570.84 821.88 581.55
  Q 822.12 582.06 821.92 582.26
  A 0.54 0.53 54.7 0 1 821.07 582.11
  Q 816.58 573.38 814.17 565.08
  Q 811.45 555.65 808.15 544.80
  C 806.23 538.47 805.76 531.09 805.10 525.33
  Q 804.67 521.50 802.38 519.64
  Q 797.72 515.82 791.50 515.63
  C 783.97 515.39 774.67 515.90 767.22 518.67
  A 0.49 0.48 56.4 0 0 767.06 519.48
  C 772.80 524.85 778.05 528.81 782.59 534.66
  Q 793.98 549.30 803.96 567.09
  Q 804.69 568.40 806.88 571.59
  Q 807.70 572.79 810.01 575.97
  A 0.48 0.47 1.3 0 1 809.33 576.62
  Q 807.41 575.10 805.63 572.63
  Q 800.37 565.33 795.55 557.68"
/>
<path stroke="#143a70" vector-effect="non-scaling-stroke" d="
  M 795.55 557.68
  Q 785.78 541.00 772.04 527.69
  Q 766.55 522.38 762.31 520.26
  Q 756.29 517.25 750.58 517.05
  Q 745.06 516.86 736.01 520.70
  A 2.38 2.33 27.2 0 1 735.49 520.86
  Q 727.95 522.29 721.88 523.42
  Q 709.10 525.81 698.96 532.72
  Q 698.54 533.00 698.42 533.37
  A 0.31 0.30 -83.8 0 0 698.74 533.77
  C 706.22 532.99 713.22 533.89 720.19 535.28"
/>
<path stroke="#123166" vector-effect="non-scaling-stroke" d="
  M 720.19 535.28
  Q 734.77 539.75 742.91 543.05
  Q 748.09 545.16 758.61 550.67
  C 764.04 553.51 768.20 557.07 774.04 560.46
  Q 780.75 564.36 790.64 572.06
  Q 810.25 587.32 810.87 587.80
  Q 816.32 591.99 822.34 593.79
  Q 823.01 593.99 823.07 594.37
  Q 823.13 594.78 822.64 595.28"
/>
<path stroke="#838893" vector-effect="non-scaling-stroke" d="
  M 822.64 595.28
  L 814.05 598.52"
/>
<path stroke="#0c2354" vector-effect="non-scaling-stroke" d="
  M 814.05 598.52
  Q 809.19 597.18 804.40 596.43
  Q 796.10 595.13 794.66 594.76
  C 787.99 593.07 780.78 592.03 772.90 590.16
  Q 752.86 585.38 730.58 580.85
  A 0.60 0.59 5.1 0 0 729.87 581.44
  Q 730.21 597.59 730.07 625.03
  C 730.05 629.33 730.56 635.70 731.50 639.17
  A 0.53 0.53 0.0 0 1 730.60 639.67
  Q 729.00 637.95 728.31 634.68
  C 726.25 624.80 726.76 613.65 726.84 602.71
  C 726.89 595.52 727.69 588.47 727.13 580.57
  A 0.80 0.79 6.5 0 0 726.57 579.87
  Q 718.83 577.51 713.46 576.60
  Q 693.90 573.29 674.07 564.93
  Q 667.20 562.03 660.55 556.70
  Q 658.70 555.22 660.32 553.35
  Q 664.32 548.71 667.36 546.24
  Q 670.03 544.07 676.14 541.66
  Q 685.20 538.09 691.11 535.98
  A 0.16 0.16 0.0 0 0 691.21 535.83
  L 691.21 535.54
  A 0.31 0.31 0.0 0 0 690.84 535.23
  Q 679.65 537.39 674.84 539.10
  Q 644.82 549.81 642.45 550.71
  Q 630.99 555.08 624.55 556.81
  Q 604.51 562.19 597.43 564.14
  Q 593.81 565.13 571.41 570.35
  Q 558.41 573.37 545.08 575.05
  Q 536.57 576.13 518.30 578.53
  C 506.31 580.10 490.73 581.16 479.92 581.95
  C 472.02 582.52 466.77 582.58 457.24 582.76
  Q 453.84 582.83 448.28 583.40
  Q 444.20 583.81 439.28 583.60
  A 5.74 5.43 38.1 0 0 437.79 583.74
  Q 435.64 584.24 434.51 584.15
  Q 429.24 583.69 422.06 583.98
  Q 402.02 584.79 400.02 584.79
  Q 395.97 584.80 383.74 585.55
  C 377.54 585.93 369.69 585.81 362.11 586.46
  C 357.81 586.83 353.45 586.82 348.76 587.34
  Q 334.10 588.96 318.25 591.38
  Q 317.13 591.55 315.61 591.10"
/>
<path stroke="#143a70" vector-effect="non-scaling-stroke" d="
  M 315.61 591.10
  Q 312.43 591.28 309.68 591.86
  Q 291.91 595.63 286.12 596.80
  Q 283.55 597.33 281.76 598.16
  A 2.71 2.68 80.3 0 0 280.21 600.37
  L 279.40 609.19"
/>
<path stroke="#123166" vector-effect="non-scaling-stroke" d="
  M 279.40 609.19
  L 277.41 612.49"
/>
<path stroke="#2f5c86" vector-effect="non-scaling-stroke" d="
  M 276.28 595.71
  Q 292.14 593.11 308.76 589.65
  C 315.57 588.24 323.43 586.97 329.00 586.35
  Q 356.21 583.33 385.50 582.50
  Q 414.06 581.69 462.85 579.78
  Q 484.05 578.95 501.11 577.18
  Q 525.01 574.71 539.16 572.60
  Q 574.49 567.35 609.36 557.58
  C 620.36 554.50 633.72 549.79 646.02 545.98"
/>
<path stroke="#0c2354" vector-effect="non-scaling-stroke" d="
  M 646.02 545.98
  Q 655.38 543.42 664.22 538.67"
/>
<path stroke="#123166" vector-effect="non-scaling-stroke" d="
  M 664.22 538.67
  C 669.50 537.05 675.00 534.54 679.65 533.02
  Q 690.90 529.36 707.91 524.30
  A 0.32 0.32 0.0 0 0 707.81 523.68
  Q 694.43 524.30 681.28 526.11
  C 674.43 527.05 655.23 529.11 640.66 531.42
  Q 631.26 532.91 628.34 533.23
  Q 605.13 535.78 584.59 536.26
  C 576.49 536.45 567.67 536.14 559.19 535.98"
/>
<path stroke="#143a70" vector-effect="non-scaling-stroke" d="
  M 559.19 535.98
  Q 540.19 535.48 521.20 534.00
  Q 517.79 533.73 513.19 533.09
  C 506.54 532.17 499.76 531.72 493.21 530.82
  C 477.11 528.60 459.74 526.20 443.97 523.74
  Q 378.51 513.53 352.49 510.32
  C 325.38 506.99 300.79 504.40 275.26 503.36
  Q 240.95 501.96 208.02 505.63
  Q 200.93 506.42 194.18 507.88
  C 185.11 509.85 177.29 511.92 169.00 515.90"
/>
<path stroke="#235383" vector-effect="non-scaling-stroke" d="
  M 169.00 515.90
  Q 167.81 516.21 166.70 516.06"
/>
<path stroke="#205aaf" vector-effect="non-scaling-stroke" d="
  M 553.24 612.33
  C 541.54 614.98 529.66 617.69 517.95 619.54
  Q 491.71 623.67 466.78 628.06
  Q 465.34 628.31 453.79 629.28
  Q 450.81 629.52 441.69 631.06
  Q 441.00 631.17 429.74 633.62
  Q 421.71 635.36 413.47 635.61"
/>
<path stroke="#2f74c1" vector-effect="non-scaling-stroke" d="
  M 413.47 635.61
  Q 390.72 634.85 363.81 631.40
  Q 355.84 630.38 350.29 626.64"
/>
<path stroke="#1a4d9d" vector-effect="non-scaling-stroke" d="
  M 659.93 750.24
  Q 659.84 750.29 659.76 750.33"
/>
<path stroke="#637990" vector-effect="non-scaling-stroke" d="
  M 926.27 566.24
  Q 919.13 579.62 907.99 591.27"
/>
<path stroke="#184492" vector-effect="non-scaling-stroke" d="
  M 664.22 538.67
  Q 659.86 539.27 658.40 539.59
  Q 649.67 541.51 621.47 549.98
  Q 604.41 555.10 576.56 559.28
  Q 572.13 559.95 569.18 562.05"
/>
<path stroke="#3b7dc5" vector-effect="non-scaling-stroke" d="
  M 569.18 562.05
  Q 556.26 563.95 549.75 564.49
  Q 512.15 567.60 480.27 566.53
  Q 458.02 565.79 449.25 565.20
  Q 421.10 563.29 394.71 560.90
  C 376.47 559.25 356.96 558.21 340.75 557.75
  Q 285.60 556.18 230.54 569.08"
/>
<path stroke="#2f74c1" vector-effect="non-scaling-stroke" d="
  M 230.54 569.08
  Q 227.96 567.99 224.31 563.18
  C 218.02 554.89 212.46 546.46 205.60 539.17
  Q 192.57 525.34 174.28 517.80"
/>
<path stroke="#4c9fe2" vector-effect="non-scaling-stroke" d="
  M 230.54 569.08
  L 232.83 571.94"
/>
<path stroke="#2f74c1" vector-effect="non-scaling-stroke" d="
  M 232.83 571.94
  Q 227.05 572.71 221.28 573.25
  Q 214.33 573.90 209.80 574.81
  C 177.24 581.40 146.65 593.34 116.91 608.23
  Q 114.15 609.61 112.43 609.74"
/>
<path stroke="#3b7dc5" vector-effect="non-scaling-stroke" d="
  M 241.26 575.98
  Q 237.24 573.02 232.83 571.94"
/>
<path stroke="#356fb3" vector-effect="non-scaling-stroke" d="
  M 646.02 545.98
  Q 644.86 543.99 642.17 545.81
  A 1.90 1.89 25.3 0 1 641.24 546.14
  Q 639.68 546.25 638.53 546.97
  A 1.31 1.29 33.6 0 1 637.64 547.14
  Q 636.27 546.89 635.60 547.83
  A 0.71 0.70 27.7 0 1 634.78 548.08
  Q 634.74 548.06 631.94 548.92
  Q 602.24 557.97 569.18 562.05"
/>
<path stroke="#205aaf" vector-effect="non-scaling-stroke" d="
  M 559.19 535.98
  L 560.18 536.48
  A 0.27 0.27 0.0 0 1 560.13 536.99
  Q 555.03 538.41 548.55 538.58
  C 534.86 538.94 519.75 539.25 505.69 538.32
  Q 494.02 537.55 478.86 537.09
  Q 469.01 536.78 456.41 535.25
  Q 442.31 533.54 434.06 532.55
  Q 429.74 532.04 426.92 531.75
  Q 416.44 530.70 401.31 528.17
  Q 396.40 527.35 361.41 522.82
  Q 355.16 522.01 352.13 521.42
  C 344.34 519.88 337.74 519.71 328.85 518.42
  Q 308.76 515.49 282.92 513.36
  Q 274.00 512.63 268.97 512.49
  C 255.66 512.14 245.18 511.48 234.00 511.86
  Q 223.72 512.21 215.75 512.09
  C 211.60 512.02 207.44 512.77 203.61 513.54
  Q 200.86 514.10 194.52 514.79
  Q 184.50 515.89 174.28 517.80"
/>
<path stroke="#317dcc" vector-effect="non-scaling-stroke" d="
  M 174.28 517.80
  Q 172.07 517.70 169.00 515.90"
/>
<path stroke="#184492" vector-effect="non-scaling-stroke" d="
  M 234.73 575.39
  L 232.74 575.36"
/>
<path stroke="#0c2354" vector-effect="non-scaling-stroke" d="
  M 826.99 516.84
  Q 824.70 517.94 822.17 519.30
  Q 819.60 520.68 817.27 521.48
  Q 813.29 522.85 807.92 525.09
  A 1.11 1.11 0.0 0 0 807.25 526.23
  Q 807.81 531.37 808.33 533.50
  Q 809.61 538.74 812.70 548.50
  Q 813.99 552.58 816.02 555.69
  Q 818.81 559.97 820.68 562.01
  Q 827.19 569.09 837.04 576.96
  Q 842.13 581.02 848.62 583.91
  Q 855.68 587.06 864.10 589.04"
/>
<path stroke="#637990" vector-effect="non-scaling-stroke" d="
  M 864.10 589.04
  Q 878.98 584.85 886.02 570.71
  C 890.06 562.59 893.77 553.33 894.59 543.59
  A 1.79 1.77 34.7 0 0 894.41 542.62
  L 891.26 536.19
  A 0.48 0.48 0.0 0 0 890.36 536.45
  Q 890.64 539.16 890.70 542.67
  Q 890.70 543.03 890.89 543.27
  Q 891.14 543.59 891.24 543.82
  A 1.01 1.00 -46.6 0 1 891.26 544.59
  Q 887.28 554.34 881.58 566.85
  C 878.07 574.53 874.72 578.64 866.19 581.32
  A 1.35 1.33 -38.1 0 1 865.13 581.20
  C 858.05 577.04 859.70 568.96 859.63 562.12
  C 859.58 555.76 859.89 551.00 855.64 547.88
  C 844.71 539.87 832.16 529.26 831.93 514.75
  A 0.72 0.72 0.0 0 0 830.79 514.17
  L 826.99 516.84"
/>
<path stroke="#698cbd" vector-effect="non-scaling-stroke" d="
  M 864.10 589.04
  Q 857.33 585.38 854.64 579.58
  C 852.12 574.14 853.23 566.71 853.39 559.18
  Q 853.51 553.39 848.27 549.74
  C 843.18 546.20 837.86 541.97 834.31 536.40
  Q 828.63 527.49 826.99 516.84"
/>
<path stroke="#637990" vector-effect="non-scaling-stroke" d="
  M 672.95 559.69
  Q 694.07 568.99 717.21 574.12
  C 738.71 578.88 752.77 581.92 762.02 584.14
  Q 773.95 587.01 805.52 593.93
  C 810.63 595.05 816.56 596.40 819.20 595.50
  A 0.46 0.46 0.0 0 0 819.24 594.64
  Q 816.14 593.22 811.83 590.40
  Q 800.97 583.27 790.59 575.89"
/>
<path stroke="#2f5c86" vector-effect="non-scaling-stroke" d="
  M 790.59 575.89
  Q 789.91 574.46 789.39 574.10
  Q 769.25 559.85 758.32 553.41
  Q 743.08 544.42 722.78 539.66"
/>
<path stroke="#838893" vector-effect="non-scaling-stroke" d="
  M 722.78 539.66
  Q 711.61 537.23 700.39 537.69
  C 696.07 537.86 692.72 539.05 688.91 540.67
  C 680.86 544.08 671.50 548.15 665.02 554.18
  A 0.78 0.78 0.0 0 0 665.07 555.36
  Q 668.34 557.97 672.95 559.69"
/>
<path stroke="#acd4f2" vector-effect="non-scaling-stroke" d="
  M 722.78 539.66
  Q 722.70 540.04 723.01 540.12
  Q 723.54 540.25 723.56 540.33
  Q 723.68 540.79 723.38 541.22
  A 0.44 0.43 14.4 0 1 723.03 541.42
  L 714.28 541.77"
/>
<path stroke="#e0f1fc" vector-effect="non-scaling-stroke" d="
  M 714.28 541.77
  Q 706.51 543.07 699.27 546.51
  Q 685.78 552.91 672.95 559.69"
/>
<path stroke="#8cc5ef" vector-effect="non-scaling-stroke" d="
  M 790.59 575.89
  L 765.97 564.11
  A 0.77 0.76 18.3 0 0 764.89 564.65
  Q 764.30 567.68 763.76 571.02
  Q 763.05 575.48 759.85 582.53
  A 0.48 0.47 -65.3 0 1 759.23 582.77
  L 759.21 582.76
  A 0.40 0.39 -69.2 0 1 758.99 582.26
  Q 762.16 573.42 762.91 563.65
  A 2.37 2.36 -75.0 0 0 761.58 561.34
  Q 746.08 553.77 729.62 548.16
  C 725.57 546.78 720.01 545.52 715.45 544.97
  Q 713.23 544.71 710.57 543.86
  A 0.27 0.27 0.0 0 1 710.55 543.36
  L 714.28 541.77"
/>
<path stroke="#0c2354" vector-effect="non-scaling-stroke" d="
  M 710.80 684.15
  C 709.44 679.99 709.57 673.50 709.37 670.83
  Q 709.07 666.81 709.32 662.16
  Q 710.46 640.74 710.06 619.52
  Q 710.01 616.50 710.69 611.48
  Q 710.90 609.95 711.75 603.44
  A 0.49 0.49 0.0 0 0 710.80 603.21
  C 709.94 605.66 709.79 608.14 708.85 610.87
  C 705.11 621.76 705.42 632.92 706.22 645.28
  C 706.78 654.06 706.66 661.65 706.64 669.50
  Q 706.61 677.23 710.01 684.50
  A 0.41 0.40 -23.2 0 0 710.53 684.70
  L 710.54 684.70
  A 0.44 0.44 0.0 0 0 710.80 684.15"
/>
<path stroke="#8fa8d2" vector-effect="non-scaling-stroke" d="
  M 846.65 670.87
  C 862.34 671.81 879.56 668.75 892.38 659.40
  C 899.05 654.54 904.22 647.30 904.09 638.99
  C 903.90 626.25 893.64 616.04 882.93 610.28
  Q 871.06 603.90 857.99 601.89
  Q 856.57 601.67 850.81 601.33
  Q 845.05 600.98 843.61 601.03
  Q 830.39 601.47 817.85 606.39
  C 806.53 610.84 795.13 619.75 793.42 632.38
  C 792.30 640.61 796.57 648.42 802.62 654.04
  C 814.24 664.84 830.97 669.93 846.65 670.87"
/>
<path stroke="#184492" vector-effect="non-scaling-stroke" d="
  M 516.38 605.37
  Q 512.31 605.38 508.31 606.15
  C 486.62 610.32 470.18 614.02 450.60 617.27
  Q 430.56 620.59 419.20 622.54
  Q 418.85 622.60 416.41 623.28
  A 0.41 0.41 0.0 0 0 416.50 624.08
  Q 418.83 624.21 422.21 623.68
  Q 435.51 621.61 452.08 619.12
  C 463.05 617.47 471.33 615.59 484.61 612.78
  C 494.61 610.67 505.74 607.73 516.38 605.37"
/>
<path stroke="#8fa8d2" vector-effect="non-scaling-stroke" d="
  M 837.22 609.09
  A 1.26 1.26 0.0 0 0 835.97 609.59
  L 806.64 650.27
  A 1.26 1.26 0.0 0 0 807.43 652.25
  L 819.70 654.48
  A 1.26 1.26 0.0 0 0 820.95 653.98
  L 825.74 647.32
  A 1.26 1.26 0.0 0 1 826.99 646.82
  L 846.46 650.37
  A 1.26 1.26 0.0 0 1 847.49 651.61
  L 847.49 657.63
  A 1.26 1.26 0.0 0 0 848.52 658.87
  L 862.33 661.39
  A 1.26 1.26 0.0 0 0 863.78 659.84
  L 851.93 612.52
  A 1.26 1.26 0.0 0 0 850.93 611.58
  L 837.22 609.09"
/>
<path stroke="#8fa8d2" vector-effect="non-scaling-stroke" d="
  M 877.16 623.05
  Q 873.96 616.13 867.00 616.72
  C 864.53 616.92 863.30 618.42 862.02 620.53
  Q 858.44 626.43 861.15 631.84
  Q 863.67 636.87 868.97 642.55
  C 870.81 644.53 871.99 646.42 873.58 648.86
  A 1.46 1.46 0.0 0 0 875.65 649.26
  Q 885.08 642.61 889.69 638.98
  C 893.14 636.26 896.10 630.21 894.03 625.75
  C 890.84 618.87 883.46 617.17 878.13 623.19
  A 0.59 0.59 0.0 0 1 877.16 623.05"
/>
<path stroke="#205aaf" vector-effect="non-scaling-stroke" d="
  M 412.05 697.84
  C 413.77 701.97 417.17 704.13 421.40 707.12
  Q 421.62 707.28 432.37 715.96
  Q 438.31 720.76 445.91 722.89
  C 453.07 724.90 459.06 724.11 465.94 722.01
  C 469.75 720.85 475.31 718.58 478.48 717.09
  Q 494.56 709.50 500.33 707.14
  Q 507.40 704.24 512.42 700.91
  C 520.48 695.56 524.68 693.02 530.04 687.62
  A 0.56 0.56 0.0 0 0 529.64 686.67
  Q 523.90 686.72 518.39 689.18
  Q 510.50 692.71 501.35 695.96
  A 0.21 0.20 -73.2 0 1 501.16 695.60
  C 503.08 694.14 506.38 692.06 508.69 690.90
  Q 521.53 684.43 532.49 675.48
  Q 536.09 672.54 538.83 668.84
  A 0.71 0.70 28.3 0 0 538.50 667.76
  Q 511.37 657.72 483.14 665.71
  C 474.42 668.18 466.53 671.94 457.78 674.85
  Q 440.22 680.67 422.65 690.40
  Q 417.68 693.15 412.27 697.07
  A 0.65 0.65 0.0 0 0 412.05 697.84"
/>
<path stroke="#8fa8d2" vector-effect="non-scaling-stroke" d="
  M 832.82 636.29
  A 0.89 0.89 0.0 0 0 833.41 637.63
  L 843.22 639.45
  A 0.89 0.89 0.0 0 0 844.26 638.41
  L 841.75 624.59
  A 0.89 0.89 0.0 0 0 840.11 624.29
  L 832.82 636.29"
/>
</g>
<path fill="#061027" d="
  M 844.57 710.54
  Q 841.48 710.96 840.92 711.92
  Q 832.66 716.17 826.21 721.25
  Q 823.48 721.80 821.96 722.76
  Q 818.18 725.15 814.12 727.00
  Q 808.40 729.60 806.11 730.89
  C 797.81 735.56 789.92 738.91 784.34 745.11
  Q 775.41 755.06 767.75 765.91
  Q 764.25 770.87 758.58 776.98
  Q 751.67 784.42 744.58 792.07
  Q 742.63 793.06 740.93 794.44
  Q 739.64 795.49 736.98 798.10
  A 0.25 0.24 -24.9 0 1 736.56 797.95
  C 736.46 796.54 737.50 794.96 736.32 793.05
  Q 739.55 792.79 739.84 788.65
  A 1.80 1.77 71.2 0 1 740.42 787.45
  L 748.22 780.42
  A 0.44 0.44 0.0 0 0 747.76 779.69
  L 735.62 784.63
  A 0.93 0.91 27.3 0 1 735.39 784.70
  Q 730.25 785.74 724.93 787.40
  Q 722.09 788.29 715.43 788.15
  Q 705.45 788.16 695.26 786.89
  C 693.57 786.68 688.84 785.81 686.41 784.49
  Q 684.96 783.71 683.16 781.86
  Q 676.14 774.65 670.72 766.18
  Q 677.62 774.77 685.15 782.59
  Q 685.97 783.44 688.46 784.46
  Q 696.02 786.43 707.50 786.25
  Q 733.41 785.84 753.02 775.26
  Q 756.45 773.41 757.75 771.72
  Q 763.41 764.33 770.51 755.73
  A 0.43 0.42 2.5 0 0 769.94 755.11
  Q 760.18 761.80 748.92 765.19
  Q 736.41 768.95 726.63 770.66
  Q 716.42 772.45 706.64 771.98
  L 684.31 747.38
  Q 678.50 739.44 673.86 731.67
  Q 667.24 720.55 660.48 709.49
  Q 652.82 696.94 650.98 681.62
  Q 652.70 680.51 654.08 680.34
  Q 656.63 680.04 659.29 681.22
  Q 663.37 683.02 669.84 684.69
  A 0.37 0.36 -79.2 0 1 670.11 685.09
  Q 670.09 685.34 669.86 685.54
  A 0.50 0.45 -66.4 0 1 669.64 685.64
  C 664.26 686.14 660.08 684.78 655.10 682.59
  A 0.82 0.82 0.0 0 0 653.95 683.43
  C 654.56 689.01 655.15 694.22 657.87 699.33
  Q 659.81 702.97 661.48 707.23
  Q 662.73 710.39 665.48 714.90
  Q 671.25 724.35 671.99 725.25
  Q 673.42 727.01 674.84 729.89
  Q 676.32 732.90 680.30 737.20
  A 0.87 0.87 0.0 0 1 680.50 738.01
  Q 680.24 738.98 681.11 740.22
  Q 686.37 747.75 691.88 753.62
  Q 694.40 756.31 695.31 757.47
  Q 697.42 760.14 698.65 761.17
  Q 701.44 763.50 704.74 766.55
  A 2.81 2.81 0.0 0 1 705.43 767.52
  Q 706.22 769.38 707.64 769.81
  A 0.79 0.79 0.0 0 0 708.57 769.43
  Q 709.35 768.00 713.10 764.08
  Q 713.57 763.59 717.83 758.93
  Q 730.60 744.94 743.79 736.54
  Q 770.09 719.79 779.49 712.73
  Q 788.69 705.81 800.38 697.64
  Q 802.74 695.99 805.99 695.11
  A 0.48 0.48 0.0 0 1 806.50 695.86
  Q 805.94 696.60 805.15 696.85
  A 0.95 0.92 5.6 0 0 804.62 697.27
  C 803.11 699.85 799.29 701.42 797.03 703.11
  C 789.51 708.73 782.68 713.21 776.64 717.65
  Q 764.68 726.43 746.50 737.50
  C 739.27 741.90 733.72 746.64 726.86 752.58
  Q 722.10 756.69 718.44 760.71
  Q 715.81 763.59 710.29 769.13
  A 0.85 0.85 0.0 0 0 710.52 770.49
  C 711.77 771.11 713.44 770.56 714.49 770.47
  Q 731.80 768.88 747.90 763.61
  Q 757.07 760.60 762.45 757.16
  Q 767.04 754.23 771.09 752.44
  A 8.25 8.24 -84.6 0 0 774.53 749.59
  Q 781.02 740.16 791.37 734.42
  C 794.08 732.92 797.85 730.67 801.27 729.02
  Q 816.27 721.79 819.12 719.83
  C 826.00 715.08 832.10 711.62 838.65 706.39
  C 841.63 704.02 844.70 702.52 848.55 700.66
  A 0.50 0.50 0.0 0 0 848.43 699.72
  C 839.89 697.99 831.43 695.24 823.45 693.05
  C 813.71 690.37 802.20 689.98 792.64 687.91
  Q 789.63 687.26 786.66 685.71
  A 0.04 0.04 0.0 0 1 786.69 685.63
  Q 789.40 686.22 795.28 687.27
  C 801.58 688.40 810.83 687.43 815.75 688.04
  Q 822.27 688.85 838.55 693.21
  Q 841.97 694.12 843.54 694.36
  C 848.28 695.08 851.36 696.07 856.22 695.90
  C 860.07 695.76 868.43 696.36 873.22 695.25
  Q 877.09 694.36 881.80 692.49
  C 890.59 689.01 898.43 684.70 904.57 677.61
  Q 909.56 671.86 918.05 658.03
  Q 919.05 656.40 919.62 651.26
  A 6.86 6.32 58.6 0 1 919.81 650.30
  C 922.12 641.59 923.64 636.90 923.96 629.25
  Q 924.59 613.80 924.29 597.81
  C 924.21 593.80 924.93 590.21 925.00 586.59
  A 0.25 0.25 0.0 0 0 924.59 586.39
  Q 918.33 591.50 917.00 592.49
  Q 908.60 598.74 899.20 602.34
  A 0.68 0.68 0.0 0 1 898.35 602.01
  L 898.31 601.95
  A 0.57 0.56 65.5 0 1 898.60 601.17
  Q 899.96 600.63 900.98 599.41
  Q 924.27 587.05 938.41 564.45
  C 947.04 550.66 950.77 533.65 946.74 517.79
  Q 944.48 506.49 935.80 499.27
  C 934.21 497.94 932.21 497.10 930.35 498.07
  Q 926.21 500.24 921.85 500.87
  A 2.55 2.45 -60.2 0 0 921.10 501.09
  L 917.69 502.64
  C 915.29 505.26 911.79 505.20 908.42 505.25
  L 897.21 506.78
  Q 887.74 508.16 882.56 509.58
  Q 874.27 511.86 864.66 517.79
  A 3.09 2.94 -66.1 0 1 863.79 518.15
  Q 861.69 518.66 860.31 518.59
  Q 849.97 518.14 840.69 518.07
  Q 839.59 518.06 837.18 517.21
  Q 848.16 515.98 858.99 517.21
  Q 861.34 517.48 863.52 516.86
  A 3.76 3.55 20.0 0 0 864.26 516.54
  Q 874.94 510.24 877.70 509.15
  Q 888.46 504.92 901.64 503.36
  Q 903.70 503.11 907.35 503.40
  Q 911.34 503.72 913.04 503.05
  Q 925.66 498.08 928.06 497.08
  C 930.49 496.06 933.99 496.79 936.33 498.42
  C 946.64 505.58 950.66 514.81 951.39 526.96
  Q 952.51 545.76 943.85 562.24
  Q 941.39 566.94 939.16 569.93
  C 935.46 574.89 932.54 579.09 931.30 584.77
  C 928.46 597.75 929.72 611.28 928.89 624.71
  C 927.87 641.27 924.08 658.16 914.86 671.85
  Q 910.52 678.28 902.71 685.18
  C 890.28 696.14 875.66 700.10 859.33 700.49
  A 5.81 5.81 0.0 0 0 856.22 701.48
  C 852.22 704.18 847.63 706.41 844.57 710.54
  Z"
/>
<path fill="#58a8e5" d="
  M 946.74 517.79
  Q 944.95 517.43 943.75 519.12
  A 2.11 2.03 -22.1 0 0 943.42 519.86
  Q 941.62 527.70 940.98 531.40
  C 939.84 538.05 937.97 542.76 935.47 551.20
  Q 933.43 558.06 926.27 566.24
  Q 932.35 553.20 934.53 539.96
  Q 936.57 527.61 933.92 517.38
  Q 931.89 509.54 924.26 504.74
  Q 923.12 504.02 920.88 503.57
  Q 917.57 503.70 917.69 502.64
  L 921.10 501.09
  A 2.55 2.45 -60.2 0 1 921.85 500.87
  Q 926.21 500.24 930.35 498.07
  C 932.21 497.10 934.21 497.94 935.80 499.27
  Q 944.48 506.49 946.74 517.79
  Z"
/>
<path fill="#061027" d="
  M 834.94 516.99
  Q 834.14 522.21 837.92 527.59
  Q 842.81 534.56 849.35 539.91
  Q 856.26 545.57 858.07 547.15
  Q 860.77 549.50 861.82 553.43
  A 3.10 3.07 -50.5 0 1 861.92 554.53
  C 861.35 561.08 861.07 567.84 862.96 574.21
  A 0.62 0.40 -77.8 0 0 863.02 574.37
  L 864.80 577.85
  A 2.00 1.99 -20.9 0 0 867.09 578.87
  Q 873.14 577.25 876.37 572.40
  C 877.87 570.15 879.63 567.73 880.58 565.34
  C 882.17 561.33 884.37 556.22 886.51 551.93
  Q 887.79 549.37 889.30 544.50
  A 0.29 0.24 -39.3 0 0 889.32 544.40
  L 889.69 534.62
  A 1.95 1.94 -60.1 0 0 889.40 533.53
  Q 885.45 526.99 877.99 524.07
  Q 870.19 521.02 865.90 519.89
  A 0.22 0.21 -83.2 0 1 865.74 519.68
  L 865.74 519.40
  A 0.39 0.39 0.0 0 1 866.22 519.02
  C 873.85 520.74 881.55 523.06 887.20 528.87
  Q 892.72 534.55 894.51 537.24
  A 4.84 4.55 -72.9 0 1 895.05 538.34
  Q 896.10 541.47 897.63 543.73
  A 1.68 1.63 30.0 0 1 897.91 544.71
  Q 897.76 549.59 896.30 553.10
  A 2.66 2.53 56.9 0 0 896.11 554.13
  Q 896.14 555.44 895.80 556.31
  Q 893.89 561.14 889.21 570.96
  Q 882.97 584.03 869.95 590.92
  Q 863.66 594.26 857.29 591.24
  Q 847.35 588.39 839.22 582.55
  Q 833.42 578.38 827.56 573.23
  C 823.34 569.54 819.87 564.50 815.93 559.81
  Q 815.60 559.41 815.25 559.24
  A 0.41 0.40 8.0 0 0 814.67 559.67
  Q 816.82 570.84 821.88 581.55
  Q 822.12 582.06 821.92 582.26
  A 0.54 0.53 54.7 0 1 821.07 582.11
  Q 816.58 573.38 814.17 565.08
  Q 811.45 555.65 808.15 544.80
  C 806.23 538.47 805.76 531.09 805.10 525.33
  Q 804.67 521.50 802.38 519.64
  Q 797.72 515.82 791.50 515.63
  C 783.97 515.39 774.67 515.90 767.22 518.67
  A 0.49 0.48 56.4 0 0 767.06 519.48
  C 772.80 524.85 778.05 528.81 782.59 534.66
  Q 793.98 549.30 803.96 567.09
  Q 804.69 568.40 806.88 571.59
  Q 807.70 572.79 810.01 575.97
  A 0.48 0.47 1.3 0 1 809.33 576.62
  Q 807.41 575.10 805.63 572.63
  Q 800.37 565.33 795.55 557.68
  Q 785.78 541.00 772.04 527.69
  Q 766.55 522.38 762.31 520.26
  Q 756.29 517.25 750.58 517.05
  Q 745.06 516.86 736.01 520.70
  A 2.38 2.33 27.2 0 1 735.49 520.86
  Q 727.95 522.29 721.88 523.42
  Q 709.10 525.81 698.96 532.72
  Q 698.54 533.00 698.42 533.37
  A 0.31 0.30 -83.8 0 0 698.74 533.77
  C 706.22 532.99 713.22 533.89 720.19 535.28
  Q 734.77 539.75 742.91 543.05
  Q 748.09 545.16 758.61 550.67
  C 764.04 553.51 768.20 557.07 774.04 560.46
  Q 780.75 564.36 790.64 572.06
  Q 810.25 587.32 810.87 587.80
  Q 816.32 591.99 822.34 593.79
  Q 823.01 593.99 823.07 594.37
  Q 823.13 594.78 822.64 595.28
  L 814.05 598.52
  Q 809.19 597.18 804.40 596.43
  Q 796.10 595.13 794.66 594.76
  C 787.99 593.07 780.78 592.03 772.90 590.16
  Q 752.86 585.38 730.58 580.85
  A 0.60 0.59 5.1 0 0 729.87 581.44
  Q 730.21 597.59 730.07 625.03
  C 730.05 629.33 730.56 635.70 731.50 639.17
  A 0.53 0.53 0.0 0 1 730.60 639.67
  Q 729.00 637.95 728.31 634.68
  C 726.25 624.80 726.76 613.65 726.84 602.71
  C 726.89 595.52 727.69 588.47 727.13 580.57
  A 0.80 0.79 6.5 0 0 726.57 579.87
  Q 718.83 577.51 713.46 576.60
  Q 693.90 573.29 674.07 564.93
  Q 667.20 562.03 660.55 556.70
  Q 658.70 555.22 660.32 553.35
  Q 664.32 548.71 667.36 546.24
  Q 670.03 544.07 676.14 541.66
  Q 685.20 538.09 691.11 535.98
  A 0.16 0.16 0.0 0 0 691.21 535.83
  L 691.21 535.54
  A 0.31 0.31 0.0 0 0 690.84 535.23
  Q 679.65 537.39 674.84 539.10
  Q 644.82 549.81 642.45 550.71
  Q 630.99 555.08 624.55 556.81
  Q 604.51 562.19 597.43 564.14
  Q 593.81 565.13 571.41 570.35
  Q 558.41 573.37 545.08 575.05
  Q 536.57 576.13 518.30 578.53
  C 506.31 580.10 490.73 581.16 479.92 581.95
  C 472.02 582.52 466.77 582.58 457.24 582.76
  Q 453.84 582.83 448.28 583.40
  Q 444.20 583.81 439.28 583.60
  A 5.74 5.43 38.1 0 0 437.79 583.74
  Q 435.64 584.24 434.51 584.15
  Q 429.24 583.69 422.06 583.98
  Q 402.02 584.79 400.02 584.79
  Q 395.97 584.80 383.74 585.55
  C 377.54 585.93 369.69 585.81 362.11 586.46
  C 357.81 586.83 353.45 586.82 348.76 587.34
  Q 334.10 588.96 318.25 591.38
  Q 317.13 591.55 315.61 591.10
  Q 312.43 591.28 309.68 591.86
  Q 291.91 595.63 286.12 596.80
  Q 283.55 597.33 281.76 598.16
  A 2.71 2.68 80.3 0 0 280.21 600.37
  L 279.40 609.19
  L 277.41 612.49
  L 278.17 599.12
  A 2.31 2.26 -51.9 0 0 278.08 598.30
  Q 277.52 596.40 276.28 595.71
  Q 292.14 593.11 308.76 589.65
  C 315.57 588.24 323.43 586.97 329.00 586.35
  Q 356.21 583.33 385.50 582.50
  Q 414.06 581.69 462.85 579.78
  Q 484.05 578.95 501.11 577.18
  Q 525.01 574.71 539.16 572.60
  Q 574.49 567.35 609.36 557.58
  C 620.36 554.50 633.72 549.79 646.02 545.98
  Q 655.38 543.42 664.22 538.67
  C 669.50 537.05 675.00 534.54 679.65 533.02
  Q 690.90 529.36 707.91 524.30
  A 0.32 0.32 0.0 0 0 707.81 523.68
  Q 694.43 524.30 681.28 526.11
  C 674.43 527.05 655.23 529.11 640.66 531.42
  Q 631.26 532.91 628.34 533.23
  Q 605.13 535.78 584.59 536.26
  C 576.49 536.45 567.67 536.14 559.19 535.98
  Q 540.19 535.48 521.20 534.00
  Q 517.79 533.73 513.19 533.09
  C 506.54 532.17 499.76 531.72 493.21 530.82
  C 477.11 528.60 459.74 526.20 443.97 523.74
  Q 378.51 513.53 352.49 510.32
  C 325.38 506.99 300.79 504.40 275.26 503.36
  Q 240.95 501.96 208.02 505.63
  Q 200.93 506.42 194.18 507.88
  C 185.11 509.85 177.29 511.92 169.00 515.90
  Q 167.81 516.21 166.70 516.06
  Q 169.47 513.59 173.02 511.97
  C 183.65 507.15 196.58 504.29 208.75 502.91
  Q 235.53 499.89 260.28 500.39
  Q 293.95 501.07 325.81 504.46
  Q 341.61 506.15 359.73 508.59
  Q 389.49 512.59 444.21 520.90
  C 453.16 522.26 462.62 523.29 471.76 524.86
  Q 476.58 525.68 482.79 526.38
  Q 499.70 528.29 506.48 529.04
  Q 542.63 533.08 576.50 532.54
  Q 596.45 532.22 608.15 531.93
  C 614.40 531.77 619.74 531.31 624.56 530.72
  Q 653.77 527.16 664.24 525.67
  Q 681.30 523.23 683.85 523.13
  C 686.76 523.01 691.86 522.12 695.67 521.94
  Q 698.87 521.79 700.47 521.64
  Q 712.50 520.46 731.69 518.11
  Q 736.99 517.47 739.97 516.59
  C 746.12 514.78 753.35 514.22 759.47 516.10
  A 7.97 7.94 47.3 0 0 763.45 516.27
  Q 770.20 514.83 775.24 513.94
  Q 778.76 513.32 789.22 513.60
  C 794.38 513.74 803.74 516.31 805.60 521.73
  A 1.32 1.32 0.0 0 0 807.14 522.59
  Q 815.97 520.56 823.82 516.97
  A 4.91 4.76 12.3 0 0 824.82 516.35
  Q 827.42 514.24 831.49 512.68
  A 1.86 1.85 70.4 0 1 833.92 513.84
  L 834.94 516.99
  Z
  M 826.99 516.84
  Q 824.70 517.94 822.17 519.30
  Q 819.60 520.68 817.27 521.48
  Q 813.29 522.85 807.92 525.09
  A 1.11 1.11 0.0 0 0 807.25 526.23
  Q 807.81 531.37 808.33 533.50
  Q 809.61 538.74 812.70 548.50
  Q 813.99 552.58 816.02 555.69
  Q 818.81 559.97 820.68 562.01
  Q 827.19 569.09 837.04 576.96
  Q 842.13 581.02 848.62 583.91
  Q 855.68 587.06 864.10 589.04
  Q 878.98 584.85 886.02 570.71
  C 890.06 562.59 893.77 553.33 894.59 543.59
  A 1.79 1.77 34.7 0 0 894.41 542.62
  L 891.26 536.19
  A 0.48 0.48 0.0 0 0 890.36 536.45
  Q 890.64 539.16 890.70 542.67
  Q 890.70 543.03 890.89 543.27
  Q 891.14 543.59 891.24 543.82
  A 1.01 1.00 -46.6 0 1 891.26 544.59
  Q 887.28 554.34 881.58 566.85
  C 878.07 574.53 874.72 578.64 866.19 581.32
  A 1.35 1.33 -38.1 0 1 865.13 581.20
  C 858.05 577.04 859.70 568.96 859.63 562.12
  C 859.58 555.76 859.89 551.00 855.64 547.88
  C 844.71 539.87 832.16 529.26 831.93 514.75
  A 0.72 0.72 0.0 0 0 830.79 514.17
  L 826.99 516.84
  Z
  M 672.95 559.69
  Q 694.07 568.99 717.21 574.12
  C 738.71 578.88 752.77 581.92 762.02 584.14
  Q 773.95 587.01 805.52 593.93
  C 810.63 595.05 816.56 596.40 819.20 595.50
  A 0.46 0.46 0.0 0 0 819.24 594.64
  Q 816.14 593.22 811.83 590.40
  Q 800.97 583.27 790.59 575.89
  Q 789.91 574.46 789.39 574.10
  Q 769.25 559.85 758.32 553.41
  Q 743.08 544.42 722.78 539.66
  Q 711.61 537.23 700.39 537.69
  C 696.07 537.86 692.72 539.05 688.91 540.67
  C 680.86 544.08 671.50 548.15 665.02 554.18
  A 0.78 0.78 0.0 0 0 665.07 555.36
  Q 668.34 557.97 672.95 559.69
  Z"
/>
<path fill="#2163b9" d="
  M 917.69 502.64
  Q 917.57 503.70 920.88 503.57
  Q 919.95 503.96 918.95 503.91
  A 0.26 0.26 0.0 0 0 918.67 504.14
  L 918.66 504.16
  A 0.31 0.31 0.0 0 0 918.93 504.50
  C 928.99 505.80 933.57 516.24 933.59 525.42
  Q 933.63 543.41 927.33 558.05
  Q 920.28 574.44 907.99 591.27
  L 900.80 598.37
  A 0.60 0.55 73.8 0 0 900.64 598.69
  Q 900.59 599.03 900.79 599.35
  Q 899.97 600.00 899.20 599.87
  A 0.65 0.64 3.3 0 1 898.65 599.26
  Q 898.65 599.17 898.65 599.09
  A 0.82 0.81 5.1 0 0 897.97 598.29
  Q 897.39 598.19 897.16 597.60
  Q 897.02 597.23 897.38 596.44
  Q 899.42 592.00 900.78 587.28
  L 904.63 576.77
  Q 907.82 573.60 909.22 569.56
  Q 911.10 564.16 911.12 564.11
  Q 914.44 556.52 916.27 551.61
  Q 920.49 540.28 918.73 528.08
  Q 918.12 523.85 913.62 515.30
  A 6.51 6.44 -81.6 0 0 912.46 513.72
  Q 910.62 511.86 909.01 510.13
  Q 906.44 507.37 908.42 505.25
  C 911.79 505.20 915.29 505.26 917.69 502.64
  Z"
/>
<path fill="#2163b9" d="
  M 559.19 535.98
  L 560.18 536.48
  A 0.27 0.27 0.0 0 1 560.13 536.99
  Q 555.03 538.41 548.55 538.58
  C 534.86 538.94 519.75 539.25 505.69 538.32
  Q 494.02 537.55 478.86 537.09
  Q 469.01 536.78 456.41 535.25
  Q 442.31 533.54 434.06 532.55
  Q 429.74 532.04 426.92 531.75
  Q 416.44 530.70 401.31 528.17
  Q 396.40 527.35 361.41 522.82
  Q 355.16 522.01 352.13 521.42
  C 344.34 519.88 337.74 519.71 328.85 518.42
  Q 308.76 515.49 282.92 513.36
  Q 274.00 512.63 268.97 512.49
  C 255.66 512.14 245.18 511.48 234.00 511.86
  Q 223.72 512.21 215.75 512.09
  C 211.60 512.02 207.44 512.77 203.61 513.54
  Q 200.86 514.10 194.52 514.79
  Q 184.50 515.89 174.28 517.80
  Q 172.07 517.70 169.00 515.90
  C 177.29 511.92 185.11 509.85 194.18 507.88
  Q 200.93 506.42 208.02 505.63
  Q 240.95 501.96 275.26 503.36
  C 300.79 504.40 325.38 506.99 352.49 510.32
  Q 378.51 513.53 443.97 523.74
  C 459.74 526.20 477.11 528.60 493.21 530.82
  C 499.76 531.72 506.54 532.17 513.19 533.09
  Q 517.79 533.73 521.20 534.00
  Q 540.19 535.48 559.19 535.98
  Z"
/>
<path fill="#061027" d="
  M 920.88 503.57
  Q 923.12 504.02 924.26 504.74
  Q 931.89 509.54 933.92 517.38
  Q 936.57 527.61 934.53 539.96
  Q 932.35 553.20 926.27 566.24
  Q 919.13 579.62 907.99 591.27
  Q 920.28 574.44 927.33 558.05
  Q 933.63 543.41 933.59 525.42
  C 933.57 516.24 928.99 505.80 918.93 504.50
  A 0.31 0.31 0.0 0 1 918.66 504.16
  L 918.67 504.14
  A 0.26 0.26 0.0 0 1 918.95 503.91
  Q 919.95 503.96 920.88 503.57
  Z"
/>
<path fill="#1e51a4" d="
  M 908.42 505.25
  Q 906.44 507.37 909.01 510.13
  Q 910.62 511.86 912.46 513.72
  A 6.51 6.44 -81.6 0 1 913.62 515.30
  Q 918.12 523.85 918.73 528.08
  Q 920.49 540.28 916.27 551.61
  Q 914.44 556.52 911.12 564.11
  Q 911.10 564.16 909.22 569.56
  Q 907.82 573.60 904.63 576.77
  L 906.75 564.22
  C 909.14 557.88 908.96 552.29 908.81 544.49
  Q 908.71 539.22 906.55 531.31
  Q 905.32 526.77 903.65 517.37
  A 7.26 7.23 -71.9 0 0 901.77 513.64
  C 900.23 512.03 897.72 510.22 897.21 506.78
  L 908.42 505.25
  Z"
/>
<path fill="#123680" d="
  M 897.21 506.78
  C 897.72 510.22 900.23 512.03 901.77 513.64
  A 7.26 7.23 -71.9 0 1 903.65 517.37
  Q 905.32 526.77 906.55 531.31
  Q 908.71 539.22 908.81 544.49
  C 908.96 552.29 909.14 557.88 906.75 564.22
  C 906.05 558.43 905.79 549.34 902.47 545.00
  Q 899.24 540.79 897.72 538.84
  A 0.37 0.37 0.0 0 0 897.06 539.12
  Q 897.55 542.43 900.14 544.63
  A 2.30 2.25 3.8 0 1 900.57 545.11
  Q 902.21 547.64 902.64 549.58
  Q 904.11 556.18 903.52 571.35
  Q 903.49 572.15 903.30 572.27
  Q 901.88 573.23 901.80 575.17
  Q 901.54 581.49 899.88 586.94
  A 0.48 0.47 -88.5 0 0 900.44 587.54
  Q 900.54 587.51 900.78 587.28
  Q 899.42 592.00 897.38 596.44
  Q 897.02 597.23 897.16 597.60
  Q 897.39 598.19 897.97 598.29
  A 0.82 0.81 5.1 0 1 898.65 599.09
  Q 898.65 599.17 898.65 599.26
  A 0.65 0.64 3.3 0 0 899.20 599.87
  Q 899.97 600.00 900.79 599.35
  Q 900.88 599.38 900.98 599.41
  Q 899.96 600.63 898.60 601.17
  A 0.57 0.56 65.5 0 0 898.31 601.95
  L 898.35 602.01
  A 0.68 0.68 0.0 0 0 899.20 602.34
  Q 908.60 598.74 917.00 592.49
  Q 918.33 591.50 924.59 586.39
  A 0.25 0.25 0.0 0 1 925.00 586.59
  C 924.93 590.21 924.21 593.80 924.29 597.81
  Q 924.59 613.80 923.96 629.25
  C 923.64 636.90 922.12 641.59 919.81 650.30
  A 6.86 6.32 58.6 0 0 919.62 651.26
  Q 919.05 656.40 918.05 658.03
  Q 909.56 671.86 904.57 677.61
  C 898.43 684.70 890.59 689.01 881.80 692.49
  Q 877.09 694.36 873.22 695.25
  C 868.43 696.36 860.07 695.76 856.22 695.90
  C 851.36 696.07 848.28 695.08 843.54 694.36
  Q 841.97 694.12 838.55 693.21
  Q 822.27 688.85 815.75 688.04
  C 810.83 687.43 801.58 688.40 795.28 687.27
  Q 789.40 686.22 786.69 685.63
  A 0.04 0.04 0.0 0 0 786.66 685.71
  Q 789.63 687.26 792.64 687.91
  C 802.20 689.98 813.71 690.37 823.45 693.05
  C 831.43 695.24 839.89 697.99 848.43 699.72
  A 0.50 0.50 0.0 0 1 848.55 700.66
  C 844.70 702.52 841.63 704.02 838.65 706.39
  C 832.10 711.62 826.00 715.08 819.12 719.83
  Q 816.27 721.79 801.27 729.02
  C 797.85 730.67 794.08 732.92 791.37 734.42
  Q 781.02 740.16 774.53 749.59
  A 8.25 8.24 -84.6 0 1 771.09 752.44
  Q 767.04 754.23 762.45 757.16
  Q 757.07 760.60 747.90 763.61
  Q 731.80 768.88 714.49 770.47
  C 713.44 770.56 711.77 771.11 710.52 770.49
  A 0.85 0.85 0.0 0 1 710.29 769.13
  Q 715.81 763.59 718.44 760.71
  Q 722.10 756.69 726.86 752.58
  C 733.72 746.64 739.27 741.90 746.50 737.50
  Q 764.68 726.43 776.64 717.65
  C 782.68 713.21 789.51 708.73 797.03 703.11
  C 799.29 701.42 803.11 699.85 804.62 697.27
  A 0.95 0.92 5.6 0 1 805.15 696.85
  Q 805.94 696.60 806.50 695.86
  A 0.48 0.48 0.0 0 0 805.99 695.11
  Q 802.74 695.99 800.38 697.64
  Q 788.69 705.81 779.49 712.73
  Q 770.09 719.79 743.79 736.54
  Q 730.60 744.94 717.83 758.93
  Q 713.57 763.59 713.10 764.08
  Q 709.35 768.00 708.57 769.43
  A 0.79 0.79 0.0 0 1 707.64 769.81
  Q 706.22 769.38 705.43 767.52
  A 2.81 2.81 0.0 0 0 704.74 766.55
  Q 701.44 763.50 698.65 761.17
  Q 697.42 760.14 695.31 757.47
  Q 694.40 756.31 691.88 753.62
  Q 686.37 747.75 681.11 740.22
  Q 680.24 738.98 680.50 738.01
  A 0.87 0.87 0.0 0 0 680.30 737.20
  Q 676.32 732.90 674.84 729.89
  Q 673.42 727.01 671.99 725.25
  Q 671.25 724.35 665.48 714.90
  Q 662.73 710.39 661.48 707.23
  Q 659.81 702.97 657.87 699.33
  C 655.15 694.22 654.56 689.01 653.95 683.43
  A 0.82 0.82 0.0 0 1 655.10 682.59
  C 660.08 684.78 664.26 686.14 669.64 685.64
  A 0.50 0.45 -66.4 0 0 669.86 685.54
  Q 670.09 685.34 670.11 685.09
  A 0.37 0.36 -79.2 0 0 669.84 684.69
  Q 663.37 683.02 659.29 681.22
  Q 656.63 680.04 654.08 680.34
  Q 652.70 680.51 650.98 681.62
  Q 647.94 678.96 644.55 681.10
  Q 642.08 682.67 640.16 686.44
  C 636.87 692.89 633.67 701.21 635.97 708.03
  Q 637.46 712.43 639.36 716.09
  Q 645.21 727.37 652.21 738.02
  L 658.25 747.94
  Q 655.11 745.39 652.00 744.29
  Q 634.71 738.14 620.73 731.84
  C 612.69 728.22 607.16 725.80 601.21 721.60
  Q 599.47 720.37 590.78 713.28
  C 587.54 710.64 582.98 710.49 578.24 710.83
  Q 571.50 711.33 564.63 712.34
  C 577.93 705.88 574.98 692.50 571.84 680.83
  A 0.49 0.49 0.0 0 0 571.20 680.50
  C 561.87 683.87 556.26 686.47 548.12 686.66
  A 1.39 1.37 -23.2 0 1 547.10 686.26
  C 540.61 679.94 540.48 675.18 542.36 666.52
  A 2.19 2.07 74.3 0 1 542.87 665.55
  Q 549.09 658.97 552.52 650.75
  A 1.36 1.36 0.0 0 0 551.56 648.90
  Q 547.35 647.95 543.18 649.17
  Q 517.68 656.62 497.87 661.62
  A 1.70 1.70 0.0 0 1 495.76 659.78
  L 495.77 659.68
  A 3.78 3.77 -9.0 0 1 497.85 656.82
  L 513.80 648.98
  A 0.58 0.58 0.0 0 0 513.54 647.87
  C 508.99 647.92 505.55 648.53 501.02 650.14
  C 494.53 652.43 486.44 655.74 478.62 657.59
  Q 474.82 658.50 465.35 661.60
  Q 454.11 665.29 420.76 672.52
  C 414.76 673.82 409.59 675.66 403.75 676.71
  C 390.94 679.00 384.00 680.60 373.99 680.21
  A 0.47 0.46 28.2 0 1 373.73 679.37
  Q 374.92 678.53 376.49 678.15
  C 393.47 675.64 410.15 671.86 426.98 668.48
  Q 437.83 666.30 458.29 659.98
  C 464.78 658.28 471.69 656.94 477.69 654.92
  C 484.18 652.74 489.79 650.49 497.48 648.22
  Q 512.28 643.84 526.13 636.64
  Q 536.95 631.02 547.44 625.45
  Q 561.13 621.41 571.61 611.35
  Q 572.61 610.38 572.94 609.49
  A 1.48 1.48 0.0 0 0 571.16 607.55
  L 554.89 612.04
  L 553.24 612.33
  Q 549.28 605.87 543.63 601.09
  Q 539.24 597.37 533.79 598.10
  Q 506.02 601.82 480.47 600.81
  Q 447.21 599.49 431.44 598.41
  Q 396.33 596.00 362.99 597.41
  Q 355.89 597.72 328.22 601.31
  Q 322.31 595.50 315.61 591.10
  Q 317.13 591.55 318.25 591.38
  Q 334.10 588.96 348.76 587.34
  C 353.45 586.82 357.81 586.83 362.11 586.46
  C 369.69 585.81 377.54 585.93 383.74 585.55
  Q 395.97 584.80 400.02 584.79
  Q 402.02 584.79 422.06 583.98
  Q 429.24 583.69 434.51 584.15
  Q 435.64 584.24 437.79 583.74
  A 5.74 5.43 38.1 0 1 439.28 583.60
  Q 444.20 583.81 448.28 583.40
  Q 453.84 582.83 457.24 582.76
  C 466.77 582.58 472.02 582.52 479.92 581.95
  C 490.73 581.16 506.31 580.10 518.30 578.53
  Q 536.57 576.13 545.08 575.05
  Q 558.41 573.37 571.41 570.35
  Q 593.81 565.13 597.43 564.14
  Q 604.51 562.19 624.55 556.81
  Q 630.99 555.08 642.45 550.71
  Q 644.82 549.81 674.84 539.10
  Q 679.65 537.39 690.84 535.23
  A 0.31 0.31 0.0 0 1 691.21 535.54
  L 691.21 535.83
  A 0.16 0.16 0.0 0 1 691.11 535.98
  Q 685.20 538.09 676.14 541.66
  Q 670.03 544.07 667.36 546.24
  Q 664.32 548.71 660.32 553.35
  Q 658.70 555.22 660.55 556.70
  Q 667.20 562.03 674.07 564.93
  Q 693.90 573.29 713.46 576.60
  Q 718.83 577.51 726.57 579.87
  A 0.80 0.79 6.5 0 1 727.13 580.57
  C 727.69 588.47 726.89 595.52 726.84 602.71
  C 726.76 613.65 726.25 624.80 728.31 634.68
  Q 729.00 637.95 730.60 639.67
  A 0.53 0.53 0.0 0 0 731.50 639.17
  C 730.56 635.70 730.05 629.33 730.07 625.03
  Q 730.21 597.59 729.87 581.44
  A 0.60 0.59 5.1 0 1 730.58 580.85
  Q 752.86 585.38 772.90 590.16
  C 780.78 592.03 787.99 593.07 794.66 594.76
  Q 796.10 595.13 804.40 596.43
  Q 809.19 597.18 814.05 598.52
  C 798.64 603.99 783.48 616.50 783.00 633.49
  C 782.69 644.49 786.98 652.80 795.41 660.58
  Q 802.42 667.04 807.34 669.63
  C 832.86 683.08 864.38 683.92 890.27 670.77
  Q 901.43 665.10 908.33 654.80
  C 916.27 642.96 914.67 629.49 905.74 618.51
  Q 898.76 609.92 890.08 604.89
  C 880.19 599.16 870.03 595.05 858.93 593.54
  L 857.29 591.24
  Q 863.66 594.26 869.95 590.92
  Q 882.97 584.03 889.21 570.96
  Q 893.89 561.14 895.80 556.31
  Q 896.14 555.44 896.11 554.13
  A 2.66 2.53 56.9 0 1 896.30 553.10
  Q 897.76 549.59 897.91 544.71
  A 1.68 1.63 30.0 0 0 897.63 543.73
  Q 896.10 541.47 895.05 538.34
  A 4.84 4.55 -72.9 0 0 894.51 537.24
  Q 892.72 534.55 887.20 528.87
  C 881.55 523.06 873.85 520.74 866.22 519.02
  A 0.39 0.39 0.0 0 0 865.74 519.40
  L 865.74 519.68
  A 0.22 0.21 -83.2 0 0 865.90 519.89
  Q 870.19 521.02 877.99 524.07
  Q 885.45 526.99 889.40 533.53
  A 1.95 1.94 -60.1 0 1 889.69 534.62
  L 889.32 544.40
  A 0.29 0.24 -39.3 0 1 889.30 544.50
  Q 887.79 549.37 886.51 551.93
  C 884.37 556.22 882.17 561.33 880.58 565.34
  C 879.63 567.73 877.87 570.15 876.37 572.40
  Q 873.14 577.25 867.09 578.87
  A 2.00 1.99 -20.9 0 1 864.80 577.85
  L 863.02 574.37
  A 0.62 0.40 -77.8 0 1 862.96 574.21
  C 861.07 567.84 861.35 561.08 861.92 554.53
  A 3.10 3.07 -50.5 0 0 861.82 553.43
  Q 860.77 549.50 858.07 547.15
  Q 856.26 545.57 849.35 539.91
  Q 842.81 534.56 837.92 527.59
  Q 834.14 522.21 834.94 516.99
  L 837.18 517.21
  Q 839.59 518.06 840.69 518.07
  Q 849.97 518.14 860.31 518.59
  Q 861.69 518.66 863.79 518.15
  A 3.09 2.94 -66.1 0 0 864.66 517.79
  Q 874.27 511.86 882.56 509.58
  Q 887.74 508.16 897.21 506.78
  Z
  M 710.80 684.15
  C 709.44 679.99 709.57 673.50 709.37 670.83
  Q 709.07 666.81 709.32 662.16
  Q 710.46 640.74 710.06 619.52
  Q 710.01 616.50 710.69 611.48
  Q 710.90 609.95 711.75 603.44
  A 0.49 0.49 0.0 0 0 710.80 603.21
  C 709.94 605.66 709.79 608.14 708.85 610.87
  C 705.11 621.76 705.42 632.92 706.22 645.28
  C 706.78 654.06 706.66 661.65 706.64 669.50
  Q 706.61 677.23 710.01 684.50
  A 0.41 0.40 -23.2 0 0 710.53 684.70
  L 710.54 684.70
  A 0.44 0.44 0.0 0 0 710.80 684.15
  Z"
/>
<path fill="#1e51a4" d="
  M 559.19 535.98
  C 567.67 536.14 576.49 536.45 584.59 536.26
  Q 605.13 535.78 628.34 533.23
  Q 631.26 532.91 640.66 531.42
  C 655.23 529.11 674.43 527.05 681.28 526.11
  Q 694.43 524.30 707.81 523.68
  A 0.32 0.32 0.0 0 1 707.91 524.30
  Q 690.90 529.36 679.65 533.02
  C 675.00 534.54 669.50 537.05 664.22 538.67
  Q 659.86 539.27 658.40 539.59
  Q 649.67 541.51 621.47 549.98
  Q 604.41 555.10 576.56 559.28
  Q 572.13 559.95 569.18 562.05
  Q 556.26 563.95 549.75 564.49
  Q 512.15 567.60 480.27 566.53
  Q 458.02 565.79 449.25 565.20
  Q 421.10 563.29 394.71 560.90
  C 376.47 559.25 356.96 558.21 340.75 557.75
  Q 285.60 556.18 230.54 569.08
  Q 227.96 567.99 224.31 563.18
  C 218.02 554.89 212.46 546.46 205.60 539.17
  Q 192.57 525.34 174.28 517.80
  Q 184.50 515.89 194.52 514.79
  Q 200.86 514.10 203.61 513.54
  C 207.44 512.77 211.60 512.02 215.75 512.09
  Q 223.72 512.21 234.00 511.86
  C 245.18 511.48 255.66 512.14 268.97 512.49
  Q 274.00 512.63 282.92 513.36
  Q 308.76 515.49 328.85 518.42
  C 337.74 519.71 344.34 519.88 352.13 521.42
  Q 355.16 522.01 361.41 522.82
  Q 396.40 527.35 401.31 528.17
  Q 416.44 530.70 426.92 531.75
  Q 429.74 532.04 434.06 532.55
  Q 442.31 533.54 456.41 535.25
  Q 469.01 536.78 478.86 537.09
  Q 494.02 537.55 505.69 538.32
  C 519.75 539.25 534.86 538.94 548.55 538.58
  Q 555.03 538.41 560.13 536.99
  A 0.27 0.27 0.0 0 0 560.18 536.48
  L 559.19 535.98
  Z"
/>
<path fill="#c0e2f9" d="
  M 864.10 589.04
  Q 857.33 585.38 854.64 579.58
  C 852.12 574.14 853.23 566.71 853.39 559.18
  Q 853.51 553.39 848.27 549.74
  C 843.18 546.20 837.86 541.97 834.31 536.40
  Q 828.63 527.49 826.99 516.84
  L 830.79 514.17
  A 0.72 0.72 0.0 0 1 831.93 514.75
  C 832.16 529.26 844.71 539.87 855.64 547.88
  C 859.89 551.00 859.58 555.76 859.63 562.12
  C 859.70 568.96 858.05 577.04 865.13 581.20
  A 1.35 1.33 -38.1 0 0 866.19 581.32
  C 874.72 578.64 878.07 574.53 881.58 566.85
  Q 887.28 554.34 891.26 544.59
  A 1.01 1.00 -46.6 0 0 891.24 543.82
  Q 891.14 543.59 890.89 543.27
  Q 890.70 543.03 890.70 542.67
  Q 890.64 539.16 890.36 536.45
  A 0.48 0.48 0.0 0 1 891.26 536.19
  L 894.41 542.62
  A 1.79 1.77 34.7 0 1 894.59 543.59
  C 893.77 553.33 890.06 562.59 886.02 570.71
  Q 878.98 584.85 864.10 589.04
  Z"
/>
<path fill="#1e51a4" d="
  M 857.29 591.24
  L 858.93 593.54
  Q 840.88 591.18 822.64 595.28
  Q 823.13 594.78 823.07 594.37
  Q 823.01 593.99 822.34 593.79
  Q 816.32 591.99 810.87 587.80
  Q 810.25 587.32 790.64 572.06
  Q 780.75 564.36 774.04 560.46
  C 768.20 557.07 764.04 553.51 758.61 550.67
  Q 748.09 545.16 742.91 543.05
  Q 734.77 539.75 720.19 535.28
  Q 728.11 534.45 735.88 536.77
  Q 752.04 541.59 760.71 544.83
  Q 768.70 547.81 771.22 549.51
  Q 780.95 556.04 784.35 557.20
  Q 791.24 559.55 794.83 560.79
  A 0.94 0.94 0.0 0 0 796.05 559.67
  L 795.55 557.68
  Q 800.37 565.33 805.63 572.63
  Q 807.41 575.10 809.33 576.62
  A 0.48 0.47 1.3 0 0 810.01 575.97
  Q 807.70 572.79 806.88 571.59
  Q 804.69 568.40 803.96 567.09
  Q 793.98 549.30 782.59 534.66
  C 778.05 528.81 772.80 524.85 767.06 519.48
  A 0.49 0.48 56.4 0 1 767.22 518.67
  C 774.67 515.90 783.97 515.39 791.50 515.63
  Q 797.72 515.82 802.38 519.64
  Q 804.67 521.50 805.10 525.33
  C 805.76 531.09 806.23 538.47 808.15 544.80
  Q 811.45 555.65 814.17 565.08
  Q 816.58 573.38 821.07 582.11
  A 0.54 0.53 54.7 0 0 821.92 582.26
  Q 822.12 582.06 821.88 581.55
  Q 816.82 570.84 814.67 559.67
  A 0.41 0.40 8.0 0 1 815.25 559.24
  Q 815.60 559.41 815.93 559.81
  C 819.87 564.50 823.34 569.54 827.56 573.23
  Q 833.42 578.38 839.22 582.55
  Q 847.35 588.39 857.29 591.24
  Z"
/>
<path fill="#4096de" d="
  M 166.70 516.06
  Q 167.81 516.21 169.00 515.90
  Q 172.07 517.70 174.28 517.80
  Q 192.57 525.34 205.60 539.17
  C 212.46 546.46 218.02 554.89 224.31 563.18
  Q 227.96 567.99 230.54 569.08
  L 232.83 571.94
  Q 227.05 572.71 221.28 573.25
  Q 214.33 573.90 209.80 574.81
  C 177.24 581.40 146.65 593.34 116.91 608.23
  Q 114.15 609.61 112.43 609.74
  C 113.71 600.38 114.96 590.26 117.39 581.80
  C 125.10 554.93 142.22 530.11 166.70 516.06
  Z"
/>
<path fill="#123680" d="
  M 826.99 516.84
  Q 828.63 527.49 834.31 536.40
  C 837.86 541.97 843.18 546.20 848.27 549.74
  Q 853.51 553.39 853.39 559.18
  C 853.23 566.71 852.12 574.14 854.64 579.58
  Q 857.33 585.38 864.10 589.04
  Q 855.68 587.06 848.62 583.91
  Q 842.13 581.02 837.04 576.96
  Q 827.19 569.09 820.68 562.01
  Q 818.81 559.97 816.02 555.69
  Q 813.99 552.58 812.70 548.50
  Q 809.61 538.74 808.33 533.50
  Q 807.81 531.37 807.25 526.23
  A 1.11 1.11 0.0 0 1 807.92 525.09
  Q 813.29 522.85 817.27 521.48
  Q 819.60 520.68 822.17 519.30
  Q 824.70 517.94 826.99 516.84
  Z"
/>
<path fill="#2163b9" d="
  M 795.55 557.68
  L 796.05 559.67
  A 0.94 0.94 0.0 0 1 794.83 560.79
  Q 791.24 559.55 784.35 557.20
  Q 780.95 556.04 771.22 549.51
  Q 768.70 547.81 760.71 544.83
  Q 752.04 541.59 735.88 536.77
  Q 728.11 534.45 720.19 535.28
  C 713.22 533.89 706.22 532.99 698.74 533.77
  A 0.31 0.30 -83.8 0 1 698.42 533.37
  Q 698.54 533.00 698.96 532.72
  Q 709.10 525.81 721.88 523.42
  Q 727.95 522.29 735.49 520.86
  A 2.38 2.33 27.2 0 0 736.01 520.70
  Q 745.06 516.86 750.58 517.05
  Q 756.29 517.25 762.31 520.26
  Q 766.55 522.38 772.04 527.69
  Q 785.78 541.00 795.55 557.68
  Z"
/>
<path fill="#c0e2f9" d="
  M 946.74 517.79
  C 950.77 533.65 947.04 550.66 938.41 564.45
  Q 924.27 587.05 900.98 599.41
  Q 900.88 599.38 900.79 599.35
  Q 900.59 599.03 900.64 598.69
  A 0.60 0.55 73.8 0 1 900.80 598.37
  L 907.99 591.27
  Q 919.13 579.62 926.27 566.24
  Q 933.43 558.06 935.47 551.20
  C 937.97 542.76 939.84 538.05 940.98 531.40
  Q 941.62 527.70 943.42 519.86
  A 2.11 2.03 -22.1 0 1 943.75 519.12
  Q 944.95 517.43 946.74 517.79
  Z"
/>
<path fill="#ffffff" d="
  M 722.78 539.66
  Q 722.70 540.04 723.01 540.12
  Q 723.54 540.25 723.56 540.33
  Q 723.68 540.79 723.38 541.22
  A 0.44 0.43 14.4 0 1 723.03 541.42
  L 714.28 541.77
  Q 706.51 543.07 699.27 546.51
  Q 685.78 552.91 672.95 559.69
  Q 668.34 557.97 665.07 555.36
  A 0.78 0.78 0.0 0 1 665.02 554.18
  C 671.50 548.15 680.86 544.08 688.91 540.67
  C 692.72 539.05 696.07 537.86 700.39 537.69
  Q 711.61 537.23 722.78 539.66
  Z"
/>
<path fill="#123680" d="
  M 664.22 538.67
  Q 655.38 543.42 646.02 545.98
  Q 644.86 543.99 642.17 545.81
  A 1.90 1.89 25.3 0 1 641.24 546.14
  Q 639.68 546.25 638.53 546.97
  A 1.31 1.29 33.6 0 1 637.64 547.14
  Q 636.27 546.89 635.60 547.83
  A 0.71 0.70 27.7 0 1 634.78 548.08
  Q 634.74 548.06 631.94 548.92
  Q 602.24 557.97 569.18 562.05
  Q 572.13 559.95 576.56 559.28
  Q 604.41 555.10 621.47 549.98
  Q 649.67 541.51 658.40 539.59
  Q 659.86 539.27 664.22 538.67
  Z"
/>
<path fill="#061027" d="
  M 906.75 564.22
  L 904.63 576.77
  L 900.78 587.28
  Q 900.54 587.51 900.44 587.54
  A 0.48 0.47 -88.5 0 1 899.88 586.94
  Q 901.54 581.49 901.80 575.17
  Q 901.88 573.23 903.30 572.27
  Q 903.49 572.15 903.52 571.35
  Q 904.11 556.18 902.64 549.58
  Q 902.21 547.64 900.57 545.11
  A 2.30 2.25 3.8 0 0 900.14 544.63
  Q 897.55 542.43 897.06 539.12
  A 0.37 0.37 0.0 0 1 897.72 538.84
  Q 899.24 540.79 902.47 545.00
  C 905.79 549.34 906.05 558.43 906.75 564.22
  Z"
/>
<path fill="#58a8e5" d="
  M 790.59 575.89
  L 765.97 564.11
  A 0.77 0.76 18.3 0 0 764.89 564.65
  Q 764.30 567.68 763.76 571.02
  Q 763.05 575.48 759.85 582.53
  A 0.48 0.47 -65.3 0 1 759.23 582.77
  L 759.21 582.76
  A 0.40 0.39 -69.2 0 1 758.99 582.26
  Q 762.16 573.42 762.91 563.65
  A 2.37 2.36 -75.0 0 0 761.58 561.34
  Q 746.08 553.77 729.62 548.16
  C 725.57 546.78 720.01 545.52 715.45 544.97
  Q 713.23 544.71 710.57 543.86
  A 0.27 0.27 0.0 0 1 710.55 543.36
  L 714.28 541.77
  L 723.03 541.42
  A 0.44 0.43 14.4 0 0 723.38 541.22
  Q 723.68 540.79 723.56 540.33
  Q 723.54 540.25 723.01 540.12
  Q 722.70 540.04 722.78 539.66
  Q 743.08 544.42 758.32 553.41
  Q 769.25 559.85 789.39 574.10
  Q 789.91 574.46 790.59 575.89
  Z"
/>
<path fill="#c0e2f9" d="
  M 714.28 541.77
  L 710.55 543.36
  A 0.27 0.27 0.0 0 0 710.57 543.86
  Q 713.23 544.71 715.45 544.97
  C 720.01 545.52 725.57 546.78 729.62 548.16
  Q 746.08 553.77 761.58 561.34
  A 2.37 2.36 -75.0 0 1 762.91 563.65
  Q 762.16 573.42 758.99 582.26
  A 0.40 0.39 -69.2 0 0 759.21 582.76
  L 759.23 582.77
  A 0.48 0.47 -65.3 0 0 759.85 582.53
  Q 763.05 575.48 763.76 571.02
  Q 764.30 567.68 764.89 564.65
  A 0.77 0.76 18.3 0 1 765.97 564.11
  L 790.59 575.89
  Q 800.97 583.27 811.83 590.40
  Q 816.14 593.22 819.24 594.64
  A 0.46 0.46 0.0 0 1 819.20 595.50
  C 816.56 596.40 810.63 595.05 805.52 593.93
  Q 773.95 587.01 762.02 584.14
  C 752.77 581.92 738.71 578.88 717.21 574.12
  Q 694.07 568.99 672.95 559.69
  Q 685.78 552.91 699.27 546.51
  Q 706.51 543.07 714.28 541.77
  Z"
/>
<path fill="#58a8e5" d="
  M 646.02 545.98
  C 633.72 549.79 620.36 554.50 609.36 557.58
  Q 574.49 567.35 539.16 572.60
  Q 525.01 574.71 501.11 577.18
  Q 484.05 578.95 462.85 579.78
  Q 414.06 581.69 385.50 582.50
  Q 356.21 583.33 329.00 586.35
  C 323.43 586.97 315.57 588.24 308.76 589.65
  Q 292.14 593.11 276.28 595.71
  Q 262.32 587.26 249.65 579.85
  Q 245.63 577.50 241.26 575.98
  Q 237.24 573.02 232.83 571.94
  L 230.54 569.08
  Q 285.60 556.18 340.75 557.75
  C 356.96 558.21 376.47 559.25 394.71 560.90
  Q 421.10 563.29 449.25 565.20
  Q 458.02 565.79 480.27 566.53
  Q 512.15 567.60 549.75 564.49
  Q 556.26 563.95 569.18 562.05
  Q 602.24 557.97 631.94 548.92
  Q 634.74 548.06 634.78 548.08
  A 0.71 0.70 27.7 0 0 635.60 547.83
  Q 636.27 546.89 637.64 547.14
  A 1.31 1.29 33.6 0 0 638.53 546.97
  Q 639.68 546.25 641.24 546.14
  A 1.90 1.89 25.3 0 0 642.17 545.81
  Q 644.86 543.99 646.02 545.98
  Z"
/>
<path fill="#1e51a4" d="
  M 232.83 571.94
  Q 237.24 573.02 241.26 575.98
  L 234.73 575.39
  L 232.74 575.36
  Q 218.69 576.46 212.50 577.49
  Q 188.48 581.47 162.13 591.31
  Q 139.47 599.78 126.29 605.97
  C 121.87 608.04 117.83 609.60 113.51 611.27
  A 0.78 0.78 0.0 0 1 112.51 610.85
  Q 112.35 610.48 112.43 609.74
  Q 114.15 609.61 116.91 608.23
  C 146.65 593.34 177.24 581.40 209.80 574.81
  Q 214.33 573.90 221.28 573.25
  Q 227.05 572.71 232.83 571.94
  Z"
/>
<path fill="#123680" d="
  M 234.73 575.39
  L 232.74 575.36
  L 234.73 575.39
  Z"
/>
<path fill="#2163b9" d="
  M 315.61 591.10
  Q 322.31 595.50 328.22 601.31
  L 350.29 626.64
  Q 342.43 625.05 336.99 622.76
  Q 320.03 615.61 303.48 613.15
  Q 291.25 611.33 279.50 614.24
  Q 278.90 612.63 279.40 609.19
  L 280.21 600.37
  A 2.71 2.68 80.3 0 1 281.76 598.16
  Q 283.55 597.33 286.12 596.80
  Q 291.91 595.63 309.68 591.86
  Q 312.43 591.28 315.61 591.10
  Z"
/>
<path fill="#ffffff" d="
  M 858.93 593.54
  C 870.03 595.05 880.19 599.16 890.08 604.89
  Q 898.76 609.92 905.74 618.51
  C 914.67 629.49 916.27 642.96 908.33 654.80
  Q 901.43 665.10 890.27 670.77
  C 864.38 683.92 832.86 683.08 807.34 669.63
  Q 802.42 667.04 795.41 660.58
  C 786.98 652.80 782.69 644.49 783.00 633.49
  C 783.48 616.50 798.64 603.99 814.05 598.52
  L 822.64 595.28
  Q 840.88 591.18 858.93 593.54
  Z
  M 846.65 670.87
  C 862.34 671.81 879.56 668.75 892.38 659.40
  C 899.05 654.54 904.22 647.30 904.09 638.99
  C 903.90 626.25 893.64 616.04 882.93 610.28
  Q 871.06 603.90 857.99 601.89
  Q 856.57 601.67 850.81 601.33
  Q 845.05 600.98 843.61 601.03
  Q 830.39 601.47 817.85 606.39
  C 806.53 610.84 795.13 619.75 793.42 632.38
  C 792.30 640.61 796.57 648.42 802.62 654.04
  C 814.24 664.84 830.97 669.93 846.65 670.87
  Z"
/>
<path fill="#1e51a4" d="
  M 553.24 612.33
  C 541.54 614.98 529.66 617.69 517.95 619.54
  Q 491.71 623.67 466.78 628.06
  Q 465.34 628.31 453.79 629.28
  Q 450.81 629.52 441.69 631.06
  Q 441.00 631.17 429.74 633.62
  Q 421.71 635.36 413.47 635.61
  Q 390.72 634.85 363.81 631.40
  Q 355.84 630.38 350.29 626.64
  L 328.22 601.31
  Q 355.89 597.72 362.99 597.41
  Q 396.33 596.00 431.44 598.41
  Q 447.21 599.49 480.47 600.81
  Q 506.02 601.82 533.79 598.10
  Q 539.24 597.37 543.63 601.09
  Q 549.28 605.87 553.24 612.33
  Z
  M 516.38 605.37
  Q 512.31 605.38 508.31 606.15
  C 486.62 610.32 470.18 614.02 450.60 617.27
  Q 430.56 620.59 419.20 622.54
  Q 418.85 622.60 416.41 623.28
  A 0.41 0.41 0.0 0 0 416.50 624.08
  Q 418.83 624.21 422.21 623.68
  Q 435.51 621.61 452.08 619.12
  C 463.05 617.47 471.33 615.59 484.61 612.78
  C 494.61 610.67 505.74 607.73 516.38 605.37
  Z"
/>
<path fill="#1e51a4" d="
  M 850.81 601.33
  Q 856.57 601.67 857.99 601.89
  Q 871.06 603.90 882.93 610.28
  C 893.64 616.04 903.90 626.25 904.09 638.99
  C 904.22 647.30 899.05 654.54 892.38 659.40
  C 879.56 668.75 862.34 671.81 846.65 670.87
  C 830.97 669.93 814.24 664.84 802.62 654.04
  C 796.57 648.42 792.30 640.61 793.42 632.38
  C 795.13 619.75 806.53 610.84 817.85 606.39
  Q 830.39 601.47 843.61 601.03
  Q 845.05 600.98 850.81 601.33
  Z
  M 837.22 609.09
  A 1.26 1.26 0.0 0 0 835.97 609.59
  L 806.64 650.27
  A 1.26 1.26 0.0 0 0 807.43 652.25
  L 819.70 654.48
  A 1.26 1.26 0.0 0 0 820.95 653.98
  L 825.74 647.32
  A 1.26 1.26 0.0 0 1 826.99 646.82
  L 846.46 650.37
  A 1.26 1.26 0.0 0 1 847.49 651.61
  L 847.49 657.63
  A 1.26 1.26 0.0 0 0 848.52 658.87
  L 862.33 661.39
  A 1.26 1.26 0.0 0 0 863.78 659.84
  L 851.93 612.52
  A 1.26 1.26 0.0 0 0 850.93 611.58
  L 837.22 609.09
  Z
  M 877.16 623.05
  Q 873.96 616.13 867.00 616.72
  C 864.53 616.92 863.30 618.42 862.02 620.53
  Q 858.44 626.43 861.15 631.84
  Q 863.67 636.87 868.97 642.55
  C 870.81 644.53 871.99 646.42 873.58 648.86
  A 1.46 1.46 0.0 0 0 875.65 649.26
  Q 885.08 642.61 889.69 638.98
  C 893.14 636.26 896.10 630.21 894.03 625.75
  C 890.84 618.87 883.46 617.17 878.13 623.19
  A 0.59 0.59 0.0 0 1 877.16 623.05
  Z"
/>
<path fill="#061027" d="
  M 710.80 684.15
  A 0.44 0.44 0.0 0 1 710.54 684.70
  L 710.53 684.70
  A 0.41 0.40 -23.2 0 1 710.01 684.50
  Q 706.61 677.23 706.64 669.50
  C 706.66 661.65 706.78 654.06 706.22 645.28
  C 705.42 632.92 705.11 621.76 708.85 610.87
  C 709.79 608.14 709.94 605.66 710.80 603.21
  A 0.49 0.49 0.0 0 1 711.75 603.44
  Q 710.90 609.95 710.69 611.48
  Q 710.01 616.50 710.06 619.52
  Q 710.46 640.74 709.32 662.16
  Q 709.07 666.81 709.37 670.83
  C 709.57 673.50 709.44 679.99 710.80 684.15
  Z"
/>
<path fill="#123680" d="
  M 516.38 605.37
  C 505.74 607.73 494.61 610.67 484.61 612.78
  C 471.33 615.59 463.05 617.47 452.08 619.12
  Q 435.51 621.61 422.21 623.68
  Q 418.83 624.21 416.50 624.08
  A 0.41 0.41 0.0 0 1 416.41 623.28
  Q 418.85 622.60 419.20 622.54
  Q 430.56 620.59 450.60 617.27
  C 470.18 614.02 486.62 610.32 508.31 606.15
  Q 512.31 605.38 516.38 605.37
  Z"
/>
<path fill="#1e51a4" d="
  M 547.44 625.45
  Q 550.00 622.84 552.38 620.63
  Q 555.46 617.77 554.89 612.04
  L 571.16 607.55
  A 1.48 1.48 0.0 0 1 572.94 609.49
  Q 572.61 610.38 571.61 611.35
  Q 561.13 621.41 547.44 625.45
  Z"
/>
<path fill="#1e51a4" d="
  M 279.40 609.19
  Q 278.90 612.63 279.50 614.24
  Q 279.19 617.85 279.81 620.22
  C 283.49 634.08 290.54 646.15 301.13 655.70
  Q 307.04 661.03 310.66 663.58
  Q 320.00 670.16 333.79 674.95
  Q 348.27 679.98 364.25 678.93
  Q 370.33 678.53 376.49 678.15
  Q 374.92 678.53 373.73 679.37
  A 0.47 0.46 28.2 0 0 373.99 680.21
  C 384.00 680.60 390.94 679.00 403.75 676.71
  C 409.59 675.66 414.76 673.82 420.76 672.52
  Q 454.11 665.29 465.35 661.60
  Q 474.82 658.50 478.62 657.59
  C 486.44 655.74 494.53 652.43 501.02 650.14
  C 505.55 648.53 508.99 647.92 513.54 647.87
  A 0.58 0.58 0.0 0 1 513.80 648.98
  L 497.85 656.82
  A 3.78 3.77 -9.0 0 0 495.77 659.68
  L 495.76 659.78
  A 1.70 1.70 0.0 0 0 497.87 661.62
  Q 517.68 656.62 543.18 649.17
  Q 547.35 647.95 551.56 648.90
  A 1.36 1.36 0.0 0 1 552.52 650.75
  Q 549.09 658.97 542.87 665.55
  A 2.19 2.07 74.3 0 0 542.36 666.52
  C 540.48 675.18 540.61 679.94 547.10 686.26
  A 1.39 1.37 -23.2 0 0 548.12 686.66
  C 556.26 686.47 561.87 683.87 571.20 680.50
  A 0.49 0.49 0.0 0 1 571.84 680.83
  C 574.98 692.50 577.93 705.88 564.63 712.34
  Q 561.56 713.52 559.22 713.09
  Q 545.25 715.90 531.39 718.60
  Q 528.50 719.16 526.20 719.99
  Q 523.68 720.89 521.19 721.94
  Q 498.31 727.41 489.25 729.22
  Q 477.29 731.61 463.04 731.40
  Q 462.46 730.99 461.54 731.29
  L 459.04 730.92
  Q 458.62 730.70 458.05 730.78
  C 445.61 728.87 435.16 722.08 426.01 714.24
  Q 420.62 709.61 411.47 701.78
  C 400.74 692.60 386.53 686.49 372.82 682.29
  A 9.48 9.41 -37.1 0 0 369.81 681.88
  Q 360.00 682.12 352.30 681.58
  Q 345.16 681.09 336.21 678.30
  Q 323.96 674.48 307.76 664.99
  L 294.39 652.80
  Q 291.58 648.99 288.83 645.21
  C 282.24 636.13 276.76 623.95 277.41 612.49
  L 279.40 609.19
  Z
  M 412.05 697.84
  C 413.77 701.97 417.17 704.13 421.40 707.12
  Q 421.62 707.28 432.37 715.96
  Q 438.31 720.76 445.91 722.89
  C 453.07 724.90 459.06 724.11 465.94 722.01
  C 469.75 720.85 475.31 718.58 478.48 717.09
  Q 494.56 709.50 500.33 707.14
  Q 507.40 704.24 512.42 700.91
  C 520.48 695.56 524.68 693.02 530.04 687.62
  A 0.56 0.56 0.0 0 0 529.64 686.67
  Q 523.90 686.72 518.39 689.18
  Q 510.50 692.71 501.35 695.96
  A 0.21 0.20 -73.2 0 1 501.16 695.60
  C 503.08 694.14 506.38 692.06 508.69 690.90
  Q 521.53 684.43 532.49 675.48
  Q 536.09 672.54 538.83 668.84
  A 0.71 0.70 28.3 0 0 538.50 667.76
  Q 511.37 657.72 483.14 665.71
  C 474.42 668.18 466.53 671.94 457.78 674.85
  Q 440.22 680.67 422.65 690.40
  Q 417.68 693.15 412.27 697.07
  A 0.65 0.65 0.0 0 0 412.05 697.84
  Z"
/>
<path fill="#ffffff" d="
  M 837.22 609.09
  L 850.93 611.58
  A 1.26 1.26 0.0 0 1 851.93 612.52
  L 863.78 659.84
  A 1.26 1.26 0.0 0 1 862.33 661.39
  L 848.52 658.87
  A 1.26 1.26 0.0 0 1 847.49 657.63
  L 847.49 651.61
  A 1.26 1.26 0.0 0 0 846.46 650.37
  L 826.99 646.82
  A 1.26 1.26 0.0 0 0 825.74 647.32
  L 820.95 653.98
  A 1.26 1.26 0.0 0 1 819.70 654.48
  L 807.43 652.25
  A 1.26 1.26 0.0 0 1 806.64 650.27
  L 835.97 609.59
  A 1.26 1.26 0.0 0 1 837.22 609.09
  Z
  M 832.82 636.29
  A 0.89 0.89 0.0 0 0 833.41 637.63
  L 843.22 639.45
  A 0.89 0.89 0.0 0 0 844.26 638.41
  L 841.75 624.59
  A 0.89 0.89 0.0 0 0 840.11 624.29
  L 832.82 636.29
  Z"
/>
<path fill="#2163b9" d="
  M 554.89 612.04
  Q 555.46 617.77 552.38 620.63
  Q 550.00 622.84 547.44 625.45
  Q 536.95 631.02 526.13 636.64
  Q 512.28 643.84 497.48 648.22
  C 489.79 650.49 484.18 652.74 477.69 654.92
  C 471.69 656.94 464.78 658.28 458.29 659.98
  C 466.61 655.82 473.08 651.44 482.22 645.20
  Q 484.07 643.94 485.59 642.34
  A 2.00 2.00 0.0 0 0 485.43 639.44
  C 483.54 637.83 478.39 637.84 474.42 637.49
  Q 469.80 637.07 466.57 637.04
  Q 442.11 636.75 438.01 636.53
  Q 431.84 636.19 426.84 636.38
  C 422.66 636.53 417.93 635.88 413.47 635.61
  Q 421.71 635.36 429.74 633.62
  Q 441.00 631.17 441.69 631.06
  Q 450.81 629.52 453.79 629.28
  Q 465.34 628.31 466.78 628.06
  Q 491.71 623.67 517.95 619.54
  C 529.66 617.69 541.54 614.98 553.24 612.33
  L 554.89 612.04
  Z"
/>
<path fill="#4096de" d="
  M 350.29 626.64
  Q 355.84 630.38 363.81 631.40
  Q 390.72 634.85 413.47 635.61
  C 417.93 635.88 422.66 636.53 426.84 636.38
  Q 431.84 636.19 438.01 636.53
  Q 442.11 636.75 466.57 637.04
  Q 469.80 637.07 474.42 637.49
  C 478.39 637.84 483.54 637.83 485.43 639.44
  A 2.00 2.00 0.0 0 1 485.59 642.34
  Q 484.07 643.94 482.22 645.20
  C 473.08 651.44 466.61 655.82 458.29 659.98
  Q 437.83 666.30 426.98 668.48
  C 410.15 671.86 393.47 675.64 376.49 678.15
  Q 370.33 678.53 364.25 678.93
  Q 348.27 679.98 333.79 674.95
  Q 320.00 670.16 310.66 663.58
  Q 307.04 661.03 301.13 655.70
  C 290.54 646.15 283.49 634.08 279.81 620.22
  Q 279.19 617.85 279.50 614.24
  Q 291.25 611.33 303.48 613.15
  Q 320.03 615.61 336.99 622.76
  Q 342.43 625.05 350.29 626.64
  Z"
/>
<path fill="#ffffff" d="
  M 877.16 623.05
  A 0.59 0.59 0.0 0 0 878.13 623.19
  C 883.46 617.17 890.84 618.87 894.03 625.75
  C 896.10 630.21 893.14 636.26 889.69 638.98
  Q 885.08 642.61 875.65 649.26
  A 1.46 1.46 0.0 0 1 873.58 648.86
  C 871.99 646.42 870.81 644.53 868.97 642.55
  Q 863.67 636.87 861.15 631.84
  Q 858.44 626.43 862.02 620.53
  C 863.30 618.42 864.53 616.92 867.00 616.72
  Q 873.96 616.13 877.16 623.05
  Z"
/>
<path fill="#1e51a4" d="
  M 832.82 636.29
  L 840.11 624.29
  A 0.89 0.89 0.0 0 1 841.75 624.59
  L 844.26 638.41
  A 0.89 0.89 0.0 0 1 843.22 639.45
  L 833.41 637.63
  A 0.89 0.89 0.0 0 1 832.82 636.29
  Z"
/>
<path fill="#c0e2f9" d="
  M 194.87 664.40
  A 0.40 0.40 0.0 0 1 194.73 663.63
  Q 204.43 659.54 213.61 654.98
  Q 222.83 650.39 232.54 646.45
  Q 255.33 637.20 262.21 634.71
  C 264.48 633.89 267.96 632.83 269.57 634.24
  A 1.48 1.35 -41.5 0 1 269.33 636.44
  Q 266.19 638.70 262.22 640.25
  C 251.87 644.28 244.20 647.32 233.75 650.95
  Q 209.44 659.40 198.02 664.05
  Q 196.90 664.50 194.87 664.40
  Z"
/>
<path fill="#c0e2f9" d="
  M 294.39 652.80
  L 307.76 664.99
  C 296.87 671.88 285.53 675.25 273.49 680.20
  Q 238.13 694.73 213.62 702.34
  C 200.90 706.29 178.23 713.59 160.93 718.30
  C 145.49 722.50 130.20 728.00 115.06 731.93
  Q 114.33 732.13 93.38 738.04
  C 85.33 740.31 77.75 743.15 70.51 744.79
  A 0.08 0.08 0.0 0 1 70.44 744.64
  Q 72.08 743.45 75.14 742.13
  C 85.42 737.69 93.27 733.81 102.64 730.07
  Q 114.67 725.27 130.80 717.56
  Q 146.19 710.20 153.03 707.42
  C 162.82 703.44 171.06 699.56 182.96 694.53
  Q 183.96 694.11 232.87 675.13
  C 247.45 669.47 261.58 665.47 275.91 659.89
  Q 284.79 656.43 294.39 652.80
  Z"
/>
<path fill="#2163b9" d="
  M 412.27 697.07
  Q 417.68 693.15 422.65 690.40
  Q 440.22 680.67 457.78 674.85
  C 466.53 671.94 474.42 668.18 483.14 665.71
  Q 511.37 657.72 538.50 667.76
  A 0.71 0.70 28.3 0 1 538.83 668.84
  Q 536.09 672.54 532.49 675.48
  Q 521.53 684.43 508.69 690.90
  C 506.38 692.06 503.08 694.14 501.16 695.60
  A 0.21 0.20 -73.2 0 0 501.35 695.96
  Q 510.50 692.71 518.39 689.18
  Q 523.90 686.72 529.64 686.67
  A 0.56 0.56 0.0 0 1 530.04 687.62
  C 524.68 693.02 520.48 695.56 512.42 700.91
  Q 507.40 704.24 500.33 707.14
  Q 494.56 709.50 478.48 717.09
  C 475.31 718.58 469.75 720.85 465.94 722.01
  C 459.06 724.11 453.07 724.90 445.91 722.89
  Q 438.31 720.76 432.37 715.96
  Q 421.62 707.28 421.40 707.12
  C 417.17 704.13 413.77 701.97 412.05 697.84
  A 0.65 0.65 0.0 0 1 412.27 697.07
  Z"
/>
<path fill="#58a8e5" d="
  M 650.98 681.62
  Q 652.82 696.94 660.48 709.49
  Q 667.24 720.55 673.86 731.67
  Q 678.50 739.44 684.31 747.38
  Q 672.51 746.19 661.82 742.00
  Q 656.92 740.08 652.86 736.96
  A 0.45 0.45 0.0 0 0 652.14 737.36
  L 652.21 738.02
  Q 645.21 727.37 639.36 716.09
  Q 637.46 712.43 635.97 708.03
  C 633.67 701.21 636.87 692.89 640.16 686.44
  Q 642.08 682.67 644.55 681.10
  Q 647.94 678.96 650.98 681.62
  Z"
/>
<path fill="#ffffff" d="
  M 149.33 759.16
  Q 166.88 749.78 179.22 744.08
  C 198.78 735.05 213.74 726.80 230.47 719.51
  C 252.88 709.73 275.51 699.72 299.04 690.80
  Q 319.72 682.97 323.93 681.16
  C 328.47 679.21 333.64 681.41 335.19 686.31
  C 336.24 689.65 336.27 694.09 332.85 696.09
  Q 328.03 698.91 322.90 700.90
  Q 322.45 701.07 295.74 710.62
  Q 285.69 714.22 268.31 719.68
  Q 253.40 724.37 232.61 731.85
  C 219.66 736.50 205.54 740.46 191.94 745.35
  Q 173.46 752.00 154.40 758.38
  Q 151.85 759.23 149.39 759.37
  A 0.11 0.11 0.0 0 1 149.33 759.16
  Z"
/>
<path fill="#123680" d="
  M 844.57 710.54
  Q 843.30 712.55 842.23 714.62
  Q 837.36 724.04 827.68 739.69
  C 817.77 755.73 806.33 772.34 792.34 785.83
  Q 781.61 796.16 770.72 801.99
  Q 767.71 803.60 764.44 804.18
  A 3.99 3.98 66.8 0 1 760.52 802.61
  L 757.21 798.06
  L 761.06 800.51
  A 3.73 3.70 62.6 0 0 762.87 801.09
  Q 766.62 801.31 769.49 799.99
  Q 777.45 796.34 784.04 790.28
  Q 801.65 774.08 814.11 755.12
  Q 821.18 744.35 826.05 735.96
  A 2.14 0.52 -35.5 0 1 826.69 735.22
  C 827.72 734.26 827.89 732.36 828.97 731.24
  A 0.59 0.43 -87.5 0 0 829.09 731.09
  L 840.92 711.92
  Q 841.48 710.96 844.57 710.54
  Z"
/>
<path fill="#4096de" d="
  M 840.92 711.92
  L 829.09 731.09
  A 0.59 0.43 -87.5 0 1 828.97 731.24
  C 827.89 732.36 827.72 734.26 826.69 735.22
  A 2.14 0.52 -35.5 0 0 826.05 735.96
  Q 821.18 744.35 814.11 755.12
  Q 801.65 774.08 784.04 790.28
  Q 777.45 796.34 769.49 799.99
  Q 766.62 801.31 762.87 801.09
  A 3.73 3.70 62.6 0 1 761.06 800.51
  L 757.21 798.06
  L 752.25 793.05
  Q 767.74 784.56 782.05 774.61
  C 786.17 771.75 789.40 768.02 793.44 764.76
  Q 795.36 763.21 797.40 760.67
  Q 800.43 756.88 805.16 752.09
  Q 808.59 748.63 809.88 746.48
  Q 810.30 745.77 813.88 740.31
  Q 815.12 738.42 816.33 737.41
  A 2.34 2.27 86.6 0 0 816.89 736.76
  L 826.21 721.25
  Q 832.66 716.17 840.92 711.92
  Z"
/>
<path fill="#061027" d="
  M 559.22 713.09
  Q 555.98 714.64 551.44 715.43
  Q 545.10 716.53 521.19 721.94
  Q 523.68 720.89 526.20 719.99
  Q 528.50 719.16 531.39 718.60
  Q 545.25 715.90 559.22 713.09
  Z"
/>
<path fill="#1e51a4" d="
  M 826.21 721.25
  L 816.89 736.76
  A 2.34 2.27 86.6 0 1 816.33 737.41
  Q 815.12 738.42 813.88 740.31
  Q 810.30 745.77 809.88 746.48
  Q 808.59 748.63 805.16 752.09
  Q 800.43 756.88 797.40 760.67
  Q 795.36 763.21 793.44 764.76
  C 789.40 768.02 786.17 771.75 782.05 774.61
  Q 767.74 784.56 752.25 793.05
  L 744.58 792.07
  Q 751.67 784.42 758.58 776.98
  Q 764.25 770.87 767.75 765.91
  Q 775.41 755.06 784.34 745.11
  C 789.92 738.91 797.81 735.56 806.11 730.89
  Q 808.40 729.60 814.12 727.00
  Q 818.18 725.15 821.96 722.76
  Q 823.48 721.80 826.21 721.25
  Z"
/>
<path fill="#061027" d="
  M 459.04 730.92
  Q 458.47 730.97 458.05 730.78
  Q 458.62 730.70 459.04 730.92
  Z"
/>
<path fill="#061027" d="
  M 463.04 731.40
  Q 462.24 731.48 461.54 731.29
  Q 462.46 730.99 463.04 731.40
  Z"
/>
<path fill="#c0e2f9" d="
  M 684.31 747.38
  L 706.64 771.98
  Q 705.66 773.36 702.83 774.16
  Q 701.47 774.55 698.87 776.93
  A 4.50 4.46 8.4 0 1 698.11 777.49
  Q 696.79 778.26 692.78 781.07
  Q 690.51 782.66 688.46 784.46
  Q 685.97 783.44 685.15 782.59
  Q 677.62 774.77 670.72 766.18
  L 666.00 759.55
  Q 666.06 759.05 665.54 758.96
  Q 665.54 758.87 665.54 758.79
  Q 663.45 754.06 659.93 750.24
  Q 659.90 749.59 659.25 749.47
  L 658.25 747.94
  L 652.21 738.02
  L 652.14 737.36
  A 0.45 0.45 0.0 0 1 652.86 736.96
  Q 656.92 740.08 661.82 742.00
  Q 672.51 746.19 684.31 747.38
  Z"
/>
<path fill="#2163b9" d="
  M 659.93 750.24
  Q 659.84 750.29 659.76 750.33
  Q 659.43 749.95 659.25 749.47
  Q 659.90 749.59 659.93 750.24
  Z"
/>
<path fill="#123680" d="
  M 659.93 750.24
  Q 663.45 754.06 665.54 758.79
  L 659.76 750.33
  Q 659.84 750.29 659.93 750.24
  Z"
/>
<ellipse fill="#ffffff" cx="0.00" cy="0.00" transform="translate(223.08,770.99) rotate(-22.1)" rx="45.37" ry="1.97"/>
<path fill="#58a8e5" d="
  M 688.46 784.46
  Q 690.51 782.66 692.78 781.07
  Q 696.79 778.26 698.11 777.49
  A 4.50 4.46 8.4 0 0 698.87 776.93
  Q 701.47 774.55 702.83 774.16
  Q 705.66 773.36 706.64 771.98
  Q 716.42 772.45 726.63 770.66
  Q 736.41 768.95 748.92 765.19
  Q 760.18 761.80 769.94 755.11
  A 0.43 0.42 2.5 0 1 770.51 755.73
  Q 763.41 764.33 757.75 771.72
  Q 756.45 773.41 753.02 775.26
  Q 733.41 785.84 707.50 786.25
  Q 696.02 786.43 688.46 784.46
  Z"
/>
<path fill="#1e51a4" d="
  M 666.00 759.55
  L 665.54 758.96
  Q 666.06 759.05 666.00 759.55
  Z"
/>
<path fill="#123680" d="
  M 736.32 793.05
  C 735.40 792.46 733.47 791.89 733.04 793.28
  Q 732.79 794.06 733.17 795.04
  A 0.31 0.31 0.0 0 1 733.01 795.43
  L 732.78 795.55
  A 0.29 0.29 0.0 0 1 732.39 795.41
  Q 731.16 792.61 729.02 792.04
  Q 725.50 791.10 720.83 791.00
  A 2.36 2.31 -28.3 0 1 719.65 790.66
  L 715.43 788.15
  Q 722.09 788.29 724.93 787.40
  Q 730.25 785.74 735.39 784.70
  A 0.93 0.91 27.3 0 0 735.62 784.63
  L 747.76 779.69
  A 0.44 0.44 0.0 0 1 748.22 780.42
  L 740.42 787.45
  A 1.80 1.77 71.2 0 0 739.84 788.65
  Q 739.55 792.79 736.32 793.05
  Z"
/>
<path fill="#c0e2f9" d="
  M 93.64 846.27
  A 0.29 0.28 40.0 0 1 93.59 845.74
  C 97.33 843.88 103.39 840.46 108.53 838.25
  Q 143.95 822.97 187.53 807.01
  C 205.50 800.43 226.14 794.57 241.29 790.07
  C 246.79 788.44 254.18 786.12 259.01 788.69
  C 263.02 790.84 263.43 796.63 261.92 800.44
  Q 261.22 802.19 258.63 803.40
  Q 248.40 808.19 240.23 810.96
  Q 208.61 821.69 176.20 830.40
  Q 163.87 833.71 148.78 836.84
  C 137.84 839.12 128.82 842.14 118.25 843.58
  Q 107.63 845.04 97.88 846.40
  Q 95.34 846.75 93.64 846.27
  Z"
/>
<path fill="#c0e2f9" d="
  M 255.04 839.95
  A 0.22 0.22 0.0 0 1 254.99 839.53
  Q 269.79 832.50 276.41 829.12
  C 285.95 824.26 294.86 821.00 305.86 816.41
  C 314.22 812.94 321.33 808.98 329.36 805.48
  Q 345.75 798.34 361.93 791.90
  C 367.16 789.82 368.40 792.47 370.98 796.48
  Q 374.08 801.28 375.62 806.20
  A 0.80 0.80 0.0 0 1 374.92 807.23
  Q 369.23 807.67 362.76 807.33
  Q 360.18 807.20 356.45 808.44
  C 338.42 814.42 321.49 819.31 303.31 825.66
  C 288.57 830.80 272.70 836.27 258.03 839.81
  Q 256.37 840.21 255.04 839.95
  Z"
/>
<path fill="#c0e2f9" d="
  M 174.85 889.08
  Q 192.63 879.77 213.89 871.40
  C 225.41 866.87 240.26 861.23 254.31 855.11
  C 264.66 850.60 279.39 845.80 288.20 842.60
  Q 301.17 837.88 306.88 835.96
  Q 340.89 824.53 361.00 817.33
  Q 365.77 815.63 368.97 814.77
  C 376.46 812.76 386.37 809.05 393.86 811.44
  A 1.94 1.93 78.8 0 1 394.72 812.02
  Q 396.09 813.61 395.65 815.87
  A 1.66 1.63 -13.4 0 1 395.03 816.86
  C 387.58 822.64 377.37 827.33 367.93 830.61
  C 358.44 833.92 348.48 838.47 339.38 841.77
  Q 299.53 856.25 281.99 861.24
  C 258.73 867.87 243.43 872.61 223.57 877.46
  Q 194.07 884.67 191.27 885.32
  C 185.14 886.73 180.43 888.72 174.93 889.34
  A 0.14 0.14 0.0 0 1 174.85 889.08
  Z"
/>
<path fill="#58a8e5" d="
  M 251.67 841.28
  Q 251.90 841.05 252.10 841.11
  A 0.24 0.22 -36.9 0 1 252.01 841.55
  Q 251.89 841.57 251.71 841.49
  A 0.13 0.12 -56.2 0 1 251.67 841.28
  Z"
/>
</svg>
