<?xml version="1.0" encoding="UTF-8" standalone="no"?>
<!DOCTYPE svg PUBLIC "-//W3C//DTD SVG 1.1//EN" "http://www.w3.org/Graphics/SVG/1.1/DTD/svg11.dtd">
<svg xmlns="http://www.w3.org/2000/svg" version="1.1" viewBox="0.00 0.00 1280.00 1280.00">
<g stroke-width="2.00" fill="none" stroke-linecap="butt">
<path stroke="#121832" vector-effect="non-scaling-stroke" d="
  M 705.93 577.24
  Q 724.53 590.11 743.33 592.62
  Q 751.25 593.68 766.41 592.74
  C 771.01 592.45 775.12 591.17 780.23 590.23
  C 788.80 588.64 799.40 584.14 805.71 582.65
  C 812.55 581.05 816.53 578.78 823.45 576.39
  C 826.17 575.45 828.39 573.86 831.23 571.89
  A 13.77 13.52 -74.0 0 1 833.60 570.55
  C 834.84 569.99 836.54 569.25 837.57 568.98
  Q 854.57 564.57 870.96 556.86
  Q 876.54 554.24 878.79 552.71
  Q 896.94 540.39 908.62 527.87
  Q 917.44 518.40 921.28 512.56
  Q 921.63 512.03 924.65 507.10
  Q 926.93 503.39 927.91 501.55
  Q 936.67 485.24 941.68 470.74
  Q 945.33 460.17 946.46 447.01
  Q 946.72 443.95 946.60 428.80
  Q 946.57 424.13 946.18 422.03
  C 945.31 417.29 945.14 412.68 943.71 407.90
  C 941.21 399.52 937.38 392.08 932.90 384.66
  A 1.73 1.73 0.0 0 0 931.01 383.88
  L 920.48 386.43"
/>
<path stroke="#1b2340" vector-effect="non-scaling-stroke" d="
  M 920.48 386.43
  Q 916.74 384.14 913.91 383.63
  C 908.39 382.62 903.64 382.14 901.72 376.38
  A 0.90 0.88 55.4 0 1 901.87 375.53
  Q 903.37 373.72 903.91 370.51
  Q 905.39 361.80 899.03 356.19
  Q 891.12 349.21 881.98 346.50
  Q 880.17 345.96 871.33 343.53
  Q 865.07 341.80 860.51 341.78
  C 842.81 341.68 823.78 351.06 810.51 362.02
  Q 804.24 367.20 800.25 372.27
  C 789.82 385.49 776.40 395.46 759.82 399.83
  Q 747.84 402.99 737.87 403.40
  C 728.89 403.78 722.22 402.46 713.83 399.90
  Q 699.60 395.57 696.65 395.19
  Q 684.03 393.55 673.20 399.52
  C 670.96 400.76 668.86 402.50 666.61 403.87
  Q 664.97 404.88 663.64 406.79
  Q 663.28 407.31 661.11 410.09
  Q 655.39 417.44 653.41 425.35
  Q 650.03 438.81 662.60 441.21
  A 3.05 3.03 -61.9 0 0 665.31 440.38
  L 669.70 435.99
  A 1.67 1.66 -33.1 0 0 670.08 434.21
  C 668.54 430.24 667.27 426.39 667.62 422.52
  C 668.67 410.88 679.27 403.66 690.53 404.45
  Q 698.66 405.02 705.89 408.49
  A 5.43 4.80 -21.9 0 0 706.79 408.81
  Q 719.86 412.07 725.08 412.58
  Q 734.69 413.51 745.39 413.11
  Q 756.80 412.67 765.44 410.18
  Q 784.86 404.57 799.29 391.77
  C 803.60 387.94 806.39 384.42 810.52 379.88
  A 1.74 1.40 -17.1 0 0 810.75 379.54
  Q 811.42 378.24 812.45 377.61
  A 4.30 3.95 2.4 0 0 813.35 376.85
  C 821.33 367.81 828.66 360.86 839.71 356.99
  C 851.49 352.87 862.47 352.06 875.25 351.78
  A 3.61 3.34 -34.4 0 1 876.48 351.96
  Q 882.22 353.84 887.56 357.46
  Q 889.44 358.73 890.49 360.35
  A 0.40 0.39 -0.8 0 1 889.95 360.90
  Q 879.33 354.51 867.28 354.89
  Q 856.62 355.23 849.37 359.25
  Q 845.69 361.28 842.91 362.42
  Q 836.85 364.88 836.25 365.12
  Q 831.31 367.05 826.90 370.37
  Q 820.57 375.13 815.27 381.27
  Q 812.37 384.63 803.88 395.63
  Q 802.24 397.76 796.13 402.96"
/>
<path stroke="#121832" vector-effect="non-scaling-stroke" d="
  M 796.13 402.96
  C 785.19 411.95 773.26 416.97 759.55 417.03
  Q 746.88 417.08 733.94 416.92
  A 0.40 0.40 0.0 0 0 733.74 417.67
  Q 742.20 422.39 750.97 425.39
  A 5.47 5.11 -32.2 0 0 752.38 425.66
  L 771.62 426.77
  A 0.34 0.34 0.0 0 1 771.68 427.44
  L 764.70 428.96"
/>
<path stroke="#1b2340" vector-effect="non-scaling-stroke" d="
  M 764.70 428.96
  C 754.09 429.01 747.04 426.32 736.56 423.11
  C 731.18 421.46 726.04 420.75 721.59 421.73
  Q 715.68 423.03 708.06 425.10
  A 0.37 0.37 0.0 0 0 708.09 425.82
  Q 709.73 426.13 711.72 425.96
  Q 718.87 425.32 724.40 427.61
  Q 734.92 431.95 741.63 434.39
  C 752.97 438.51 762.09 436.75 772.67 431.91
  C 777.84 429.55 785.44 428.03 788.61 426.60
  C 794.13 424.11 799.73 421.22 805.47 416.89
  C 811.72 412.18 814.74 409.95 819.02 405.30"
/>
<path stroke="#121832" vector-effect="non-scaling-stroke" d="
  M 819.02 405.30
  Q 820.67 403.63 822.47 402.80
  A 0.59 0.59 0.0 0 1 823.30 403.41
  L 822.98 405.82"
/>
<path stroke="#1b2340" vector-effect="non-scaling-stroke" d="
  M 822.98 405.82
  Q 820.19 409.38 816.60 412.35
  Q 808.34 419.22 797.19 425.64
  Q 792.37 428.42 785.91 430.37
  Q 778.83 432.51 774.20 434.18
  C 768.68 436.18 764.35 438.65 759.02 439.32
  Q 756.80 439.60 753.17 440.32
  Q 736.62 443.61 734.93 443.96
  Q 725.12 445.96 718.67 452.92
  Q 717.69 453.98 717.93 455.75
  A 1.82 1.79 19.3 0 0 718.43 456.77
  C 726.35 464.75 732.83 455.52 741.05 453.70
  Q 747.72 452.22 752.78 452.97
  C 764.15 454.65 770.34 456.10 779.17 455.11
  C 789.64 453.94 801.34 446.42 809.32 439.52"
/>
<path stroke="#121832" vector-effect="non-scaling-stroke" d="
  M 809.32 439.52
  Q 810.62 438.29 811.91 437.11
  Q 812.30 436.75 812.60 437.19
  Q 812.76 437.41 812.59 437.70
  C 804.94 451.00 792.58 459.32 776.88 460.55
  C 770.84 461.03 763.27 459.57 756.50 458.92
  Q 746.72 457.97 738.82 462.77
  C 729.33 468.53 721.72 478.62 709.63 471.37
  C 702.22 466.92 695.49 463.49 686.97 467.21
  Q 684.08 468.47 676.75 472.46
  C 669.96 476.15 662.35 474.19 655.79 470.74
  Q 653.60 469.59 651.99 467.80
  Q 643.44 458.26 641.24 455.97
  Q 635.58 450.06 627.83 449.07
  Q 621.35 448.24 613.07 452.03
  Q 604.37 456.02 597.56 462.28
  Q 590.47 468.81 587.91 472.52
  A 3.08 2.99 -2.2 0 1 587.29 473.17
  C 582.83 476.52 576.30 479.25 572.09 474.40
  A 1.90 1.73 18.8 0 1 571.71 473.71
  Q 569.87 467.41 571.81 459.33
  Q 572.34 457.10 570.67 456.15
  A 0.76 0.76 0.0 0 0 569.74 456.28
  Q 566.86 459.28 565.91 460.60
  Q 561.98 466.03 563.15 472.22
  C 564.56 479.71 573.04 488.40 581.26 484.57
  Q 592.90 479.17 604.39 469.40
  C 615.46 459.99 632.27 456.82 643.51 467.69
  Q 646.87 470.93 652.61 476.25
  A 6.45 6.14 80.1 0 0 653.69 477.05
  Q 664.72 483.40 677.04 478.20
  C 680.08 476.92 683.35 474.16 686.79 472.93
  Q 690.18 471.72 690.56 471.75
  Q 693.85 472.02 697.10 473.19
  C 702.21 475.04 706.23 479.65 711.27 481.82
  Q 719.01 485.17 727.59 483.28
  C 733.47 481.99 741.10 476.54 746.43 473.91
  Q 752.70 470.82 762.29 468.96
  C 768.11 467.84 776.88 468.52 782.80 467.08
  Q 792.11 464.81 799.09 458.09
  Q 811.14 446.50 821.53 435.02
  Q 823.64 432.69 833.94 425.80
  A 0.31 0.28 3.2 0 0 834.04 425.72
  L 838.14 421.40
  A 1.23 1.23 0.0 0 1 840.26 422.23
  C 840.31 428.38 836.68 435.30 835.11 440.14
  A 0.55 0.54 -71.9 0 0 835.45 440.82
  Q 836.03 441.01 836.54 440.62
  Q 839.45 438.38 843.04 434.98
  A 0.65 0.65 0.0 0 1 844.05 435.14
  C 846.27 439.22 849.79 442.19 852.95 445.50
  Q 854.54 447.16 858.18 449.39
  C 864.38 453.21 870.77 457.11 874.50 461.98
  C 877.86 466.38 877.09 470.55 875.90 476.14
  Q 874.32 483.59 871.71 488.69
  Q 869.15 493.68 869.14 495.07
  C 869.09 504.66 881.43 509.79 875.78 520.92
  C 873.89 524.64 866.15 533.53 861.75 534.60
  A 3.46 3.45 60.6 0 1 858.51 533.69
  L 856.63 531.80
  A 1.69 1.69 0.0 0 0 854.40 531.67
  Q 844.44 539.54 836.39 549.84
  Q 829.67 558.45 819.76 561.98
  Q 799.44 569.22 781.41 559.40
  C 778.19 557.65 772.38 553.23 767.97 552.47
  Q 759.43 551.00 744.48 548.75
  Q 742.99 548.52 732.92 545.64
  Q 729.56 544.68 726.07 542.69
  C 720.33 539.42 710.71 534.72 705.22 535.89
  A 0.84 0.84 0.0 0 0 704.75 537.25
  Q 706.57 539.42 709.27 540.66
  Q 726.88 548.73 743.68 557.51
  A 0.59 0.59 0.0 0 1 743.38 558.62
  Q 742.32 558.58 741.58 558.14"
/>
<path stroke="#121832" vector-effect="non-scaling-stroke" d="
  M 695.94 561.89
  L 693.55 562.79"
/>
<path stroke="#121832" vector-effect="non-scaling-stroke" d="
  M 547.68 493.04
  Q 546.20 500.31 548.03 505.87
  A 4.01 3.99 20.4 0 0 548.44 506.76
  Q 557.18 521.01 574.50 518.50
  Q 577.18 518.12 578.52 516.05
  Q 579.57 514.43 580.37 513.46
  Q 586.36 506.21 587.63 503.36
  Q 591.08 495.62 593.60 492.13
  Q 598.05 485.98 607.78 480.97
  A 0.46 0.46 0.0 0 0 608.00 480.41
  L 607.99 480.40
  A 0.52 0.51 -17.3 0 0 607.37 480.08
  Q 599.12 482.35 590.06 488.03
  Q 584.30 491.64 581.32 496.10
  C 576.90 502.70 572.52 507.78 564.76 507.81
  Q 552.67 507.85 551.21 495.71"
/>
<path stroke="#21294d" vector-effect="non-scaling-stroke" d="
  M 920.48 386.43
  L 920.87 389.46
  A 1.37 1.34 57.4 0 1 920.69 390.33
  Q 917.50 395.59 915.99 401.96
  A 1.00 1.00 0.0 0 1 914.25 402.38
  L 912.45 400.24
  A 2.39 2.36 -7.5 0 0 911.63 399.62
  C 902.73 395.59 895.17 393.77 885.32 393.61
  C 875.40 393.46 866.92 393.35 857.66 395.54
  C 850.23 397.30 846.03 397.93 841.20 400.54
  A 0.75 0.74 -21.7 0 1 840.12 400.08
  L 838.42 393.50
  A 0.99 0.98 60.9 0 1 838.68 392.57
  Q 841.85 389.37 848.78 384.59
  Q 849.87 383.85 850.32 382.11
  A 0.30 0.30 0.0 0 0 849.93 381.75
  Q 849.38 381.95 845.02 384.23
  Q 843.69 384.94 832.81 392.01
  A 0.23 0.22 -46.2 0 1 832.57 392.02
  L 832.24 391.84
  A 0.30 0.29 38.2 0 1 832.18 391.37
  Q 840.36 383.80 851.02 379.57
  C 856.17 377.53 862.39 377.21 868.24 376.08
  A 0.35 0.35 0.0 0 0 868.19 375.39
  C 857.38 374.83 848.91 378.01 839.61 382.96
  C 833.89 386.00 830.64 390.49 825.67 396.61
  Q 822.23 400.85 819.02 405.30"
/>
<path stroke="#21294d" vector-effect="non-scaling-stroke" d="
  M 764.70 428.96
  L 771.23 429.01
  A 1.01 1.01 0.0 0 0 772.06 428.60
  C 775.06 424.64 778.97 421.73 783.66 418.09
  C 785.59 416.59 788.65 413.72 789.57 412.27
  Q 793.99 405.28 796.13 402.96"
/>
<path stroke="#21294d" vector-effect="non-scaling-stroke" d="
  M 809.32 439.52
  C 815.44 431.21 819.63 422.43 822.72 412.56
  Q 824.26 407.61 826.36 402.96
  A 0.30 0.30 0.0 0 0 825.87 402.64
  L 822.98 405.82"
/>
<path stroke="#1b2340" vector-effect="non-scaling-stroke" d="
  M 911.80 361.56
  Q 912.63 364.03 912.72 368.18
  Q 912.72 368.51 912.87 368.79
  A 0.63 0.63 0.0 0 0 914.02 368.71
  Q 914.96 366.19 913.59 364.11
  A 1.45 1.41 30.8 0 1 913.36 363.24
  Q 913.42 362.11 913.14 361.43
  C 910.92 355.96 910.36 350.93 905.95 346.57
  Q 898.78 339.48 889.77 334.65
  Q 884.10 331.60 878.31 330.31
  Q 870.18 328.50 866.27 328.04
  Q 860.73 327.39 849.84 329.41
  Q 835.15 332.14 823.07 337.57
  Q 812.09 342.50 804.33 349.56
  Q 796.82 356.39 790.00 364.67
  C 785.17 370.54 780.07 375.31 774.85 378.87
  Q 767.83 383.65 758.08 382.38
  Q 755.49 382.04 754.42 380.81
  C 752.69 378.79 750.69 374.10 752.76 371.53
  Q 755.89 367.65 758.57 365.26
  A 0.74 0.73 33.0 0 0 758.30 364.01
  C 752.97 362.35 746.09 365.29 742.36 368.82
  Q 739.94 371.11 739.40 373.14
  C 737.61 379.84 738.23 385.72 743.12 390.63
  Q 746.70 394.22 752.76 394.39
  Q 772.82 394.96 786.58 381.11
  Q 792.18 375.47 800.79 367.05
  Q 816.57 351.63 837.44 344.22
  Q 844.68 341.64 852.81 339.26
  A 1.12 0.34 -28.2 0 1 852.96 339.23
  L 858.42 338.63
  A 3.55 3.55 0.0 0 1 859.26 338.63
  C 874.48 340.37 887.65 344.78 900.12 353.55
  C 902.07 354.92 905.46 358.29 906.45 360.46
  Q 908.55 365.11 908.41 368.00
  Q 908.23 371.94 908.54 374.62
  A 0.58 0.58 0.0 0 0 909.67 374.71
  L 911.00 370.01
  A 2.36 2.25 -37.9 0 0 911.10 369.34
  L 911.15 361.66
  A 0.33 0.33 0.0 0 1 911.80 361.56"
/>
<path stroke="#1b2340" vector-effect="non-scaling-stroke" d="
  M 887.88 331.34
  A 0.29 0.29 0.0 0 0 887.74 331.90
  Q 897.65 335.99 905.54 342.80
  Q 915.37 351.29 915.21 365.00
  A 0.92 0.92 0.0 0 0 916.94 365.45
  Q 917.56 364.32 917.84 361.93
  A 1.93 1.82 -26.6 0 1 918.14 361.11
  L 918.80 360.09
  A 2.20 2.14 -31.6 0 0 919.15 358.70
  Q 918.42 350.09 914.44 343.31
  Q 911.34 338.02 904.31 335.25
  Q 896.84 332.30 887.88 331.34"
/>
<path stroke="#1b2340" vector-effect="non-scaling-stroke" d="
  M 919.90 342.53
  A 0.37 0.37 0.0 0 0 919.50 343.11
  C 923.17 347.76 924.62 353.39 925.93 359.08
  Q 927.27 364.88 927.16 370.25
  A 0.69 0.69 0.0 0 0 928.52 370.46
  Q 930.40 364.16 931.25 356.66
  C 931.47 354.67 931.04 353.01 930.06 351.25
  Q 926.44 344.75 919.90 342.53"
/>
<path stroke="#1b2340" vector-effect="non-scaling-stroke" d="
  M 931.48 380.78
  C 936.05 373.65 938.16 365.28 933.97 357.53
  Q 933.76 357.14 933.35 357.15
  Q 932.87 357.16 932.83 357.61
  Q 931.79 368.92 929.62 380.03
  A 1.02 1.02 0.0 0 0 931.48 380.78"
/>
<path stroke="#1b2340" vector-effect="non-scaling-stroke" d="
  M 587.84 408.36
  A 0.20 0.20 0.0 0 0 587.62 408.06
  C 583.51 409.29 580.24 411.87 577.07 414.80
  Q 574.85 416.86 573.04 421.12
  C 570.42 427.32 574.06 435.30 578.11 440.26
  Q 585.94 449.85 598.44 448.35
  Q 600.83 448.06 602.98 446.98
  Q 614.26 441.36 616.47 440.43
  Q 625.29 436.76 636.47 437.32
  C 642.96 437.65 647.27 439.86 651.85 444.57
  Q 653.76 446.53 656.78 449.49
  C 662.72 455.33 671.26 452.48 677.21 448.26
  A 5.23 5.14 0.5 0 0 678.34 447.17
  Q 679.36 445.82 685.95 438.10
  Q 690.29 433.01 694.16 430.00
  Q 699.99 425.47 709.57 422.09
  Q 718.24 419.03 726.96 418.03
  A 0.68 0.67 -43.5 0 0 727.00 416.69
  Q 720.46 415.63 715.34 414.52
  C 703.68 411.99 693.80 412.64 684.48 420.41
  C 681.74 422.70 680.23 425.09 677.85 428.03
  A 6.09 5.21 82.2 0 0 677.22 429.01
  C 675.21 433.02 673.44 438.19 670.13 441.06
  Q 665.51 445.05 660.22 444.23
  C 653.99 443.26 651.58 438.61 649.36 433.30
  A 1.86 1.83 5.5 0 0 648.66 432.47
  C 642.26 428.43 636.82 428.99 629.18 429.19
  A 0.26 0.26 0.0 0 1 628.99 428.75
  L 629.28 428.46
  A 0.95 0.92 20.3 0 1 629.89 428.19
  Q 638.41 427.90 641.98 427.90
  C 644.53 427.91 647.06 428.62 648.97 428.93
  A 1.09 1.09 0.0 0 0 650.27 428.13
  L 652.23 420.20
  A 1.11 1.11 0.0 0 0 651.15 418.82
  Q 643.16 418.79 632.92 420.94
  Q 627.68 422.04 620.45 425.43
  Q 609.91 430.37 608.43 431.19
  C 606.67 432.16 604.26 432.84 602.25 433.71
  C 597.73 435.65 589.25 435.29 585.58 431.16
  Q 582.88 428.11 582.55 425.24
  Q 581.88 419.54 582.89 415.82
  C 583.82 412.36 586.15 410.85 587.84 408.36"
/>
<path stroke="#121832" vector-effect="non-scaling-stroke" d="
  M 685.59 451.70
  C 693.72 453.81 700.21 446.73 706.75 444.97
  Q 714.51 442.88 720.83 440.58
  A 0.82 0.82 0.0 0 0 721.02 439.14
  C 714.17 434.40 703.44 435.19 697.21 439.42
  C 692.67 442.51 688.22 445.78 685.05 450.23
  A 0.95 0.95 0.0 0 0 685.59 451.70"
/>
<path stroke="#1b2340" vector-effect="non-scaling-stroke" d="
  M 622.28 445.34
  Q 617.21 444.81 613.37 446.04
  A 5.52 5.52 0.0 0 0 612.00 446.69
  C 607.81 449.47 604.47 451.31 602.78 453.49
  A 0.33 0.33 0.0 0 0 603.22 453.97
  Q 612.17 448.21 622.32 445.98
  A 0.33 0.32 41.6 0 0 622.28 445.34"
/>
<path stroke="#1b2340" vector-effect="non-scaling-stroke" d="
  M 600.84 455.30
  A 0.21 0.21 0.0 0 0 600.45 455.16
  Q 600.23 455.52 600.22 455.55
  A 0.25 0.25 0.0 0 0 600.63 455.78
  Q 600.79 455.64 600.84 455.30"
/>
<path stroke="#121832" vector-effect="non-scaling-stroke" d="
  M 590.31 506.45
  Q 591.77 505.16 592.03 504.77
  C 596.07 498.63 600.73 494.89 608.34 490.31
  Q 623.12 481.42 637.83 491.07
  Q 639.78 492.35 648.49 498.50
  Q 657.60 504.94 668.91 503.05
  C 671.82 502.57 675.35 500.90 677.34 498.94
  A 0.45 0.45 0.0 0 0 676.99 498.17
  C 674.93 498.30 672.29 499.02 670.19 499.01
  C 656.02 498.93 647.00 487.39 636.17 481.37
  Q 624.63 474.95 611.72 479.33
  A 2.14 2.11 -78.1 0 0 610.80 479.94
  Q 609.70 481.18 609.07 481.57
  C 599.32 487.63 594.32 495.69 589.46 505.80
  A 0.55 0.55 0.0 0 0 590.31 506.45"
/>
<path stroke="#121832" vector-effect="non-scaling-stroke" d="
  M 797.48 482.06
  A 0.32 0.32 0.0 0 0 797.03 481.62
  C 787.62 488.67 778.29 489.29 766.91 488.98
  C 756.16 488.69 747.80 496.18 739.18 502.68
  C 731.85 508.22 720.53 509.03 712.66 505.78
  Q 703.64 502.06 703.29 501.95
  C 693.01 498.92 687.45 502.93 678.57 508.04
  Q 669.80 513.08 659.32 510.18
  Q 656.36 509.36 650.08 505.82
  A 0.22 0.22 0.0 0 0 649.81 505.86
  L 649.61 506.05
  A 0.32 0.31 -48.5 0 0 649.63 506.51
  C 659.19 514.51 670.74 515.98 681.91 510.67
  C 690.49 506.59 696.66 504.01 705.95 508.25
  C 713.28 511.60 722.82 516.11 731.35 514.52
  C 735.71 513.70 739.25 510.88 742.77 507.77
  C 746.65 504.33 753.61 495.48 761.74 492.73
  Q 765.51 491.45 770.60 491.21
  C 779.93 490.77 791.35 490.61 797.48 482.06"
/>
<path stroke="#121832" vector-effect="non-scaling-stroke" d="
  M 659.95 531.61
  C 654.70 531.42 646.65 531.32 641.41 529.02
  C 626.79 522.61 621.49 505.62 631.08 492.43
  A 0.89 0.89 0.0 0 0 630.12 491.05
  C 617.20 494.64 618.17 512.57 623.06 521.73
  C 625.96 527.16 629.93 532.44 635.63 534.16
  C 643.90 536.66 651.98 534.59 660.05 532.55
  A 0.48 0.48 0.0 0 0 659.95 531.61"
/>
<path stroke="#121832" vector-effect="non-scaling-stroke" d="
  M 771.85 543.22
  A 1.37 1.37 0.0 0 0 772.35 545.67
  Q 775.86 546.44 778.40 545.74
  Q 783.15 544.41 794.32 542.30
  Q 798.87 541.44 808.97 538.49
  C 820.24 535.20 830.68 529.80 837.69 520.75
  A 1.85 1.85 0.0 0 0 837.47 518.25
  Q 833.86 514.99 829.09 517.41
  C 821.86 521.08 815.74 524.36 808.78 526.36
  C 795.48 530.18 783.03 535.22 771.85 543.22"
/>
<path stroke="#121832" vector-effect="non-scaling-stroke" d="
  M 620.78 551.71
  Q 620.60 553.75 621.54 555.25"
/>
<path stroke="#121832" vector-effect="non-scaling-stroke" d="
  M 621.47 556.21
  Q 620.67 558.42 621.68 557.15"
/>
<path stroke="#121832" vector-effect="non-scaling-stroke" d="
  M 621.62 554.71
  L 621.54 555.25"
/>
<path stroke="#1b2340" vector-effect="non-scaling-stroke" d="
  M 858.45 363.89
  C 867.84 364.35 873.35 365.06 880.23 368.77
  Q 887.20 372.54 894.90 376.05
  A 0.67 0.66 -60.1 0 0 895.72 375.82
  Q 896.04 375.35 895.72 375.08
  Q 891.58 371.41 884.10 366.37
  Q 879.70 363.40 870.34 360.90
  C 866.83 359.97 860.50 360.43 858.24 363.42
  A 0.29 0.29 0.0 0 0 858.45 363.89"
/>
</g>
<path fill="#0c1225" d="
  M 705.93 577.24
  Q 724.53 590.11 743.33 592.62
  Q 751.25 593.68 766.41 592.74
  C 771.01 592.45 775.12 591.17 780.23 590.23
  C 788.80 588.64 799.40 584.14 805.71 582.65
  C 812.55 581.05 816.53 578.78 823.45 576.39
  C 826.17 575.45 828.39 573.86 831.23 571.89
  A 13.77 13.52 -74.0 0 1 833.60 570.55
  C 834.84 569.99 836.54 569.25 837.57 568.98
  Q 854.57 564.57 870.96 556.86
  Q 876.54 554.24 878.79 552.71
  Q 896.94 540.39 908.62 527.87
  Q 917.44 518.40 921.28 512.56
  Q 921.63 512.03 924.65 507.10
  Q 926.93 503.39 927.91 501.55
  Q 936.67 485.24 941.68 470.74
  Q 945.33 460.17 946.46 447.01
  Q 946.72 443.95 946.60 428.80
  Q 946.57 424.13 946.18 422.03
  C 945.31 417.29 945.14 412.68 943.71 407.90
  C 941.21 399.52 937.38 392.08 932.90 384.66
  A 1.73 1.73 0.0 0 0 931.01 383.88
  L 920.48 386.43
  Q 916.74 384.14 913.91 383.63
  C 908.39 382.62 903.64 382.14 901.72 376.38
  A 0.90 0.88 55.4 0 1 901.87 375.53
  Q 903.37 373.72 903.91 370.51
  Q 905.39 361.80 899.03 356.19
  Q 891.12 349.21 881.98 346.50
  Q 880.17 345.96 871.33 343.53
  Q 865.07 341.80 860.51 341.78
  C 842.81 341.68 823.78 351.06 810.51 362.02
  Q 804.24 367.20 800.25 372.27
  C 789.82 385.49 776.40 395.46 759.82 399.83
  Q 747.84 402.99 737.87 403.40
  C 728.89 403.78 722.22 402.46 713.83 399.90
  Q 699.60 395.57 696.65 395.19
  Q 684.03 393.55 673.20 399.52
  C 670.96 400.76 668.86 402.50 666.61 403.87
  Q 664.97 404.88 663.64 406.79
  Q 663.28 407.31 661.11 410.09
  Q 655.39 417.44 653.41 425.35
  Q 650.03 438.81 662.60 441.21
  A 3.05 3.03 -61.9 0 0 665.31 440.38
  L 669.70 435.99
  A 1.67 1.66 -33.1 0 0 670.08 434.21
  C 668.54 430.24 667.27 426.39 667.62 422.52
  C 668.67 410.88 679.27 403.66 690.53 404.45
  Q 698.66 405.02 705.89 408.49
  A 5.43 4.80 -21.9 0 0 706.79 408.81
  Q 719.86 412.07 725.08 412.58
  Q 734.69 413.51 745.39 413.11
  Q 756.80 412.67 765.44 410.18
  Q 784.86 404.57 799.29 391.77
  C 803.60 387.94 806.39 384.42 810.52 379.88
  A 1.74 1.40 -17.1 0 0 810.75 379.54
  Q 811.42 378.24 812.45 377.61
  A 4.30 3.95 2.4 0 0 813.35 376.85
  C 821.33 367.81 828.66 360.86 839.71 356.99
  C 851.49 352.87 862.47 352.06 875.25 351.78
  A 3.61 3.34 -34.4 0 1 876.48 351.96
  Q 882.22 353.84 887.56 357.46
  Q 889.44 358.73 890.49 360.35
  A 0.40 0.39 -0.8 0 1 889.95 360.90
  Q 879.33 354.51 867.28 354.89
  Q 856.62 355.23 849.37 359.25
  Q 845.69 361.28 842.91 362.42
  Q 836.85 364.88 836.25 365.12
  Q 831.31 367.05 826.90 370.37
  Q 820.57 375.13 815.27 381.27
  Q 812.37 384.63 803.88 395.63
  Q 802.24 397.76 796.13 402.96
  C 785.19 411.95 773.26 416.97 759.55 417.03
  Q 746.88 417.08 733.94 416.92
  A 0.40 0.40 0.0 0 0 733.74 417.67
  Q 742.20 422.39 750.97 425.39
  A 5.47 5.11 -32.2 0 0 752.38 425.66
  L 771.62 426.77
  A 0.34 0.34 0.0 0 1 771.68 427.44
  L 764.70 428.96
  C 754.09 429.01 747.04 426.32 736.56 423.11
  C 731.18 421.46 726.04 420.75 721.59 421.73
  Q 715.68 423.03 708.06 425.10
  A 0.37 0.37 0.0 0 0 708.09 425.82
  Q 709.73 426.13 711.72 425.96
  Q 718.87 425.32 724.40 427.61
  Q 734.92 431.95 741.63 434.39
  C 752.97 438.51 762.09 436.75 772.67 431.91
  C 777.84 429.55 785.44 428.03 788.61 426.60
  C 794.13 424.11 799.73 421.22 805.47 416.89
  C 811.72 412.18 814.74 409.95 819.02 405.30
  Q 820.67 403.63 822.47 402.80
  A 0.59 0.59 0.0 0 1 823.30 403.41
  L 822.98 405.82
  Q 820.19 409.38 816.60 412.35
  Q 808.34 419.22 797.19 425.64
  Q 792.37 428.42 785.91 430.37
  Q 778.83 432.51 774.20 434.18
  C 768.68 436.18 764.35 438.65 759.02 439.32
  Q 756.80 439.60 753.17 440.32
  Q 736.62 443.61 734.93 443.96
  Q 725.12 445.96 718.67 452.92
  Q 717.69 453.98 717.93 455.75
  A 1.82 1.79 19.3 0 0 718.43 456.77
  C 726.35 464.75 732.83 455.52 741.05 453.70
  Q 747.72 452.22 752.78 452.97
  C 764.15 454.65 770.34 456.10 779.17 455.11
  C 789.64 453.94 801.34 446.42 809.32 439.52
  Q 810.62 438.29 811.91 437.11
  Q 812.30 436.75 812.60 437.19
  Q 812.76 437.41 812.59 437.70
  C 804.94 451.00 792.58 459.32 776.88 460.55
  C 770.84 461.03 763.27 459.57 756.50 458.92
  Q 746.72 457.97 738.82 462.77
  C 729.33 468.53 721.72 478.62 709.63 471.37
  C 702.22 466.92 695.49 463.49 686.97 467.21
  Q 684.08 468.47 676.75 472.46
  C 669.96 476.15 662.35 474.19 655.79 470.74
  Q 653.60 469.59 651.99 467.80
  Q 643.44 458.26 641.24 455.97
  Q 635.58 450.06 627.83 449.07
  Q 621.35 448.24 613.07 452.03
  Q 604.37 456.02 597.56 462.28
  Q 590.47 468.81 587.91 472.52
  A 3.08 2.99 -2.2 0 1 587.29 473.17
  C 582.83 476.52 576.30 479.25 572.09 474.40
  A 1.90 1.73 18.8 0 1 571.71 473.71
  Q 569.87 467.41 571.81 459.33
  Q 572.34 457.10 570.67 456.15
  A 0.76 0.76 0.0 0 0 569.74 456.28
  Q 566.86 459.28 565.91 460.60
  Q 561.98 466.03 563.15 472.22
  C 564.56 479.71 573.04 488.40 581.26 484.57
  Q 592.90 479.17 604.39 469.40
  C 615.46 459.99 632.27 456.82 643.51 467.69
  Q 646.87 470.93 652.61 476.25
  A 6.45 6.14 80.1 0 0 653.69 477.05
  Q 664.72 483.40 677.04 478.20
  C 680.08 476.92 683.35 474.16 686.79 472.93
  Q 690.18 471.72 690.56 471.75
  Q 693.85 472.02 697.10 473.19
  C 702.21 475.04 706.23 479.65 711.27 481.82
  Q 719.01 485.17 727.59 483.28
  C 733.47 481.99 741.10 476.54 746.43 473.91
  Q 752.70 470.82 762.29 468.96
  C 768.11 467.84 776.88 468.52 782.80 467.08
  Q 792.11 464.81 799.09 458.09
  Q 811.14 446.50 821.53 435.02
  Q 823.64 432.69 833.94 425.80
  A 0.31 0.28 3.2 0 0 834.04 425.72
  L 838.14 421.40
  A 1.23 1.23 0.0 0 1 840.26 422.23
  C 840.31 428.38 836.68 435.30 835.11 440.14
  A 0.55 0.54 -71.9 0 0 835.45 440.82
  Q 836.03 441.01 836.54 440.62
  Q 839.45 438.38 843.04 434.98
  A 0.65 0.65 0.0 0 1 844.05 435.14
  C 846.27 439.22 849.79 442.19 852.95 445.50
  Q 854.54 447.16 858.18 449.39
  C 864.38 453.21 870.77 457.11 874.50 461.98
  C 877.86 466.38 877.09 470.55 875.90 476.14
  Q 874.32 483.59 871.71 488.69
  Q 869.15 493.68 869.14 495.07
  C 869.09 504.66 881.43 509.79 875.78 520.92
  C 873.89 524.64 866.15 533.53 861.75 534.60
  A 3.46 3.45 60.6 0 1 858.51 533.69
  L 856.63 531.80
  A 1.69 1.69 0.0 0 0 854.40 531.67
  Q 844.44 539.54 836.39 549.84
  Q 829.67 558.45 819.76 561.98
  Q 799.44 569.22 781.41 559.40
  C 778.19 557.65 772.38 553.23 767.97 552.47
  Q 759.43 551.00 744.48 548.75
  Q 742.99 548.52 732.92 545.64
  Q 729.56 544.68 726.07 542.69
  C 720.33 539.42 710.71 534.72 705.22 535.89
  A 0.84 0.84 0.0 0 0 704.75 537.25
  Q 706.57 539.42 709.27 540.66
  Q 726.88 548.73 743.68 557.51
  A 0.59 0.59 0.0 0 1 743.38 558.62
  Q 742.32 558.58 741.58 558.14
  Q 739.12 557.08 736.76 555.94
  Q 729.04 552.18 719.77 547.52
  Q 711.20 543.22 698.67 539.13
  Q 685.73 534.92 674.35 536.29
  Q 669.74 536.84 666.40 541.65
  A 1.63 1.60 59.1 0 0 666.12 542.81
  Q 666.36 544.46 667.88 545.49
  Q 676.04 550.96 681.23 554.10
  C 685.31 556.57 691.10 559.16 695.94 561.89
  L 693.55 562.79
  L 690.32 561.38
  A 0.57 0.57 0.0 0 0 689.58 561.65
  Q 687.68 565.52 682.96 568.49
  C 677.39 572.00 672.41 571.03 666.38 568.67
  Q 658.98 565.79 653.47 559.33
  Q 653.02 558.80 652.84 558.37
  Q 652.54 557.63 652.47 557.61
  A 0.37 0.36 -1.7 0 0 652.03 558.07
  Q 652.81 560.60 649.61 564.04
  Q 644.77 569.26 636.58 571.32
  C 629.44 573.11 624.98 570.85 618.76 567.82
  C 616.22 566.58 615.79 567.43 613.31 568.54
  Q 602.89 573.22 594.15 567.56
  C 590.14 564.96 587.42 560.78 585.41 556.63
  A 0.32 0.32 0.0 0 1 585.94 556.28
  C 592.32 563.40 605.37 565.16 610.08 554.86
  C 611.63 551.47 610.92 549.00 607.13 548.22
  C 600.32 546.83 596.66 543.44 595.88 536.11
  Q 595.55 533.07 596.53 531.59
  Q 601.68 523.78 610.67 522.18
  A 1.04 1.03 74.4 0 0 611.45 520.79
  L 607.71 511.08
  A 0.65 0.65 0.0 0 0 606.72 510.78
  C 603.69 512.97 601.12 515.05 598.38 518.10
  C 592.66 524.47 583.20 534.22 574.12 527.42
  A 0.93 0.93 0.0 0 1 574.94 525.79
  C 580.05 527.30 581.67 520.90 583.37 517.22
  A 0.64 0.64 0.0 0 0 582.39 516.46
  C 572.53 524.59 556.35 520.87 549.10 511.06
  Q 543.26 503.16 547.68 493.04
  Q 546.20 500.31 548.03 505.87
  A 4.01 3.99 20.4 0 0 548.44 506.76
  Q 557.18 521.01 574.50 518.50
  Q 577.18 518.12 578.52 516.05
  Q 579.57 514.43 580.37 513.46
  Q 586.36 506.21 587.63 503.36
  Q 591.08 495.62 593.60 492.13
  Q 598.05 485.98 607.78 480.97
  A 0.46 0.46 0.0 0 0 608.00 480.41
  L 607.99 480.40
  A 0.52 0.51 -17.3 0 0 607.37 480.08
  Q 599.12 482.35 590.06 488.03
  Q 584.30 491.64 581.32 496.10
  C 576.90 502.70 572.52 507.78 564.76 507.81
  Q 552.67 507.85 551.21 495.71
  C 554.60 506.46 566.28 508.44 573.56 500.04
  Q 577.36 495.65 580.08 490.39
  A 0.48 0.47 17.7 0 0 579.72 489.70
  Q 563.48 487.72 561.17 473.55
  C 560.11 467.03 562.25 461.53 566.66 456.90
  C 568.31 455.17 572.51 452.76 575.20 449.66
  A 2.62 2.61 -41.3 0 0 575.41 446.51
  C 571.54 440.64 567.77 434.15 568.30 427.26
  C 568.81 420.56 574.05 414.17 579.26 410.26
  C 585.84 405.32 598.46 401.49 603.81 410.45
  A 1.54 1.53 -37.8 0 1 603.57 412.31
  L 603.20 412.68
  A 0.61 0.60 -32.4 0 1 602.20 412.46
  Q 600.58 407.80 595.95 408.57
  Q 584.02 410.54 584.86 422.96
  Q 585.22 428.28 590.50 430.73
  C 595.04 432.83 600.52 431.78 605.47 429.34
  C 614.17 425.05 619.29 422.24 625.94 420.16
  A 0.52 0.52 0.0 0 0 626.23 419.39
  C 624.34 416.31 622.62 410.59 625.42 407.41
  Q 631.86 400.14 640.29 405.97
  Q 641.55 406.84 641.86 407.78
  A 0.51 0.51 0.0 0 1 641.25 408.43
  L 636.93 407.37
  A 2.82 2.82 0.0 0 0 633.46 410.45
  L 633.54 411.13
  A 4.39 4.39 0.0 0 0 637.65 414.99
  L 651.85 415.80
  A 2.29 2.28 19.4 0 0 653.83 414.86
  Q 657.68 409.46 657.69 409.44
  Q 670.89 392.76 693.12 392.30
  Q 694.19 392.28 701.04 393.64
  C 714.55 396.31 723.90 401.86 736.13 400.65
  Q 736.61 400.61 736.74 400.44
  A 0.41 0.41 0.0 0 0 736.48 399.79
  C 729.33 398.50 722.64 396.11 715.65 391.61
  C 709.63 387.72 705.00 384.17 698.26 382.94
  C 688.74 381.21 681.59 386.10 674.68 392.16
  Q 672.30 394.24 670.15 395.14
  A 0.43 0.43 0.0 0 1 669.56 394.76
  C 669.30 383.99 679.38 376.12 689.24 375.48
  C 699.96 374.80 706.02 379.44 714.18 386.47
  Q 719.70 391.24 723.04 392.90
  Q 733.98 398.35 746.39 397.69
  A 0.63 0.63 0.0 0 0 746.65 396.51
  C 739.20 392.59 734.07 385.30 735.94 376.61
  C 737.61 368.89 742.91 364.33 750.31 362.28
  C 757.74 360.23 765.81 360.55 771.24 366.56
  C 776.76 372.67 770.71 377.21 764.49 375.97
  Q 761.29 375.34 757.30 373.45
  Q 756.57 373.11 755.64 373.11
  A 1.11 1.10 -5.6 0 0 754.55 374.42
  Q 755.79 380.80 762.00 380.16
  Q 766.90 379.65 769.97 378.23
  C 777.30 374.83 782.99 368.14 788.89 361.40
  C 794.42 355.08 801.54 347.58 808.90 342.83
  Q 823.27 333.57 838.44 329.73
  Q 853.67 325.88 862.59 325.16
  Q 867.06 324.80 875.92 326.19
  Q 887.19 327.97 896.62 330.17
  Q 905.36 332.20 913.02 337.37
  A 15.10 15.08 -17.0 0 0 915.84 338.87
  Q 921.35 341.09 924.57 343.15
  C 929.03 346.01 930.99 349.33 935.08 355.16
  C 940.56 362.99 941.49 373.88 935.02 381.42
  A 1.22 1.21 -39.3 0 0 934.88 382.79
  C 941.31 394.43 946.38 407.63 947.86 421.10
  Q 950.00 440.58 946.11 461.64
  Q 945.05 467.38 942.90 473.16
  C 936.29 490.88 928.89 507.32 917.28 521.27
  Q 899.33 542.85 876.78 556.75
  Q 868.97 561.57 857.22 566.97
  Q 847.53 571.43 836.67 574.88
  Q 814.53 581.92 795.60 588.06
  C 781.33 592.70 768.05 595.40 755.50 595.32
  Q 741.86 595.24 727.63 590.62
  Q 714.93 586.49 705.93 577.24
  Z
  M 911.80 361.56
  Q 912.63 364.03 912.72 368.18
  Q 912.72 368.51 912.87 368.79
  A 0.63 0.63 0.0 0 0 914.02 368.71
  Q 914.96 366.19 913.59 364.11
  A 1.45 1.41 30.8 0 1 913.36 363.24
  Q 913.42 362.11 913.14 361.43
  C 910.92 355.96 910.36 350.93 905.95 346.57
  Q 898.78 339.48 889.77 334.65
  Q 884.10 331.60 878.31 330.31
  Q 870.18 328.50 866.27 328.04
  Q 860.73 327.39 849.84 329.41
  Q 835.15 332.14 823.07 337.57
  Q 812.09 342.50 804.33 349.56
  Q 796.82 356.39 790.00 364.67
  C 785.17 370.54 780.07 375.31 774.85 378.87
  Q 767.83 383.65 758.08 382.38
  Q 755.49 382.04 754.42 380.81
  C 752.69 378.79 750.69 374.10 752.76 371.53
  Q 755.89 367.65 758.57 365.26
  A 0.74 0.73 33.0 0 0 758.30 364.01
  C 752.97 362.35 746.09 365.29 742.36 368.82
  Q 739.94 371.11 739.40 373.14
  C 737.61 379.84 738.23 385.72 743.12 390.63
  Q 746.70 394.22 752.76 394.39
  Q 772.82 394.96 786.58 381.11
  Q 792.18 375.47 800.79 367.05
  Q 816.57 351.63 837.44 344.22
  Q 844.68 341.64 852.81 339.26
  A 1.12 0.34 -28.2 0 1 852.96 339.23
  L 858.42 338.63
  A 3.55 3.55 0.0 0 1 859.26 338.63
  C 874.48 340.37 887.65 344.78 900.12 353.55
  C 902.07 354.92 905.46 358.29 906.45 360.46
  Q 908.55 365.11 908.41 368.00
  Q 908.23 371.94 908.54 374.62
  A 0.58 0.58 0.0 0 0 909.67 374.71
  L 911.00 370.01
  A 2.36 2.25 -37.9 0 0 911.10 369.34
  L 911.15 361.66
  A 0.33 0.33 0.0 0 1 911.80 361.56
  Z
  M 887.88 331.34
  A 0.29 0.29 0.0 0 0 887.74 331.90
  Q 897.65 335.99 905.54 342.80
  Q 915.37 351.29 915.21 365.00
  A 0.92 0.92 0.0 0 0 916.94 365.45
  Q 917.56 364.32 917.84 361.93
  A 1.93 1.82 -26.6 0 1 918.14 361.11
  L 918.80 360.09
  A 2.20 2.14 -31.6 0 0 919.15 358.70
  Q 918.42 350.09 914.44 343.31
  Q 911.34 338.02 904.31 335.25
  Q 896.84 332.30 887.88 331.34
  Z
  M 919.90 342.53
  A 0.37 0.37 0.0 0 0 919.50 343.11
  C 923.17 347.76 924.62 353.39 925.93 359.08
  Q 927.27 364.88 927.16 370.25
  A 0.69 0.69 0.0 0 0 928.52 370.46
  Q 930.40 364.16 931.25 356.66
  C 931.47 354.67 931.04 353.01 930.06 351.25
  Q 926.44 344.75 919.90 342.53
  Z
  M 931.48 380.78
  C 936.05 373.65 938.16 365.28 933.97 357.53
  Q 933.76 357.14 933.35 357.15
  Q 932.87 357.16 932.83 357.61
  Q 931.79 368.92 929.62 380.03
  A 1.02 1.02 0.0 0 0 931.48 380.78
  Z
  M 587.84 408.36
  A 0.20 0.20 0.0 0 0 587.62 408.06
  C 583.51 409.29 580.24 411.87 577.07 414.80
  Q 574.85 416.86 573.04 421.12
  C 570.42 427.32 574.06 435.30 578.11 440.26
  Q 585.94 449.85 598.44 448.35
  Q 600.83 448.06 602.98 446.98
  Q 614.26 441.36 616.47 440.43
  Q 625.29 436.76 636.47 437.32
  C 642.96 437.65 647.27 439.86 651.85 444.57
  Q 653.76 446.53 656.78 449.49
  C 662.72 455.33 671.26 452.48 677.21 448.26
  A 5.23 5.14 0.5 0 0 678.34 447.17
  Q 679.36 445.82 685.95 438.10
  Q 690.29 433.01 694.16 430.00
  Q 699.99 425.47 709.57 422.09
  Q 718.24 419.03 726.96 418.03
  A 0.68 0.67 -43.5 0 0 727.00 416.69
  Q 720.46 415.63 715.34 414.52
  C 703.68 411.99 693.80 412.64 684.48 420.41
  C 681.74 422.70 680.23 425.09 677.85 428.03
  A 6.09 5.21 82.2 0 0 677.22 429.01
  C 675.21 433.02 673.44 438.19 670.13 441.06
  Q 665.51 445.05 660.22 444.23
  C 653.99 443.26 651.58 438.61 649.36 433.30
  A 1.86 1.83 5.5 0 0 648.66 432.47
  C 642.26 428.43 636.82 428.99 629.18 429.19
  A 0.26 0.26 0.0 0 1 628.99 428.75
  L 629.28 428.46
  A 0.95 0.92 20.3 0 1 629.89 428.19
  Q 638.41 427.90 641.98 427.90
  C 644.53 427.91 647.06 428.62 648.97 428.93
  A 1.09 1.09 0.0 0 0 650.27 428.13
  L 652.23 420.20
  A 1.11 1.11 0.0 0 0 651.15 418.82
  Q 643.16 418.79 632.92 420.94
  Q 627.68 422.04 620.45 425.43
  Q 609.91 430.37 608.43 431.19
  C 606.67 432.16 604.26 432.84 602.25 433.71
  C 597.73 435.65 589.25 435.29 585.58 431.16
  Q 582.88 428.11 582.55 425.24
  Q 581.88 419.54 582.89 415.82
  C 583.82 412.36 586.15 410.85 587.84 408.36
  Z
  M 697.28 410.09
  A 0.30 0.30 0.0 0 0 697.12 409.66
  Q 686.24 405.60 676.55 411.81
  Q 672.91 414.15 671.37 418.30
  A 1.55 1.55 0.0 0 0 672.06 420.18
  C 675.57 422.15 678.13 422.25 681.73 419.29
  Q 687.51 414.54 696.08 411.11
  Q 696.87 410.79 697.28 410.09
  Z
  M 685.59 451.70
  C 693.72 453.81 700.21 446.73 706.75 444.97
  Q 714.51 442.88 720.83 440.58
  A 0.82 0.82 0.0 0 0 721.02 439.14
  C 714.17 434.40 703.44 435.19 697.21 439.42
  C 692.67 442.51 688.22 445.78 685.05 450.23
  A 0.95 0.95 0.0 0 0 685.59 451.70
  Z
  M 622.28 445.34
  Q 617.21 444.81 613.37 446.04
  A 5.52 5.52 0.0 0 0 612.00 446.69
  C 607.81 449.47 604.47 451.31 602.78 453.49
  A 0.33 0.33 0.0 0 0 603.22 453.97
  Q 612.17 448.21 622.32 445.98
  A 0.33 0.32 41.6 0 0 622.28 445.34
  Z
  M 600.84 455.30
  A 0.21 0.21 0.0 0 0 600.45 455.16
  Q 600.23 455.52 600.22 455.55
  A 0.25 0.25 0.0 0 0 600.63 455.78
  Q 600.79 455.64 600.84 455.30
  Z
  M 575.63 461.68
  A 0.38 0.37 45.4 0 0 574.93 461.67
  C 573.35 465.94 570.26 474.99 578.65 474.68
  Q 583.05 474.52 586.40 470.55
  A 0.81 0.81 0.0 0 0 585.82 469.22
  C 583.29 469.08 581.30 469.37 579.62 468.28
  C 577.23 466.72 576.67 464.53 575.63 461.68
  Z
  M 590.31 506.45
  Q 591.77 505.16 592.03 504.77
  C 596.07 498.63 600.73 494.89 608.34 490.31
  Q 623.12 481.42 637.83 491.07
  Q 639.78 492.35 648.49 498.50
  Q 657.60 504.94 668.91 503.05
  C 671.82 502.57 675.35 500.90 677.34 498.94
  A 0.45 0.45 0.0 0 0 676.99 498.17
  C 674.93 498.30 672.29 499.02 670.19 499.01
  C 656.02 498.93 647.00 487.39 636.17 481.37
  Q 624.63 474.95 611.72 479.33
  A 2.14 2.11 -78.1 0 0 610.80 479.94
  Q 609.70 481.18 609.07 481.57
  C 599.32 487.63 594.32 495.69 589.46 505.80
  A 0.55 0.55 0.0 0 0 590.31 506.45
  Z
  M 797.48 482.06
  A 0.32 0.32 0.0 0 0 797.03 481.62
  C 787.62 488.67 778.29 489.29 766.91 488.98
  C 756.16 488.69 747.80 496.18 739.18 502.68
  C 731.85 508.22 720.53 509.03 712.66 505.78
  Q 703.64 502.06 703.29 501.95
  C 693.01 498.92 687.45 502.93 678.57 508.04
  Q 669.80 513.08 659.32 510.18
  Q 656.36 509.36 650.08 505.82
  A 0.22 0.22 0.0 0 0 649.81 505.86
  L 649.61 506.05
  A 0.32 0.31 -48.5 0 0 649.63 506.51
  C 659.19 514.51 670.74 515.98 681.91 510.67
  C 690.49 506.59 696.66 504.01 705.95 508.25
  C 713.28 511.60 722.82 516.11 731.35 514.52
  C 735.71 513.70 739.25 510.88 742.77 507.77
  C 746.65 504.33 753.61 495.48 761.74 492.73
  Q 765.51 491.45 770.60 491.21
  C 779.93 490.77 791.35 490.61 797.48 482.06
  Z
  M 659.95 531.61
  C 654.70 531.42 646.65 531.32 641.41 529.02
  C 626.79 522.61 621.49 505.62 631.08 492.43
  A 0.89 0.89 0.0 0 0 630.12 491.05
  C 617.20 494.64 618.17 512.57 623.06 521.73
  C 625.96 527.16 629.93 532.44 635.63 534.16
  C 643.90 536.66 651.98 534.59 660.05 532.55
  A 0.48 0.48 0.0 0 0 659.95 531.61
  Z
  M 771.85 543.22
  A 1.37 1.37 0.0 0 0 772.35 545.67
  Q 775.86 546.44 778.40 545.74
  Q 783.15 544.41 794.32 542.30
  Q 798.87 541.44 808.97 538.49
  C 820.24 535.20 830.68 529.80 837.69 520.75
  A 1.85 1.85 0.0 0 0 837.47 518.25
  Q 833.86 514.99 829.09 517.41
  C 821.86 521.08 815.74 524.36 808.78 526.36
  C 795.48 530.18 783.03 535.22 771.85 543.22
  Z
  M 620.78 551.71
  Q 620.60 553.75 621.54 555.25
  L 621.47 556.21
  Q 620.67 558.42 621.68 557.15
  L 622.16 560.00
  A 1.21 1.12 -42.8 0 1 622.12 560.52
  Q 621.70 561.95 622.04 563.25
  A 0.56 0.55 -24.0 0 0 622.89 563.57
  C 629.03 559.49 633.97 555.54 636.23 548.23
  A 1.13 1.13 0.0 0 0 635.10 546.77
  L 621.70 547.42
  A 2.25 1.73 41.3 0 1 621.25 547.39
  L 618.58 546.94
  A 0.63 0.63 0.0 0 0 618.06 548.05
  Q 620.02 549.61 620.78 551.71
  Z"
/>
<path fill="#2a335b" d="
  M 911.80 361.56
  A 0.33 0.33 0.0 0 0 911.15 361.66
  L 911.10 369.34
  A 2.36 2.25 -37.9 0 1 911.00 370.01
  L 909.67 374.71
  A 0.58 0.58 0.0 0 1 908.54 374.62
  Q 908.23 371.94 908.41 368.00
  Q 908.55 365.11 906.45 360.46
  C 905.46 358.29 902.07 354.92 900.12 353.55
  C 887.65 344.78 874.48 340.37 859.26 338.63
  A 3.55 3.55 0.0 0 0 858.42 338.63
  L 852.96 339.23
  A 1.12 0.34 -28.2 0 0 852.81 339.26
  Q 844.68 341.64 837.44 344.22
  Q 816.57 351.63 800.79 367.05
  Q 792.18 375.47 786.58 381.11
  Q 772.82 394.96 752.76 394.39
  Q 746.70 394.22 743.12 390.63
  C 738.23 385.72 737.61 379.84 739.40 373.14
  Q 739.94 371.11 742.36 368.82
  C 746.09 365.29 752.97 362.35 758.30 364.01
  A 0.74 0.73 33.0 0 1 758.57 365.26
  Q 755.89 367.65 752.76 371.53
  C 750.69 374.10 752.69 378.79 754.42 380.81
  Q 755.49 382.04 758.08 382.38
  Q 767.83 383.65 774.85 378.87
  C 780.07 375.31 785.17 370.54 790.00 364.67
  Q 796.82 356.39 804.33 349.56
  Q 812.09 342.50 823.07 337.57
  Q 835.15 332.14 849.84 329.41
  Q 860.73 327.39 866.27 328.04
  Q 870.18 328.50 878.31 330.31
  Q 884.10 331.60 889.77 334.65
  Q 898.78 339.48 905.95 346.57
  C 910.36 350.93 910.92 355.96 913.14 361.43
  Q 913.42 362.11 913.36 363.24
  A 1.45 1.41 30.8 0 0 913.59 364.11
  Q 914.96 366.19 914.02 368.71
  A 0.63 0.63 0.0 0 1 912.87 368.79
  Q 912.72 368.51 912.72 368.18
  Q 912.63 364.03 911.80 361.56
  Z"
/>
<path fill="#2a335b" d="
  M 887.88 331.34
  Q 896.84 332.30 904.31 335.25
  Q 911.34 338.02 914.44 343.31
  Q 918.42 350.09 919.15 358.70
  A 2.20 2.14 -31.6 0 1 918.80 360.09
  L 918.14 361.11
  A 1.93 1.82 -26.6 0 0 917.84 361.93
  Q 917.56 364.32 916.94 365.45
  A 0.92 0.92 0.0 0 1 915.21 365.00
  Q 915.37 351.29 905.54 342.80
  Q 897.65 335.99 887.74 331.90
  A 0.29 0.29 0.0 0 1 887.88 331.34
  Z"
/>
<path fill="#2a335b" d="
  M 920.48 386.43
  L 920.87 389.46
  A 1.37 1.34 57.4 0 1 920.69 390.33
  Q 917.50 395.59 915.99 401.96
  A 1.00 1.00 0.0 0 1 914.25 402.38
  L 912.45 400.24
  A 2.39 2.36 -7.5 0 0 911.63 399.62
  C 902.73 395.59 895.17 393.77 885.32 393.61
  C 875.40 393.46 866.92 393.35 857.66 395.54
  C 850.23 397.30 846.03 397.93 841.20 400.54
  A 0.75 0.74 -21.7 0 1 840.12 400.08
  L 838.42 393.50
  A 0.99 0.98 60.9 0 1 838.68 392.57
  Q 841.85 389.37 848.78 384.59
  Q 849.87 383.85 850.32 382.11
  A 0.30 0.30 0.0 0 0 849.93 381.75
  Q 849.38 381.95 845.02 384.23
  Q 843.69 384.94 832.81 392.01
  A 0.23 0.22 -46.2 0 1 832.57 392.02
  L 832.24 391.84
  A 0.30 0.29 38.2 0 1 832.18 391.37
  Q 840.36 383.80 851.02 379.57
  C 856.17 377.53 862.39 377.21 868.24 376.08
  A 0.35 0.35 0.0 0 0 868.19 375.39
  C 857.38 374.83 848.91 378.01 839.61 382.96
  C 833.89 386.00 830.64 390.49 825.67 396.61
  Q 822.23 400.85 819.02 405.30
  C 814.74 409.95 811.72 412.18 805.47 416.89
  C 799.73 421.22 794.13 424.11 788.61 426.60
  C 785.44 428.03 777.84 429.55 772.67 431.91
  C 762.09 436.75 752.97 438.51 741.63 434.39
  Q 734.92 431.95 724.40 427.61
  Q 718.87 425.32 711.72 425.96
  Q 709.73 426.13 708.09 425.82
  A 0.37 0.37 0.0 0 1 708.06 425.10
  Q 715.68 423.03 721.59 421.73
  C 726.04 420.75 731.18 421.46 736.56 423.11
  C 747.04 426.32 754.09 429.01 764.70 428.96
  L 771.23 429.01
  A 1.01 1.01 0.0 0 0 772.06 428.60
  C 775.06 424.64 778.97 421.73 783.66 418.09
  C 785.59 416.59 788.65 413.72 789.57 412.27
  Q 793.99 405.28 796.13 402.96
  Q 802.24 397.76 803.88 395.63
  Q 812.37 384.63 815.27 381.27
  Q 820.57 375.13 826.90 370.37
  Q 831.31 367.05 836.25 365.12
  Q 836.85 364.88 842.91 362.42
  Q 845.69 361.28 849.37 359.25
  Q 856.62 355.23 867.28 354.89
  Q 879.33 354.51 889.95 360.90
  A 0.40 0.39 -0.8 0 0 890.49 360.35
  Q 889.44 358.73 887.56 357.46
  Q 882.22 353.84 876.48 351.96
  A 3.61 3.34 -34.4 0 0 875.25 351.78
  C 862.47 352.06 851.49 352.87 839.71 356.99
  C 828.66 360.86 821.33 367.81 813.35 376.85
  A 4.30 3.95 2.4 0 1 812.45 377.61
  Q 811.42 378.24 810.75 379.54
  A 1.74 1.40 -17.1 0 1 810.52 379.88
  C 806.39 384.42 803.60 387.94 799.29 391.77
  Q 784.86 404.57 765.44 410.18
  Q 756.80 412.67 745.39 413.11
  Q 734.69 413.51 725.08 412.58
  Q 719.86 412.07 706.79 408.81
  A 5.43 4.80 -21.9 0 1 705.89 408.49
  Q 698.66 405.02 690.53 404.45
  C 679.27 403.66 668.67 410.88 667.62 422.52
  C 667.27 426.39 668.54 430.24 670.08 434.21
  A 1.67 1.66 -33.1 0 1 669.70 435.99
  L 665.31 440.38
  A 3.05 3.03 -61.9 0 1 662.60 441.21
  Q 650.03 438.81 653.41 425.35
  Q 655.39 417.44 661.11 410.09
  Q 663.28 407.31 663.64 406.79
  Q 664.97 404.88 666.61 403.87
  C 668.86 402.50 670.96 400.76 673.20 399.52
  Q 684.03 393.55 696.65 395.19
  Q 699.60 395.57 713.83 399.90
  C 722.22 402.46 728.89 403.78 737.87 403.40
  Q 747.84 402.99 759.82 399.83
  C 776.40 395.46 789.82 385.49 800.25 372.27
  Q 804.24 367.20 810.51 362.02
  C 823.78 351.06 842.81 341.68 860.51 341.78
  Q 865.07 341.80 871.33 343.53
  Q 880.17 345.96 881.98 346.50
  Q 891.12 349.21 899.03 356.19
  Q 905.39 361.80 903.91 370.51
  Q 903.37 373.72 901.87 375.53
  A 0.90 0.88 55.4 0 0 901.72 376.38
  C 903.64 382.14 908.39 382.62 913.91 383.63
  Q 916.74 384.14 920.48 386.43
  Z
  M 858.45 363.89
  C 867.84 364.35 873.35 365.06 880.23 368.77
  Q 887.20 372.54 894.90 376.05
  A 0.67 0.66 -60.1 0 0 895.72 375.82
  Q 896.04 375.35 895.72 375.08
  Q 891.58 371.41 884.10 366.37
  Q 879.70 363.40 870.34 360.90
  C 866.83 359.97 860.50 360.43 858.24 363.42
  A 0.29 0.29 0.0 0 0 858.45 363.89
  Z"
/>
<path fill="#2a335b" d="
  M 919.90 342.53
  Q 926.44 344.75 930.06 351.25
  C 931.04 353.01 931.47 354.67 931.25 356.66
  Q 930.40 364.16 928.52 370.46
  A 0.69 0.69 0.0 0 1 927.16 370.25
  Q 927.27 364.88 925.93 359.08
  C 924.62 353.39 923.17 347.76 919.50 343.11
  A 0.37 0.37 0.0 0 1 919.90 342.53
  Z"
/>
<path fill="#2a335b" d="
  M 931.48 380.78
  A 1.02 1.02 0.0 0 1 929.62 380.03
  Q 931.79 368.92 932.83 357.61
  Q 932.87 357.16 933.35 357.15
  Q 933.76 357.14 933.97 357.53
  C 938.16 365.28 936.05 373.65 931.48 380.78
  Z"
/>
<path fill="#0c1225" d="
  M 858.24 363.42
  C 860.50 360.43 866.83 359.97 870.34 360.90
  Q 879.70 363.40 884.10 366.37
  Q 891.58 371.41 895.72 375.08
  Q 896.04 375.35 895.72 375.82
  A 0.67 0.66 -60.1 0 1 894.90 376.05
  Q 887.20 372.54 880.23 368.77
  C 873.35 365.06 867.84 364.35 858.45 363.89
  A 0.29 0.29 0.0 0 1 858.24 363.42
  Z"
/>
<path fill="#171e3e" d="
  M 920.48 386.43
  L 931.01 383.88
  A 1.73 1.73 0.0 0 1 932.90 384.66
  C 937.38 392.08 941.21 399.52 943.71 407.90
  C 945.14 412.68 945.31 417.29 946.18 422.03
  Q 946.57 424.13 946.60 428.80
  Q 946.72 443.95 946.46 447.01
  Q 945.33 460.17 941.68 470.74
  Q 936.67 485.24 927.91 501.55
  Q 926.93 503.39 924.65 507.10
  Q 921.63 512.03 921.28 512.56
  Q 917.44 518.40 908.62 527.87
  Q 896.94 540.39 878.79 552.71
  Q 876.54 554.24 870.96 556.86
  Q 854.57 564.57 837.57 568.98
  C 836.54 569.25 834.84 569.99 833.60 570.55
  A 13.77 13.52 -74.0 0 0 831.23 571.89
  C 828.39 573.86 826.17 575.45 823.45 576.39
  C 816.53 578.78 812.55 581.05 805.71 582.65
  C 799.40 584.14 788.80 588.64 780.23 590.23
  C 775.12 591.17 771.01 592.45 766.41 592.74
  Q 751.25 593.68 743.33 592.62
  Q 724.53 590.11 705.93 577.24
  Q 703.54 576.74 702.27 574.22
  Q 700.73 571.15 699.14 568.13
  Q 697.92 565.82 693.55 562.79
  L 695.94 561.89
  Q 706.02 566.58 716.95 567.27
  A 11.39 11.36 39.9 0 0 720.46 566.96
  C 727.97 565.10 733.03 562.32 741.58 558.14
  Q 742.32 558.58 743.38 558.62
  A 0.59 0.59 0.0 0 0 743.68 557.51
  Q 726.88 548.73 709.27 540.66
  Q 706.57 539.42 704.75 537.25
  A 0.84 0.84 0.0 0 1 705.22 535.89
  C 710.71 534.72 720.33 539.42 726.07 542.69
  Q 729.56 544.68 732.92 545.64
  Q 742.99 548.52 744.48 548.75
  Q 759.43 551.00 767.97 552.47
  C 772.38 553.23 778.19 557.65 781.41 559.40
  Q 799.44 569.22 819.76 561.98
  Q 829.67 558.45 836.39 549.84
  Q 844.44 539.54 854.40 531.67
  A 1.69 1.69 0.0 0 1 856.63 531.80
  L 858.51 533.69
  A 3.46 3.45 60.6 0 0 861.75 534.60
  C 866.15 533.53 873.89 524.64 875.78 520.92
  C 881.43 509.79 869.09 504.66 869.14 495.07
  Q 869.15 493.68 871.71 488.69
  Q 874.32 483.59 875.90 476.14
  C 877.09 470.55 877.86 466.38 874.50 461.98
  C 870.77 457.11 864.38 453.21 858.18 449.39
  Q 854.54 447.16 852.95 445.50
  C 849.79 442.19 846.27 439.22 844.05 435.14
  A 0.65 0.65 0.0 0 0 843.04 434.98
  Q 839.45 438.38 836.54 440.62
  Q 836.03 441.01 835.45 440.82
  A 0.55 0.54 -71.9 0 1 835.11 440.14
  C 836.68 435.30 840.31 428.38 840.26 422.23
  A 1.23 1.23 0.0 0 0 838.14 421.40
  L 834.04 425.72
  A 0.31 0.28 3.2 0 1 833.94 425.80
  Q 823.64 432.69 821.53 435.02
  Q 811.14 446.50 799.09 458.09
  Q 792.11 464.81 782.80 467.08
  C 776.88 468.52 768.11 467.84 762.29 468.96
  Q 752.70 470.82 746.43 473.91
  C 741.10 476.54 733.47 481.99 727.59 483.28
  Q 719.01 485.17 711.27 481.82
  C 706.23 479.65 702.21 475.04 697.10 473.19
  Q 693.85 472.02 690.56 471.75
  Q 690.18 471.72 686.79 472.93
  C 683.35 474.16 680.08 476.92 677.04 478.20
  Q 664.72 483.40 653.69 477.05
  A 6.45 6.14 80.1 0 1 652.61 476.25
  Q 646.87 470.93 643.51 467.69
  C 632.27 456.82 615.46 459.99 604.39 469.40
  Q 592.90 479.17 581.26 484.57
  C 573.04 488.40 564.56 479.71 563.15 472.22
  Q 561.98 466.03 565.91 460.60
  Q 566.86 459.28 569.74 456.28
  A 0.76 0.76 0.0 0 1 570.67 456.15
  Q 572.34 457.10 571.81 459.33
  Q 569.87 467.41 571.71 473.71
  A 1.90 1.73 18.8 0 0 572.09 474.40
  C 576.30 479.25 582.83 476.52 587.29 473.17
  A 3.08 2.99 -2.2 0 0 587.91 472.52
  Q 590.47 468.81 597.56 462.28
  Q 604.37 456.02 613.07 452.03
  Q 621.35 448.24 627.83 449.07
  Q 635.58 450.06 641.24 455.97
  Q 643.44 458.26 651.99 467.80
  Q 653.60 469.59 655.79 470.74
  C 662.35 474.19 669.96 476.15 676.75 472.46
  Q 684.08 468.47 686.97 467.21
  C 695.49 463.49 702.22 466.92 709.63 471.37
  C 721.72 478.62 729.33 468.53 738.82 462.77
  Q 746.72 457.97 756.50 458.92
  C 763.27 459.57 770.84 461.03 776.88 460.55
  C 792.58 459.32 804.94 451.00 812.59 437.70
  Q 812.76 437.41 812.60 437.19
  Q 812.30 436.75 811.91 437.11
  Q 810.62 438.29 809.32 439.52
  C 815.44 431.21 819.63 422.43 822.72 412.56
  Q 824.26 407.61 826.36 402.96
  A 0.30 0.30 0.0 0 0 825.87 402.64
  L 822.98 405.82
  L 823.30 403.41
  A 0.59 0.59 0.0 0 0 822.47 402.80
  Q 820.67 403.63 819.02 405.30
  Q 822.23 400.85 825.67 396.61
  C 830.64 390.49 833.89 386.00 839.61 382.96
  C 848.91 378.01 857.38 374.83 868.19 375.39
  A 0.35 0.35 0.0 0 1 868.24 376.08
  C 862.39 377.21 856.17 377.53 851.02 379.57
  Q 840.36 383.80 832.18 391.37
  A 0.30 0.29 38.2 0 0 832.24 391.84
  L 832.57 392.02
  A 0.23 0.22 -46.2 0 0 832.81 392.01
  Q 843.69 384.94 845.02 384.23
  Q 849.38 381.95 849.93 381.75
  A 0.30 0.30 0.0 0 1 850.32 382.11
  Q 849.87 383.85 848.78 384.59
  Q 841.85 389.37 838.68 392.57
  A 0.99 0.98 60.9 0 0 838.42 393.50
  L 840.12 400.08
  A 0.75 0.74 -21.7 0 0 841.20 400.54
  C 846.03 397.93 850.23 397.30 857.66 395.54
  C 866.92 393.35 875.40 393.46 885.32 393.61
  C 895.17 393.77 902.73 395.59 911.63 399.62
  A 2.39 2.36 -7.5 0 1 912.45 400.24
  L 914.25 402.38
  A 1.00 1.00 0.0 0 0 915.99 401.96
  Q 917.50 395.59 920.69 390.33
  A 1.37 1.34 57.4 0 0 920.87 389.46
  L 920.48 386.43
  Z"
/>
<path fill="#2a335b" d="
  M 809.32 439.52
  C 801.34 446.42 789.64 453.94 779.17 455.11
  C 770.34 456.10 764.15 454.65 752.78 452.97
  Q 747.72 452.22 741.05 453.70
  C 732.83 455.52 726.35 464.75 718.43 456.77
  A 1.82 1.79 19.3 0 1 717.93 455.75
  Q 717.69 453.98 718.67 452.92
  Q 725.12 445.96 734.93 443.96
  Q 736.62 443.61 753.17 440.32
  Q 756.80 439.60 759.02 439.32
  C 764.35 438.65 768.68 436.18 774.20 434.18
  Q 778.83 432.51 785.91 430.37
  Q 792.37 428.42 797.19 425.64
  Q 808.34 419.22 816.60 412.35
  Q 820.19 409.38 822.98 405.82
  L 825.87 402.64
  A 0.30 0.30 0.0 0 1 826.36 402.96
  Q 824.26 407.61 822.72 412.56
  C 819.63 422.43 815.44 431.21 809.32 439.52
  Z"
/>
<path fill="#171e3e" d="
  M 796.13 402.96
  Q 793.99 405.28 789.57 412.27
  C 788.65 413.72 785.59 416.59 783.66 418.09
  C 778.97 421.73 775.06 424.64 772.06 428.60
  A 1.01 1.01 0.0 0 1 771.23 429.01
  L 764.70 428.96
  L 771.68 427.44
  A 0.34 0.34 0.0 0 0 771.62 426.77
  L 752.38 425.66
  A 5.47 5.11 -32.2 0 1 750.97 425.39
  Q 742.20 422.39 733.74 417.67
  A 0.40 0.40 0.0 0 1 733.94 416.92
  Q 746.88 417.08 759.55 417.03
  C 773.26 416.97 785.19 411.95 796.13 402.96
  Z"
/>
<path fill="#2a335b" d="
  M 587.84 408.36
  C 586.15 410.85 583.82 412.36 582.89 415.82
  Q 581.88 419.54 582.55 425.24
  Q 582.88 428.11 585.58 431.16
  C 589.25 435.29 597.73 435.65 602.25 433.71
  C 604.26 432.84 606.67 432.16 608.43 431.19
  Q 609.91 430.37 620.45 425.43
  Q 627.68 422.04 632.92 420.94
  Q 643.16 418.79 651.15 418.82
  A 1.11 1.11 0.0 0 1 652.23 420.20
  L 650.27 428.13
  A 1.09 1.09 0.0 0 1 648.97 428.93
  C 647.06 428.62 644.53 427.91 641.98 427.90
  Q 638.41 427.90 629.89 428.19
  A 0.95 0.92 20.3 0 0 629.28 428.46
  L 628.99 428.75
  A 0.26 0.26 0.0 0 0 629.18 429.19
  C 636.82 428.99 642.26 428.43 648.66 432.47
  A 1.86 1.83 5.5 0 1 649.36 433.30
  C 651.58 438.61 653.99 443.26 660.22 444.23
  Q 665.51 445.05 670.13 441.06
  C 673.44 438.19 675.21 433.02 677.22 429.01
  A 6.09 5.21 82.2 0 1 677.85 428.03
  C 680.23 425.09 681.74 422.70 684.48 420.41
  C 693.80 412.64 703.68 411.99 715.34 414.52
  Q 720.46 415.63 727.00 416.69
  A 0.68 0.67 -43.5 0 1 726.96 418.03
  Q 718.24 419.03 709.57 422.09
  Q 699.99 425.47 694.16 430.00
  Q 690.29 433.01 685.95 438.10
  Q 679.36 445.82 678.34 447.17
  A 5.23 5.14 0.5 0 1 677.21 448.26
  C 671.26 452.48 662.72 455.33 656.78 449.49
  Q 653.76 446.53 651.85 444.57
  C 647.27 439.86 642.96 437.65 636.47 437.32
  Q 625.29 436.76 616.47 440.43
  Q 614.26 441.36 602.98 446.98
  Q 600.83 448.06 598.44 448.35
  Q 585.94 449.85 578.11 440.26
  C 574.06 435.30 570.42 427.32 573.04 421.12
  Q 574.85 416.86 577.07 414.80
  C 580.24 411.87 583.51 409.29 587.62 408.06
  A 0.20 0.20 0.0 0 1 587.84 408.36
  Z"
/>
<path fill="#171e3e" d="
  M 685.59 451.70
  A 0.95 0.95 0.0 0 1 685.05 450.23
  C 688.22 445.78 692.67 442.51 697.21 439.42
  C 703.44 435.19 714.17 434.40 721.02 439.14
  A 0.82 0.82 0.0 0 1 720.83 440.58
  Q 714.51 442.88 706.75 444.97
  C 700.21 446.73 693.72 453.81 685.59 451.70
  Z"
/>
<path fill="#2a335b" d="
  M 622.32 445.98
  Q 612.17 448.21 603.22 453.97
  A 0.33 0.33 0.0 0 1 602.78 453.49
  C 604.47 451.31 607.81 449.47 612.00 446.69
  A 5.52 5.52 0.0 0 1 613.37 446.04
  Q 617.21 444.81 622.28 445.34
  A 0.33 0.32 41.6 0 1 622.32 445.98
  Z"
/>
<path fill="#2a335b" d="
  M 600.84 455.30
  Q 600.79 455.64 600.63 455.78
  A 0.25 0.25 0.0 0 1 600.22 455.55
  Q 600.23 455.52 600.45 455.16
  A 0.21 0.21 0.0 0 1 600.84 455.30
  Z"
/>
<path fill="#171e3e" d="
  M 590.31 506.45
  A 0.55 0.55 0.0 0 1 589.46 505.80
  C 594.32 495.69 599.32 487.63 609.07 481.57
  Q 609.70 481.18 610.80 479.94
  A 2.14 2.11 -78.1 0 1 611.72 479.33
  Q 624.63 474.95 636.17 481.37
  C 647.00 487.39 656.02 498.93 670.19 499.01
  C 672.29 499.02 674.93 498.30 676.99 498.17
  A 0.45 0.45 0.0 0 1 677.34 498.94
  C 675.35 500.90 671.82 502.57 668.91 503.05
  Q 657.60 504.94 648.49 498.50
  Q 639.78 492.35 637.83 491.07
  Q 623.12 481.42 608.34 490.31
  C 600.73 494.89 596.07 498.63 592.03 504.77
  Q 591.77 505.16 590.31 506.45
  Z"
/>
<path fill="#171e3e" d="
  M 547.68 493.04
  Q 549.41 488.31 554.81 488.88
  A 0.31 0.31 0.0 0 1 554.94 489.45
  Q 551.44 491.67 551.21 495.71
  Q 552.67 507.85 564.76 507.81
  C 572.52 507.78 576.90 502.70 581.32 496.10
  Q 584.30 491.64 590.06 488.03
  Q 599.12 482.35 607.37 480.08
  A 0.52 0.51 -17.3 0 1 607.99 480.40
  L 608.00 480.41
  A 0.46 0.46 0.0 0 1 607.78 480.97
  Q 598.05 485.98 593.60 492.13
  Q 591.08 495.62 587.63 503.36
  Q 586.36 506.21 580.37 513.46
  Q 579.57 514.43 578.52 516.05
  Q 577.18 518.12 574.50 518.50
  Q 557.18 521.01 548.44 506.76
  A 4.01 3.99 20.4 0 1 548.03 505.87
  Q 546.20 500.31 547.68 493.04
  Z"
/>
<path fill="#171e3e" d="
  M 797.48 482.06
  C 791.35 490.61 779.93 490.77 770.60 491.21
  Q 765.51 491.45 761.74 492.73
  C 753.61 495.48 746.65 504.33 742.77 507.77
  C 739.25 510.88 735.71 513.70 731.35 514.52
  C 722.82 516.11 713.28 511.60 705.95 508.25
  C 696.66 504.01 690.49 506.59 681.91 510.67
  C 670.74 515.98 659.19 514.51 649.63 506.51
  A 0.32 0.31 -48.5 0 1 649.61 506.05
  L 649.81 505.86
  A 0.22 0.22 0.0 0 1 650.08 505.82
  Q 656.36 509.36 659.32 510.18
  Q 669.80 513.08 678.57 508.04
  C 687.45 502.93 693.01 498.92 703.29 501.95
  Q 703.64 502.06 712.66 505.78
  C 720.53 509.03 731.85 508.22 739.18 502.68
  C 747.80 496.18 756.16 488.69 766.91 488.98
  C 778.29 489.29 787.62 488.67 797.03 481.62
  A 0.32 0.32 0.0 0 1 797.48 482.06
  Z"
/>
<path fill="#171e3e" d="
  M 659.95 531.61
  A 0.48 0.48 0.0 0 1 660.05 532.55
  C 651.98 534.59 643.90 536.66 635.63 534.16
  C 629.93 532.44 625.96 527.16 623.06 521.73
  C 618.17 512.57 617.20 494.64 630.12 491.05
  A 0.89 0.89 0.0 0 1 631.08 492.43
  C 621.49 505.62 626.79 522.61 641.41 529.02
  C 646.65 531.32 654.70 531.42 659.95 531.61
  Z"
/>
<path fill="#171e3e" d="
  M 771.85 543.22
  C 783.03 535.22 795.48 530.18 808.78 526.36
  C 815.74 524.36 821.86 521.08 829.09 517.41
  Q 833.86 514.99 837.47 518.25
  A 1.85 1.85 0.0 0 1 837.69 520.75
  C 830.68 529.80 820.24 535.20 808.97 538.49
  Q 798.87 541.44 794.32 542.30
  Q 783.15 544.41 778.40 545.74
  Q 775.86 546.44 772.35 545.67
  A 1.37 1.37 0.0 0 1 771.85 543.22
  Z"
/>
<path fill="#171e3e" d="
  M 620.78 551.71
  L 621.62 554.71
  L 621.54 555.25
  Q 620.60 553.75 620.78 551.71
  Z"
/>
<path fill="#0c1225" d="
  M 622.51 560.77
  Q 622.05 558.40 622.04 556.15
  Q 622.04 555.89 621.54 555.25
  L 621.62 554.71
  Q 623.86 556.95 625.03 559.10
  Q 625.30 559.58 624.76 559.88
  A 0.57 0.56 53.2 0 1 624.09 559.78
  Q 623.85 559.54 623.50 559.35
  Q 623.15 559.16 622.97 559.93
  Q 622.84 560.47 622.51 560.77
  Z"
/>
<path fill="#171e3e" d="
  M 621.47 556.21
  L 621.68 557.15
  Q 620.67 558.42 621.47 556.21
  Z"
/>
<path fill="#0c1225" d="
  M 622.51 560.77
  C 622.51 560.56 622.46 560.84 622.47 560.80
  Q 622.51 560.60 622.51 560.77
  Z"
/>
</svg>
