<?xml version="1.0" encoding="UTF-8" standalone="no"?>
<!DOCTYPE svg PUBLIC "-//W3C//DTD SVG 1.1//EN" "http://www.w3.org/Graphics/SVG/1.1/DTD/svg11.dtd">
<svg xmlns="http://www.w3.org/2000/svg" version="1.1" viewBox="0.00 0.00 1280.00 1280.00">
<g stroke-width="2.00" fill="none" stroke-linecap="butt">
<path stroke="#65351d" vector-effect="non-scaling-stroke" d="
  M 906.81 492.22
  L 909.02 498.43
  A 4.64 4.60 -43.9 0 1 908.94 501.75
  C 907.78 504.53 907.19 507.13 905.74 510.37
  Q 898.20 527.20 890.51 541.42
  C 886.34 549.12 882.45 557.32 878.33 565.25"
/>
<path stroke="#65351d" vector-effect="non-scaling-stroke" d="
  M 833.16 530.67
  L 832.65 526.06
  A 2.39 2.23 51.2 0 1 832.71 525.26
  Q 833.96 520.76 836.60 516.88
  A 2.34 2.22 73.2 0 0 836.87 516.34
  L 840.70 505.05
  A 3.65 3.51 59.8 0 0 840.87 504.35
  Q 843.28 487.07 843.67 469.78"
/>
</g>
<path fill="#c76938" d="
  M 906.81 492.22
  L 909.02 498.43
  A 4.64 4.60 -43.9 0 1 908.94 501.75
  C 907.78 504.53 907.19 507.13 905.74 510.37
  Q 898.20 527.20 890.51 541.42
  C 886.34 549.12 882.45 557.32 878.33 565.25
  C 861.65 564.88 846.34 551.48 837.25 538.26
  Q 834.42 534.15 833.16 530.67
  L 832.65 526.06
  A 2.39 2.23 51.2 0 1 832.71 525.26
  Q 833.96 520.76 836.60 516.88
  A 2.34 2.22 73.2 0 0 836.87 516.34
  L 840.70 505.05
  A 3.65 3.51 59.8 0 0 840.87 504.35
  Q 843.28 487.07 843.67 469.78
  Q 855.92 465.27 868.43 468.35
  Q 875.89 470.19 882.77 473.42
  Q 889.18 476.42 895.54 481.62
  Q 901.73 486.69 906.81 492.22
  Z"
/>
<path fill="#020101" d="
  M 843.67 469.78
  Q 843.28 487.07 840.87 504.35
  A 3.65 3.51 59.8 0 1 840.70 505.05
  L 836.87 516.34
  A 2.34 2.22 73.2 0 1 836.60 516.88
  Q 833.96 520.76 832.71 525.26
  A 2.39 2.23 51.2 0 0 832.65 526.06
  L 833.16 530.67
  Q 830.87 524.90 833.65 518.67
  C 835.64 514.20 836.88 511.71 837.75 507.98
  Q 839.14 502.06 839.97 493.01
  Q 841.02 481.72 841.58 472.32
  A 1.23 1.21 69.4 0 1 841.92 471.55
  L 843.67 469.78
  Z"
/>
<path fill="#020101" d="
  M 878.33 565.25
  C 882.45 557.32 886.34 549.12 890.51 541.42
  Q 898.20 527.20 905.74 510.37
  C 907.19 507.13 907.78 504.53 908.94 501.75
  A 4.64 4.60 -43.9 0 0 909.02 498.43
  L 906.81 492.22
  Q 908.20 495.38 909.20 497.54
  C 910.18 499.64 910.48 500.80 909.40 502.77
  C 907.73 505.81 907.03 510.09 905.57 513.85
  C 898.71 531.52 889.66 548.65 880.78 564.37
  A 1.02 1.02 0.0 0 1 880.39 564.76
  Q 879.38 565.36 878.33 565.25
  Z"
/>
</svg>
